<?xml version="1.0" standalone="no"?>
 <!DOCTYPE svg PUBLIC "-//W3C//DTD SVG 1.1//EN" 
 "http://www.w3.org/Graphics/SVG/1.1/DTD/svg11.dtd"> 
<svg
  xmlns:svg="http://www.w3.org/2000/svg"
  xmlns="http://www.w3.org/2000/svg"
  xmlns:xlink="http://www.w3.org/1999/xlink"
  version="1.1"
  width="29.700220cm" height="21.000720cm" viewBox="0 0 297002200 210007200">
<title>SVG Picture created as F14-DDP-F_Mask.svg date 2022/09/13 17:56:38 </title>
  <desc>Picture generated by PCBNEW </desc>
<g style="fill:#000000; fill-opacity:1.000000;stroke:#000000; stroke-opacity:1.000000;
stroke-linecap:round; stroke-linejoin:round;"
 transform="translate(0 0) scale(1 1)">
</g>
<g style="fill:#000000; fill-opacity:0.0; 
stroke:#000000; stroke-width:0.000000; stroke-opacity:1; 
stroke-linecap:round; stroke-linejoin:round;">
</g>
<g style="fill:#000000; fill-opacity:0.0; 
stroke:#000000; stroke-width:500000.000000; stroke-opacity:1; 
stroke-linecap:round; stroke-linejoin:round;">
<text x="207168750.000000" y="58829750.000000"
textLength="18047381.000000" font-size="3066666.000000" lengthAdjust="spacingAndGlyphs"
text-anchor="start" opacity="0">F-14 DDP</text>
<g class="stroked-text"><desc>F-14 DDP</desc>
<path d="M208808035 57515464
L208041369 57515464
" />
<path d="M208041369 58720226
L208041369 56420226
L209136607 56420226
" />
<path d="M210012797 57844035
L211765178 57844035
" />
<path d="M214065178 58720226
L212750892 58720226
" />
<path d="M213408035 58720226
L213408035 56420226
L213188988 56748797
L212969940 56967845
L212750892 57077369
" />
<path d="M216036607 57186892
L216036607 58720226
" />
<path d="M215488988 56310702
L214941369 57953559
L216365178 57953559
" />
<path d="M218993750 58720226
L218993750 56420226
L219541369 56420226
L219869940 56529750
L220088988 56748797
L220198511 56967845
L220308035 57405940
L220308035 57734511
L220198511 58172607
L220088988 58391654
L219869940 58610702
L219541369 58720226
L218993750 58720226
" />
<path d="M221293750 58720226
L221293750 56420226
L221841369 56420226
L222169940 56529750
L222388988 56748797
L222498511 56967845
L222608035 57405940
L222608035 57734511
L222498511 58172607
L222388988 58391654
L222169940 58610702
L221841369 58720226
L221293750 58720226
" />
<path d="M223593750 58720226
L223593750 56420226
L224469940 56420226
L224688988 56529750
L224798511 56639273
L224908035 56858321
L224908035 57186892
L224798511 57405940
L224688988 57515464
L224469940 57624988
L223593750 57624988
" />
</g><text x="207168750.000000" y="62532750.000000"
textLength="26716667.000000" font-size="3066666.000000" lengthAdjust="spacingAndGlyphs"
text-anchor="start" opacity="0">by NibbledPots</text>
<g class="stroked-text"><desc>by NibbledPots</desc>
<path d="M208041369 62423226
L208041369 60123226
" />
<path d="M208041369 60999416
L208260416 60889892
L208698511 60889892
L208917559 60999416
L209027083 61108940
L209136607 61327988
L209136607 61985130
L209027083 62204178
L208917559 62313702
L208698511 62423226
L208260416 62423226
L208041369 62313702
" />
<path d="M209903273 60889892
L210450892 62423226
" />
<path d="M210998511 60889892
L210450892 62423226
L210231845 62970845
L210122321 63080369
L209903273 63189892
" />
<path d="M213627083 62423226
L213627083 60123226
L214941369 62423226
L214941369 60123226
" />
<path d="M216036607 62423226
L216036607 60889892
" />
<path d="M216036607 60123226
L215927083 60232750
L216036607 60342273
L216146130 60232750
L216036607 60123226
L216036607 60342273
" />
<path d="M217131845 62423226
L217131845 60123226
" />
<path d="M217131845 60999416
L217350892 60889892
L217788988 60889892
L218008035 60999416
L218117559 61108940
L218227083 61327988
L218227083 61985130
L218117559 62204178
L218008035 62313702
L217788988 62423226
L217350892 62423226
L217131845 62313702
" />
<path d="M219212797 62423226
L219212797 60123226
" />
<path d="M219212797 60999416
L219431845 60889892
L219869940 60889892
L220088988 60999416
L220198511 61108940
L220308035 61327988
L220308035 61985130
L220198511 62204178
L220088988 62313702
L219869940 62423226
L219431845 62423226
L219212797 62313702
" />
<path d="M221622321 62423226
L221403273 62313702
L221293750 62094654
L221293750 60123226
" />
<path d="M223374702 62313702
L223155654 62423226
L222717559 62423226
L222498511 62313702
L222388988 62094654
L222388988 61218464
L222498511 60999416
L222717559 60889892
L223155654 60889892
L223374702 60999416
L223484226 61218464
L223484226 61437511
L222388988 61656559
" />
<path d="M225455654 62423226
L225455654 60123226
" />
<path d="M225455654 62313702
L225236607 62423226
L224798511 62423226
L224579464 62313702
L224469940 62204178
L224360416 61985130
L224360416 61327988
L224469940 61108940
L224579464 60999416
L224798511 60889892
L225236607 60889892
L225455654 60999416
" />
<path d="M226550892 62423226
L226550892 60123226
L227427083 60123226
L227646130 60232750
L227755654 60342273
L227865178 60561321
L227865178 60889892
L227755654 61108940
L227646130 61218464
L227427083 61327988
L226550892 61327988
" />
<path d="M229179464 62423226
L228960416 62313702
L228850892 62204178
L228741369 61985130
L228741369 61327988
L228850892 61108940
L228960416 60999416
L229179464 60889892
L229508035 60889892
L229727083 60999416
L229836607 61108940
L229946130 61327988
L229946130 61985130
L229836607 62204178
L229727083 62313702
L229508035 62423226
L229179464 62423226
" />
<path d="M230603273 60889892
L231479464 60889892
" />
<path d="M230931845 60123226
L230931845 62094654
L231041369 62313702
L231260416 62423226
L231479464 62423226
" />
<path d="M232136607 62313702
L232355654 62423226
L232793750 62423226
L233012797 62313702
L233122321 62094654
L233122321 61985130
L233012797 61766083
L232793750 61656559
L232465178 61656559
L232246130 61547035
L232136607 61327988
L232136607 61218464
L232246130 60999416
L232465178 60889892
L232793750 60889892
L233012797 60999416
" />
</g></g>
<g style="fill:#000000; fill-opacity:1.0; 
stroke:#000000; stroke-width:1.000000; stroke-opacity:1; 
stroke-linecap:round; stroke-linejoin:round;">
<path style="fill:#000000; fill-opacity:1.0; 
stroke:#000000; stroke-width:1.000000; stroke-opacity:1; 
stroke-linecap:round; stroke-linejoin:round;fill-rule:evenodd;"
d="M 211188247.000000,42373192.000000
211195928.000000,42388553.000000
211203186.000000,42417239.000000
211210266.000000,42462694.000000
211217410.000000,42528358.000000
211224864.000000,42617674.000000
211232871.000000,42734083.000000
211241675.000000,42881026.000000
211251520.000000,43061946.000000
211262650.000000,43280284.000000
211275309.000000,43539481.000000
211289740.000000,43842980.000000
211300055.000000,44062816.000000
211317713.000000,44442078.000000
211333008.000000,44774630.000000
211346041.000000,45063703.000000
211356913.000000,45312527.000000
211365726.000000,45524332.000000
211372582.000000,45702347.000000
211377583.000000,45849803.000000
211380828.000000,45969930.000000
211382421.000000,46065958.000000
211382463.000000,46141116.000000
211381054.000000,46198635.000000
211378297.000000,46241745.000000
211374294.000000,46273676.000000
211370160.000000,46293749.000000
211362392.000000,46333405.000000
211372028.000000,46353851.000000
211409939.000000,46361494.000000
211486998.000000,46362737.000000
211487273.000000,46362737.000000
211625367.000000,46386341.000000
211764605.000000,46451996.000000
211896532.000000,46552680.000000
212012694.000000,46681372.000000
212104637.000000,46831052.000000
212134739.000000,46900430.000000
212144187.000000,46925837.000000
212154544.000000,46942286.000000
212172015.000000,46947317.000000
212202804.000000,46938473.000000
212253117.000000,46913296.000000
212329158.000000,46869327.000000
212437132.000000,46804109.000000
212547481.000000,46736925.000000
212822752.000000,46569466.000000
214236644.000000,46400627.000000
214497180.000000,46369386.000000
214742736.000000,46339689.000000
214968832.000000,46312096.000000
215170991.000000,46287164.000000
215344732.000000,46265454.000000
215485579.000000,46247523.000000
215589051.000000,46233929.000000
215650672.000000,46225233.000000
215666736.000000,46222254.000000
215707440.000000,46218603.000000
215783435.000000,46228109.000000
215882613.000000,46247880.000000
215992865.000000,46275023.000000
216102082.000000,46306646.000000
216198154.000000,46339856.000000
216248471.000000,46361233.000000
216352468.000000,46418192.000000
216413244.000000,46474142.000000
216436407.000000,46539035.000000
216427569.000000,46622824.000000
216417285.000000,46660694.000000
216373328.000000,46757291.000000
216303073.000000,46823281.000000
216195784.000000,46869261.000000
216155385.000000,46884660.000000
216074819.000000,46918056.000000
215957965.000000,46967733.000000
215808705.000000,47031973.000000
215630917.000000,47109060.000000
215428482.000000,47197277.000000
215205280.000000,47294906.000000
214965191.000000,47400231.000000
214712094.000000,47511536.000000
214449869.000000,47627102.000000
214182397.000000,47745215.000000
213913558.000000,47864155.000000
213647231.000000,47982208.000000
213387296.000000,48097655.000000
213137633.000000,48208781.000000
212902123.000000,48313868.000000
212684645.000000,48411199.000000
212489079.000000,48499058.000000
212319305.000000,48575727.000000
212179203.000000,48639490.000000
212072653.000000,48688630.000000
212003535.000000,48721430.000000
211975729.000000,48736173.000000
211975386.000000,48736757.000000
211975734.000000,48738579.000000
211974580.000000,48740422.000000
211973836.000000,48742083.000000
211975415.000000,48743357.000000
211981231.000000,48744039.000000
211993196.000000,48743926.000000
212013225.000000,48742812.000000
212043230.000000,48740494.000000
212085124.000000,48736766.000000
212140821.000000,48731425.000000
212212234.000000,48724265.000000
212301276.000000,48715083.000000
212409860.000000,48703675.000000
212539900.000000,48689835.000000
212693308.000000,48673359.000000
212871999.000000,48654043.000000
213077884.000000,48631683.000000
213312879.000000,48606073.000000
213578894.000000,48577010.000000
213877845.000000,48544290.000000
214211643.000000,48507707.000000
214582203.000000,48467057.000000
214991437.000000,48422136.000000
215441259.000000,48372740.000000
215933582.000000,48318663.000000
216470319.000000,48259702.000000
217053383.000000,48195652.000000
217547534.000000,48141374.000000
218178746.000000,48072098.000000
218761915.000000,48008216.000000
219298733.000000,47949552.000000
219790897.000000,47895931.000000
220240098.000000,47847179.000000
220648033.000000,47803119.000000
221016394.000000,47763576.000000
221346876.000000,47728376.000000
221641173.000000,47697343.000000
221900979.000000,47670301.000000
222127988.000000,47647076.000000
222323894.000000,47627492.000000
222490392.000000,47611375.000000
222629175.000000,47598548.000000
222741937.000000,47588836.000000
222830374.000000,47582065.000000
222896177.000000,47578059.000000
222941043.000000,47576643.000000
222966665.000000,47577642.000000
222974417.000000,47580027.000000
222990852.000000,47631272.000000
222970656.000000,47704664.000000
222912591.000000,47803687.000000
222877389.000000,47852720.000000
222838955.000000,47902691.000000
222796142.000000,47954756.000000
222743822.000000,48014511.000000
222676864.000000,48087551.000000
222590140.000000,48179473.000000
222478520.000000,48295873.000000
222338078.000000,48441105.000000
222184160.000000,48572143.000000
222010226.000000,48673013.000000
221830792.000000,48735778.000000
221781570.000000,48745439.000000
221747325.000000,48752557.000000
221666706.000000,48770267.000000
221542130.000000,48798022.000000
221376013.000000,48835274.000000
221170773.000000,48881475.000000
220928827.000000,48936078.000000
220652592.000000,48998534.000000
220344485.000000,49068297.000000
220006923.000000,49144818.000000
219642322.000000,49227551.000000
219253101.000000,49315946.000000
218841675.000000,49409458.000000
218410463.000000,49507537.000000
217961880.000000,49609637.000000
217498345.000000,49715210.000000
217022273.000000,49823708.000000
216969155.000000,49835818.000000
216324258.000000,49982997.000000
215727775.000000,50119437.000000
215179264.000000,50245241.000000
214678282.000000,50360513.000000
214224386.000000,50465357.000000
213817132.000000,50559877.000000
213456078.000000,50644177.000000
213140781.000000,50718362.000000
212870797.000000,50782534.000000
212645683.000000,50836799.000000
212464997.000000,50881259.000000
212328296.000000,50916020.000000
212235135.000000,50941185.000000
212185073.000000,50956857.000000
212176939.000000,50960540.000000
212142388.000000,50986980.000000
212074481.000000,51043146.000000
211977266.000000,51125545.000000
211854793.000000,51230687.000000
211711113.000000,51355078.000000
211550275.000000,51495226.000000
211376328.000000,51647639.000000
211197149.000000,51805447.000000
210297260.000000,52600000.000000
210129529.000000,53025000.000000
210044770.000000,53237883.000000
209974301.000000,53409722.000000
209915154.000000,53546405.000000
209864364.000000,53653822.000000
209818965.000000,53737863.000000
209775990.000000,53804416.000000
209732474.000000,53859372.000000
209685451.000000,53908620.000000
209683638.000000,53910378.000000
209644302.000000,53946927.000000
209605062.000000,53978031.000000
209559193.000000,54006666.000000
209499968.000000,54035813.000000
209420661.000000,54068448.000000
209314545.000000,54107551.000000
209174894.000000,54156100.000000
208994982.000000,54217073.000000
208978342.000000,54222680.000000
208391543.000000,54420360.000000
208247093.000000,54628930.000000
208183675.000000,54716496.000000
208128098.000000,54785951.000000
208087742.000000,54828463.000000
208072845.000000,54837475.000000
208037989.000000,54843833.000000
207965862.000000,54861118.000000
207867343.000000,54886612.000000
207764672.000000,54914450.000000
207486296.000000,54991450.000000
207346900.000000,55222827.000000
207277246.000000,55345502.000000
207207938.000000,55479445.000000
207149866.000000,55603167.000000
207129381.000000,55652102.000000
207085283.000000,55756729.000000
207039257.000000,55854573.000000
206999978.000000,55927398.000000
206993601.000000,55937500.000000
206950449.000000,56007148.000000
206897117.000000,56098882.000000
206854891.000000,56175000.000000
206740454.000000,56386776.000000
206647469.000000,56558840.000000
206573617.000000,56695479.000000
206516579.000000,56800981.000000
206474035.000000,56879634.000000
206443667.000000,56935727.000000
206423155.000000,56973546.000000
206410180.000000,56997381.000000
206405215.000000,57006451.000000
206373725.000000,57068829.000000
206328896.000000,57163966.000000
206276741.000000,57278511.000000
206223269.000000,57399111.000000
206174491.000000,57512414.000000
206141595.000000,57592049.000000
206097654.000000,57681911.000000
206030609.000000,57795210.000000
205949613.000000,57917157.000000
205888239.000000,58001428.000000
205771402.000000,58160477.000000
205683586.000000,58293832.000000
205619074.000000,58411798.000000
205572147.000000,58524676.000000
205541132.000000,58626934.000000
205507792.000000,58735188.000000
205464500.000000,58851405.000000
205442689.000000,58902216.000000
205400184.000000,58983909.000000
205336574.000000,59092453.000000
205258341.000000,59218087.000000
205171968.000000,59351049.000000
205083936.000000,59481577.000000
205000726.000000,59599910.000000
204928820.000000,59696285.000000
204874701.000000,59760940.000000
204867851.000000,59767961.000000
204819920.000000,59824076.000000
204756570.000000,59910263.000000
204687264.000000,60013211.000000
204640651.000000,60087500.000000
204485502.000000,60330504.000000
204335537.000000,60538396.000000
204190143.000000,60714290.000000
204127345.000000,60788166.000000
204048642.000000,60884703.000000
203968122.000000,60986533.000000
203944085.000000,61017645.000000
203880309.000000,61096307.000000
203797511.000000,61191910.000000
203701752.000000,61298147.000000
203599095.000000,61408709.000000
203495600.000000,61517290.000000
203397329.000000,61617580.000000
203310344.000000,61703273.000000
203240705.000000,61768061.000000
203194475.000000,61805636.000000
203180272.000000,61812500.000000
203151443.000000,61829243.000000
203096948.000000,61874307.000000
203025778.000000,61939939.000000
202977283.000000,61987500.000000
202881162.000000,62078845.000000
202805844.000000,62135118.000000
202741089.000000,62160468.000000
202676656.000000,62159042.000000
202607737.000000,62137197.000000
202563039.000000,62098947.000000
202510498.000000,62022510.000000
202454919.000000,61918078.000000
202401108.000000,61795840.000000
202353871.000000,61665988.000000
202318013.000000,61538713.000000
202311483.000000,61508949.000000
202295603.000000,61421901.000000
202285018.000000,61335642.000000
202279312.000000,61239495.000000
202278070.000000,61122787.000000
202280877.000000,60974842.000000
202285371.000000,60837500.000000
202295116.000000,60602963.000000
202306835.000000,60404128.000000
202322188.000000,60226697.000000
202342834.000000,60056373.000000
202370430.000000,59878858.000000
202406637.000000,59679855.000000
202438546.000000,59517345.000000
202472322.000000,59342687.000000
202495382.000000,59206875.000000
202508892.000000,59100182.000000
202514020.000000,59012882.000000
202511931.000000,58935251.000000
202510518.000000,58917345.000000
202507138.000000,58786417.000000
202522984.000000,58654071.000000
202546069.000000,58550000.000000
202576709.000000,58427893.000000
202609133.000000,58298473.000000
202636422.000000,58189354.000000
202636885.000000,58187500.000000
202691884.000000,57986457.000000
202754709.000000,57788912.000000
202820815.000000,57607708.000000
202885655.000000,57455689.000000
202920044.000000,57387500.000000
203024113.000000,57188898.000000
203101060.000000,57021089.000000
203153966.000000,56874994.000000
203185911.000000,56741537.000000
203199977.000000,56611640.000000
203201286.000000,56558891.000000
203209071.000000,56448974.000000
203230035.000000,56303346.000000
203261590.000000,56133749.000000
203301148.000000,55951925.000000
203346120.000000,55769617.000000
203393917.000000,55598567.000000
203441951.000000,55450518.000000
203451247.000000,55425000.000000
203491958.000000,55314845.000000
203525900.000000,55221333.000000
203549395.000000,55154713.000000
203558673.000000,55125729.000000
203536345.000000,55116114.000000
203470151.000000,55103658.000000
203366142.000000,55089178.000000
203230368.000000,55073491.000000
203068879.000000,55057413.000000
203019353.000000,55052906.000000
202834339.000000,55036115.000000
202694036.000000,55021879.000000
202593291.000000,55008454.000000
202526951.000000,54994093.000000
202489864.000000,54977051.000000
202476876.000000,54955581.000000
202482834.000000,54927937.000000
202502587.000000,54892374.000000
202510135.000000,54880370.000000
202532742.000000,54834561.000000
202566534.000000,54753849.000000
202606492.000000,54650640.000000
202638369.000000,54563457.000000
202679685.000000,54443796.000000
202704503.000000,54359889.000000
202714919.000000,54301071.000000
202713026.000000,54256673.000000
202704626.000000,54225957.000000
202694046.000000,54187425.000000
202673654.000000,54104959.000000
202644582.000000,53983416.000000
202607962.000000,53827652.000000
202564927.000000,53642524.000000
202516609.000000,53432887.000000
202464139.000000,53203598.000000
202408652.000000,52959513.000000
202386719.000000,52862597.000000
202331013.000000,52616745.000000
202278455.000000,52385933.000000
202230096.000000,52174699.000000
202186988.000000,51987584.000000
202150182.000000,51829126.000000
202120730.000000,51703865.000000
202099683.000000,51616340.000000
202088093.000000,51571090.000000
202086271.000000,51565753.000000
202080851.000000,51563381.000000
202067125.000000,51560094.000000
202042853.000000,51555595.000000
202005793.000000,51549589.000000
201953706.000000,51541780.000000
201884351.000000,51531873.000000
201795487.000000,51519572.000000
201684874.000000,51504582.000000
201550272.000000,51486607.000000
201389439.000000,51465351.000000
201200136.000000,51440520.000000
200980122.000000,51411817.000000
200727156.000000,51378947.000000
200438997.000000,51341614.000000
200113407.000000,51299523.000000
199748143.000000,51252379.000000
199340965.000000,51199886.000000
198889633.000000,51141747.000000
198391907.000000,51077669.000000
198152637.000000,51046873.000000
195068926.000000,50650009.000000
195003657.000000,50530206.000000
194975925.000000,50476884.000000
194958116.000000,50430622.000000
194948844.000000,50379402.000000
194946722.000000,50311207.000000
194950364.000000,50214018.000000
194955943.000000,50116568.000000
194965506.000000,49992798.000000
194978079.000000,49880787.000000
194991936.000000,49793837.000000
195003716.000000,49748866.000000
195033934.000000,49675000.000000
199736718.000000,49511894.000000
200310356.000000,49492027.000000
200836111.000000,49473891.000000
201316118.000000,49457429.000000
201752511.000000,49442585.000000
202147425.000000,49429304.000000
202502993.000000,49417529.000000
202821351.000000,49407206.000000
203104633.000000,49398276.000000
203354973.000000,49390686.000000
203574506.000000,49384379.000000
203765366.000000,49379299.000000
203929688.000000,49375390.000000
204069606.000000,49372596.000000
204187255.000000,49370862.000000
204284768.000000,49370131.000000
204364282.000000,49370348.000000
204427929.000000,49371456.000000
204477845.000000,49373400.000000
204516163.000000,49376124.000000
204545019.000000,49379572.000000
204566547.000000,49383688.000000
204572583.000000,49385231.000000
204705665.000000,49421674.000000
204697706.000000,49516347.000000
204698454.000000,49577926.000000
204710244.000000,49612608.000000
204714772.000000,49615017.000000
204743312.000000,49598121.000000
204789203.000000,49549498.000000
204844327.000000,49480463.000000
204900570.000000,49402331.000000
204949815.000000,49326420.000000
204983947.000000,49264043.000000
204994849.000000,49226518.000000
204994497.000000,49225000.000000
204973219.000000,49205533.000000
204915500.000000,49159881.000000
204825470.000000,49091131.000000
204707262.000000,49002372.000000
204565006.000000,48896694.000000
204402836.000000,48777186.000000
204224882.000000,48646936.000000
204089323.000000,48548254.000000
203863917.000000,48384284.000000
203675884.000000,48246495.000000
203521985.000000,48131848.000000
203398982.000000,48037302.000000
203303635.000000,47959815.000000
203232707.000000,47896348.000000
203182959.000000,47843859.000000
203151151.000000,47799309.000000
203134046.000000,47759656.000000
203128405.000000,47721860.000000
203130988.000000,47682880.000000
203135971.000000,47653183.000000
203157089.000000,47591831.000000
203201889.000000,47531601.000000
203279689.000000,47460397.000000
203292832.000000,47449607.000000
203400632.000000,47371734.000000
203526053.000000,47296512.000000
203656921.000000,47229778.000000
203781063.000000,47177364.000000
203886305.000000,47145105.000000
203943773.000000,47137635.000000
203990095.000000,47135745.000000
204078383.000000,47130325.000000
204202608.000000,47121849.000000
204356744.000000,47110791.000000
204534765.000000,47097625.000000
204730642.000000,47082825.000000
204938348.000000,47066865.000000
205151858.000000,47050218.000000
205365142.000000,47033359.000000
205572175.000000,47016762.000000
205766930.000000,47000900.000000
205943378.000000,46986248.000000
206095493.000000,46973279.000000
206217248.000000,46962468.000000
206302615.000000,46954288.000000
206345568.000000,46949214.000000
206348928.000000,46948501.000000
206355307.000000,46938315.000000
206360794.000000,46910122.000000
206365435.000000,46860899.000000
206369280.000000,46787620.000000
206372374.000000,46687263.000000
206374766.000000,46556804.000000
206376504.000000,46393219.000000
206377634.000000,46193485.000000
206378204.000000,45954577.000000
206378262.000000,45673473.000000
206377856.000000,45347149.000000
206377426.000000,45135894.000000
206373345.000000,43333715.000000
206455808.000000,43171410.000000
206553371.000000,43018209.000000
206673316.000000,42885802.000000
206761873.000000,42810289.000000
206827799.000000,42769825.000000
206874265.000000,42767061.000000
206904444.000000,42804649.000000
206921506.000000,42885241.000000
206928625.000000,43011488.000000
206929452.000000,43099933.000000
206930120.000000,43160218.000000
206932589.000000,43221553.000000
206937553.000000,43288172.000000
206945708.000000,43364307.000000
206957748.000000,43454190.000000
206974369.000000,43562053.000000
206996265.000000,43692130.000000
207024132.000000,43848653.000000
207058665.000000,44035855.000000
207100558.000000,44257967.000000
207150508.000000,44519223.000000
207209207.000000,44823854.000000
207231402.000000,44938683.000000
207293850.000000,45261714.000000
207347408.000000,45539276.000000
207392710.000000,45774987.000000
207430386.000000,45972465.000000
207461070.000000,46135327.000000
207485394.000000,46267191.000000
207503989.000000,46371676.000000
207517487.000000,46452399.000000
207526521.000000,46512978.000000
207531723.000000,46557030.000000
207533724.000000,46588174.000000
207533158.000000,46610028.000000
207530655.000000,46626210.000000
207528009.000000,46636379.000000
207535365.000000,46660758.000000
207579149.000000,46678213.000000
207646137.000000,46689561.000000
207789103.000000,46726975.000000
207943014.000000,46799593.000000
208092801.000000,46899900.000000
208131685.000000,46931698.000000
208200793.000000,46983687.000000
208245579.000000,46999026.000000
208262674.000000,46992452.000000
208314462.000000,46962445.000000
208400726.000000,46924632.000000
208507521.000000,46883865.000000
208620906.000000,46844997.000000
208726935.000000,46812878.000000
208811667.000000,46792363.000000
208851643.000000,46787500.000000
208897843.000000,46785369.000000
208933680.000000,46773700.000000
208968137.000000,46744576.000000
209010199.000000,46690083.000000
209068849.000000,46602304.000000
209078354.000000,46587738.000000
209151659.000000,46481661.000000
209209166.000000,46414276.000000
209256744.000000,46379202.000000
209276461.000000,46372263.000000
209350786.000000,46345979.000000
209406890.000000,46316711.000000
209543084.000000,46239443.000000
209655406.000000,46197594.000000
209734622.000000,46187499.000000
209796869.000000,46194834.000000
209852380.000000,46222889.000000
209917912.000000,46280738.000000
209930824.000000,46293750.000000
209989668.000000,46357355.000000
210019807.000000,46406182.000000
210029381.000000,46459292.000000
210027546.000000,46520221.000000
210019994.000000,46640443.000000
210237662.000000,46645221.000000
210455330.000000,46650000.000000
210471058.000000,46500000.000000
210475765.000000,46449981.000000
210484214.000000,46354619.000000
210496021.000000,46218401.000000
210510807.000000,46045812.000000
210528192.000000,45841342.000000
210547793.000000,45609475.000000
210569231.000000,45354699.000000
210592124.000000,45081501.000000
210616092.000000,44794367.000000
210630187.000000,44625000.000000
210773589.000000,42900000.000000
210868362.000000,42720158.000000
210938832.000000,42599914.000000
211012357.000000,42497576.000000
211082551.000000,42420365.000000
211143031.000000,42375505.000000
211179899.000000,42367717.000000
Z" /> 
<g >
<path style="fill:#000000; fill-opacity:1.0; 
stroke:#000000; stroke-width:1.000000; stroke-opacity:1; 
stroke-linecap:round; stroke-linejoin:round;fill-rule:evenodd;"
d="M 150618749.000000,75918749.000000
149418751.000000,75918749.000000
149418751.000000,75018751.000000
150618749.000000,75018751.000000
Z" /> 
<path style="fill:#000000; fill-opacity:1.0; 
stroke:#000000; stroke-width:1.000000; stroke-opacity:1; 
stroke-linecap:round; stroke-linejoin:round;fill-rule:evenodd;"
d="M 150618749.000000,72618749.000000
149418751.000000,72618749.000000
149418751.000000,71718751.000000
150618749.000000,71718751.000000
Z" /> 
</g>
<g >
</g>
<g style="fill:#000000; fill-opacity:1.0; 
stroke:#000000; stroke-width:1.000000; stroke-opacity:1; 
stroke-linecap:round; stroke-linejoin:round;">
<path style="fill:#000000; fill-opacity:1.0; 
stroke:#000000; stroke-width:1.000000; stroke-opacity:1; 
stroke-linecap:round; stroke-linejoin:round;fill-rule:evenodd;"
d="M 213324999.000000,75918749.000000
212125001.000000,75918749.000000
212125001.000000,75018751.000000
213324999.000000,75018751.000000
Z" /> 
<path style="fill:#000000; fill-opacity:1.0; 
stroke:#000000; stroke-width:1.000000; stroke-opacity:1; 
stroke-linecap:round; stroke-linejoin:round;fill-rule:evenodd;"
d="M 213324999.000000,72618749.000000
212125001.000000,72618749.000000
212125001.000000,71718751.000000
213324999.000000,71718751.000000
Z" /> 
</g>
<g >
</g>
<g style="fill:#000000; fill-opacity:1.0; 
stroke:#000000; stroke-width:1.000000; stroke-opacity:1; 
stroke-linecap:round; stroke-linejoin:round;">
<circle cx="184150000.000000" cy="49212500.000000" r="1993900.000000" /> 
</g>
<g style="fill:#000000; fill-opacity:1.0; 
stroke:#000000; stroke-width:21200.000000; stroke-opacity:1; 
stroke-linecap:round; stroke-linejoin:round;">
</g>
<g style="fill:#000000; fill-opacity:1.0; 
stroke:#000000; stroke-width:1.000000; stroke-opacity:1; 
stroke-linecap:round; stroke-linejoin:round;">
<circle cx="179070000.000000" cy="49212500.000000" r="875000.000000" /> 
</g>
<g style="fill:#000000; fill-opacity:1.0; 
stroke:#000000; stroke-width:21200.000000; stroke-opacity:1; 
stroke-linecap:round; stroke-linejoin:round;">
</g>
<g style="fill:#000000; fill-opacity:1.0; 
stroke:#000000; stroke-width:1.000000; stroke-opacity:1; 
stroke-linecap:round; stroke-linejoin:round;">
<circle cx="189230000.000000" cy="49212500.000000" r="875000.000000" /> 
</g>
<g style="fill:#000000; fill-opacity:1.0; 
stroke:#000000; stroke-width:21200.000000; stroke-opacity:1; 
stroke-linecap:round; stroke-linejoin:round;">
</g>
<g >
</g>
<g style="fill:#000000; fill-opacity:1.0; 
stroke:#000000; stroke-width:21200.000000; stroke-opacity:1; 
stroke-linecap:round; stroke-linejoin:round;">
</g>
<g style="fill:#000000; fill-opacity:1.0; 
stroke:#000000; stroke-width:1.000000; stroke-opacity:1; 
stroke-linecap:round; stroke-linejoin:round;">
<circle cx="209073750.000000" cy="73025000.000000" r="875000.000000" /> 
</g>
<g style="fill:#000000; fill-opacity:1.0; 
stroke:#000000; stroke-width:21200.000000; stroke-opacity:1; 
stroke-linecap:round; stroke-linejoin:round;">
</g>
<g style="fill:#000000; fill-opacity:1.0; 
stroke:#000000; stroke-width:1.000000; stroke-opacity:1; 
stroke-linecap:round; stroke-linejoin:round;">
<circle cx="203993750.000000" cy="73025000.000000" r="1993900.000000" /> 
</g>
<g style="fill:#000000; fill-opacity:1.0; 
stroke:#000000; stroke-width:21200.000000; stroke-opacity:1; 
stroke-linecap:round; stroke-linejoin:round;">
</g>
<g style="fill:#000000; fill-opacity:1.0; 
stroke:#000000; stroke-width:1.000000; stroke-opacity:1; 
stroke-linecap:round; stroke-linejoin:round;">
<circle cx="198913750.000000" cy="73025000.000000" r="875000.000000" /> 
</g>
<g style="fill:#000000; fill-opacity:1.0; 
stroke:#000000; stroke-width:21200.000000; stroke-opacity:1; 
stroke-linecap:round; stroke-linejoin:round;">
</g>
<g >
</g>
<g style="fill:#000000; fill-opacity:1.0; 
stroke:#000000; stroke-width:21200.000000; stroke-opacity:1; 
stroke-linecap:round; stroke-linejoin:round;">
</g>
<g style="fill:#000000; fill-opacity:1.0; 
stroke:#000000; stroke-width:1.000000; stroke-opacity:1; 
stroke-linecap:round; stroke-linejoin:round;">
<circle cx="166211250.000000" cy="73025000.000000" r="875000.000000" /> 
</g>
<g style="fill:#000000; fill-opacity:1.0; 
stroke:#000000; stroke-width:21200.000000; stroke-opacity:1; 
stroke-linecap:round; stroke-linejoin:round;">
</g>
<g style="fill:#000000; fill-opacity:1.0; 
stroke:#000000; stroke-width:1.000000; stroke-opacity:1; 
stroke-linecap:round; stroke-linejoin:round;">
<circle cx="156051250.000000" cy="73025000.000000" r="875000.000000" /> 
</g>
<g style="fill:#000000; fill-opacity:1.0; 
stroke:#000000; stroke-width:21200.000000; stroke-opacity:1; 
stroke-linecap:round; stroke-linejoin:round;">
</g>
<g style="fill:#000000; fill-opacity:1.0; 
stroke:#000000; stroke-width:1.000000; stroke-opacity:1; 
stroke-linecap:round; stroke-linejoin:round;">
<circle cx="161131250.000000" cy="73025000.000000" r="1993900.000000" /> 
</g>
<g style="fill:#000000; fill-opacity:1.0; 
stroke:#000000; stroke-width:21200.000000; stroke-opacity:1; 
stroke-linecap:round; stroke-linejoin:round;">
</g>
<g >
</g>
<g style="fill:#000000; fill-opacity:1.0; 
stroke:#000000; stroke-width:21200.000000; stroke-opacity:1; 
stroke-linecap:round; stroke-linejoin:round;">
</g>
<g style="fill:#000000; fill-opacity:1.0; 
stroke:#000000; stroke-width:1.000000; stroke-opacity:1; 
stroke-linecap:round; stroke-linejoin:round;">
<circle cx="166211250.000000" cy="49212500.000000" r="875000.000000" /> 
</g>
<g style="fill:#000000; fill-opacity:1.0; 
stroke:#000000; stroke-width:21200.000000; stroke-opacity:1; 
stroke-linecap:round; stroke-linejoin:round;">
</g>
<g style="fill:#000000; fill-opacity:1.0; 
stroke:#000000; stroke-width:1.000000; stroke-opacity:1; 
stroke-linecap:round; stroke-linejoin:round;">
<circle cx="161131250.000000" cy="49212500.000000" r="1993900.000000" /> 
</g>
<g style="fill:#000000; fill-opacity:1.0; 
stroke:#000000; stroke-width:21200.000000; stroke-opacity:1; 
stroke-linecap:round; stroke-linejoin:round;">
</g>
<g style="fill:#000000; fill-opacity:1.0; 
stroke:#000000; stroke-width:1.000000; stroke-opacity:1; 
stroke-linecap:round; stroke-linejoin:round;">
<circle cx="156051250.000000" cy="49212500.000000" r="875000.000000" /> 
</g>
<g style="fill:#000000; fill-opacity:1.0; 
stroke:#000000; stroke-width:21200.000000; stroke-opacity:1; 
stroke-linecap:round; stroke-linejoin:round;">
</g>
<g >
</g>
<g style="fill:#000000; fill-opacity:1.0; 
stroke:#000000; stroke-width:21200.000000; stroke-opacity:1; 
stroke-linecap:round; stroke-linejoin:round;">
</g>
<g style="fill:#000000; fill-opacity:1.0; 
stroke:#000000; stroke-width:1.000000; stroke-opacity:1; 
stroke-linecap:round; stroke-linejoin:round;">
<circle cx="141287500.000000" cy="73025000.000000" r="1993900.000000" /> 
</g>
<g style="fill:#000000; fill-opacity:1.0; 
stroke:#000000; stroke-width:21200.000000; stroke-opacity:1; 
stroke-linecap:round; stroke-linejoin:round;">
</g>
<g style="fill:#000000; fill-opacity:1.0; 
stroke:#000000; stroke-width:1.000000; stroke-opacity:1; 
stroke-linecap:round; stroke-linejoin:round;">
<circle cx="136207500.000000" cy="73025000.000000" r="875000.000000" /> 
</g>
<g style="fill:#000000; fill-opacity:1.0; 
stroke:#000000; stroke-width:21200.000000; stroke-opacity:1; 
stroke-linecap:round; stroke-linejoin:round;">
</g>
<g style="fill:#000000; fill-opacity:1.0; 
stroke:#000000; stroke-width:1.000000; stroke-opacity:1; 
stroke-linecap:round; stroke-linejoin:round;">
<circle cx="146367500.000000" cy="73025000.000000" r="875000.000000" /> 
</g>
<g style="fill:#000000; fill-opacity:1.0; 
stroke:#000000; stroke-width:21200.000000; stroke-opacity:1; 
stroke-linecap:round; stroke-linejoin:round;">
</g>
<g >
</g>
<g style="fill:#000000; fill-opacity:1.0; 
stroke:#000000; stroke-width:21200.000000; stroke-opacity:1; 
stroke-linecap:round; stroke-linejoin:round;">
</g>
<g style="fill:#000000; fill-opacity:1.0; 
stroke:#000000; stroke-width:1.000000; stroke-opacity:1; 
stroke-linecap:round; stroke-linejoin:round;">
<circle cx="179070000.000000" cy="73025000.000000" r="875000.000000" /> 
</g>
<g style="fill:#000000; fill-opacity:1.0; 
stroke:#000000; stroke-width:21200.000000; stroke-opacity:1; 
stroke-linecap:round; stroke-linejoin:round;">
</g>
<g style="fill:#000000; fill-opacity:1.0; 
stroke:#000000; stroke-width:1.000000; stroke-opacity:1; 
stroke-linecap:round; stroke-linejoin:round;">
<circle cx="189230000.000000" cy="73025000.000000" r="875000.000000" /> 
</g>
<g style="fill:#000000; fill-opacity:1.0; 
stroke:#000000; stroke-width:21200.000000; stroke-opacity:1; 
stroke-linecap:round; stroke-linejoin:round;">
</g>
<g style="fill:#000000; fill-opacity:1.0; 
stroke:#000000; stroke-width:1.000000; stroke-opacity:1; 
stroke-linecap:round; stroke-linejoin:round;">
<circle cx="184150000.000000" cy="73025000.000000" r="1993900.000000" /> 
</g>
<g style="fill:#000000; fill-opacity:1.0; 
stroke:#000000; stroke-width:21200.000000; stroke-opacity:1; 
stroke-linecap:round; stroke-linejoin:round;">
</g>
<g >
</g>
<g style="fill:#000000; fill-opacity:1.0; 
stroke:#000000; stroke-width:21200.000000; stroke-opacity:1; 
stroke-linecap:round; stroke-linejoin:round;">
</g>
<g style="fill:#000000; fill-opacity:1.0; 
stroke:#000000; stroke-width:1.000000; stroke-opacity:1; 
stroke-linecap:round; stroke-linejoin:round;">
<path style="fill:#000000; fill-opacity:1.0; 
stroke:#000000; stroke-width:1.000000; stroke-opacity:1; 
stroke-linecap:round; stroke-linejoin:round;fill-rule:evenodd;"
d="M 193481249.000000,94968749.000000
192281251.000000,94968749.000000
192281251.000000,94068751.000000
193481249.000000,94068751.000000
Z" /> 
<path style="fill:#000000; fill-opacity:1.0; 
stroke:#000000; stroke-width:1.000000; stroke-opacity:1; 
stroke-linecap:round; stroke-linejoin:round;fill-rule:evenodd;"
d="M 193481249.000000,91668749.000000
192281251.000000,91668749.000000
192281251.000000,90768751.000000
193481249.000000,90768751.000000
Z" /> 
</g>
<g >
</g>
<g style="fill:#000000; fill-opacity:1.0; 
stroke:#000000; stroke-width:1.000000; stroke-opacity:1; 
stroke-linecap:round; stroke-linejoin:round;">
<path style="fill:#000000; fill-opacity:1.0; 
stroke:#000000; stroke-width:1.000000; stroke-opacity:1; 
stroke-linecap:round; stroke-linejoin:round;fill-rule:evenodd;"
d="M 213324999.000000,94968749.000000
212125001.000000,94968749.000000
212125001.000000,94068751.000000
213324999.000000,94068751.000000
Z" /> 
<path style="fill:#000000; fill-opacity:1.0; 
stroke:#000000; stroke-width:1.000000; stroke-opacity:1; 
stroke-linecap:round; stroke-linejoin:round;fill-rule:evenodd;"
d="M 213324999.000000,91668749.000000
212125001.000000,91668749.000000
212125001.000000,90768751.000000
213324999.000000,90768751.000000
Z" /> 
</g>
<g >
</g>
<g style="fill:#000000; fill-opacity:1.0; 
stroke:#000000; stroke-width:1.000000; stroke-opacity:1; 
stroke-linecap:round; stroke-linejoin:round;">
<path style="fill:#000000; fill-opacity:1.0; 
stroke:#000000; stroke-width:1.000000; stroke-opacity:1; 
stroke-linecap:round; stroke-linejoin:round;fill-rule:evenodd;"
d="M 170462499.000000,75918749.000000
169262501.000000,75918749.000000
169262501.000000,75018751.000000
170462499.000000,75018751.000000
Z" /> 
<path style="fill:#000000; fill-opacity:1.0; 
stroke:#000000; stroke-width:1.000000; stroke-opacity:1; 
stroke-linecap:round; stroke-linejoin:round;fill-rule:evenodd;"
d="M 170462499.000000,72618749.000000
169262501.000000,72618749.000000
169262501.000000,71718751.000000
170462499.000000,71718751.000000
Z" /> 
</g>
<g >
</g>
<g style="fill:#000000; fill-opacity:1.0; 
stroke:#000000; stroke-width:1.000000; stroke-opacity:1; 
stroke-linecap:round; stroke-linejoin:round;">
<path style="fill:#000000; fill-opacity:1.0; 
stroke:#000000; stroke-width:1.000000; stroke-opacity:1; 
stroke-linecap:round; stroke-linejoin:round;fill-rule:evenodd;"
d="M 193481249.000000,75918749.000000
192281251.000000,75918749.000000
192281251.000000,75018751.000000
193481249.000000,75018751.000000
Z" /> 
<path style="fill:#000000; fill-opacity:1.0; 
stroke:#000000; stroke-width:1.000000; stroke-opacity:1; 
stroke-linecap:round; stroke-linejoin:round;fill-rule:evenodd;"
d="M 193481249.000000,72618749.000000
192281251.000000,72618749.000000
192281251.000000,71718751.000000
193481249.000000,71718751.000000
Z" /> 
</g>
<g >
</g>
<g style="fill:#000000; fill-opacity:1.0; 
stroke:#000000; stroke-width:1.000000; stroke-opacity:1; 
stroke-linecap:round; stroke-linejoin:round;">
<circle cx="203993750.000000" cy="92075000.000000" r="1993900.000000" /> 
</g>
<g style="fill:#000000; fill-opacity:1.0; 
stroke:#000000; stroke-width:21200.000000; stroke-opacity:1; 
stroke-linecap:round; stroke-linejoin:round;">
</g>
<g style="fill:#000000; fill-opacity:1.0; 
stroke:#000000; stroke-width:1.000000; stroke-opacity:1; 
stroke-linecap:round; stroke-linejoin:round;">
<circle cx="209073750.000000" cy="92075000.000000" r="875000.000000" /> 
</g>
<g style="fill:#000000; fill-opacity:1.0; 
stroke:#000000; stroke-width:21200.000000; stroke-opacity:1; 
stroke-linecap:round; stroke-linejoin:round;">
</g>
<g style="fill:#000000; fill-opacity:1.0; 
stroke:#000000; stroke-width:1.000000; stroke-opacity:1; 
stroke-linecap:round; stroke-linejoin:round;">
<circle cx="198913750.000000" cy="92075000.000000" r="875000.000000" /> 
</g>
<g style="fill:#000000; fill-opacity:1.0; 
stroke:#000000; stroke-width:21200.000000; stroke-opacity:1; 
stroke-linecap:round; stroke-linejoin:round;">
</g>
<g >
</g>
<g style="fill:#000000; fill-opacity:1.0; 
stroke:#000000; stroke-width:21200.000000; stroke-opacity:1; 
stroke-linecap:round; stroke-linejoin:round;">
</g>
<g style="fill:#000000; fill-opacity:1.0; 
stroke:#000000; stroke-width:1.000000; stroke-opacity:1; 
stroke-linecap:round; stroke-linejoin:round;">
<circle cx="189230000.000000" cy="92075000.000000" r="875000.000000" /> 
</g>
<g style="fill:#000000; fill-opacity:1.0; 
stroke:#000000; stroke-width:21200.000000; stroke-opacity:1; 
stroke-linecap:round; stroke-linejoin:round;">
</g>
<g style="fill:#000000; fill-opacity:1.0; 
stroke:#000000; stroke-width:1.000000; stroke-opacity:1; 
stroke-linecap:round; stroke-linejoin:round;">
<circle cx="179070000.000000" cy="92075000.000000" r="875000.000000" /> 
</g>
<g style="fill:#000000; fill-opacity:1.0; 
stroke:#000000; stroke-width:21200.000000; stroke-opacity:1; 
stroke-linecap:round; stroke-linejoin:round;">
</g>
<g style="fill:#000000; fill-opacity:1.0; 
stroke:#000000; stroke-width:1.000000; stroke-opacity:1; 
stroke-linecap:round; stroke-linejoin:round;">
<circle cx="184150000.000000" cy="92075000.000000" r="1993900.000000" /> 
</g>
<g style="fill:#000000; fill-opacity:1.0; 
stroke:#000000; stroke-width:21200.000000; stroke-opacity:1; 
stroke-linecap:round; stroke-linejoin:round;">
</g>
<g >
</g>
<g style="fill:#000000; fill-opacity:1.0; 
stroke:#000000; stroke-width:21200.000000; stroke-opacity:1; 
stroke-linecap:round; stroke-linejoin:round;">
</g>
<g style="fill:#000000; fill-opacity:1.0; 
stroke:#000000; stroke-width:1.000000; stroke-opacity:1; 
stroke-linecap:round; stroke-linejoin:round;">
<path style="fill:#000000; fill-opacity:1.0; 
stroke:#000000; stroke-width:1.000000; stroke-opacity:1; 
stroke-linecap:round; stroke-linejoin:round;fill-rule:evenodd;"
d="M 150618749.000000,52106249.000000
149418751.000000,52106249.000000
149418751.000000,51206251.000000
150618749.000000,51206251.000000
Z" /> 
<path style="fill:#000000; fill-opacity:1.0; 
stroke:#000000; stroke-width:1.000000; stroke-opacity:1; 
stroke-linecap:round; stroke-linejoin:round;fill-rule:evenodd;"
d="M 150618749.000000,48806249.000000
149418751.000000,48806249.000000
149418751.000000,47906251.000000
150618749.000000,47906251.000000
Z" /> 
</g>
<g >
</g>
<g style="fill:#000000; fill-opacity:1.0; 
stroke:#000000; stroke-width:1.000000; stroke-opacity:1; 
stroke-linecap:round; stroke-linejoin:round;">
<path style="fill:#000000; fill-opacity:1.0; 
stroke:#000000; stroke-width:1.000000; stroke-opacity:1; 
stroke-linecap:round; stroke-linejoin:round;fill-rule:evenodd;"
d="M 135172451.000000,100571299.000000
135172451.000000,98818701.000000
136925049.000000,98818701.000000
136925049.000000,100571299.000000
Z" /> 
<circle cx="138588750.000000" cy="99695000.000000" r="876300.000000" /> 
</g>
<g style="fill:#000000; fill-opacity:1.0; 
stroke:#000000; stroke-width:21200.000000; stroke-opacity:1; 
stroke-linecap:round; stroke-linejoin:round;">
</g>
<g style="fill:#000000; fill-opacity:1.0; 
stroke:#000000; stroke-width:1.000000; stroke-opacity:1; 
stroke-linecap:round; stroke-linejoin:round;">
<circle cx="141128750.000000" cy="99695000.000000" r="876300.000000" /> 
</g>
<g style="fill:#000000; fill-opacity:1.0; 
stroke:#000000; stroke-width:21200.000000; stroke-opacity:1; 
stroke-linecap:round; stroke-linejoin:round;">
</g>
<g style="fill:#000000; fill-opacity:1.0; 
stroke:#000000; stroke-width:1.000000; stroke-opacity:1; 
stroke-linecap:round; stroke-linejoin:round;">
<circle cx="143668750.000000" cy="99695000.000000" r="876300.000000" /> 
</g>
<g style="fill:#000000; fill-opacity:1.0; 
stroke:#000000; stroke-width:21200.000000; stroke-opacity:1; 
stroke-linecap:round; stroke-linejoin:round;">
</g>
<g style="fill:#000000; fill-opacity:1.0; 
stroke:#000000; stroke-width:1.000000; stroke-opacity:1; 
stroke-linecap:round; stroke-linejoin:round;">
<circle cx="146208750.000000" cy="99695000.000000" r="876300.000000" /> 
</g>
<g style="fill:#000000; fill-opacity:1.0; 
stroke:#000000; stroke-width:21200.000000; stroke-opacity:1; 
stroke-linecap:round; stroke-linejoin:round;">
</g>
<g style="fill:#000000; fill-opacity:1.0; 
stroke:#000000; stroke-width:1.000000; stroke-opacity:1; 
stroke-linecap:round; stroke-linejoin:round;">
<circle cx="148748750.000000" cy="99695000.000000" r="876300.000000" /> 
</g>
<g style="fill:#000000; fill-opacity:1.0; 
stroke:#000000; stroke-width:21200.000000; stroke-opacity:1; 
stroke-linecap:round; stroke-linejoin:round;">
</g>
<g style="fill:#000000; fill-opacity:1.0; 
stroke:#000000; stroke-width:1.000000; stroke-opacity:1; 
stroke-linecap:round; stroke-linejoin:round;">
<circle cx="151288750.000000" cy="99695000.000000" r="876300.000000" /> 
</g>
<g style="fill:#000000; fill-opacity:1.0; 
stroke:#000000; stroke-width:21200.000000; stroke-opacity:1; 
stroke-linecap:round; stroke-linejoin:round;">
</g>
<g style="fill:#000000; fill-opacity:1.0; 
stroke:#000000; stroke-width:1.000000; stroke-opacity:1; 
stroke-linecap:round; stroke-linejoin:round;">
<circle cx="153828750.000000" cy="99695000.000000" r="876300.000000" /> 
</g>
<g style="fill:#000000; fill-opacity:1.0; 
stroke:#000000; stroke-width:21200.000000; stroke-opacity:1; 
stroke-linecap:round; stroke-linejoin:round;">
</g>
<g style="fill:#000000; fill-opacity:1.0; 
stroke:#000000; stroke-width:1.000000; stroke-opacity:1; 
stroke-linecap:round; stroke-linejoin:round;">
<circle cx="156368750.000000" cy="99695000.000000" r="876300.000000" /> 
</g>
<g style="fill:#000000; fill-opacity:1.0; 
stroke:#000000; stroke-width:21200.000000; stroke-opacity:1; 
stroke-linecap:round; stroke-linejoin:round;">
</g>
<g style="fill:#000000; fill-opacity:1.0; 
stroke:#000000; stroke-width:1.000000; stroke-opacity:1; 
stroke-linecap:round; stroke-linejoin:round;">
<circle cx="158908750.000000" cy="99695000.000000" r="876300.000000" /> 
</g>
<g style="fill:#000000; fill-opacity:1.0; 
stroke:#000000; stroke-width:21200.000000; stroke-opacity:1; 
stroke-linecap:round; stroke-linejoin:round;">
</g>
<g style="fill:#000000; fill-opacity:1.0; 
stroke:#000000; stroke-width:1.000000; stroke-opacity:1; 
stroke-linecap:round; stroke-linejoin:round;">
<circle cx="161448750.000000" cy="99695000.000000" r="876300.000000" /> 
</g>
<g style="fill:#000000; fill-opacity:1.0; 
stroke:#000000; stroke-width:21200.000000; stroke-opacity:1; 
stroke-linecap:round; stroke-linejoin:round;">
</g>
<g style="fill:#000000; fill-opacity:1.0; 
stroke:#000000; stroke-width:1.000000; stroke-opacity:1; 
stroke-linecap:round; stroke-linejoin:round;">
<circle cx="163988750.000000" cy="99695000.000000" r="876300.000000" /> 
</g>
<g style="fill:#000000; fill-opacity:1.0; 
stroke:#000000; stroke-width:21200.000000; stroke-opacity:1; 
stroke-linecap:round; stroke-linejoin:round;">
</g>
<g style="fill:#000000; fill-opacity:1.0; 
stroke:#000000; stroke-width:1.000000; stroke-opacity:1; 
stroke-linecap:round; stroke-linejoin:round;">
<circle cx="163988750.000000" cy="84455000.000000" r="876300.000000" /> 
</g>
<g style="fill:#000000; fill-opacity:1.0; 
stroke:#000000; stroke-width:21200.000000; stroke-opacity:1; 
stroke-linecap:round; stroke-linejoin:round;">
</g>
<g style="fill:#000000; fill-opacity:1.0; 
stroke:#000000; stroke-width:1.000000; stroke-opacity:1; 
stroke-linecap:round; stroke-linejoin:round;">
<circle cx="161448750.000000" cy="84455000.000000" r="876300.000000" /> 
</g>
<g style="fill:#000000; fill-opacity:1.0; 
stroke:#000000; stroke-width:21200.000000; stroke-opacity:1; 
stroke-linecap:round; stroke-linejoin:round;">
</g>
<g style="fill:#000000; fill-opacity:1.0; 
stroke:#000000; stroke-width:1.000000; stroke-opacity:1; 
stroke-linecap:round; stroke-linejoin:round;">
<circle cx="158908750.000000" cy="84455000.000000" r="876300.000000" /> 
</g>
<g style="fill:#000000; fill-opacity:1.0; 
stroke:#000000; stroke-width:21200.000000; stroke-opacity:1; 
stroke-linecap:round; stroke-linejoin:round;">
</g>
<g style="fill:#000000; fill-opacity:1.0; 
stroke:#000000; stroke-width:1.000000; stroke-opacity:1; 
stroke-linecap:round; stroke-linejoin:round;">
<circle cx="156368750.000000" cy="84455000.000000" r="876300.000000" /> 
</g>
<g style="fill:#000000; fill-opacity:1.0; 
stroke:#000000; stroke-width:21200.000000; stroke-opacity:1; 
stroke-linecap:round; stroke-linejoin:round;">
</g>
<g style="fill:#000000; fill-opacity:1.0; 
stroke:#000000; stroke-width:1.000000; stroke-opacity:1; 
stroke-linecap:round; stroke-linejoin:round;">
<circle cx="153828750.000000" cy="84455000.000000" r="876300.000000" /> 
</g>
<g style="fill:#000000; fill-opacity:1.0; 
stroke:#000000; stroke-width:21200.000000; stroke-opacity:1; 
stroke-linecap:round; stroke-linejoin:round;">
</g>
<g style="fill:#000000; fill-opacity:1.0; 
stroke:#000000; stroke-width:1.000000; stroke-opacity:1; 
stroke-linecap:round; stroke-linejoin:round;">
<circle cx="151288750.000000" cy="84455000.000000" r="876300.000000" /> 
</g>
<g style="fill:#000000; fill-opacity:1.0; 
stroke:#000000; stroke-width:21200.000000; stroke-opacity:1; 
stroke-linecap:round; stroke-linejoin:round;">
</g>
<g style="fill:#000000; fill-opacity:1.0; 
stroke:#000000; stroke-width:1.000000; stroke-opacity:1; 
stroke-linecap:round; stroke-linejoin:round;">
<circle cx="148748750.000000" cy="84455000.000000" r="876300.000000" /> 
</g>
<g style="fill:#000000; fill-opacity:1.0; 
stroke:#000000; stroke-width:21200.000000; stroke-opacity:1; 
stroke-linecap:round; stroke-linejoin:round;">
</g>
<g style="fill:#000000; fill-opacity:1.0; 
stroke:#000000; stroke-width:1.000000; stroke-opacity:1; 
stroke-linecap:round; stroke-linejoin:round;">
<circle cx="146208750.000000" cy="84455000.000000" r="876300.000000" /> 
</g>
<g style="fill:#000000; fill-opacity:1.0; 
stroke:#000000; stroke-width:21200.000000; stroke-opacity:1; 
stroke-linecap:round; stroke-linejoin:round;">
</g>
<g style="fill:#000000; fill-opacity:1.0; 
stroke:#000000; stroke-width:1.000000; stroke-opacity:1; 
stroke-linecap:round; stroke-linejoin:round;">
<circle cx="143668750.000000" cy="84455000.000000" r="876300.000000" /> 
</g>
<g style="fill:#000000; fill-opacity:1.0; 
stroke:#000000; stroke-width:21200.000000; stroke-opacity:1; 
stroke-linecap:round; stroke-linejoin:round;">
</g>
<g style="fill:#000000; fill-opacity:1.0; 
stroke:#000000; stroke-width:1.000000; stroke-opacity:1; 
stroke-linecap:round; stroke-linejoin:round;">
<circle cx="141128750.000000" cy="84455000.000000" r="876300.000000" /> 
</g>
<g style="fill:#000000; fill-opacity:1.0; 
stroke:#000000; stroke-width:21200.000000; stroke-opacity:1; 
stroke-linecap:round; stroke-linejoin:round;">
</g>
<g style="fill:#000000; fill-opacity:1.0; 
stroke:#000000; stroke-width:1.000000; stroke-opacity:1; 
stroke-linecap:round; stroke-linejoin:round;">
<circle cx="138588750.000000" cy="84455000.000000" r="876300.000000" /> 
</g>
<g style="fill:#000000; fill-opacity:1.0; 
stroke:#000000; stroke-width:21200.000000; stroke-opacity:1; 
stroke-linecap:round; stroke-linejoin:round;">
</g>
<g style="fill:#000000; fill-opacity:1.0; 
stroke:#000000; stroke-width:1.000000; stroke-opacity:1; 
stroke-linecap:round; stroke-linejoin:round;">
<circle cx="136048750.000000" cy="84455000.000000" r="876300.000000" /> 
</g>
<g style="fill:#000000; fill-opacity:1.0; 
stroke:#000000; stroke-width:21200.000000; stroke-opacity:1; 
stroke-linecap:round; stroke-linejoin:round;">
</g>
<g >
</g>
<g >
</g>
<g style="fill:#000000; fill-opacity:1.0; 
stroke:#000000; stroke-width:21200.000000; stroke-opacity:1; 
stroke-linecap:round; stroke-linejoin:round;">
</g>
<g style="fill:#000000; fill-opacity:1.0; 
stroke:#000000; stroke-width:1.000000; stroke-opacity:1; 
stroke-linecap:round; stroke-linejoin:round;">
<path style="fill:#000000; fill-opacity:1.0; 
stroke:#000000; stroke-width:1.000000; stroke-opacity:1; 
stroke-linecap:round; stroke-linejoin:round;fill-rule:evenodd;"
d="M 193481249.000000,52106249.000000
192281251.000000,52106249.000000
192281251.000000,51206251.000000
193481249.000000,51206251.000000
Z" /> 
<path style="fill:#000000; fill-opacity:1.0; 
stroke:#000000; stroke-width:1.000000; stroke-opacity:1; 
stroke-linecap:round; stroke-linejoin:round;fill-rule:evenodd;"
d="M 193481249.000000,48806249.000000
192281251.000000,48806249.000000
192281251.000000,47906251.000000
193481249.000000,47906251.000000
Z" /> 
</g>
<g >
</g>
<g style="fill:#000000; fill-opacity:1.0; 
stroke:#000000; stroke-width:1.000000; stroke-opacity:1; 
stroke-linecap:round; stroke-linejoin:round;">
<circle cx="223837500.000000" cy="92075000.000000" r="1993900.000000" /> 
</g>
<g style="fill:#000000; fill-opacity:1.0; 
stroke:#000000; stroke-width:21200.000000; stroke-opacity:1; 
stroke-linecap:round; stroke-linejoin:round;">
</g>
<g style="fill:#000000; fill-opacity:1.0; 
stroke:#000000; stroke-width:1.000000; stroke-opacity:1; 
stroke-linecap:round; stroke-linejoin:round;">
<circle cx="228917500.000000" cy="92075000.000000" r="875000.000000" /> 
</g>
<g style="fill:#000000; fill-opacity:1.0; 
stroke:#000000; stroke-width:21200.000000; stroke-opacity:1; 
stroke-linecap:round; stroke-linejoin:round;">
</g>
<g style="fill:#000000; fill-opacity:1.0; 
stroke:#000000; stroke-width:1.000000; stroke-opacity:1; 
stroke-linecap:round; stroke-linejoin:round;">
<circle cx="218757500.000000" cy="92075000.000000" r="875000.000000" /> 
</g>
<g style="fill:#000000; fill-opacity:1.0; 
stroke:#000000; stroke-width:21200.000000; stroke-opacity:1; 
stroke-linecap:round; stroke-linejoin:round;">
</g>
<g >
</g>
<g style="fill:#000000; fill-opacity:1.0; 
stroke:#000000; stroke-width:21200.000000; stroke-opacity:1; 
stroke-linecap:round; stroke-linejoin:round;">
</g>
<g style="fill:#000000; fill-opacity:1.0; 
stroke:#000000; stroke-width:1.000000; stroke-opacity:1; 
stroke-linecap:round; stroke-linejoin:round;">
<path style="fill:#000000; fill-opacity:1.0; 
stroke:#000000; stroke-width:1.000000; stroke-opacity:1; 
stroke-linecap:round; stroke-linejoin:round;fill-rule:evenodd;"
d="M 170462499.000000,52106249.000000
169262501.000000,52106249.000000
169262501.000000,51206251.000000
170462499.000000,51206251.000000
Z" /> 
<path style="fill:#000000; fill-opacity:1.0; 
stroke:#000000; stroke-width:1.000000; stroke-opacity:1; 
stroke-linecap:round; stroke-linejoin:round;fill-rule:evenodd;"
d="M 170462499.000000,48806249.000000
169262501.000000,48806249.000000
169262501.000000,47906251.000000
170462499.000000,47906251.000000
Z" /> 
</g>
<g >
</g>
<g style="fill:#000000; fill-opacity:1.0; 
stroke:#000000; stroke-width:1.000000; stroke-opacity:1; 
stroke-linecap:round; stroke-linejoin:round;">
<circle cx="141287500.000000" cy="49212500.000000" r="1993900.000000" /> 
</g>
<g style="fill:#000000; fill-opacity:1.0; 
stroke:#000000; stroke-width:21200.000000; stroke-opacity:1; 
stroke-linecap:round; stroke-linejoin:round;">
</g>
<g style="fill:#000000; fill-opacity:1.0; 
stroke:#000000; stroke-width:1.000000; stroke-opacity:1; 
stroke-linecap:round; stroke-linejoin:round;">
<circle cx="136207500.000000" cy="49212500.000000" r="875000.000000" /> 
</g>
<g style="fill:#000000; fill-opacity:1.0; 
stroke:#000000; stroke-width:21200.000000; stroke-opacity:1; 
stroke-linecap:round; stroke-linejoin:round;">
</g>
<g style="fill:#000000; fill-opacity:1.0; 
stroke:#000000; stroke-width:1.000000; stroke-opacity:1; 
stroke-linecap:round; stroke-linejoin:round;">
<circle cx="146367500.000000" cy="49212500.000000" r="875000.000000" /> 
</g>
<g style="fill:#000000; fill-opacity:1.0; 
stroke:#000000; stroke-width:21200.000000; stroke-opacity:1; 
stroke-linecap:round; stroke-linejoin:round;">
</g>
<g >
</g>
<g style="fill:#000000; fill-opacity:1.0; 
stroke:#000000; stroke-width:21200.000000; stroke-opacity:1; 
stroke-linecap:round; stroke-linejoin:round;">
</g>
<g style="fill:#000000; fill-opacity:1.0; 
stroke:#000000; stroke-width:1.000000; stroke-opacity:1; 
stroke-linecap:round; stroke-linejoin:round;">
<path style="fill:#000000; fill-opacity:1.0; 
stroke:#000000; stroke-width:1.000000; stroke-opacity:1; 
stroke-linecap:round; stroke-linejoin:round;fill-rule:evenodd;"
d="M 220943751.000000,83943749.000000
220943751.000000,82743751.000000
221843749.000000,82743751.000000
221843749.000000,83943749.000000
Z" /> 
<path style="fill:#000000; fill-opacity:1.0; 
stroke:#000000; stroke-width:1.000000; stroke-opacity:1; 
stroke-linecap:round; stroke-linejoin:round;fill-rule:evenodd;"
d="M 224243751.000000,83943749.000000
224243751.000000,82743751.000000
225143749.000000,82743751.000000
225143749.000000,83943749.000000
Z" /> 
</g>
<g >
</g>
<g style="fill:#000000; fill-opacity:1.0; 
stroke:#000000; stroke-width:1.000000; stroke-opacity:1; 
stroke-linecap:round; stroke-linejoin:round;">
<circle cx="230978750.000000" cy="43681250.000000" r="600000.000000" /> 
</g>
<g style="fill:#000000; fill-opacity:1.0; 
stroke:#000000; stroke-width:21200.000000; stroke-opacity:1; 
stroke-linecap:round; stroke-linejoin:round;">
</g>
<g style="fill:#000000; fill-opacity:1.0; 
stroke:#000000; stroke-width:1.000000; stroke-opacity:1; 
stroke-linecap:round; stroke-linejoin:round;">
<circle cx="229768750.000000" cy="46181250.000000" r="875000.000000" /> 
</g>
<g style="fill:#000000; fill-opacity:1.0; 
stroke:#000000; stroke-width:21200.000000; stroke-opacity:1; 
stroke-linecap:round; stroke-linejoin:round;">
</g>
<g style="fill:#000000; fill-opacity:1.0; 
stroke:#000000; stroke-width:1.000000; stroke-opacity:1; 
stroke-linecap:round; stroke-linejoin:round;">
<circle cx="229768750.000000" cy="41181250.000000" r="875000.000000" /> 
</g>
<g style="fill:#000000; fill-opacity:1.0; 
stroke:#000000; stroke-width:21200.000000; stroke-opacity:1; 
stroke-linecap:round; stroke-linejoin:round;">
</g>
<g >
</g>
<g >
</g>
<g >
</g>
<g >
</g>
</g> 
</svg>
