M48
; DRILL file {KiCad (6.0.4)} date Fri May  6 19:17:38 2022
; FORMAT={-:-/ absolute / inch / decimal}
; #@! TF.CreationDate,2022-05-06T19:17:38-04:00
; #@! TF.GenerationSoftware,Kicad,Pcbnew,(6.0.4)
; #@! TF.FileFunction,NonPlated,1,2,NPTH
FMAT,2
INCH
; #@! TA.AperFunction,NonPlated,NPTH,ComponentDrill
T1C0.0472
; #@! TA.AperFunction,NonPlated,NPTH,ComponentDrill
T2C0.0689
; #@! TA.AperFunction,NonPlated,NPTH,ComponentDrill
T3C0.1570
%
G90
G05
T1
X9.0937Y-1.7197
T2
X5.3625Y-1.9375
X5.3625Y-2.875
X5.7625Y-1.9375
X5.7625Y-2.875
X6.1437Y-1.9375
X6.1437Y-2.875
X6.5438Y-1.9375
X6.5438Y-2.875
X7.05Y-1.9375
X7.05Y-2.875
X7.05Y-3.625
X7.45Y-1.9375
X7.45Y-2.875
X7.45Y-3.625
X7.8312Y-2.875
X7.8312Y-3.625
X8.2312Y-2.875
X8.2312Y-3.625
X8.6125Y-3.625
X9.0125Y-3.625
T3
X5.5625Y-1.9375
X5.5625Y-2.875
X6.3438Y-1.9375
X6.3438Y-2.875
X7.25Y-1.9375
X7.25Y-2.875
X7.25Y-3.625
X8.0312Y-2.875
X8.0312Y-3.625
X8.8125Y-3.625
T0
M30
