%TF.GenerationSoftware,KiCad,Pcbnew,(6.0.4)*%
%TF.CreationDate,2022-05-05T19:26:59-04:00*%
%TF.ProjectId,F14-DDP,4631342d-4444-4502-9e6b-696361645f70,rev?*%
%TF.SameCoordinates,Original*%
%TF.FileFunction,Copper,L2,Bot*%
%TF.FilePolarity,Positive*%
%FSLAX46Y46*%
G04 Gerber Fmt 4.6, Leading zero omitted, Abs format (unit mm)*
G04 Created by KiCad (PCBNEW (6.0.4)) date 2022-05-05 19:26:59*
%MOMM*%
%LPD*%
G01*
G04 APERTURE LIST*
%TA.AperFunction,ComponentPad*%
%ADD10C,2.250000*%
%TD*%
%TA.AperFunction,ComponentPad*%
%ADD11R,1.752600X1.752600*%
%TD*%
%TA.AperFunction,ComponentPad*%
%ADD12C,1.752600*%
%TD*%
%TA.AperFunction,ComponentPad*%
%ADD13C,1.750000*%
%TD*%
%TA.AperFunction,Conductor*%
%ADD14C,0.254000*%
%TD*%
%TA.AperFunction,Conductor*%
%ADD15C,0.381000*%
%TD*%
G04 APERTURE END LIST*
D10*
%TO.P,MX3,1,COL*%
%TO.N,/COL2*%
X180340000Y-46672500D03*
%TO.P,MX3,2,ROW*%
%TO.N,Net-(D3-Pad2)*%
X186690000Y-44132500D03*
%TD*%
%TO.P,MX7,1,COL*%
%TO.N,/COL3*%
X200183750Y-70485000D03*
%TO.P,MX7,2,ROW*%
%TO.N,Net-(D7-Pad2)*%
X206533750Y-67945000D03*
%TD*%
%TO.P,MX5,1,COL*%
%TO.N,/COL1*%
X157321250Y-70485000D03*
%TO.P,MX5,2,ROW*%
%TO.N,Net-(D5-Pad2)*%
X163671250Y-67945000D03*
%TD*%
%TO.P,MX2,1,COL*%
%TO.N,/COL1*%
X157321250Y-46672500D03*
%TO.P,MX2,2,ROW*%
%TO.N,Net-(D2-Pad2)*%
X163671250Y-44132500D03*
%TD*%
%TO.P,MX4,1,COL*%
%TO.N,/COL0*%
X137477500Y-70485000D03*
%TO.P,MX4,2,ROW*%
%TO.N,Net-(D4-Pad2)*%
X143827500Y-67945000D03*
%TD*%
%TO.P,MX6,1,COL*%
%TO.N,/COL2*%
X180340000Y-70485000D03*
%TO.P,MX6,2,ROW*%
%TO.N,Net-(D6-Pad2)*%
X186690000Y-67945000D03*
%TD*%
%TO.P,MX9,1,COL*%
%TO.N,/COL3*%
X200183750Y-89535000D03*
%TO.P,MX9,2,ROW*%
%TO.N,Net-(D9-Pad2)*%
X206533750Y-86995000D03*
%TD*%
%TO.P,MX8,1,COL*%
%TO.N,/COL2*%
X180340000Y-89535000D03*
%TO.P,MX8,2,ROW*%
%TO.N,Net-(D8-Pad2)*%
X186690000Y-86995000D03*
%TD*%
D11*
%TO.P,U1,1,TX0/PD3*%
%TO.N,unconnected-(U1-Pad1)*%
X136048750Y-99695000D03*
D12*
%TO.P,U1,2,RX1/PD2*%
%TO.N,unconnected-(U1-Pad2)*%
X138588750Y-99695000D03*
%TO.P,U1,3,GND*%
%TO.N,GND*%
X141128750Y-99695000D03*
%TO.P,U1,4,GND*%
X143668750Y-99695000D03*
%TO.P,U1,5,2/PD1*%
%TO.N,unconnected-(U1-Pad5)*%
X146208750Y-99695000D03*
%TO.P,U1,6,3/PD0*%
%TO.N,unconnected-(U1-Pad6)*%
X148748750Y-99695000D03*
%TO.P,U1,7,4/PD4*%
%TO.N,unconnected-(U1-Pad7)*%
X151288750Y-99695000D03*
%TO.P,U1,8,5/PC6*%
%TO.N,unconnected-(U1-Pad8)*%
X153828750Y-99695000D03*
%TO.P,U1,9,6/PD7*%
%TO.N,unconnected-(U1-Pad9)*%
X156368750Y-99695000D03*
%TO.P,U1,10,7/PE6*%
%TO.N,/COL4*%
X158908750Y-99695000D03*
%TO.P,U1,11,8/PB4*%
%TO.N,/COL3*%
X161448750Y-99695000D03*
%TO.P,U1,12,9/PB5*%
%TO.N,/COL2*%
X163988750Y-99695000D03*
%TO.P,U1,13,10/PB6*%
%TO.N,unconnected-(U1-Pad13)*%
X163988750Y-84455000D03*
%TO.P,U1,14,16/PB2*%
%TO.N,/COL1*%
X161448750Y-84455000D03*
%TO.P,U1,15,14/PB3*%
%TO.N,unconnected-(U1-Pad15)*%
X158908750Y-84455000D03*
%TO.P,U1,16,15/PB1*%
%TO.N,/ROW2*%
X156368750Y-84455000D03*
%TO.P,U1,17,A0/PF7*%
%TO.N,/ROW1*%
X153828750Y-84455000D03*
%TO.P,U1,18,A1/PF6*%
%TO.N,/ROW0*%
X151288750Y-84455000D03*
%TO.P,U1,19,A2/PF5*%
%TO.N,unconnected-(U1-Pad19)*%
X148748750Y-84455000D03*
%TO.P,U1,20,A3/PF4*%
%TO.N,/COL0*%
X146208750Y-84455000D03*
%TO.P,U1,21,VCC*%
%TO.N,+5V*%
X143668750Y-84455000D03*
%TO.P,U1,22,RST*%
%TO.N,Net-(SW1-Pad1)*%
X141128750Y-84455000D03*
%TO.P,U1,23,GND*%
%TO.N,GND*%
X138588750Y-84455000D03*
%TO.P,U1,24,RAW*%
%TO.N,unconnected-(U1-Pad24)*%
X136048750Y-84455000D03*
%TD*%
D10*
%TO.P,MX10,1,COL*%
%TO.N,/COL4*%
X220027500Y-89535000D03*
%TO.P,MX10,2,ROW*%
%TO.N,Net-(D10-Pad2)*%
X226377500Y-86995000D03*
%TD*%
%TO.P,MX1,1,COL*%
%TO.N,/COL0*%
X137477500Y-46672500D03*
%TO.P,MX1,2,ROW*%
%TO.N,Net-(D1-Pad2)*%
X143827500Y-44132500D03*
%TD*%
D13*
%TO.P,SW1,1,1*%
%TO.N,Net-(SW1-Pad1)*%
X229768750Y-46181250D03*
%TO.P,SW1,2,2*%
%TO.N,GND*%
X229768750Y-41181250D03*
%TD*%
D14*
%TO.N,/COL0*%
X137477500Y-72567283D02*
X144285217Y-79375000D01*
X145256250Y-79375000D02*
X146208750Y-80327500D01*
X144285217Y-79375000D02*
X145256250Y-79375000D01*
X146208750Y-80327500D02*
X146208750Y-84455000D01*
X137477500Y-46672500D02*
X137477500Y-70485000D01*
X137477500Y-70485000D02*
X137477500Y-72567283D01*
%TO.N,/COL1*%
X157321250Y-46672500D02*
X157321250Y-70485000D01*
X157321250Y-70485000D02*
X157321250Y-77152500D01*
X161448750Y-81280000D02*
X161448750Y-84455000D01*
X157321250Y-77152500D02*
X161448750Y-81280000D01*
%TO.N,/COL2*%
X178117500Y-99695000D02*
X163988750Y-99695000D01*
X180340000Y-97472500D02*
X178117500Y-99695000D01*
X180340000Y-46672500D02*
X180340000Y-89535000D01*
X180340000Y-89535000D02*
X180340000Y-97472500D01*
%TO.N,/COL3*%
X161925000Y-101600000D02*
X161448750Y-101123750D01*
X198437500Y-101600000D02*
X161925000Y-101600000D01*
X200183750Y-92710000D02*
X200025000Y-92868750D01*
X200183750Y-89535000D02*
X200183750Y-92710000D01*
X200025000Y-92868750D02*
X200025000Y-100012500D01*
X200025000Y-100012500D02*
X198437500Y-101600000D01*
X161448750Y-101123750D02*
X161448750Y-99695000D01*
X200183750Y-70485000D02*
X200183750Y-89535000D01*
%TO.N,/COL4*%
X158908750Y-100965000D02*
X158908750Y-99695000D01*
X160337500Y-102393750D02*
X158908750Y-100965000D01*
X217487500Y-102393750D02*
X160337500Y-102393750D01*
X220027500Y-99853750D02*
X217487500Y-102393750D01*
X220027500Y-89535000D02*
X220027500Y-99853750D01*
D15*
%TO.N,GND*%
X229768750Y-41181250D02*
X226918750Y-41181250D01*
X130175000Y-80168750D02*
X130968750Y-80962500D01*
X131762500Y-39687500D02*
X130175000Y-41275000D01*
X136525000Y-80962500D02*
X138588750Y-83026250D01*
X226918750Y-41181250D02*
X225425000Y-39687500D01*
X130175000Y-41275000D02*
X130175000Y-80168750D01*
X138588750Y-83026250D02*
X138588750Y-84455000D01*
X225425000Y-39687500D02*
X131762500Y-39687500D01*
X130968750Y-80962500D02*
X136525000Y-80962500D01*
D14*
%TO.N,Net-(SW1-Pad1)*%
X229768750Y-46181250D02*
X227950000Y-46181250D01*
X131762500Y-41275000D02*
X131762500Y-79375000D01*
X141128750Y-82391250D02*
X141128750Y-84455000D01*
X227950000Y-46181250D02*
X222250000Y-40481250D01*
X222250000Y-40481250D02*
X132556250Y-40481250D01*
X132556250Y-40481250D02*
X131762500Y-41275000D01*
X132556250Y-80168750D02*
X138906250Y-80168750D01*
X138906250Y-80168750D02*
X141128750Y-82391250D01*
X131762500Y-79375000D02*
X132556250Y-80168750D01*
%TD*%
%TA.AperFunction,Conductor*%
%TO.N,GND*%
G36*
X233332518Y-38610000D02*
G01*
X233347351Y-38612310D01*
X233347355Y-38612310D01*
X233356224Y-38613691D01*
X233368897Y-38612034D01*
X233396207Y-38611449D01*
X233538885Y-38623931D01*
X233560513Y-38627745D01*
X233720893Y-38670719D01*
X233741529Y-38678230D01*
X233881778Y-38743629D01*
X233892013Y-38748402D01*
X233911033Y-38759384D01*
X234047039Y-38854616D01*
X234063864Y-38868734D01*
X234181266Y-38986136D01*
X234195384Y-39002961D01*
X234290616Y-39138967D01*
X234301598Y-39157987D01*
X234371769Y-39308468D01*
X234379281Y-39329107D01*
X234422255Y-39489487D01*
X234426069Y-39511117D01*
X234437947Y-39646892D01*
X234437394Y-39663371D01*
X234437800Y-39663376D01*
X234437690Y-39672353D01*
X234436309Y-39681224D01*
X234437473Y-39690126D01*
X234437473Y-39690128D01*
X234440436Y-39712783D01*
X234441500Y-39729121D01*
X234441500Y-101550633D01*
X234440000Y-101570018D01*
X234437690Y-101584851D01*
X234437690Y-101584855D01*
X234436309Y-101593724D01*
X234437966Y-101606397D01*
X234438551Y-101633707D01*
X234433258Y-101694207D01*
X234426069Y-101776383D01*
X234422255Y-101798013D01*
X234379281Y-101958393D01*
X234371769Y-101979032D01*
X234301598Y-102129513D01*
X234290616Y-102148533D01*
X234195384Y-102284539D01*
X234181266Y-102301364D01*
X234063864Y-102418766D01*
X234047039Y-102432884D01*
X233911033Y-102528116D01*
X233892013Y-102539098D01*
X233741529Y-102609270D01*
X233720893Y-102616781D01*
X233560513Y-102659755D01*
X233538885Y-102663569D01*
X233492933Y-102667589D01*
X233403108Y-102675447D01*
X233386629Y-102674894D01*
X233386624Y-102675300D01*
X233377647Y-102675190D01*
X233368776Y-102673809D01*
X233359874Y-102674973D01*
X233359872Y-102674973D01*
X233346048Y-102676781D01*
X233337214Y-102677936D01*
X233320879Y-102679000D01*
X218405172Y-102679000D01*
X218337051Y-102658998D01*
X218290558Y-102605342D01*
X218280454Y-102535068D01*
X218309948Y-102470488D01*
X218316077Y-102463905D01*
X220420977Y-100359005D01*
X220429303Y-100351428D01*
X220435803Y-100347303D01*
X220449743Y-100332459D01*
X220482600Y-100297469D01*
X220485355Y-100294627D01*
X220505138Y-100274844D01*
X220507629Y-100271633D01*
X220515338Y-100262606D01*
X220527375Y-100249788D01*
X220545717Y-100230256D01*
X220555522Y-100212421D01*
X220566376Y-100195897D01*
X220573991Y-100186080D01*
X220573992Y-100186079D01*
X220578849Y-100179817D01*
X220596469Y-100139100D01*
X220601692Y-100128439D01*
X220619249Y-100096503D01*
X220619251Y-100096498D01*
X220623069Y-100089553D01*
X220625039Y-100081879D01*
X220625042Y-100081872D01*
X220628132Y-100069837D01*
X220634536Y-100051132D01*
X220639467Y-100039737D01*
X220642617Y-100032458D01*
X220649560Y-99988623D01*
X220651967Y-99977001D01*
X220652074Y-99976586D01*
X220663000Y-99934032D01*
X220663000Y-99913685D01*
X220664551Y-99893974D01*
X220666495Y-99881700D01*
X220667735Y-99873871D01*
X220663559Y-99829694D01*
X220663000Y-99817836D01*
X220663000Y-92232438D01*
X221335100Y-92232438D01*
X221374564Y-92544830D01*
X221452870Y-92849813D01*
X221568784Y-93142577D01*
X221570686Y-93146036D01*
X221570687Y-93146039D01*
X221702612Y-93386009D01*
X221720476Y-93418504D01*
X221905555Y-93673244D01*
X222121102Y-93902778D01*
X222363718Y-94103487D01*
X222629576Y-94272206D01*
X222633155Y-94273890D01*
X222633162Y-94273894D01*
X222910894Y-94404584D01*
X222910898Y-94404586D01*
X222914484Y-94406273D01*
X223213948Y-94503575D01*
X223523246Y-94562577D01*
X223616800Y-94568463D01*
X223756858Y-94577275D01*
X223756874Y-94577276D01*
X223758853Y-94577400D01*
X223916147Y-94577400D01*
X223918126Y-94577276D01*
X223918142Y-94577275D01*
X224058200Y-94568463D01*
X224151754Y-94562577D01*
X224461052Y-94503575D01*
X224760516Y-94406273D01*
X224764102Y-94404586D01*
X224764106Y-94404584D01*
X225041838Y-94273894D01*
X225041845Y-94273890D01*
X225045424Y-94272206D01*
X225311282Y-94103487D01*
X225553898Y-93902778D01*
X225769445Y-93673244D01*
X225954524Y-93418504D01*
X225972389Y-93386009D01*
X226104313Y-93146039D01*
X226104314Y-93146036D01*
X226106216Y-93142577D01*
X226222130Y-92849813D01*
X226300436Y-92544830D01*
X226339900Y-92232438D01*
X226339900Y-92009593D01*
X227530539Y-92009593D01*
X227539348Y-92244216D01*
X227540443Y-92249434D01*
X227565294Y-92367871D01*
X227587562Y-92474001D01*
X227673802Y-92692377D01*
X227676571Y-92696940D01*
X227759287Y-92833251D01*
X227795604Y-92893100D01*
X227949485Y-93070432D01*
X227953617Y-93073820D01*
X228126916Y-93215917D01*
X228126922Y-93215921D01*
X228131044Y-93219301D01*
X228135680Y-93221940D01*
X228135683Y-93221942D01*
X228246908Y-93285255D01*
X228335090Y-93335451D01*
X228555789Y-93415561D01*
X228561038Y-93416510D01*
X228561041Y-93416511D01*
X228642115Y-93431171D01*
X228786830Y-93457340D01*
X228790969Y-93457535D01*
X228790976Y-93457536D01*
X228809940Y-93458430D01*
X228809949Y-93458430D01*
X228811429Y-93458500D01*
X228976450Y-93458500D01*
X229057799Y-93451597D01*
X229146137Y-93444102D01*
X229146141Y-93444101D01*
X229151448Y-93443651D01*
X229156603Y-93442313D01*
X229156609Y-93442312D01*
X229373535Y-93386009D01*
X229373534Y-93386009D01*
X229378706Y-93384667D01*
X229383572Y-93382475D01*
X229383575Y-93382474D01*
X229587917Y-93290424D01*
X229587920Y-93290423D01*
X229592778Y-93288234D01*
X229787541Y-93157112D01*
X229957427Y-92995049D01*
X229961263Y-92989894D01*
X230094392Y-92810961D01*
X230097578Y-92806679D01*
X230126282Y-92750224D01*
X230201569Y-92602144D01*
X230201569Y-92602143D01*
X230203987Y-92597388D01*
X230273611Y-92373160D01*
X230290702Y-92244216D01*
X230303761Y-92145690D01*
X230303761Y-92145687D01*
X230304461Y-92140407D01*
X230295652Y-91905784D01*
X230277858Y-91820978D01*
X230248535Y-91681226D01*
X230248534Y-91681223D01*
X230247438Y-91675999D01*
X230161198Y-91457623D01*
X230039396Y-91256900D01*
X229885515Y-91079568D01*
X229856680Y-91055925D01*
X229708084Y-90934083D01*
X229708078Y-90934079D01*
X229703956Y-90930699D01*
X229699320Y-90928060D01*
X229699317Y-90928058D01*
X229504553Y-90817192D01*
X229499910Y-90814549D01*
X229279211Y-90734439D01*
X229273962Y-90733490D01*
X229273959Y-90733489D01*
X229192885Y-90718829D01*
X229048170Y-90692660D01*
X229044031Y-90692465D01*
X229044024Y-90692464D01*
X229025060Y-90691570D01*
X229025051Y-90691570D01*
X229023571Y-90691500D01*
X228858550Y-90691500D01*
X228777201Y-90698403D01*
X228688863Y-90705898D01*
X228688859Y-90705899D01*
X228683552Y-90706349D01*
X228678397Y-90707687D01*
X228678391Y-90707688D01*
X228500677Y-90753814D01*
X228456294Y-90765333D01*
X228451428Y-90767525D01*
X228451425Y-90767526D01*
X228247083Y-90859576D01*
X228247080Y-90859577D01*
X228242222Y-90861766D01*
X228047459Y-90992888D01*
X228043602Y-90996567D01*
X228043600Y-90996569D01*
X228035851Y-91003961D01*
X227877573Y-91154951D01*
X227737422Y-91343321D01*
X227735006Y-91348072D01*
X227735004Y-91348076D01*
X227633431Y-91547856D01*
X227631013Y-91552612D01*
X227561389Y-91776840D01*
X227560688Y-91782129D01*
X227543592Y-91911116D01*
X227530539Y-92009593D01*
X226339900Y-92009593D01*
X226339900Y-91917562D01*
X226300436Y-91605170D01*
X226222130Y-91300187D01*
X226106216Y-91007423D01*
X226100249Y-90996569D01*
X225956433Y-90734968D01*
X225956431Y-90734965D01*
X225954524Y-90731496D01*
X225769445Y-90476756D01*
X225553898Y-90247222D01*
X225311282Y-90046513D01*
X225045424Y-89877794D01*
X225041845Y-89876110D01*
X225041838Y-89876106D01*
X224764106Y-89745416D01*
X224764102Y-89745414D01*
X224760516Y-89743727D01*
X224461052Y-89646425D01*
X224151754Y-89587423D01*
X224058200Y-89581537D01*
X223918142Y-89572725D01*
X223918126Y-89572724D01*
X223916147Y-89572600D01*
X223758853Y-89572600D01*
X223756874Y-89572724D01*
X223756858Y-89572725D01*
X223616800Y-89581537D01*
X223523246Y-89587423D01*
X223213948Y-89646425D01*
X222914484Y-89743727D01*
X222910898Y-89745414D01*
X222910894Y-89745416D01*
X222633162Y-89876106D01*
X222633155Y-89876110D01*
X222629576Y-89877794D01*
X222363718Y-90046513D01*
X222121102Y-90247222D01*
X221905555Y-90476756D01*
X221720476Y-90731496D01*
X221718569Y-90734965D01*
X221718567Y-90734968D01*
X221574751Y-90996569D01*
X221568784Y-91007423D01*
X221452870Y-91300187D01*
X221374564Y-91605170D01*
X221335100Y-91917562D01*
X221335100Y-92232438D01*
X220663000Y-92232438D01*
X220663000Y-91124046D01*
X220683002Y-91055925D01*
X220740782Y-91007637D01*
X220766813Y-90996855D01*
X220766817Y-90996853D01*
X220771387Y-90994960D01*
X220990616Y-90860616D01*
X221186131Y-90693631D01*
X221353116Y-90498116D01*
X221487460Y-90278887D01*
X221499381Y-90250109D01*
X221583961Y-90045913D01*
X221583962Y-90045911D01*
X221585855Y-90041340D01*
X221645878Y-89791326D01*
X221666051Y-89535000D01*
X221645878Y-89278674D01*
X221585855Y-89028660D01*
X221487460Y-88791113D01*
X221353116Y-88571884D01*
X221186131Y-88376369D01*
X220990616Y-88209384D01*
X220771387Y-88075040D01*
X220766817Y-88073147D01*
X220766813Y-88073145D01*
X220538413Y-87978539D01*
X220538411Y-87978538D01*
X220533840Y-87976645D01*
X220406003Y-87945954D01*
X220288639Y-87917777D01*
X220288633Y-87917776D01*
X220283826Y-87916622D01*
X220027500Y-87896449D01*
X219771174Y-87916622D01*
X219766367Y-87917776D01*
X219766361Y-87917777D01*
X219648997Y-87945954D01*
X219521160Y-87976645D01*
X219516589Y-87978538D01*
X219516587Y-87978539D01*
X219288187Y-88073145D01*
X219288183Y-88073147D01*
X219283613Y-88075040D01*
X219064384Y-88209384D01*
X218868869Y-88376369D01*
X218701884Y-88571884D01*
X218567540Y-88791113D01*
X218469145Y-89028660D01*
X218409122Y-89278674D01*
X218388949Y-89535000D01*
X218409122Y-89791326D01*
X218469145Y-90041340D01*
X218471038Y-90045911D01*
X218471039Y-90045913D01*
X218555620Y-90250109D01*
X218567540Y-90278887D01*
X218701884Y-90498116D01*
X218703419Y-90499914D01*
X218727041Y-90566098D01*
X218710967Y-90635251D01*
X218660058Y-90684736D01*
X218611901Y-90698852D01*
X218528863Y-90705898D01*
X218528859Y-90705899D01*
X218523552Y-90706349D01*
X218518397Y-90707687D01*
X218518391Y-90707688D01*
X218340677Y-90753814D01*
X218296294Y-90765333D01*
X218291428Y-90767525D01*
X218291425Y-90767526D01*
X218087083Y-90859576D01*
X218087080Y-90859577D01*
X218082222Y-90861766D01*
X217887459Y-90992888D01*
X217883602Y-90996567D01*
X217883600Y-90996569D01*
X217875851Y-91003961D01*
X217717573Y-91154951D01*
X217577422Y-91343321D01*
X217575006Y-91348072D01*
X217575004Y-91348076D01*
X217473431Y-91547856D01*
X217471013Y-91552612D01*
X217401389Y-91776840D01*
X217400688Y-91782129D01*
X217383592Y-91911116D01*
X217370539Y-92009593D01*
X217379348Y-92244216D01*
X217380443Y-92249434D01*
X217405294Y-92367871D01*
X217427562Y-92474001D01*
X217513802Y-92692377D01*
X217516571Y-92696940D01*
X217599287Y-92833251D01*
X217635604Y-92893100D01*
X217789485Y-93070432D01*
X217793617Y-93073820D01*
X217966916Y-93215917D01*
X217966922Y-93215921D01*
X217971044Y-93219301D01*
X217975680Y-93221940D01*
X217975683Y-93221942D01*
X218086908Y-93285255D01*
X218175090Y-93335451D01*
X218395789Y-93415561D01*
X218401038Y-93416510D01*
X218401041Y-93416511D01*
X218482115Y-93431171D01*
X218626830Y-93457340D01*
X218630969Y-93457535D01*
X218630976Y-93457536D01*
X218649940Y-93458430D01*
X218649949Y-93458430D01*
X218651429Y-93458500D01*
X218816450Y-93458500D01*
X218897799Y-93451597D01*
X218986137Y-93444102D01*
X218986141Y-93444101D01*
X218991448Y-93443651D01*
X218996603Y-93442313D01*
X218996609Y-93442312D01*
X219213544Y-93386007D01*
X219213546Y-93386006D01*
X219218706Y-93384667D01*
X219223570Y-93382476D01*
X219224146Y-93382273D01*
X219295043Y-93378511D01*
X219356719Y-93413676D01*
X219389592Y-93476603D01*
X219392000Y-93501118D01*
X219392000Y-99538327D01*
X219371998Y-99606448D01*
X219355095Y-99627422D01*
X217261172Y-101721345D01*
X217198860Y-101755371D01*
X217172077Y-101758250D01*
X199482172Y-101758250D01*
X199414051Y-101738248D01*
X199367558Y-101684592D01*
X199357454Y-101614318D01*
X199386948Y-101549738D01*
X199393077Y-101543155D01*
X199802498Y-101133735D01*
X200418483Y-100517750D01*
X200426809Y-100510174D01*
X200433303Y-100506053D01*
X200480086Y-100456234D01*
X200482840Y-100453393D01*
X200502639Y-100433594D01*
X200505063Y-100430469D01*
X200505071Y-100430460D01*
X200505137Y-100430374D01*
X200512845Y-100421349D01*
X200537790Y-100394785D01*
X200543217Y-100389006D01*
X200553023Y-100371169D01*
X200563873Y-100354653D01*
X200576350Y-100338567D01*
X200593976Y-100297834D01*
X200599193Y-100287186D01*
X200607702Y-100271708D01*
X200620569Y-100248303D01*
X200622540Y-100240628D01*
X200622542Y-100240622D01*
X200625631Y-100228589D01*
X200632034Y-100209887D01*
X200640117Y-100191208D01*
X200647060Y-100147373D01*
X200649467Y-100135751D01*
X200650008Y-100133644D01*
X200660500Y-100092782D01*
X200660500Y-100072435D01*
X200662051Y-100052724D01*
X200663995Y-100040450D01*
X200665235Y-100032621D01*
X200661059Y-99988444D01*
X200660500Y-99976586D01*
X200660500Y-93180551D01*
X200680502Y-93112430D01*
X200694649Y-93094299D01*
X200696539Y-93092286D01*
X200701967Y-93086506D01*
X200711772Y-93068671D01*
X200722626Y-93052147D01*
X200730241Y-93042330D01*
X200730242Y-93042329D01*
X200735099Y-93036067D01*
X200752719Y-92995350D01*
X200757942Y-92984689D01*
X200775499Y-92952753D01*
X200775501Y-92952748D01*
X200779319Y-92945803D01*
X200781289Y-92938129D01*
X200781292Y-92938122D01*
X200784382Y-92926087D01*
X200790786Y-92907382D01*
X200795717Y-92895987D01*
X200798867Y-92888708D01*
X200804446Y-92853483D01*
X200805810Y-92844873D01*
X200808217Y-92833251D01*
X200819250Y-92790282D01*
X200819250Y-92769935D01*
X200820801Y-92750224D01*
X200822745Y-92737950D01*
X200823985Y-92730121D01*
X200819809Y-92685944D01*
X200819250Y-92674086D01*
X200819250Y-92232438D01*
X201491350Y-92232438D01*
X201530814Y-92544830D01*
X201609120Y-92849813D01*
X201725034Y-93142577D01*
X201726936Y-93146036D01*
X201726937Y-93146039D01*
X201858862Y-93386009D01*
X201876726Y-93418504D01*
X202061805Y-93673244D01*
X202277352Y-93902778D01*
X202519968Y-94103487D01*
X202785826Y-94272206D01*
X202789405Y-94273890D01*
X202789412Y-94273894D01*
X203067144Y-94404584D01*
X203067148Y-94404586D01*
X203070734Y-94406273D01*
X203370198Y-94503575D01*
X203679496Y-94562577D01*
X203773050Y-94568463D01*
X203913108Y-94577275D01*
X203913124Y-94577276D01*
X203915103Y-94577400D01*
X204072397Y-94577400D01*
X204074376Y-94577276D01*
X204074392Y-94577275D01*
X204214450Y-94568463D01*
X204308004Y-94562577D01*
X204617302Y-94503575D01*
X204916766Y-94406273D01*
X204920352Y-94404586D01*
X204920356Y-94404584D01*
X205198088Y-94273894D01*
X205198095Y-94273890D01*
X205201674Y-94272206D01*
X205467532Y-94103487D01*
X205710148Y-93902778D01*
X205925695Y-93673244D01*
X206110774Y-93418504D01*
X206128639Y-93386009D01*
X206260563Y-93146039D01*
X206260564Y-93146036D01*
X206262466Y-93142577D01*
X206378380Y-92849813D01*
X206456686Y-92544830D01*
X206496150Y-92232438D01*
X206496150Y-92009593D01*
X207686789Y-92009593D01*
X207695598Y-92244216D01*
X207696693Y-92249434D01*
X207721544Y-92367871D01*
X207743812Y-92474001D01*
X207830052Y-92692377D01*
X207832821Y-92696940D01*
X207915537Y-92833251D01*
X207951854Y-92893100D01*
X208105735Y-93070432D01*
X208109867Y-93073820D01*
X208283166Y-93215917D01*
X208283172Y-93215921D01*
X208287294Y-93219301D01*
X208291930Y-93221940D01*
X208291933Y-93221942D01*
X208403158Y-93285255D01*
X208491340Y-93335451D01*
X208712039Y-93415561D01*
X208717288Y-93416510D01*
X208717291Y-93416511D01*
X208798365Y-93431171D01*
X208943080Y-93457340D01*
X208947219Y-93457535D01*
X208947226Y-93457536D01*
X208966190Y-93458430D01*
X208966199Y-93458430D01*
X208967679Y-93458500D01*
X209132700Y-93458500D01*
X209214049Y-93451597D01*
X209302387Y-93444102D01*
X209302391Y-93444101D01*
X209307698Y-93443651D01*
X209312853Y-93442313D01*
X209312859Y-93442312D01*
X209529785Y-93386009D01*
X209529784Y-93386009D01*
X209534956Y-93384667D01*
X209539822Y-93382475D01*
X209539825Y-93382474D01*
X209744167Y-93290424D01*
X209744170Y-93290423D01*
X209749028Y-93288234D01*
X209943791Y-93157112D01*
X210113677Y-92995049D01*
X210117513Y-92989894D01*
X210250642Y-92810961D01*
X210253828Y-92806679D01*
X210282532Y-92750224D01*
X210357819Y-92602144D01*
X210357819Y-92602143D01*
X210360237Y-92597388D01*
X210429861Y-92373160D01*
X210446952Y-92244216D01*
X210460011Y-92145690D01*
X210460011Y-92145687D01*
X210460711Y-92140407D01*
X210451902Y-91905784D01*
X210434108Y-91820978D01*
X210404785Y-91681226D01*
X210404784Y-91681223D01*
X210403688Y-91675999D01*
X210317448Y-91457623D01*
X210195646Y-91256900D01*
X210041765Y-91079568D01*
X210012930Y-91055925D01*
X209864334Y-90934083D01*
X209864328Y-90934079D01*
X209860206Y-90930699D01*
X209855570Y-90928060D01*
X209855567Y-90928058D01*
X209660803Y-90817192D01*
X209656160Y-90814549D01*
X209435461Y-90734439D01*
X209430212Y-90733490D01*
X209430209Y-90733489D01*
X209349135Y-90718829D01*
X209204420Y-90692660D01*
X209200281Y-90692465D01*
X209200274Y-90692464D01*
X209181310Y-90691570D01*
X209181301Y-90691570D01*
X209179821Y-90691500D01*
X209014800Y-90691500D01*
X208933451Y-90698403D01*
X208845113Y-90705898D01*
X208845109Y-90705899D01*
X208839802Y-90706349D01*
X208834647Y-90707687D01*
X208834641Y-90707688D01*
X208656927Y-90753814D01*
X208612544Y-90765333D01*
X208607678Y-90767525D01*
X208607675Y-90767526D01*
X208403333Y-90859576D01*
X208403330Y-90859577D01*
X208398472Y-90861766D01*
X208203709Y-90992888D01*
X208199852Y-90996567D01*
X208199850Y-90996569D01*
X208192101Y-91003961D01*
X208033823Y-91154951D01*
X207893672Y-91343321D01*
X207891256Y-91348072D01*
X207891254Y-91348076D01*
X207789681Y-91547856D01*
X207787263Y-91552612D01*
X207717639Y-91776840D01*
X207716938Y-91782129D01*
X207699842Y-91911116D01*
X207686789Y-92009593D01*
X206496150Y-92009593D01*
X206496150Y-91917562D01*
X206456686Y-91605170D01*
X206378380Y-91300187D01*
X206262466Y-91007423D01*
X206256499Y-90996569D01*
X206112683Y-90734968D01*
X206112681Y-90734965D01*
X206110774Y-90731496D01*
X205925695Y-90476756D01*
X205710148Y-90247222D01*
X205467532Y-90046513D01*
X205201674Y-89877794D01*
X205198095Y-89876110D01*
X205198088Y-89876106D01*
X204920356Y-89745416D01*
X204920352Y-89745414D01*
X204916766Y-89743727D01*
X204617302Y-89646425D01*
X204308004Y-89587423D01*
X204214450Y-89581537D01*
X204074392Y-89572725D01*
X204074376Y-89572724D01*
X204072397Y-89572600D01*
X203915103Y-89572600D01*
X203913124Y-89572724D01*
X203913108Y-89572725D01*
X203773050Y-89581537D01*
X203679496Y-89587423D01*
X203370198Y-89646425D01*
X203070734Y-89743727D01*
X203067148Y-89745414D01*
X203067144Y-89745416D01*
X202789412Y-89876106D01*
X202789405Y-89876110D01*
X202785826Y-89877794D01*
X202519968Y-90046513D01*
X202277352Y-90247222D01*
X202061805Y-90476756D01*
X201876726Y-90731496D01*
X201874819Y-90734965D01*
X201874817Y-90734968D01*
X201731001Y-90996569D01*
X201725034Y-91007423D01*
X201609120Y-91300187D01*
X201530814Y-91605170D01*
X201491350Y-91917562D01*
X201491350Y-92232438D01*
X200819250Y-92232438D01*
X200819250Y-91124046D01*
X200839252Y-91055925D01*
X200897032Y-91007637D01*
X200923063Y-90996855D01*
X200923067Y-90996853D01*
X200927637Y-90994960D01*
X201146866Y-90860616D01*
X201342381Y-90693631D01*
X201509366Y-90498116D01*
X201643710Y-90278887D01*
X201655631Y-90250109D01*
X201740211Y-90045913D01*
X201740212Y-90045911D01*
X201742105Y-90041340D01*
X201802128Y-89791326D01*
X201822301Y-89535000D01*
X201802128Y-89278674D01*
X201742105Y-89028660D01*
X201643710Y-88791113D01*
X201509366Y-88571884D01*
X201342381Y-88376369D01*
X201146866Y-88209384D01*
X200927637Y-88075040D01*
X200923067Y-88073147D01*
X200923063Y-88073145D01*
X200897032Y-88062363D01*
X200841751Y-88017815D01*
X200819250Y-87945954D01*
X200819250Y-86995000D01*
X204895199Y-86995000D01*
X204915372Y-87251326D01*
X204975395Y-87501340D01*
X205073790Y-87738887D01*
X205208134Y-87958116D01*
X205375119Y-88153631D01*
X205570634Y-88320616D01*
X205789863Y-88454960D01*
X205794433Y-88456853D01*
X205794437Y-88456855D01*
X206022837Y-88551461D01*
X206027410Y-88553355D01*
X206088907Y-88568119D01*
X206272611Y-88612223D01*
X206272617Y-88612224D01*
X206277424Y-88613378D01*
X206533750Y-88633551D01*
X206790076Y-88613378D01*
X206794883Y-88612224D01*
X206794889Y-88612223D01*
X206978593Y-88568119D01*
X207040090Y-88553355D01*
X207044663Y-88551461D01*
X207273063Y-88456855D01*
X207273067Y-88456853D01*
X207277637Y-88454960D01*
X207496866Y-88320616D01*
X207692381Y-88153631D01*
X207859366Y-87958116D01*
X207993710Y-87738887D01*
X208092105Y-87501340D01*
X208152128Y-87251326D01*
X208172301Y-86995000D01*
X224738949Y-86995000D01*
X224759122Y-87251326D01*
X224819145Y-87501340D01*
X224917540Y-87738887D01*
X225051884Y-87958116D01*
X225218869Y-88153631D01*
X225414384Y-88320616D01*
X225633613Y-88454960D01*
X225638183Y-88456853D01*
X225638187Y-88456855D01*
X225866587Y-88551461D01*
X225871160Y-88553355D01*
X225932657Y-88568119D01*
X226116361Y-88612223D01*
X226116367Y-88612224D01*
X226121174Y-88613378D01*
X226377500Y-88633551D01*
X226633826Y-88613378D01*
X226638633Y-88612224D01*
X226638639Y-88612223D01*
X226822343Y-88568119D01*
X226883840Y-88553355D01*
X226888413Y-88551461D01*
X227116813Y-88456855D01*
X227116817Y-88456853D01*
X227121387Y-88454960D01*
X227340616Y-88320616D01*
X227536131Y-88153631D01*
X227703116Y-87958116D01*
X227837460Y-87738887D01*
X227935855Y-87501340D01*
X227995878Y-87251326D01*
X228016051Y-86995000D01*
X227995878Y-86738674D01*
X227935855Y-86488660D01*
X227837460Y-86251113D01*
X227703116Y-86031884D01*
X227536131Y-85836369D01*
X227340616Y-85669384D01*
X227121387Y-85535040D01*
X227116817Y-85533147D01*
X227116813Y-85533145D01*
X226888413Y-85438539D01*
X226888411Y-85438538D01*
X226883840Y-85436645D01*
X226796998Y-85415796D01*
X226638639Y-85377777D01*
X226638633Y-85377776D01*
X226633826Y-85376622D01*
X226377500Y-85356449D01*
X226121174Y-85376622D01*
X226116367Y-85377776D01*
X226116361Y-85377777D01*
X225958002Y-85415796D01*
X225871160Y-85436645D01*
X225866589Y-85438538D01*
X225866587Y-85438539D01*
X225638187Y-85533145D01*
X225638183Y-85533147D01*
X225633613Y-85535040D01*
X225414384Y-85669384D01*
X225218869Y-85836369D01*
X225051884Y-86031884D01*
X224917540Y-86251113D01*
X224819145Y-86488660D01*
X224759122Y-86738674D01*
X224738949Y-86995000D01*
X208172301Y-86995000D01*
X208152128Y-86738674D01*
X208092105Y-86488660D01*
X207993710Y-86251113D01*
X207859366Y-86031884D01*
X207692381Y-85836369D01*
X207496866Y-85669384D01*
X207277637Y-85535040D01*
X207273067Y-85533147D01*
X207273063Y-85533145D01*
X207044663Y-85438539D01*
X207044661Y-85438538D01*
X207040090Y-85436645D01*
X206953248Y-85415796D01*
X206794889Y-85377777D01*
X206794883Y-85377776D01*
X206790076Y-85376622D01*
X206533750Y-85356449D01*
X206277424Y-85376622D01*
X206272617Y-85377776D01*
X206272611Y-85377777D01*
X206114252Y-85415796D01*
X206027410Y-85436645D01*
X206022839Y-85438538D01*
X206022837Y-85438539D01*
X205794437Y-85533145D01*
X205794433Y-85533147D01*
X205789863Y-85535040D01*
X205570634Y-85669384D01*
X205375119Y-85836369D01*
X205208134Y-86031884D01*
X205073790Y-86251113D01*
X204975395Y-86488660D01*
X204915372Y-86738674D01*
X204895199Y-86995000D01*
X200819250Y-86995000D01*
X200819250Y-73182438D01*
X201491350Y-73182438D01*
X201530814Y-73494830D01*
X201609120Y-73799813D01*
X201725034Y-74092577D01*
X201726936Y-74096036D01*
X201726937Y-74096039D01*
X201858862Y-74336009D01*
X201876726Y-74368504D01*
X202061805Y-74623244D01*
X202277352Y-74852778D01*
X202519968Y-75053487D01*
X202785826Y-75222206D01*
X202789405Y-75223890D01*
X202789412Y-75223894D01*
X203067144Y-75354584D01*
X203067148Y-75354586D01*
X203070734Y-75356273D01*
X203370198Y-75453575D01*
X203679496Y-75512577D01*
X203773050Y-75518463D01*
X203913108Y-75527275D01*
X203913124Y-75527276D01*
X203915103Y-75527400D01*
X204072397Y-75527400D01*
X204074376Y-75527276D01*
X204074392Y-75527275D01*
X204214450Y-75518463D01*
X204308004Y-75512577D01*
X204617302Y-75453575D01*
X204916766Y-75356273D01*
X204920352Y-75354586D01*
X204920356Y-75354584D01*
X205198088Y-75223894D01*
X205198095Y-75223890D01*
X205201674Y-75222206D01*
X205467532Y-75053487D01*
X205710148Y-74852778D01*
X205925695Y-74623244D01*
X206110774Y-74368504D01*
X206128639Y-74336009D01*
X206260563Y-74096039D01*
X206260564Y-74096036D01*
X206262466Y-74092577D01*
X206378380Y-73799813D01*
X206456686Y-73494830D01*
X206496150Y-73182438D01*
X206496150Y-72959593D01*
X207686789Y-72959593D01*
X207695598Y-73194216D01*
X207696693Y-73199434D01*
X207721544Y-73317871D01*
X207743812Y-73424001D01*
X207830052Y-73642377D01*
X207951854Y-73843100D01*
X208105735Y-74020432D01*
X208109867Y-74023820D01*
X208283166Y-74165917D01*
X208283172Y-74165921D01*
X208287294Y-74169301D01*
X208291930Y-74171940D01*
X208291933Y-74171942D01*
X208403158Y-74235255D01*
X208491340Y-74285451D01*
X208712039Y-74365561D01*
X208717288Y-74366510D01*
X208717291Y-74366511D01*
X208798365Y-74381171D01*
X208943080Y-74407340D01*
X208947219Y-74407535D01*
X208947226Y-74407536D01*
X208966190Y-74408430D01*
X208966199Y-74408430D01*
X208967679Y-74408500D01*
X209132700Y-74408500D01*
X209214049Y-74401597D01*
X209302387Y-74394102D01*
X209302391Y-74394101D01*
X209307698Y-74393651D01*
X209312853Y-74392313D01*
X209312859Y-74392312D01*
X209529785Y-74336009D01*
X209529784Y-74336009D01*
X209534956Y-74334667D01*
X209539822Y-74332475D01*
X209539825Y-74332474D01*
X209744167Y-74240424D01*
X209744170Y-74240423D01*
X209749028Y-74238234D01*
X209943791Y-74107112D01*
X210113677Y-73945049D01*
X210253828Y-73756679D01*
X210314469Y-73637408D01*
X210357819Y-73552144D01*
X210357819Y-73552143D01*
X210360237Y-73547388D01*
X210429861Y-73323160D01*
X210446952Y-73194216D01*
X210460011Y-73095690D01*
X210460011Y-73095687D01*
X210460711Y-73090407D01*
X210451902Y-72855784D01*
X210434108Y-72770978D01*
X210404785Y-72631226D01*
X210404784Y-72631223D01*
X210403688Y-72625999D01*
X210317448Y-72407623D01*
X210224232Y-72254008D01*
X210198414Y-72211461D01*
X210198412Y-72211458D01*
X210195646Y-72206900D01*
X210041765Y-72029568D01*
X210012930Y-72005925D01*
X209864334Y-71884083D01*
X209864328Y-71884079D01*
X209860206Y-71880699D01*
X209855570Y-71878060D01*
X209855567Y-71878058D01*
X209660803Y-71767192D01*
X209656160Y-71764549D01*
X209435461Y-71684439D01*
X209430212Y-71683490D01*
X209430209Y-71683489D01*
X209349135Y-71668829D01*
X209204420Y-71642660D01*
X209200281Y-71642465D01*
X209200274Y-71642464D01*
X209181310Y-71641570D01*
X209181301Y-71641570D01*
X209179821Y-71641500D01*
X209014800Y-71641500D01*
X208933451Y-71648403D01*
X208845113Y-71655898D01*
X208845109Y-71655899D01*
X208839802Y-71656349D01*
X208834647Y-71657687D01*
X208834641Y-71657688D01*
X208656927Y-71703814D01*
X208612544Y-71715333D01*
X208607678Y-71717525D01*
X208607675Y-71717526D01*
X208403333Y-71809576D01*
X208403330Y-71809577D01*
X208398472Y-71811766D01*
X208203709Y-71942888D01*
X208199852Y-71946567D01*
X208199850Y-71946569D01*
X208192101Y-71953961D01*
X208033823Y-72104951D01*
X207893672Y-72293321D01*
X207891256Y-72298072D01*
X207891254Y-72298076D01*
X207789681Y-72497856D01*
X207787263Y-72502612D01*
X207717639Y-72726840D01*
X207716938Y-72732129D01*
X207699842Y-72861116D01*
X207686789Y-72959593D01*
X206496150Y-72959593D01*
X206496150Y-72867562D01*
X206456686Y-72555170D01*
X206378380Y-72250187D01*
X206262466Y-71957423D01*
X206256499Y-71946569D01*
X206112683Y-71684968D01*
X206112681Y-71684965D01*
X206110774Y-71681496D01*
X205925695Y-71426756D01*
X205710148Y-71197222D01*
X205467532Y-70996513D01*
X205201674Y-70827794D01*
X205198095Y-70826110D01*
X205198088Y-70826106D01*
X204920356Y-70695416D01*
X204920352Y-70695414D01*
X204916766Y-70693727D01*
X204617302Y-70596425D01*
X204308004Y-70537423D01*
X204214450Y-70531537D01*
X204074392Y-70522725D01*
X204074376Y-70522724D01*
X204072397Y-70522600D01*
X203915103Y-70522600D01*
X203913124Y-70522724D01*
X203913108Y-70522725D01*
X203773050Y-70531537D01*
X203679496Y-70537423D01*
X203370198Y-70596425D01*
X203070734Y-70693727D01*
X203067148Y-70695414D01*
X203067144Y-70695416D01*
X202789412Y-70826106D01*
X202789405Y-70826110D01*
X202785826Y-70827794D01*
X202519968Y-70996513D01*
X202277352Y-71197222D01*
X202061805Y-71426756D01*
X201876726Y-71681496D01*
X201874819Y-71684965D01*
X201874817Y-71684968D01*
X201731001Y-71946569D01*
X201725034Y-71957423D01*
X201609120Y-72250187D01*
X201530814Y-72555170D01*
X201491350Y-72867562D01*
X201491350Y-73182438D01*
X200819250Y-73182438D01*
X200819250Y-72074046D01*
X200839252Y-72005925D01*
X200897032Y-71957637D01*
X200923063Y-71946855D01*
X200923067Y-71946853D01*
X200927637Y-71944960D01*
X201146866Y-71810616D01*
X201342381Y-71643631D01*
X201509366Y-71448116D01*
X201643710Y-71228887D01*
X201655631Y-71200109D01*
X201740211Y-70995913D01*
X201740212Y-70995911D01*
X201742105Y-70991340D01*
X201802128Y-70741326D01*
X201822301Y-70485000D01*
X201802128Y-70228674D01*
X201742105Y-69978660D01*
X201643710Y-69741113D01*
X201509366Y-69521884D01*
X201342381Y-69326369D01*
X201146866Y-69159384D01*
X200927637Y-69025040D01*
X200923067Y-69023147D01*
X200923063Y-69023145D01*
X200694663Y-68928539D01*
X200694661Y-68928538D01*
X200690090Y-68926645D01*
X200562253Y-68895954D01*
X200444889Y-68867777D01*
X200444883Y-68867776D01*
X200440076Y-68866622D01*
X200183750Y-68846449D01*
X199927424Y-68866622D01*
X199922617Y-68867776D01*
X199922611Y-68867777D01*
X199805247Y-68895954D01*
X199677410Y-68926645D01*
X199672839Y-68928538D01*
X199672837Y-68928539D01*
X199444437Y-69023145D01*
X199444433Y-69023147D01*
X199439863Y-69025040D01*
X199220634Y-69159384D01*
X199025119Y-69326369D01*
X198858134Y-69521884D01*
X198723790Y-69741113D01*
X198625395Y-69978660D01*
X198565372Y-70228674D01*
X198545199Y-70485000D01*
X198565372Y-70741326D01*
X198625395Y-70991340D01*
X198627288Y-70995911D01*
X198627289Y-70995913D01*
X198711870Y-71200109D01*
X198723790Y-71228887D01*
X198858134Y-71448116D01*
X198859669Y-71449914D01*
X198883291Y-71516098D01*
X198867217Y-71585251D01*
X198816308Y-71634736D01*
X198768151Y-71648852D01*
X198685113Y-71655898D01*
X198685109Y-71655899D01*
X198679802Y-71656349D01*
X198674647Y-71657687D01*
X198674641Y-71657688D01*
X198496927Y-71703814D01*
X198452544Y-71715333D01*
X198447678Y-71717525D01*
X198447675Y-71717526D01*
X198243333Y-71809576D01*
X198243330Y-71809577D01*
X198238472Y-71811766D01*
X198043709Y-71942888D01*
X198039852Y-71946567D01*
X198039850Y-71946569D01*
X198032101Y-71953961D01*
X197873823Y-72104951D01*
X197733672Y-72293321D01*
X197731256Y-72298072D01*
X197731254Y-72298076D01*
X197629681Y-72497856D01*
X197627263Y-72502612D01*
X197557639Y-72726840D01*
X197556938Y-72732129D01*
X197539842Y-72861116D01*
X197526789Y-72959593D01*
X197535598Y-73194216D01*
X197536693Y-73199434D01*
X197561544Y-73317871D01*
X197583812Y-73424001D01*
X197670052Y-73642377D01*
X197791854Y-73843100D01*
X197945735Y-74020432D01*
X197949867Y-74023820D01*
X198123166Y-74165917D01*
X198123172Y-74165921D01*
X198127294Y-74169301D01*
X198131930Y-74171940D01*
X198131933Y-74171942D01*
X198243158Y-74235255D01*
X198331340Y-74285451D01*
X198552039Y-74365561D01*
X198557288Y-74366510D01*
X198557291Y-74366511D01*
X198638365Y-74381171D01*
X198783080Y-74407340D01*
X198787219Y-74407535D01*
X198787226Y-74407536D01*
X198806190Y-74408430D01*
X198806199Y-74408430D01*
X198807679Y-74408500D01*
X198972700Y-74408500D01*
X199054049Y-74401597D01*
X199142387Y-74394102D01*
X199142391Y-74394101D01*
X199147698Y-74393651D01*
X199152853Y-74392313D01*
X199152859Y-74392312D01*
X199369794Y-74336007D01*
X199369796Y-74336006D01*
X199374956Y-74334667D01*
X199379820Y-74332476D01*
X199380396Y-74332273D01*
X199451293Y-74328511D01*
X199512969Y-74363676D01*
X199545842Y-74426603D01*
X199548250Y-74451118D01*
X199548250Y-87945954D01*
X199528248Y-88014075D01*
X199470468Y-88062363D01*
X199444437Y-88073145D01*
X199444433Y-88073147D01*
X199439863Y-88075040D01*
X199220634Y-88209384D01*
X199025119Y-88376369D01*
X198858134Y-88571884D01*
X198723790Y-88791113D01*
X198625395Y-89028660D01*
X198565372Y-89278674D01*
X198545199Y-89535000D01*
X198565372Y-89791326D01*
X198625395Y-90041340D01*
X198627288Y-90045911D01*
X198627289Y-90045913D01*
X198711870Y-90250109D01*
X198723790Y-90278887D01*
X198858134Y-90498116D01*
X198859669Y-90499914D01*
X198883291Y-90566098D01*
X198867217Y-90635251D01*
X198816308Y-90684736D01*
X198768151Y-90698852D01*
X198685113Y-90705898D01*
X198685109Y-90705899D01*
X198679802Y-90706349D01*
X198674647Y-90707687D01*
X198674641Y-90707688D01*
X198496927Y-90753814D01*
X198452544Y-90765333D01*
X198447678Y-90767525D01*
X198447675Y-90767526D01*
X198243333Y-90859576D01*
X198243330Y-90859577D01*
X198238472Y-90861766D01*
X198043709Y-90992888D01*
X198039852Y-90996567D01*
X198039850Y-90996569D01*
X198032101Y-91003961D01*
X197873823Y-91154951D01*
X197733672Y-91343321D01*
X197731256Y-91348072D01*
X197731254Y-91348076D01*
X197629681Y-91547856D01*
X197627263Y-91552612D01*
X197557639Y-91776840D01*
X197556938Y-91782129D01*
X197539842Y-91911116D01*
X197526789Y-92009593D01*
X197535598Y-92244216D01*
X197536693Y-92249434D01*
X197561544Y-92367871D01*
X197583812Y-92474001D01*
X197670052Y-92692377D01*
X197672821Y-92696940D01*
X197755537Y-92833251D01*
X197791854Y-92893100D01*
X197945735Y-93070432D01*
X197949867Y-93073820D01*
X198123166Y-93215917D01*
X198123172Y-93215921D01*
X198127294Y-93219301D01*
X198131930Y-93221940D01*
X198131933Y-93221942D01*
X198243158Y-93285255D01*
X198331340Y-93335451D01*
X198552039Y-93415561D01*
X198557288Y-93416510D01*
X198557291Y-93416511D01*
X198638365Y-93431171D01*
X198783080Y-93457340D01*
X198787219Y-93457535D01*
X198787226Y-93457536D01*
X198806190Y-93458430D01*
X198806199Y-93458430D01*
X198807679Y-93458500D01*
X198972700Y-93458500D01*
X199054049Y-93451597D01*
X199142387Y-93444102D01*
X199142391Y-93444101D01*
X199147698Y-93443651D01*
X199152853Y-93442313D01*
X199152859Y-93442312D01*
X199231846Y-93421811D01*
X199302807Y-93424058D01*
X199361289Y-93464313D01*
X199388723Y-93529795D01*
X199389500Y-93543770D01*
X199389500Y-99697078D01*
X199369498Y-99765199D01*
X199352595Y-99786173D01*
X198211172Y-100927595D01*
X198148860Y-100961621D01*
X198122077Y-100964500D01*
X164981689Y-100964500D01*
X164913568Y-100944498D01*
X164867075Y-100890842D01*
X164856971Y-100820568D01*
X164886465Y-100755988D01*
X164892749Y-100749249D01*
X165019609Y-100622831D01*
X165046943Y-100595592D01*
X165107386Y-100511477D01*
X165176805Y-100414869D01*
X165179823Y-100410669D01*
X165184763Y-100400674D01*
X165232874Y-100348468D01*
X165297720Y-100330500D01*
X178038480Y-100330500D01*
X178049714Y-100331030D01*
X178057219Y-100332708D01*
X178125512Y-100330562D01*
X178129469Y-100330500D01*
X178157483Y-100330500D01*
X178161408Y-100330004D01*
X178161409Y-100330004D01*
X178161504Y-100329992D01*
X178173349Y-100329059D01*
X178203170Y-100328122D01*
X178209782Y-100327914D01*
X178209783Y-100327914D01*
X178217705Y-100327665D01*
X178237249Y-100321987D01*
X178256612Y-100317977D01*
X178268940Y-100316420D01*
X178268942Y-100316420D01*
X178276799Y-100315427D01*
X178284163Y-100312511D01*
X178284168Y-100312510D01*
X178318056Y-100299093D01*
X178329285Y-100295248D01*
X178345965Y-100290402D01*
X178371893Y-100282869D01*
X178378720Y-100278831D01*
X178378723Y-100278830D01*
X178389406Y-100272512D01*
X178407164Y-100263812D01*
X178418715Y-100259239D01*
X178418721Y-100259235D01*
X178426088Y-100256319D01*
X178435078Y-100249788D01*
X178454005Y-100236036D01*
X178461991Y-100230234D01*
X178471910Y-100223719D01*
X178503268Y-100205174D01*
X178503272Y-100205171D01*
X178510098Y-100201134D01*
X178524482Y-100186750D01*
X178539516Y-100173909D01*
X178549573Y-100166602D01*
X178555987Y-100161942D01*
X178584278Y-100127744D01*
X178592267Y-100118965D01*
X180733483Y-97977750D01*
X180741809Y-97970174D01*
X180748303Y-97966053D01*
X180795086Y-97916234D01*
X180797840Y-97913393D01*
X180817639Y-97893594D01*
X180820068Y-97890463D01*
X180820072Y-97890458D01*
X180820139Y-97890372D01*
X180827847Y-97881347D01*
X180852792Y-97854783D01*
X180858217Y-97849006D01*
X180862035Y-97842061D01*
X180862038Y-97842057D01*
X180868026Y-97831166D01*
X180878878Y-97814645D01*
X180880847Y-97812106D01*
X180891350Y-97798566D01*
X180908971Y-97757845D01*
X180914192Y-97747189D01*
X180931748Y-97715255D01*
X180931750Y-97715249D01*
X180935569Y-97708303D01*
X180937540Y-97700628D01*
X180937542Y-97700622D01*
X180940631Y-97688589D01*
X180947034Y-97669887D01*
X180955117Y-97651208D01*
X180956357Y-97643382D01*
X180956358Y-97643377D01*
X180962060Y-97607380D01*
X180964466Y-97595760D01*
X180973528Y-97560463D01*
X180973528Y-97560462D01*
X180975500Y-97552782D01*
X180975500Y-97532434D01*
X180977051Y-97512723D01*
X180978995Y-97500449D01*
X180980235Y-97492620D01*
X180976059Y-97448444D01*
X180975500Y-97436586D01*
X180975500Y-92232438D01*
X181647600Y-92232438D01*
X181687064Y-92544830D01*
X181765370Y-92849813D01*
X181881284Y-93142577D01*
X181883186Y-93146036D01*
X181883187Y-93146039D01*
X182015112Y-93386009D01*
X182032976Y-93418504D01*
X182218055Y-93673244D01*
X182433602Y-93902778D01*
X182676218Y-94103487D01*
X182942076Y-94272206D01*
X182945655Y-94273890D01*
X182945662Y-94273894D01*
X183223394Y-94404584D01*
X183223398Y-94404586D01*
X183226984Y-94406273D01*
X183526448Y-94503575D01*
X183835746Y-94562577D01*
X183929300Y-94568463D01*
X184069358Y-94577275D01*
X184069374Y-94577276D01*
X184071353Y-94577400D01*
X184228647Y-94577400D01*
X184230626Y-94577276D01*
X184230642Y-94577275D01*
X184370700Y-94568463D01*
X184464254Y-94562577D01*
X184773552Y-94503575D01*
X185073016Y-94406273D01*
X185076602Y-94404586D01*
X185076606Y-94404584D01*
X185354338Y-94273894D01*
X185354345Y-94273890D01*
X185357924Y-94272206D01*
X185623782Y-94103487D01*
X185866398Y-93902778D01*
X186081945Y-93673244D01*
X186267024Y-93418504D01*
X186284889Y-93386009D01*
X186416813Y-93146039D01*
X186416814Y-93146036D01*
X186418716Y-93142577D01*
X186534630Y-92849813D01*
X186612936Y-92544830D01*
X186652400Y-92232438D01*
X186652400Y-92009593D01*
X187843039Y-92009593D01*
X187851848Y-92244216D01*
X187852943Y-92249434D01*
X187877794Y-92367871D01*
X187900062Y-92474001D01*
X187986302Y-92692377D01*
X187989071Y-92696940D01*
X188071787Y-92833251D01*
X188108104Y-92893100D01*
X188261985Y-93070432D01*
X188266117Y-93073820D01*
X188439416Y-93215917D01*
X188439422Y-93215921D01*
X188443544Y-93219301D01*
X188448180Y-93221940D01*
X188448183Y-93221942D01*
X188559408Y-93285255D01*
X188647590Y-93335451D01*
X188868289Y-93415561D01*
X188873538Y-93416510D01*
X188873541Y-93416511D01*
X188954615Y-93431171D01*
X189099330Y-93457340D01*
X189103469Y-93457535D01*
X189103476Y-93457536D01*
X189122440Y-93458430D01*
X189122449Y-93458430D01*
X189123929Y-93458500D01*
X189288950Y-93458500D01*
X189370299Y-93451597D01*
X189458637Y-93444102D01*
X189458641Y-93444101D01*
X189463948Y-93443651D01*
X189469103Y-93442313D01*
X189469109Y-93442312D01*
X189686035Y-93386009D01*
X189686034Y-93386009D01*
X189691206Y-93384667D01*
X189696072Y-93382475D01*
X189696075Y-93382474D01*
X189900417Y-93290424D01*
X189900420Y-93290423D01*
X189905278Y-93288234D01*
X190100041Y-93157112D01*
X190269927Y-92995049D01*
X190273763Y-92989894D01*
X190406892Y-92810961D01*
X190410078Y-92806679D01*
X190438782Y-92750224D01*
X190514069Y-92602144D01*
X190514069Y-92602143D01*
X190516487Y-92597388D01*
X190586111Y-92373160D01*
X190603202Y-92244216D01*
X190616261Y-92145690D01*
X190616261Y-92145687D01*
X190616961Y-92140407D01*
X190608152Y-91905784D01*
X190590358Y-91820978D01*
X190561035Y-91681226D01*
X190561034Y-91681223D01*
X190559938Y-91675999D01*
X190473698Y-91457623D01*
X190351896Y-91256900D01*
X190198015Y-91079568D01*
X190169180Y-91055925D01*
X190020584Y-90934083D01*
X190020578Y-90934079D01*
X190016456Y-90930699D01*
X190011820Y-90928060D01*
X190011817Y-90928058D01*
X189817053Y-90817192D01*
X189812410Y-90814549D01*
X189591711Y-90734439D01*
X189586462Y-90733490D01*
X189586459Y-90733489D01*
X189505385Y-90718829D01*
X189360670Y-90692660D01*
X189356531Y-90692465D01*
X189356524Y-90692464D01*
X189337560Y-90691570D01*
X189337551Y-90691570D01*
X189336071Y-90691500D01*
X189171050Y-90691500D01*
X189089701Y-90698403D01*
X189001363Y-90705898D01*
X189001359Y-90705899D01*
X188996052Y-90706349D01*
X188990897Y-90707687D01*
X188990891Y-90707688D01*
X188813177Y-90753814D01*
X188768794Y-90765333D01*
X188763928Y-90767525D01*
X188763925Y-90767526D01*
X188559583Y-90859576D01*
X188559580Y-90859577D01*
X188554722Y-90861766D01*
X188359959Y-90992888D01*
X188356102Y-90996567D01*
X188356100Y-90996569D01*
X188348351Y-91003961D01*
X188190073Y-91154951D01*
X188049922Y-91343321D01*
X188047506Y-91348072D01*
X188047504Y-91348076D01*
X187945931Y-91547856D01*
X187943513Y-91552612D01*
X187873889Y-91776840D01*
X187873188Y-91782129D01*
X187856092Y-91911116D01*
X187843039Y-92009593D01*
X186652400Y-92009593D01*
X186652400Y-91917562D01*
X186612936Y-91605170D01*
X186534630Y-91300187D01*
X186418716Y-91007423D01*
X186412749Y-90996569D01*
X186268933Y-90734968D01*
X186268931Y-90734965D01*
X186267024Y-90731496D01*
X186081945Y-90476756D01*
X185866398Y-90247222D01*
X185623782Y-90046513D01*
X185357924Y-89877794D01*
X185354345Y-89876110D01*
X185354338Y-89876106D01*
X185076606Y-89745416D01*
X185076602Y-89745414D01*
X185073016Y-89743727D01*
X184773552Y-89646425D01*
X184464254Y-89587423D01*
X184370700Y-89581537D01*
X184230642Y-89572725D01*
X184230626Y-89572724D01*
X184228647Y-89572600D01*
X184071353Y-89572600D01*
X184069374Y-89572724D01*
X184069358Y-89572725D01*
X183929300Y-89581537D01*
X183835746Y-89587423D01*
X183526448Y-89646425D01*
X183226984Y-89743727D01*
X183223398Y-89745414D01*
X183223394Y-89745416D01*
X182945662Y-89876106D01*
X182945655Y-89876110D01*
X182942076Y-89877794D01*
X182676218Y-90046513D01*
X182433602Y-90247222D01*
X182218055Y-90476756D01*
X182032976Y-90731496D01*
X182031069Y-90734965D01*
X182031067Y-90734968D01*
X181887251Y-90996569D01*
X181881284Y-91007423D01*
X181765370Y-91300187D01*
X181687064Y-91605170D01*
X181647600Y-91917562D01*
X181647600Y-92232438D01*
X180975500Y-92232438D01*
X180975500Y-91124046D01*
X180995502Y-91055925D01*
X181053282Y-91007637D01*
X181079313Y-90996855D01*
X181079317Y-90996853D01*
X181083887Y-90994960D01*
X181303116Y-90860616D01*
X181498631Y-90693631D01*
X181665616Y-90498116D01*
X181799960Y-90278887D01*
X181811881Y-90250109D01*
X181896461Y-90045913D01*
X181896462Y-90045911D01*
X181898355Y-90041340D01*
X181958378Y-89791326D01*
X181978551Y-89535000D01*
X181958378Y-89278674D01*
X181898355Y-89028660D01*
X181799960Y-88791113D01*
X181665616Y-88571884D01*
X181498631Y-88376369D01*
X181303116Y-88209384D01*
X181083887Y-88075040D01*
X181079317Y-88073147D01*
X181079313Y-88073145D01*
X181053282Y-88062363D01*
X180998001Y-88017815D01*
X180975500Y-87945954D01*
X180975500Y-86995000D01*
X185051449Y-86995000D01*
X185071622Y-87251326D01*
X185131645Y-87501340D01*
X185230040Y-87738887D01*
X185364384Y-87958116D01*
X185531369Y-88153631D01*
X185726884Y-88320616D01*
X185946113Y-88454960D01*
X185950683Y-88456853D01*
X185950687Y-88456855D01*
X186179087Y-88551461D01*
X186183660Y-88553355D01*
X186245157Y-88568119D01*
X186428861Y-88612223D01*
X186428867Y-88612224D01*
X186433674Y-88613378D01*
X186690000Y-88633551D01*
X186946326Y-88613378D01*
X186951133Y-88612224D01*
X186951139Y-88612223D01*
X187134843Y-88568119D01*
X187196340Y-88553355D01*
X187200913Y-88551461D01*
X187429313Y-88456855D01*
X187429317Y-88456853D01*
X187433887Y-88454960D01*
X187653116Y-88320616D01*
X187848631Y-88153631D01*
X188015616Y-87958116D01*
X188149960Y-87738887D01*
X188248355Y-87501340D01*
X188308378Y-87251326D01*
X188328551Y-86995000D01*
X188308378Y-86738674D01*
X188248355Y-86488660D01*
X188149960Y-86251113D01*
X188015616Y-86031884D01*
X187848631Y-85836369D01*
X187653116Y-85669384D01*
X187433887Y-85535040D01*
X187429317Y-85533147D01*
X187429313Y-85533145D01*
X187200913Y-85438539D01*
X187200911Y-85438538D01*
X187196340Y-85436645D01*
X187109498Y-85415796D01*
X186951139Y-85377777D01*
X186951133Y-85377776D01*
X186946326Y-85376622D01*
X186690000Y-85356449D01*
X186433674Y-85376622D01*
X186428867Y-85377776D01*
X186428861Y-85377777D01*
X186270502Y-85415796D01*
X186183660Y-85436645D01*
X186179089Y-85438538D01*
X186179087Y-85438539D01*
X185950687Y-85533145D01*
X185950683Y-85533147D01*
X185946113Y-85535040D01*
X185726884Y-85669384D01*
X185531369Y-85836369D01*
X185364384Y-86031884D01*
X185230040Y-86251113D01*
X185131645Y-86488660D01*
X185071622Y-86738674D01*
X185051449Y-86995000D01*
X180975500Y-86995000D01*
X180975500Y-73182438D01*
X181647600Y-73182438D01*
X181687064Y-73494830D01*
X181765370Y-73799813D01*
X181881284Y-74092577D01*
X181883186Y-74096036D01*
X181883187Y-74096039D01*
X182015112Y-74336009D01*
X182032976Y-74368504D01*
X182218055Y-74623244D01*
X182433602Y-74852778D01*
X182676218Y-75053487D01*
X182942076Y-75222206D01*
X182945655Y-75223890D01*
X182945662Y-75223894D01*
X183223394Y-75354584D01*
X183223398Y-75354586D01*
X183226984Y-75356273D01*
X183526448Y-75453575D01*
X183835746Y-75512577D01*
X183929300Y-75518463D01*
X184069358Y-75527275D01*
X184069374Y-75527276D01*
X184071353Y-75527400D01*
X184228647Y-75527400D01*
X184230626Y-75527276D01*
X184230642Y-75527275D01*
X184370700Y-75518463D01*
X184464254Y-75512577D01*
X184773552Y-75453575D01*
X185073016Y-75356273D01*
X185076602Y-75354586D01*
X185076606Y-75354584D01*
X185354338Y-75223894D01*
X185354345Y-75223890D01*
X185357924Y-75222206D01*
X185623782Y-75053487D01*
X185866398Y-74852778D01*
X186081945Y-74623244D01*
X186267024Y-74368504D01*
X186284889Y-74336009D01*
X186416813Y-74096039D01*
X186416814Y-74096036D01*
X186418716Y-74092577D01*
X186534630Y-73799813D01*
X186612936Y-73494830D01*
X186652400Y-73182438D01*
X186652400Y-72959593D01*
X187843039Y-72959593D01*
X187851848Y-73194216D01*
X187852943Y-73199434D01*
X187877794Y-73317871D01*
X187900062Y-73424001D01*
X187986302Y-73642377D01*
X188108104Y-73843100D01*
X188261985Y-74020432D01*
X188266117Y-74023820D01*
X188439416Y-74165917D01*
X188439422Y-74165921D01*
X188443544Y-74169301D01*
X188448180Y-74171940D01*
X188448183Y-74171942D01*
X188559408Y-74235255D01*
X188647590Y-74285451D01*
X188868289Y-74365561D01*
X188873538Y-74366510D01*
X188873541Y-74366511D01*
X188954615Y-74381171D01*
X189099330Y-74407340D01*
X189103469Y-74407535D01*
X189103476Y-74407536D01*
X189122440Y-74408430D01*
X189122449Y-74408430D01*
X189123929Y-74408500D01*
X189288950Y-74408500D01*
X189370299Y-74401597D01*
X189458637Y-74394102D01*
X189458641Y-74394101D01*
X189463948Y-74393651D01*
X189469103Y-74392313D01*
X189469109Y-74392312D01*
X189686035Y-74336009D01*
X189686034Y-74336009D01*
X189691206Y-74334667D01*
X189696072Y-74332475D01*
X189696075Y-74332474D01*
X189900417Y-74240424D01*
X189900420Y-74240423D01*
X189905278Y-74238234D01*
X190100041Y-74107112D01*
X190269927Y-73945049D01*
X190410078Y-73756679D01*
X190470719Y-73637408D01*
X190514069Y-73552144D01*
X190514069Y-73552143D01*
X190516487Y-73547388D01*
X190586111Y-73323160D01*
X190603202Y-73194216D01*
X190616261Y-73095690D01*
X190616261Y-73095687D01*
X190616961Y-73090407D01*
X190608152Y-72855784D01*
X190590358Y-72770978D01*
X190561035Y-72631226D01*
X190561034Y-72631223D01*
X190559938Y-72625999D01*
X190473698Y-72407623D01*
X190380482Y-72254008D01*
X190354664Y-72211461D01*
X190354662Y-72211458D01*
X190351896Y-72206900D01*
X190198015Y-72029568D01*
X190169180Y-72005925D01*
X190020584Y-71884083D01*
X190020578Y-71884079D01*
X190016456Y-71880699D01*
X190011820Y-71878060D01*
X190011817Y-71878058D01*
X189817053Y-71767192D01*
X189812410Y-71764549D01*
X189591711Y-71684439D01*
X189586462Y-71683490D01*
X189586459Y-71683489D01*
X189505385Y-71668829D01*
X189360670Y-71642660D01*
X189356531Y-71642465D01*
X189356524Y-71642464D01*
X189337560Y-71641570D01*
X189337551Y-71641570D01*
X189336071Y-71641500D01*
X189171050Y-71641500D01*
X189089701Y-71648403D01*
X189001363Y-71655898D01*
X189001359Y-71655899D01*
X188996052Y-71656349D01*
X188990897Y-71657687D01*
X188990891Y-71657688D01*
X188813177Y-71703814D01*
X188768794Y-71715333D01*
X188763928Y-71717525D01*
X188763925Y-71717526D01*
X188559583Y-71809576D01*
X188559580Y-71809577D01*
X188554722Y-71811766D01*
X188359959Y-71942888D01*
X188356102Y-71946567D01*
X188356100Y-71946569D01*
X188348351Y-71953961D01*
X188190073Y-72104951D01*
X188049922Y-72293321D01*
X188047506Y-72298072D01*
X188047504Y-72298076D01*
X187945931Y-72497856D01*
X187943513Y-72502612D01*
X187873889Y-72726840D01*
X187873188Y-72732129D01*
X187856092Y-72861116D01*
X187843039Y-72959593D01*
X186652400Y-72959593D01*
X186652400Y-72867562D01*
X186612936Y-72555170D01*
X186534630Y-72250187D01*
X186418716Y-71957423D01*
X186412749Y-71946569D01*
X186268933Y-71684968D01*
X186268931Y-71684965D01*
X186267024Y-71681496D01*
X186081945Y-71426756D01*
X185866398Y-71197222D01*
X185623782Y-70996513D01*
X185357924Y-70827794D01*
X185354345Y-70826110D01*
X185354338Y-70826106D01*
X185076606Y-70695416D01*
X185076602Y-70695414D01*
X185073016Y-70693727D01*
X184773552Y-70596425D01*
X184464254Y-70537423D01*
X184370700Y-70531537D01*
X184230642Y-70522725D01*
X184230626Y-70522724D01*
X184228647Y-70522600D01*
X184071353Y-70522600D01*
X184069374Y-70522724D01*
X184069358Y-70522725D01*
X183929300Y-70531537D01*
X183835746Y-70537423D01*
X183526448Y-70596425D01*
X183226984Y-70693727D01*
X183223398Y-70695414D01*
X183223394Y-70695416D01*
X182945662Y-70826106D01*
X182945655Y-70826110D01*
X182942076Y-70827794D01*
X182676218Y-70996513D01*
X182433602Y-71197222D01*
X182218055Y-71426756D01*
X182032976Y-71681496D01*
X182031069Y-71684965D01*
X182031067Y-71684968D01*
X181887251Y-71946569D01*
X181881284Y-71957423D01*
X181765370Y-72250187D01*
X181687064Y-72555170D01*
X181647600Y-72867562D01*
X181647600Y-73182438D01*
X180975500Y-73182438D01*
X180975500Y-72074046D01*
X180995502Y-72005925D01*
X181053282Y-71957637D01*
X181079313Y-71946855D01*
X181079317Y-71946853D01*
X181083887Y-71944960D01*
X181303116Y-71810616D01*
X181498631Y-71643631D01*
X181665616Y-71448116D01*
X181799960Y-71228887D01*
X181811881Y-71200109D01*
X181896461Y-70995913D01*
X181896462Y-70995911D01*
X181898355Y-70991340D01*
X181958378Y-70741326D01*
X181978551Y-70485000D01*
X181958378Y-70228674D01*
X181898355Y-69978660D01*
X181799960Y-69741113D01*
X181665616Y-69521884D01*
X181498631Y-69326369D01*
X181303116Y-69159384D01*
X181083887Y-69025040D01*
X181079317Y-69023147D01*
X181079313Y-69023145D01*
X181053282Y-69012363D01*
X180998001Y-68967815D01*
X180975500Y-68895954D01*
X180975500Y-67945000D01*
X185051449Y-67945000D01*
X185071622Y-68201326D01*
X185131645Y-68451340D01*
X185230040Y-68688887D01*
X185364384Y-68908116D01*
X185531369Y-69103631D01*
X185726884Y-69270616D01*
X185946113Y-69404960D01*
X185950683Y-69406853D01*
X185950687Y-69406855D01*
X186179087Y-69501461D01*
X186183660Y-69503355D01*
X186245157Y-69518119D01*
X186428861Y-69562223D01*
X186428867Y-69562224D01*
X186433674Y-69563378D01*
X186690000Y-69583551D01*
X186946326Y-69563378D01*
X186951133Y-69562224D01*
X186951139Y-69562223D01*
X187134843Y-69518119D01*
X187196340Y-69503355D01*
X187200913Y-69501461D01*
X187429313Y-69406855D01*
X187429317Y-69406853D01*
X187433887Y-69404960D01*
X187653116Y-69270616D01*
X187848631Y-69103631D01*
X188015616Y-68908116D01*
X188149960Y-68688887D01*
X188248355Y-68451340D01*
X188308378Y-68201326D01*
X188328551Y-67945000D01*
X204895199Y-67945000D01*
X204915372Y-68201326D01*
X204975395Y-68451340D01*
X205073790Y-68688887D01*
X205208134Y-68908116D01*
X205375119Y-69103631D01*
X205570634Y-69270616D01*
X205789863Y-69404960D01*
X205794433Y-69406853D01*
X205794437Y-69406855D01*
X206022837Y-69501461D01*
X206027410Y-69503355D01*
X206088907Y-69518119D01*
X206272611Y-69562223D01*
X206272617Y-69562224D01*
X206277424Y-69563378D01*
X206533750Y-69583551D01*
X206790076Y-69563378D01*
X206794883Y-69562224D01*
X206794889Y-69562223D01*
X206978593Y-69518119D01*
X207040090Y-69503355D01*
X207044663Y-69501461D01*
X207273063Y-69406855D01*
X207273067Y-69406853D01*
X207277637Y-69404960D01*
X207496866Y-69270616D01*
X207692381Y-69103631D01*
X207859366Y-68908116D01*
X207993710Y-68688887D01*
X208092105Y-68451340D01*
X208152128Y-68201326D01*
X208172301Y-67945000D01*
X208152128Y-67688674D01*
X208092105Y-67438660D01*
X207993710Y-67201113D01*
X207859366Y-66981884D01*
X207692381Y-66786369D01*
X207496866Y-66619384D01*
X207277637Y-66485040D01*
X207273067Y-66483147D01*
X207273063Y-66483145D01*
X207044663Y-66388539D01*
X207044661Y-66388538D01*
X207040090Y-66386645D01*
X206953248Y-66365796D01*
X206794889Y-66327777D01*
X206794883Y-66327776D01*
X206790076Y-66326622D01*
X206533750Y-66306449D01*
X206277424Y-66326622D01*
X206272617Y-66327776D01*
X206272611Y-66327777D01*
X206114252Y-66365796D01*
X206027410Y-66386645D01*
X206022839Y-66388538D01*
X206022837Y-66388539D01*
X205794437Y-66483145D01*
X205794433Y-66483147D01*
X205789863Y-66485040D01*
X205570634Y-66619384D01*
X205375119Y-66786369D01*
X205208134Y-66981884D01*
X205073790Y-67201113D01*
X204975395Y-67438660D01*
X204915372Y-67688674D01*
X204895199Y-67945000D01*
X188328551Y-67945000D01*
X188308378Y-67688674D01*
X188248355Y-67438660D01*
X188149960Y-67201113D01*
X188015616Y-66981884D01*
X187848631Y-66786369D01*
X187653116Y-66619384D01*
X187433887Y-66485040D01*
X187429317Y-66483147D01*
X187429313Y-66483145D01*
X187200913Y-66388539D01*
X187200911Y-66388538D01*
X187196340Y-66386645D01*
X187109498Y-66365796D01*
X186951139Y-66327777D01*
X186951133Y-66327776D01*
X186946326Y-66326622D01*
X186690000Y-66306449D01*
X186433674Y-66326622D01*
X186428867Y-66327776D01*
X186428861Y-66327777D01*
X186270502Y-66365796D01*
X186183660Y-66386645D01*
X186179089Y-66388538D01*
X186179087Y-66388539D01*
X185950687Y-66483145D01*
X185950683Y-66483147D01*
X185946113Y-66485040D01*
X185726884Y-66619384D01*
X185531369Y-66786369D01*
X185364384Y-66981884D01*
X185230040Y-67201113D01*
X185131645Y-67438660D01*
X185071622Y-67688674D01*
X185051449Y-67945000D01*
X180975500Y-67945000D01*
X180975500Y-49369938D01*
X181647600Y-49369938D01*
X181687064Y-49682330D01*
X181765370Y-49987313D01*
X181881284Y-50280077D01*
X181883186Y-50283536D01*
X181883187Y-50283539D01*
X182015112Y-50523509D01*
X182032976Y-50556004D01*
X182218055Y-50810744D01*
X182433602Y-51040278D01*
X182676218Y-51240987D01*
X182942076Y-51409706D01*
X182945655Y-51411390D01*
X182945662Y-51411394D01*
X183223394Y-51542084D01*
X183223398Y-51542086D01*
X183226984Y-51543773D01*
X183526448Y-51641075D01*
X183835746Y-51700077D01*
X183929300Y-51705963D01*
X184069358Y-51714775D01*
X184069374Y-51714776D01*
X184071353Y-51714900D01*
X184228647Y-51714900D01*
X184230626Y-51714776D01*
X184230642Y-51714775D01*
X184370700Y-51705963D01*
X184464254Y-51700077D01*
X184773552Y-51641075D01*
X185073016Y-51543773D01*
X185076602Y-51542086D01*
X185076606Y-51542084D01*
X185354338Y-51411394D01*
X185354345Y-51411390D01*
X185357924Y-51409706D01*
X185623782Y-51240987D01*
X185866398Y-51040278D01*
X186081945Y-50810744D01*
X186267024Y-50556004D01*
X186284889Y-50523509D01*
X186416813Y-50283539D01*
X186416814Y-50283536D01*
X186418716Y-50280077D01*
X186534630Y-49987313D01*
X186612936Y-49682330D01*
X186652400Y-49369938D01*
X186652400Y-49147093D01*
X187843039Y-49147093D01*
X187851848Y-49381716D01*
X187852943Y-49386934D01*
X187877794Y-49505371D01*
X187900062Y-49611501D01*
X187986302Y-49829877D01*
X188108104Y-50030600D01*
X188261985Y-50207932D01*
X188266117Y-50211320D01*
X188439416Y-50353417D01*
X188439422Y-50353421D01*
X188443544Y-50356801D01*
X188448180Y-50359440D01*
X188448183Y-50359442D01*
X188559408Y-50422755D01*
X188647590Y-50472951D01*
X188868289Y-50553061D01*
X188873538Y-50554010D01*
X188873541Y-50554011D01*
X188954615Y-50568671D01*
X189099330Y-50594840D01*
X189103469Y-50595035D01*
X189103476Y-50595036D01*
X189122440Y-50595930D01*
X189122449Y-50595930D01*
X189123929Y-50596000D01*
X189288950Y-50596000D01*
X189370299Y-50589097D01*
X189458637Y-50581602D01*
X189458641Y-50581601D01*
X189463948Y-50581151D01*
X189469103Y-50579813D01*
X189469109Y-50579812D01*
X189686035Y-50523509D01*
X189686034Y-50523509D01*
X189691206Y-50522167D01*
X189696072Y-50519975D01*
X189696075Y-50519974D01*
X189900417Y-50427924D01*
X189900420Y-50427923D01*
X189905278Y-50425734D01*
X190100041Y-50294612D01*
X190269927Y-50132549D01*
X190410078Y-49944179D01*
X190470719Y-49824908D01*
X190514069Y-49739644D01*
X190514069Y-49739643D01*
X190516487Y-49734888D01*
X190586111Y-49510660D01*
X190603202Y-49381716D01*
X190616261Y-49283190D01*
X190616261Y-49283187D01*
X190616961Y-49277907D01*
X190608152Y-49043284D01*
X190590358Y-48958478D01*
X190561035Y-48818726D01*
X190561034Y-48818723D01*
X190559938Y-48813499D01*
X190473698Y-48595123D01*
X190351896Y-48394400D01*
X190198015Y-48217068D01*
X190169180Y-48193425D01*
X190020584Y-48071583D01*
X190020578Y-48071579D01*
X190016456Y-48068199D01*
X190011820Y-48065560D01*
X190011817Y-48065558D01*
X189817053Y-47954692D01*
X189812410Y-47952049D01*
X189591711Y-47871939D01*
X189586462Y-47870990D01*
X189586459Y-47870989D01*
X189505385Y-47856329D01*
X189360670Y-47830160D01*
X189356531Y-47829965D01*
X189356524Y-47829964D01*
X189337560Y-47829070D01*
X189337551Y-47829070D01*
X189336071Y-47829000D01*
X189171050Y-47829000D01*
X189089701Y-47835903D01*
X189001363Y-47843398D01*
X189001359Y-47843399D01*
X188996052Y-47843849D01*
X188990897Y-47845187D01*
X188990891Y-47845188D01*
X188813177Y-47891314D01*
X188768794Y-47902833D01*
X188763928Y-47905025D01*
X188763925Y-47905026D01*
X188559583Y-47997076D01*
X188559580Y-47997077D01*
X188554722Y-47999266D01*
X188359959Y-48130388D01*
X188356102Y-48134067D01*
X188356100Y-48134069D01*
X188348351Y-48141461D01*
X188190073Y-48292451D01*
X188049922Y-48480821D01*
X188047506Y-48485572D01*
X188047504Y-48485576D01*
X187945931Y-48685356D01*
X187943513Y-48690112D01*
X187873889Y-48914340D01*
X187873188Y-48919629D01*
X187856092Y-49048616D01*
X187843039Y-49147093D01*
X186652400Y-49147093D01*
X186652400Y-49055062D01*
X186612936Y-48742670D01*
X186534630Y-48437687D01*
X186418716Y-48144923D01*
X186412749Y-48134069D01*
X186268933Y-47872468D01*
X186268931Y-47872465D01*
X186267024Y-47868996D01*
X186081945Y-47614256D01*
X185866398Y-47384722D01*
X185623782Y-47184013D01*
X185357924Y-47015294D01*
X185354345Y-47013610D01*
X185354338Y-47013606D01*
X185076606Y-46882916D01*
X185076602Y-46882914D01*
X185073016Y-46881227D01*
X184773552Y-46783925D01*
X184464254Y-46724923D01*
X184370700Y-46719037D01*
X184230642Y-46710225D01*
X184230626Y-46710224D01*
X184228647Y-46710100D01*
X184071353Y-46710100D01*
X184069374Y-46710224D01*
X184069358Y-46710225D01*
X183929300Y-46719037D01*
X183835746Y-46724923D01*
X183526448Y-46783925D01*
X183226984Y-46881227D01*
X183223398Y-46882914D01*
X183223394Y-46882916D01*
X182945662Y-47013606D01*
X182945655Y-47013610D01*
X182942076Y-47015294D01*
X182676218Y-47184013D01*
X182433602Y-47384722D01*
X182218055Y-47614256D01*
X182032976Y-47868996D01*
X182031069Y-47872465D01*
X182031067Y-47872468D01*
X181887251Y-48134069D01*
X181881284Y-48144923D01*
X181765370Y-48437687D01*
X181687064Y-48742670D01*
X181647600Y-49055062D01*
X181647600Y-49369938D01*
X180975500Y-49369938D01*
X180975500Y-48261546D01*
X180995502Y-48193425D01*
X181053282Y-48145137D01*
X181079313Y-48134355D01*
X181079317Y-48134353D01*
X181083887Y-48132460D01*
X181303116Y-47998116D01*
X181498631Y-47831131D01*
X181665616Y-47635616D01*
X181799960Y-47416387D01*
X181811881Y-47387609D01*
X181896461Y-47183413D01*
X181896462Y-47183411D01*
X181898355Y-47178840D01*
X181938024Y-47013606D01*
X181957223Y-46933639D01*
X181957224Y-46933633D01*
X181958378Y-46928826D01*
X181978551Y-46672500D01*
X181958378Y-46416174D01*
X181898355Y-46166160D01*
X181896461Y-46161587D01*
X181801855Y-45933187D01*
X181801853Y-45933183D01*
X181799960Y-45928613D01*
X181665616Y-45709384D01*
X181498631Y-45513869D01*
X181303116Y-45346884D01*
X181083887Y-45212540D01*
X181079317Y-45210647D01*
X181079313Y-45210645D01*
X180850913Y-45116039D01*
X180850911Y-45116038D01*
X180846340Y-45114145D01*
X180751596Y-45091399D01*
X180601139Y-45055277D01*
X180601133Y-45055276D01*
X180596326Y-45054122D01*
X180340000Y-45033949D01*
X180083674Y-45054122D01*
X180078867Y-45055276D01*
X180078861Y-45055277D01*
X179928404Y-45091399D01*
X179833660Y-45114145D01*
X179829089Y-45116038D01*
X179829087Y-45116039D01*
X179600687Y-45210645D01*
X179600683Y-45210647D01*
X179596113Y-45212540D01*
X179376884Y-45346884D01*
X179181369Y-45513869D01*
X179014384Y-45709384D01*
X178880040Y-45928613D01*
X178878147Y-45933183D01*
X178878145Y-45933187D01*
X178783539Y-46161587D01*
X178781645Y-46166160D01*
X178721622Y-46416174D01*
X178701449Y-46672500D01*
X178721622Y-46928826D01*
X178722776Y-46933633D01*
X178722777Y-46933639D01*
X178741976Y-47013606D01*
X178781645Y-47178840D01*
X178783538Y-47183411D01*
X178783539Y-47183413D01*
X178868120Y-47387609D01*
X178880040Y-47416387D01*
X179014384Y-47635616D01*
X179015919Y-47637414D01*
X179039541Y-47703598D01*
X179023467Y-47772751D01*
X178972558Y-47822236D01*
X178924401Y-47836352D01*
X178841363Y-47843398D01*
X178841359Y-47843399D01*
X178836052Y-47843849D01*
X178830897Y-47845187D01*
X178830891Y-47845188D01*
X178653177Y-47891314D01*
X178608794Y-47902833D01*
X178603928Y-47905025D01*
X178603925Y-47905026D01*
X178399583Y-47997076D01*
X178399580Y-47997077D01*
X178394722Y-47999266D01*
X178199959Y-48130388D01*
X178196102Y-48134067D01*
X178196100Y-48134069D01*
X178188351Y-48141461D01*
X178030073Y-48292451D01*
X177889922Y-48480821D01*
X177887506Y-48485572D01*
X177887504Y-48485576D01*
X177785931Y-48685356D01*
X177783513Y-48690112D01*
X177713889Y-48914340D01*
X177713188Y-48919629D01*
X177696092Y-49048616D01*
X177683039Y-49147093D01*
X177691848Y-49381716D01*
X177692943Y-49386934D01*
X177717794Y-49505371D01*
X177740062Y-49611501D01*
X177826302Y-49829877D01*
X177948104Y-50030600D01*
X178101985Y-50207932D01*
X178106117Y-50211320D01*
X178279416Y-50353417D01*
X178279422Y-50353421D01*
X178283544Y-50356801D01*
X178288180Y-50359440D01*
X178288183Y-50359442D01*
X178399408Y-50422755D01*
X178487590Y-50472951D01*
X178708289Y-50553061D01*
X178713538Y-50554010D01*
X178713541Y-50554011D01*
X178794615Y-50568671D01*
X178939330Y-50594840D01*
X178943469Y-50595035D01*
X178943476Y-50595036D01*
X178962440Y-50595930D01*
X178962449Y-50595930D01*
X178963929Y-50596000D01*
X179128950Y-50596000D01*
X179210299Y-50589097D01*
X179298637Y-50581602D01*
X179298641Y-50581601D01*
X179303948Y-50581151D01*
X179309103Y-50579813D01*
X179309109Y-50579812D01*
X179526044Y-50523507D01*
X179526046Y-50523506D01*
X179531206Y-50522167D01*
X179536070Y-50519976D01*
X179536646Y-50519773D01*
X179607543Y-50516011D01*
X179669219Y-50551176D01*
X179702092Y-50614103D01*
X179704500Y-50638618D01*
X179704500Y-68895954D01*
X179684498Y-68964075D01*
X179626718Y-69012363D01*
X179600687Y-69023145D01*
X179600683Y-69023147D01*
X179596113Y-69025040D01*
X179376884Y-69159384D01*
X179181369Y-69326369D01*
X179014384Y-69521884D01*
X178880040Y-69741113D01*
X178781645Y-69978660D01*
X178721622Y-70228674D01*
X178701449Y-70485000D01*
X178721622Y-70741326D01*
X178781645Y-70991340D01*
X178783538Y-70995911D01*
X178783539Y-70995913D01*
X178868120Y-71200109D01*
X178880040Y-71228887D01*
X179014384Y-71448116D01*
X179015919Y-71449914D01*
X179039541Y-71516098D01*
X179023467Y-71585251D01*
X178972558Y-71634736D01*
X178924401Y-71648852D01*
X178841363Y-71655898D01*
X178841359Y-71655899D01*
X178836052Y-71656349D01*
X178830897Y-71657687D01*
X178830891Y-71657688D01*
X178653177Y-71703814D01*
X178608794Y-71715333D01*
X178603928Y-71717525D01*
X178603925Y-71717526D01*
X178399583Y-71809576D01*
X178399580Y-71809577D01*
X178394722Y-71811766D01*
X178199959Y-71942888D01*
X178196102Y-71946567D01*
X178196100Y-71946569D01*
X178188351Y-71953961D01*
X178030073Y-72104951D01*
X177889922Y-72293321D01*
X177887506Y-72298072D01*
X177887504Y-72298076D01*
X177785931Y-72497856D01*
X177783513Y-72502612D01*
X177713889Y-72726840D01*
X177713188Y-72732129D01*
X177696092Y-72861116D01*
X177683039Y-72959593D01*
X177691848Y-73194216D01*
X177692943Y-73199434D01*
X177717794Y-73317871D01*
X177740062Y-73424001D01*
X177826302Y-73642377D01*
X177948104Y-73843100D01*
X178101985Y-74020432D01*
X178106117Y-74023820D01*
X178279416Y-74165917D01*
X178279422Y-74165921D01*
X178283544Y-74169301D01*
X178288180Y-74171940D01*
X178288183Y-74171942D01*
X178399408Y-74235255D01*
X178487590Y-74285451D01*
X178708289Y-74365561D01*
X178713538Y-74366510D01*
X178713541Y-74366511D01*
X178794615Y-74381171D01*
X178939330Y-74407340D01*
X178943469Y-74407535D01*
X178943476Y-74407536D01*
X178962440Y-74408430D01*
X178962449Y-74408430D01*
X178963929Y-74408500D01*
X179128950Y-74408500D01*
X179210299Y-74401597D01*
X179298637Y-74394102D01*
X179298641Y-74394101D01*
X179303948Y-74393651D01*
X179309103Y-74392313D01*
X179309109Y-74392312D01*
X179526044Y-74336007D01*
X179526046Y-74336006D01*
X179531206Y-74334667D01*
X179536070Y-74332476D01*
X179536646Y-74332273D01*
X179607543Y-74328511D01*
X179669219Y-74363676D01*
X179702092Y-74426603D01*
X179704500Y-74451118D01*
X179704500Y-87945954D01*
X179684498Y-88014075D01*
X179626718Y-88062363D01*
X179600687Y-88073145D01*
X179600683Y-88073147D01*
X179596113Y-88075040D01*
X179376884Y-88209384D01*
X179181369Y-88376369D01*
X179014384Y-88571884D01*
X178880040Y-88791113D01*
X178781645Y-89028660D01*
X178721622Y-89278674D01*
X178701449Y-89535000D01*
X178721622Y-89791326D01*
X178781645Y-90041340D01*
X178783538Y-90045911D01*
X178783539Y-90045913D01*
X178868120Y-90250109D01*
X178880040Y-90278887D01*
X179014384Y-90498116D01*
X179015919Y-90499914D01*
X179039541Y-90566098D01*
X179023467Y-90635251D01*
X178972558Y-90684736D01*
X178924401Y-90698852D01*
X178841363Y-90705898D01*
X178841359Y-90705899D01*
X178836052Y-90706349D01*
X178830897Y-90707687D01*
X178830891Y-90707688D01*
X178653177Y-90753814D01*
X178608794Y-90765333D01*
X178603928Y-90767525D01*
X178603925Y-90767526D01*
X178399583Y-90859576D01*
X178399580Y-90859577D01*
X178394722Y-90861766D01*
X178199959Y-90992888D01*
X178196102Y-90996567D01*
X178196100Y-90996569D01*
X178188351Y-91003961D01*
X178030073Y-91154951D01*
X177889922Y-91343321D01*
X177887506Y-91348072D01*
X177887504Y-91348076D01*
X177785931Y-91547856D01*
X177783513Y-91552612D01*
X177713889Y-91776840D01*
X177713188Y-91782129D01*
X177696092Y-91911116D01*
X177683039Y-92009593D01*
X177691848Y-92244216D01*
X177692943Y-92249434D01*
X177717794Y-92367871D01*
X177740062Y-92474001D01*
X177826302Y-92692377D01*
X177829071Y-92696940D01*
X177911787Y-92833251D01*
X177948104Y-92893100D01*
X178101985Y-93070432D01*
X178106117Y-93073820D01*
X178279416Y-93215917D01*
X178279422Y-93215921D01*
X178283544Y-93219301D01*
X178288180Y-93221940D01*
X178288183Y-93221942D01*
X178399408Y-93285255D01*
X178487590Y-93335451D01*
X178708289Y-93415561D01*
X178713538Y-93416510D01*
X178713541Y-93416511D01*
X178794615Y-93431171D01*
X178939330Y-93457340D01*
X178943469Y-93457535D01*
X178943476Y-93457536D01*
X178962440Y-93458430D01*
X178962449Y-93458430D01*
X178963929Y-93458500D01*
X179128950Y-93458500D01*
X179210299Y-93451597D01*
X179298637Y-93444102D01*
X179298641Y-93444101D01*
X179303948Y-93443651D01*
X179309103Y-93442313D01*
X179309109Y-93442312D01*
X179526044Y-93386007D01*
X179526046Y-93386006D01*
X179531206Y-93384667D01*
X179536070Y-93382476D01*
X179536646Y-93382273D01*
X179607543Y-93378511D01*
X179669219Y-93413676D01*
X179702092Y-93476603D01*
X179704500Y-93501118D01*
X179704500Y-97157077D01*
X179684498Y-97225198D01*
X179667595Y-97246172D01*
X177891172Y-99022595D01*
X177828860Y-99056621D01*
X177802077Y-99059500D01*
X165295587Y-99059500D01*
X165227466Y-99039498D01*
X165189795Y-99001940D01*
X165092481Y-98851515D01*
X165092479Y-98851512D01*
X165089673Y-98847175D01*
X164936418Y-98678750D01*
X164757713Y-98537618D01*
X164558357Y-98427567D01*
X164442348Y-98386486D01*
X164348579Y-98353280D01*
X164348575Y-98353279D01*
X164343704Y-98351554D01*
X164338611Y-98350647D01*
X164338608Y-98350646D01*
X164124607Y-98312527D01*
X164124601Y-98312526D01*
X164119518Y-98311621D01*
X164032448Y-98310557D01*
X163896989Y-98308902D01*
X163896987Y-98308902D01*
X163891820Y-98308839D01*
X163666726Y-98343283D01*
X163450279Y-98414029D01*
X163248294Y-98519176D01*
X163244161Y-98522279D01*
X163244158Y-98522281D01*
X163166744Y-98580405D01*
X163066194Y-98655900D01*
X162908870Y-98820530D01*
X162905961Y-98824795D01*
X162905959Y-98824798D01*
X162822534Y-98947094D01*
X162767623Y-98992096D01*
X162697098Y-99000267D01*
X162633351Y-98969013D01*
X162612654Y-98944529D01*
X162552481Y-98851515D01*
X162552479Y-98851512D01*
X162549673Y-98847175D01*
X162396418Y-98678750D01*
X162217713Y-98537618D01*
X162018357Y-98427567D01*
X161902348Y-98386486D01*
X161808579Y-98353280D01*
X161808575Y-98353279D01*
X161803704Y-98351554D01*
X161798611Y-98350647D01*
X161798608Y-98350646D01*
X161584607Y-98312527D01*
X161584601Y-98312526D01*
X161579518Y-98311621D01*
X161492448Y-98310557D01*
X161356989Y-98308902D01*
X161356987Y-98308902D01*
X161351820Y-98308839D01*
X161126726Y-98343283D01*
X160910279Y-98414029D01*
X160708294Y-98519176D01*
X160704161Y-98522279D01*
X160704158Y-98522281D01*
X160626744Y-98580405D01*
X160526194Y-98655900D01*
X160368870Y-98820530D01*
X160365961Y-98824795D01*
X160365959Y-98824798D01*
X160282534Y-98947094D01*
X160227623Y-98992096D01*
X160157098Y-99000267D01*
X160093351Y-98969013D01*
X160072654Y-98944529D01*
X160012481Y-98851515D01*
X160012479Y-98851512D01*
X160009673Y-98847175D01*
X159856418Y-98678750D01*
X159677713Y-98537618D01*
X159478357Y-98427567D01*
X159362348Y-98386486D01*
X159268579Y-98353280D01*
X159268575Y-98353279D01*
X159263704Y-98351554D01*
X159258611Y-98350647D01*
X159258608Y-98350646D01*
X159044607Y-98312527D01*
X159044601Y-98312526D01*
X159039518Y-98311621D01*
X158952448Y-98310557D01*
X158816989Y-98308902D01*
X158816987Y-98308902D01*
X158811820Y-98308839D01*
X158586726Y-98343283D01*
X158370279Y-98414029D01*
X158168294Y-98519176D01*
X158164161Y-98522279D01*
X158164158Y-98522281D01*
X158086744Y-98580405D01*
X157986194Y-98655900D01*
X157828870Y-98820530D01*
X157825961Y-98824795D01*
X157825959Y-98824798D01*
X157742534Y-98947094D01*
X157687623Y-98992096D01*
X157617098Y-99000267D01*
X157553351Y-98969013D01*
X157532654Y-98944529D01*
X157472481Y-98851515D01*
X157472479Y-98851512D01*
X157469673Y-98847175D01*
X157316418Y-98678750D01*
X157137713Y-98537618D01*
X156938357Y-98427567D01*
X156822348Y-98386486D01*
X156728579Y-98353280D01*
X156728575Y-98353279D01*
X156723704Y-98351554D01*
X156718611Y-98350647D01*
X156718608Y-98350646D01*
X156504607Y-98312527D01*
X156504601Y-98312526D01*
X156499518Y-98311621D01*
X156412448Y-98310557D01*
X156276989Y-98308902D01*
X156276987Y-98308902D01*
X156271820Y-98308839D01*
X156046726Y-98343283D01*
X155830279Y-98414029D01*
X155628294Y-98519176D01*
X155624161Y-98522279D01*
X155624158Y-98522281D01*
X155546744Y-98580405D01*
X155446194Y-98655900D01*
X155288870Y-98820530D01*
X155285961Y-98824795D01*
X155285959Y-98824798D01*
X155202534Y-98947094D01*
X155147623Y-98992096D01*
X155077098Y-99000267D01*
X155013351Y-98969013D01*
X154992654Y-98944529D01*
X154932481Y-98851515D01*
X154932479Y-98851512D01*
X154929673Y-98847175D01*
X154776418Y-98678750D01*
X154597713Y-98537618D01*
X154398357Y-98427567D01*
X154282348Y-98386486D01*
X154188579Y-98353280D01*
X154188575Y-98353279D01*
X154183704Y-98351554D01*
X154178611Y-98350647D01*
X154178608Y-98350646D01*
X153964607Y-98312527D01*
X153964601Y-98312526D01*
X153959518Y-98311621D01*
X153872448Y-98310557D01*
X153736989Y-98308902D01*
X153736987Y-98308902D01*
X153731820Y-98308839D01*
X153506726Y-98343283D01*
X153290279Y-98414029D01*
X153088294Y-98519176D01*
X153084161Y-98522279D01*
X153084158Y-98522281D01*
X153006744Y-98580405D01*
X152906194Y-98655900D01*
X152748870Y-98820530D01*
X152745961Y-98824795D01*
X152745959Y-98824798D01*
X152662534Y-98947094D01*
X152607623Y-98992096D01*
X152537098Y-99000267D01*
X152473351Y-98969013D01*
X152452654Y-98944529D01*
X152392481Y-98851515D01*
X152392479Y-98851512D01*
X152389673Y-98847175D01*
X152236418Y-98678750D01*
X152057713Y-98537618D01*
X151858357Y-98427567D01*
X151742348Y-98386486D01*
X151648579Y-98353280D01*
X151648575Y-98353279D01*
X151643704Y-98351554D01*
X151638611Y-98350647D01*
X151638608Y-98350646D01*
X151424607Y-98312527D01*
X151424601Y-98312526D01*
X151419518Y-98311621D01*
X151332448Y-98310557D01*
X151196989Y-98308902D01*
X151196987Y-98308902D01*
X151191820Y-98308839D01*
X150966726Y-98343283D01*
X150750279Y-98414029D01*
X150548294Y-98519176D01*
X150544161Y-98522279D01*
X150544158Y-98522281D01*
X150466744Y-98580405D01*
X150366194Y-98655900D01*
X150208870Y-98820530D01*
X150205961Y-98824795D01*
X150205959Y-98824798D01*
X150122534Y-98947094D01*
X150067623Y-98992096D01*
X149997098Y-99000267D01*
X149933351Y-98969013D01*
X149912654Y-98944529D01*
X149852481Y-98851515D01*
X149852479Y-98851512D01*
X149849673Y-98847175D01*
X149696418Y-98678750D01*
X149517713Y-98537618D01*
X149318357Y-98427567D01*
X149202348Y-98386486D01*
X149108579Y-98353280D01*
X149108575Y-98353279D01*
X149103704Y-98351554D01*
X149098611Y-98350647D01*
X149098608Y-98350646D01*
X148884607Y-98312527D01*
X148884601Y-98312526D01*
X148879518Y-98311621D01*
X148792448Y-98310557D01*
X148656989Y-98308902D01*
X148656987Y-98308902D01*
X148651820Y-98308839D01*
X148426726Y-98343283D01*
X148210279Y-98414029D01*
X148008294Y-98519176D01*
X148004161Y-98522279D01*
X148004158Y-98522281D01*
X147926744Y-98580405D01*
X147826194Y-98655900D01*
X147668870Y-98820530D01*
X147665961Y-98824795D01*
X147665959Y-98824798D01*
X147582534Y-98947094D01*
X147527623Y-98992096D01*
X147457098Y-99000267D01*
X147393351Y-98969013D01*
X147372654Y-98944529D01*
X147312481Y-98851515D01*
X147312479Y-98851512D01*
X147309673Y-98847175D01*
X147156418Y-98678750D01*
X146977713Y-98537618D01*
X146778357Y-98427567D01*
X146662348Y-98386486D01*
X146568579Y-98353280D01*
X146568575Y-98353279D01*
X146563704Y-98351554D01*
X146558611Y-98350647D01*
X146558608Y-98350646D01*
X146344607Y-98312527D01*
X146344601Y-98312526D01*
X146339518Y-98311621D01*
X146252448Y-98310557D01*
X146116989Y-98308902D01*
X146116987Y-98308902D01*
X146111820Y-98308839D01*
X145886726Y-98343283D01*
X145670279Y-98414029D01*
X145468294Y-98519176D01*
X145464161Y-98522279D01*
X145464158Y-98522281D01*
X145386744Y-98580405D01*
X145286194Y-98655900D01*
X145128870Y-98820530D01*
X145042227Y-98947545D01*
X144987318Y-98992545D01*
X144916794Y-99000716D01*
X144853046Y-98969462D01*
X144832349Y-98944978D01*
X144820833Y-98927178D01*
X144810148Y-98917975D01*
X144800581Y-98922379D01*
X144040772Y-99682188D01*
X144033158Y-99696132D01*
X144033289Y-99697965D01*
X144037540Y-99704580D01*
X144798070Y-100465110D01*
X144810080Y-100471669D01*
X144821821Y-100462700D01*
X144836995Y-100441582D01*
X144892989Y-100397934D01*
X144963692Y-100391487D01*
X145026657Y-100424289D01*
X145046750Y-100449271D01*
X145055497Y-100463545D01*
X145084740Y-100511264D01*
X145087442Y-100515674D01*
X145236536Y-100687793D01*
X145411739Y-100833249D01*
X145416191Y-100835851D01*
X145416196Y-100835854D01*
X145571734Y-100926743D01*
X145608347Y-100948138D01*
X145821079Y-101029372D01*
X145826145Y-101030403D01*
X145826146Y-101030403D01*
X145878380Y-101041030D01*
X146044222Y-101074771D01*
X146171297Y-101079431D01*
X146266620Y-101082927D01*
X146266625Y-101082927D01*
X146271784Y-101083116D01*
X146276904Y-101082460D01*
X146276906Y-101082460D01*
X146352179Y-101072817D01*
X146497653Y-101054181D01*
X146502602Y-101052696D01*
X146502608Y-101052695D01*
X146648236Y-101009004D01*
X146715763Y-100988745D01*
X146920257Y-100888564D01*
X146924461Y-100885566D01*
X146924465Y-100885563D01*
X147019177Y-100818005D01*
X147105643Y-100756330D01*
X147266943Y-100595592D01*
X147327386Y-100511477D01*
X147377278Y-100442044D01*
X147433273Y-100398396D01*
X147503976Y-100391950D01*
X147566941Y-100424753D01*
X147587033Y-100449735D01*
X147624739Y-100511264D01*
X147624742Y-100511269D01*
X147627442Y-100515674D01*
X147776536Y-100687793D01*
X147951739Y-100833249D01*
X147956191Y-100835851D01*
X147956196Y-100835854D01*
X148111734Y-100926743D01*
X148148347Y-100948138D01*
X148361079Y-101029372D01*
X148366145Y-101030403D01*
X148366146Y-101030403D01*
X148418380Y-101041030D01*
X148584222Y-101074771D01*
X148711297Y-101079431D01*
X148806620Y-101082927D01*
X148806625Y-101082927D01*
X148811784Y-101083116D01*
X148816904Y-101082460D01*
X148816906Y-101082460D01*
X148892179Y-101072817D01*
X149037653Y-101054181D01*
X149042602Y-101052696D01*
X149042608Y-101052695D01*
X149188236Y-101009004D01*
X149255763Y-100988745D01*
X149460257Y-100888564D01*
X149464461Y-100885566D01*
X149464465Y-100885563D01*
X149559177Y-100818005D01*
X149645643Y-100756330D01*
X149806943Y-100595592D01*
X149867386Y-100511477D01*
X149917278Y-100442044D01*
X149973273Y-100398396D01*
X150043976Y-100391950D01*
X150106941Y-100424753D01*
X150127033Y-100449735D01*
X150164739Y-100511264D01*
X150164742Y-100511269D01*
X150167442Y-100515674D01*
X150316536Y-100687793D01*
X150491739Y-100833249D01*
X150496191Y-100835851D01*
X150496196Y-100835854D01*
X150651734Y-100926743D01*
X150688347Y-100948138D01*
X150901079Y-101029372D01*
X150906145Y-101030403D01*
X150906146Y-101030403D01*
X150958380Y-101041030D01*
X151124222Y-101074771D01*
X151251297Y-101079431D01*
X151346620Y-101082927D01*
X151346625Y-101082927D01*
X151351784Y-101083116D01*
X151356904Y-101082460D01*
X151356906Y-101082460D01*
X151432179Y-101072817D01*
X151577653Y-101054181D01*
X151582602Y-101052696D01*
X151582608Y-101052695D01*
X151728236Y-101009004D01*
X151795763Y-100988745D01*
X152000257Y-100888564D01*
X152004461Y-100885566D01*
X152004465Y-100885563D01*
X152099177Y-100818005D01*
X152185643Y-100756330D01*
X152346943Y-100595592D01*
X152407386Y-100511477D01*
X152457278Y-100442044D01*
X152513273Y-100398396D01*
X152583976Y-100391950D01*
X152646941Y-100424753D01*
X152667033Y-100449735D01*
X152704739Y-100511264D01*
X152704742Y-100511269D01*
X152707442Y-100515674D01*
X152856536Y-100687793D01*
X153031739Y-100833249D01*
X153036191Y-100835851D01*
X153036196Y-100835854D01*
X153191734Y-100926743D01*
X153228347Y-100948138D01*
X153441079Y-101029372D01*
X153446145Y-101030403D01*
X153446146Y-101030403D01*
X153498380Y-101041030D01*
X153664222Y-101074771D01*
X153791297Y-101079431D01*
X153886620Y-101082927D01*
X153886625Y-101082927D01*
X153891784Y-101083116D01*
X153896904Y-101082460D01*
X153896906Y-101082460D01*
X153972179Y-101072817D01*
X154117653Y-101054181D01*
X154122602Y-101052696D01*
X154122608Y-101052695D01*
X154268236Y-101009004D01*
X154335763Y-100988745D01*
X154540257Y-100888564D01*
X154544461Y-100885566D01*
X154544465Y-100885563D01*
X154639177Y-100818005D01*
X154725643Y-100756330D01*
X154886943Y-100595592D01*
X154947386Y-100511477D01*
X154997278Y-100442044D01*
X155053273Y-100398396D01*
X155123976Y-100391950D01*
X155186941Y-100424753D01*
X155207033Y-100449735D01*
X155244739Y-100511264D01*
X155244742Y-100511269D01*
X155247442Y-100515674D01*
X155396536Y-100687793D01*
X155571739Y-100833249D01*
X155576191Y-100835851D01*
X155576196Y-100835854D01*
X155731734Y-100926743D01*
X155768347Y-100948138D01*
X155981079Y-101029372D01*
X155986145Y-101030403D01*
X155986146Y-101030403D01*
X156038380Y-101041030D01*
X156204222Y-101074771D01*
X156331297Y-101079431D01*
X156426620Y-101082927D01*
X156426625Y-101082927D01*
X156431784Y-101083116D01*
X156436904Y-101082460D01*
X156436906Y-101082460D01*
X156512179Y-101072817D01*
X156657653Y-101054181D01*
X156662602Y-101052696D01*
X156662608Y-101052695D01*
X156808236Y-101009004D01*
X156875763Y-100988745D01*
X157080257Y-100888564D01*
X157084461Y-100885566D01*
X157084465Y-100885563D01*
X157179177Y-100818005D01*
X157265643Y-100756330D01*
X157426943Y-100595592D01*
X157487386Y-100511477D01*
X157537278Y-100442044D01*
X157593273Y-100398396D01*
X157663976Y-100391950D01*
X157726941Y-100424753D01*
X157747033Y-100449735D01*
X157784739Y-100511264D01*
X157784742Y-100511269D01*
X157787442Y-100515674D01*
X157936536Y-100687793D01*
X158111739Y-100833249D01*
X158116191Y-100835851D01*
X158116196Y-100835854D01*
X158210821Y-100891148D01*
X158259544Y-100942787D01*
X158272569Y-100997097D01*
X158273001Y-100997070D01*
X158273157Y-100999548D01*
X158273250Y-100999936D01*
X158273250Y-101004983D01*
X158273746Y-101008908D01*
X158273746Y-101008909D01*
X158273758Y-101009004D01*
X158274691Y-101020849D01*
X158276085Y-101065205D01*
X158280952Y-101081958D01*
X158281763Y-101084748D01*
X158285773Y-101104112D01*
X158288323Y-101124299D01*
X158291239Y-101131663D01*
X158291240Y-101131668D01*
X158304657Y-101165556D01*
X158308502Y-101176785D01*
X158320881Y-101219393D01*
X158324919Y-101226220D01*
X158324920Y-101226223D01*
X158331238Y-101236906D01*
X158339938Y-101254664D01*
X158344511Y-101266215D01*
X158344515Y-101266221D01*
X158347431Y-101273588D01*
X158352089Y-101279999D01*
X158352090Y-101280001D01*
X158373514Y-101309488D01*
X158380031Y-101319410D01*
X158398576Y-101350768D01*
X158398579Y-101350772D01*
X158402616Y-101357598D01*
X158417000Y-101371982D01*
X158429841Y-101387016D01*
X158441808Y-101403487D01*
X158447916Y-101408540D01*
X158476005Y-101431777D01*
X158484785Y-101439767D01*
X159508922Y-102463905D01*
X159542948Y-102526217D01*
X159537883Y-102597033D01*
X159495336Y-102653868D01*
X159428816Y-102678679D01*
X159419827Y-102679000D01*
X130224367Y-102679000D01*
X130204982Y-102677500D01*
X130190149Y-102675190D01*
X130190145Y-102675190D01*
X130181276Y-102673809D01*
X130168603Y-102675466D01*
X130141293Y-102676051D01*
X129998615Y-102663569D01*
X129976987Y-102659755D01*
X129816607Y-102616781D01*
X129795971Y-102609270D01*
X129645487Y-102539098D01*
X129626467Y-102528116D01*
X129490461Y-102432884D01*
X129473636Y-102418766D01*
X129356234Y-102301364D01*
X129342116Y-102284539D01*
X129246884Y-102148533D01*
X129235902Y-102129513D01*
X129165731Y-101979032D01*
X129158219Y-101958393D01*
X129115245Y-101798013D01*
X129111431Y-101776383D01*
X129099849Y-101643994D01*
X129099874Y-101621760D01*
X129100270Y-101617342D01*
X129101076Y-101612552D01*
X129101229Y-101600000D01*
X129097273Y-101572376D01*
X129096000Y-101554514D01*
X129096000Y-100619434D01*
X134663950Y-100619434D01*
X134670705Y-100681616D01*
X134721835Y-100818005D01*
X134809189Y-100934561D01*
X134925745Y-101021915D01*
X135062134Y-101073045D01*
X135124316Y-101079800D01*
X136973184Y-101079800D01*
X137035366Y-101073045D01*
X137171755Y-101021915D01*
X137288311Y-100934561D01*
X137375665Y-100818005D01*
X137400154Y-100752681D01*
X137408303Y-100730944D01*
X137450944Y-100674179D01*
X137517506Y-100649479D01*
X137586855Y-100664686D01*
X137613892Y-100684741D01*
X137616536Y-100687793D01*
X137699089Y-100756330D01*
X137769185Y-100814524D01*
X137791739Y-100833249D01*
X137796191Y-100835851D01*
X137796196Y-100835854D01*
X137951734Y-100926743D01*
X137988347Y-100948138D01*
X138201079Y-101029372D01*
X138206145Y-101030403D01*
X138206146Y-101030403D01*
X138258380Y-101041030D01*
X138424222Y-101074771D01*
X138551297Y-101079431D01*
X138646620Y-101082927D01*
X138646625Y-101082927D01*
X138651784Y-101083116D01*
X138656904Y-101082460D01*
X138656906Y-101082460D01*
X138732179Y-101072817D01*
X138877653Y-101054181D01*
X138882602Y-101052696D01*
X138882608Y-101052695D01*
X139028236Y-101009004D01*
X139095763Y-100988745D01*
X139300257Y-100888564D01*
X139304461Y-100885566D01*
X139304465Y-100885563D01*
X139369631Y-100839080D01*
X140349500Y-100839080D01*
X140354781Y-100846134D01*
X140524103Y-100945078D01*
X140533390Y-100949528D01*
X140736388Y-101027045D01*
X140746290Y-101029922D01*
X140959206Y-101073240D01*
X140969458Y-101074463D01*
X141186597Y-101082425D01*
X141196883Y-101081958D01*
X141412420Y-101054347D01*
X141422498Y-101052205D01*
X141630627Y-100989763D01*
X141640225Y-100986002D01*
X141835365Y-100890404D01*
X141844204Y-100885135D01*
X141896854Y-100847580D01*
X141903528Y-100839080D01*
X142889500Y-100839080D01*
X142894781Y-100846134D01*
X143064103Y-100945078D01*
X143073390Y-100949528D01*
X143276388Y-101027045D01*
X143286290Y-101029922D01*
X143499206Y-101073240D01*
X143509458Y-101074463D01*
X143726597Y-101082425D01*
X143736883Y-101081958D01*
X143952420Y-101054347D01*
X143962498Y-101052205D01*
X144170627Y-100989763D01*
X144180225Y-100986002D01*
X144375365Y-100890404D01*
X144384204Y-100885135D01*
X144436854Y-100847580D01*
X144445254Y-100836881D01*
X144438265Y-100823725D01*
X143681562Y-100067022D01*
X143667618Y-100059408D01*
X143665785Y-100059539D01*
X143659170Y-100063790D01*
X142896260Y-100826700D01*
X142889500Y-100839080D01*
X141903528Y-100839080D01*
X141905254Y-100836881D01*
X141898265Y-100823725D01*
X141141562Y-100067022D01*
X141127618Y-100059408D01*
X141125785Y-100059539D01*
X141119170Y-100063790D01*
X140356260Y-100826700D01*
X140349500Y-100839080D01*
X139369631Y-100839080D01*
X139399177Y-100818005D01*
X139485643Y-100756330D01*
X139646943Y-100595592D01*
X139704370Y-100515674D01*
X139757595Y-100441603D01*
X139813590Y-100397955D01*
X139884293Y-100391509D01*
X139947258Y-100424312D01*
X139967351Y-100449295D01*
X139976083Y-100463545D01*
X139986540Y-100473006D01*
X139995318Y-100469222D01*
X140756728Y-99707812D01*
X140763106Y-99696132D01*
X141493158Y-99696132D01*
X141493289Y-99697965D01*
X141497540Y-99704580D01*
X142258070Y-100465110D01*
X142270080Y-100471669D01*
X142281820Y-100462700D01*
X142297313Y-100441140D01*
X142353307Y-100397493D01*
X142424011Y-100391047D01*
X142486975Y-100423850D01*
X142507068Y-100448833D01*
X142516083Y-100463545D01*
X142526540Y-100473006D01*
X142535318Y-100469222D01*
X143296728Y-99707812D01*
X143304342Y-99693868D01*
X143304211Y-99692035D01*
X143299960Y-99685420D01*
X142539672Y-98925132D01*
X142528136Y-98918832D01*
X142515852Y-98928456D01*
X142502524Y-98947995D01*
X142447613Y-98992999D01*
X142377088Y-99001171D01*
X142313341Y-98969917D01*
X142292644Y-98945433D01*
X142280835Y-98927179D01*
X142270148Y-98917975D01*
X142260581Y-98922379D01*
X141500772Y-99682188D01*
X141493158Y-99696132D01*
X140763106Y-99696132D01*
X140764342Y-99693868D01*
X140764211Y-99692035D01*
X140759960Y-99685420D01*
X139999672Y-98925132D01*
X139988136Y-98918832D01*
X139975851Y-98928457D01*
X139962828Y-98947548D01*
X139907917Y-98992551D01*
X139837392Y-99000722D01*
X139773645Y-98969468D01*
X139752950Y-98944987D01*
X139689673Y-98847175D01*
X139536418Y-98678750D01*
X139376734Y-98552640D01*
X140351186Y-98552640D01*
X140357930Y-98564970D01*
X141115938Y-99322978D01*
X141129882Y-99330592D01*
X141131715Y-99330461D01*
X141138330Y-99326210D01*
X141900865Y-98563675D01*
X141906892Y-98552640D01*
X142891186Y-98552640D01*
X142897930Y-98564970D01*
X143655938Y-99322978D01*
X143669882Y-99330592D01*
X143671715Y-99330461D01*
X143678330Y-99326210D01*
X144440865Y-98563675D01*
X144447886Y-98550819D01*
X144440357Y-98540486D01*
X144432906Y-98535536D01*
X144242682Y-98430526D01*
X144233273Y-98426298D01*
X144028447Y-98353765D01*
X144018484Y-98351133D01*
X143804560Y-98313027D01*
X143794307Y-98312058D01*
X143577024Y-98309403D01*
X143566741Y-98310123D01*
X143351955Y-98342990D01*
X143341927Y-98345379D01*
X143135388Y-98412886D01*
X143125891Y-98416878D01*
X142933150Y-98517211D01*
X142924422Y-98522708D01*
X142899639Y-98541315D01*
X142891186Y-98552640D01*
X141906892Y-98552640D01*
X141907886Y-98550819D01*
X141900357Y-98540486D01*
X141892906Y-98535536D01*
X141702682Y-98430526D01*
X141693273Y-98426298D01*
X141488447Y-98353765D01*
X141478484Y-98351133D01*
X141264560Y-98313027D01*
X141254307Y-98312058D01*
X141037024Y-98309403D01*
X141026741Y-98310123D01*
X140811955Y-98342990D01*
X140801927Y-98345379D01*
X140595388Y-98412886D01*
X140585891Y-98416878D01*
X140393150Y-98517211D01*
X140384422Y-98522708D01*
X140359639Y-98541315D01*
X140351186Y-98552640D01*
X139376734Y-98552640D01*
X139357713Y-98537618D01*
X139158357Y-98427567D01*
X139042348Y-98386486D01*
X138948579Y-98353280D01*
X138948575Y-98353279D01*
X138943704Y-98351554D01*
X138938611Y-98350647D01*
X138938608Y-98350646D01*
X138724607Y-98312527D01*
X138724601Y-98312526D01*
X138719518Y-98311621D01*
X138632448Y-98310557D01*
X138496989Y-98308902D01*
X138496987Y-98308902D01*
X138491820Y-98308839D01*
X138266726Y-98343283D01*
X138050279Y-98414029D01*
X137848294Y-98519176D01*
X137844161Y-98522279D01*
X137844158Y-98522281D01*
X137766744Y-98580405D01*
X137666194Y-98655900D01*
X137662622Y-98659638D01*
X137618753Y-98705544D01*
X137557228Y-98740974D01*
X137486316Y-98737517D01*
X137428530Y-98696271D01*
X137409677Y-98662722D01*
X137378818Y-98580405D01*
X137378817Y-98580403D01*
X137375665Y-98571995D01*
X137288311Y-98455439D01*
X137171755Y-98368085D01*
X137035366Y-98316955D01*
X136973184Y-98310200D01*
X135124316Y-98310200D01*
X135062134Y-98316955D01*
X134925745Y-98368085D01*
X134809189Y-98455439D01*
X134721835Y-98571995D01*
X134670705Y-98708384D01*
X134663950Y-98770566D01*
X134663950Y-100619434D01*
X129096000Y-100619434D01*
X129096000Y-84421050D01*
X134659619Y-84421050D01*
X134659916Y-84426202D01*
X134659916Y-84426206D01*
X134662129Y-84464580D01*
X134672727Y-84648387D01*
X134673862Y-84653424D01*
X134673863Y-84653430D01*
X134712984Y-84827022D01*
X134722789Y-84870531D01*
X134724733Y-84875317D01*
X134724734Y-84875322D01*
X134806517Y-85076728D01*
X134808461Y-85081515D01*
X134882038Y-85201582D01*
X134924740Y-85271264D01*
X134927442Y-85275674D01*
X135076536Y-85447793D01*
X135251739Y-85593249D01*
X135256191Y-85595851D01*
X135256196Y-85595854D01*
X135387531Y-85672600D01*
X135448347Y-85708138D01*
X135661079Y-85789372D01*
X135666145Y-85790403D01*
X135666146Y-85790403D01*
X135718380Y-85801030D01*
X135884222Y-85834771D01*
X136012038Y-85839458D01*
X136106620Y-85842927D01*
X136106625Y-85842927D01*
X136111784Y-85843116D01*
X136116904Y-85842460D01*
X136116906Y-85842460D01*
X136189533Y-85833156D01*
X136337653Y-85814181D01*
X136342602Y-85812696D01*
X136342608Y-85812695D01*
X136468954Y-85774789D01*
X136555763Y-85748745D01*
X136760257Y-85648564D01*
X136764461Y-85645566D01*
X136764465Y-85645563D01*
X136829631Y-85599080D01*
X137809500Y-85599080D01*
X137814781Y-85606134D01*
X137984103Y-85705078D01*
X137993390Y-85709528D01*
X138196388Y-85787045D01*
X138206290Y-85789922D01*
X138419206Y-85833240D01*
X138429458Y-85834463D01*
X138646597Y-85842425D01*
X138656883Y-85841958D01*
X138872420Y-85814347D01*
X138882498Y-85812205D01*
X139090627Y-85749763D01*
X139100225Y-85746002D01*
X139295365Y-85650404D01*
X139304204Y-85645135D01*
X139356854Y-85607580D01*
X139365254Y-85596881D01*
X139358265Y-85583725D01*
X138601562Y-84827022D01*
X138587618Y-84819408D01*
X138585785Y-84819539D01*
X138579170Y-84823790D01*
X137816260Y-85586700D01*
X137809500Y-85599080D01*
X136829631Y-85599080D01*
X136851158Y-85583725D01*
X136945643Y-85516330D01*
X137106943Y-85355592D01*
X137197749Y-85229222D01*
X137217595Y-85201603D01*
X137273590Y-85157955D01*
X137344293Y-85151509D01*
X137407258Y-85184312D01*
X137427351Y-85209295D01*
X137436083Y-85223545D01*
X137446540Y-85233006D01*
X137455318Y-85229222D01*
X138216728Y-84467812D01*
X138224342Y-84453868D01*
X138224211Y-84452035D01*
X138219960Y-84445420D01*
X137459672Y-83685132D01*
X137448136Y-83678832D01*
X137435851Y-83688457D01*
X137422828Y-83707548D01*
X137367917Y-83752551D01*
X137297392Y-83760722D01*
X137233645Y-83729468D01*
X137212950Y-83704987D01*
X137149673Y-83607175D01*
X136996418Y-83438750D01*
X136836734Y-83312640D01*
X137811186Y-83312640D01*
X137817930Y-83324970D01*
X138575938Y-84082978D01*
X138589882Y-84090592D01*
X138591715Y-84090461D01*
X138598330Y-84086210D01*
X139360865Y-83323675D01*
X139367886Y-83310819D01*
X139360357Y-83300486D01*
X139352906Y-83295536D01*
X139162682Y-83190526D01*
X139153273Y-83186298D01*
X138948447Y-83113765D01*
X138938484Y-83111133D01*
X138724560Y-83073027D01*
X138714307Y-83072058D01*
X138497024Y-83069403D01*
X138486741Y-83070123D01*
X138271955Y-83102990D01*
X138261927Y-83105379D01*
X138055388Y-83172886D01*
X138045891Y-83176878D01*
X137853150Y-83277211D01*
X137844422Y-83282708D01*
X137819639Y-83301315D01*
X137811186Y-83312640D01*
X136836734Y-83312640D01*
X136817713Y-83297618D01*
X136618357Y-83187567D01*
X136502348Y-83146486D01*
X136408579Y-83113280D01*
X136408575Y-83113279D01*
X136403704Y-83111554D01*
X136398611Y-83110647D01*
X136398608Y-83110646D01*
X136184607Y-83072527D01*
X136184601Y-83072526D01*
X136179518Y-83071621D01*
X136092448Y-83070557D01*
X135956989Y-83068902D01*
X135956987Y-83068902D01*
X135951820Y-83068839D01*
X135726726Y-83103283D01*
X135510279Y-83174029D01*
X135308294Y-83279176D01*
X135304161Y-83282279D01*
X135304158Y-83282281D01*
X135130329Y-83412795D01*
X135126194Y-83415900D01*
X134968870Y-83580530D01*
X134965961Y-83584795D01*
X134965955Y-83584803D01*
X134902398Y-83677975D01*
X134840547Y-83768645D01*
X134744671Y-83975192D01*
X134683817Y-84194625D01*
X134659619Y-84421050D01*
X129096000Y-84421050D01*
X129096000Y-41254879D01*
X131122265Y-41254879D01*
X131123011Y-41262771D01*
X131126441Y-41299056D01*
X131127000Y-41310914D01*
X131127000Y-79295980D01*
X131126470Y-79307214D01*
X131124792Y-79314719D01*
X131125041Y-79322638D01*
X131126938Y-79383012D01*
X131127000Y-79386969D01*
X131127000Y-79414983D01*
X131127496Y-79418908D01*
X131127496Y-79418909D01*
X131127508Y-79419004D01*
X131128441Y-79430849D01*
X131129835Y-79475205D01*
X131132047Y-79482817D01*
X131135513Y-79494748D01*
X131139523Y-79514112D01*
X131142073Y-79534299D01*
X131144989Y-79541663D01*
X131144990Y-79541668D01*
X131158407Y-79575556D01*
X131162252Y-79586785D01*
X131174631Y-79629393D01*
X131178669Y-79636220D01*
X131178670Y-79636223D01*
X131184988Y-79646906D01*
X131193688Y-79664664D01*
X131198261Y-79676215D01*
X131198265Y-79676221D01*
X131201181Y-79683588D01*
X131205839Y-79689999D01*
X131205840Y-79690001D01*
X131227264Y-79719488D01*
X131233781Y-79729410D01*
X131252326Y-79760768D01*
X131252329Y-79760772D01*
X131256366Y-79767598D01*
X131270750Y-79781982D01*
X131283591Y-79797016D01*
X131295558Y-79813487D01*
X131315622Y-79830085D01*
X131329750Y-79841773D01*
X131338531Y-79849763D01*
X132051005Y-80562238D01*
X132058575Y-80570557D01*
X132062697Y-80577053D01*
X132068475Y-80582479D01*
X132068476Y-80582480D01*
X132112515Y-80623835D01*
X132115357Y-80626590D01*
X132135156Y-80646389D01*
X132138281Y-80648813D01*
X132138290Y-80648821D01*
X132138376Y-80648887D01*
X132147401Y-80656595D01*
X132179744Y-80686967D01*
X132186688Y-80690785D01*
X132186690Y-80690786D01*
X132197579Y-80696772D01*
X132214097Y-80707623D01*
X132230183Y-80720100D01*
X132270916Y-80737726D01*
X132281564Y-80742943D01*
X132320447Y-80764319D01*
X132328122Y-80766290D01*
X132328128Y-80766292D01*
X132340161Y-80769381D01*
X132358863Y-80775784D01*
X132377542Y-80783867D01*
X132411378Y-80789226D01*
X132421377Y-80790810D01*
X132432990Y-80793215D01*
X132475968Y-80804250D01*
X132496315Y-80804250D01*
X132516027Y-80805801D01*
X132536129Y-80808985D01*
X132544021Y-80808239D01*
X132580306Y-80804809D01*
X132592164Y-80804250D01*
X138590828Y-80804250D01*
X138658949Y-80824252D01*
X138679923Y-80841155D01*
X140456345Y-82617578D01*
X140490371Y-82679890D01*
X140493250Y-82706673D01*
X140493250Y-83148081D01*
X140473248Y-83216202D01*
X140425432Y-83259843D01*
X140388294Y-83279176D01*
X140206194Y-83415900D01*
X140048870Y-83580530D01*
X139962227Y-83707545D01*
X139907318Y-83752545D01*
X139836794Y-83760716D01*
X139773046Y-83729462D01*
X139752349Y-83704978D01*
X139740833Y-83687178D01*
X139730148Y-83677975D01*
X139720581Y-83682379D01*
X138960772Y-84442188D01*
X138953158Y-84456132D01*
X138953289Y-84457965D01*
X138957540Y-84464580D01*
X139718070Y-85225110D01*
X139730080Y-85231669D01*
X139741821Y-85222700D01*
X139756995Y-85201582D01*
X139812989Y-85157934D01*
X139883692Y-85151487D01*
X139946657Y-85184289D01*
X139966750Y-85209271D01*
X139975497Y-85223545D01*
X140004740Y-85271264D01*
X140007442Y-85275674D01*
X140156536Y-85447793D01*
X140331739Y-85593249D01*
X140336191Y-85595851D01*
X140336196Y-85595854D01*
X140467531Y-85672600D01*
X140528347Y-85708138D01*
X140741079Y-85789372D01*
X140746145Y-85790403D01*
X140746146Y-85790403D01*
X140798380Y-85801030D01*
X140964222Y-85834771D01*
X141092038Y-85839458D01*
X141186620Y-85842927D01*
X141186625Y-85842927D01*
X141191784Y-85843116D01*
X141196904Y-85842460D01*
X141196906Y-85842460D01*
X141269533Y-85833156D01*
X141417653Y-85814181D01*
X141422602Y-85812696D01*
X141422608Y-85812695D01*
X141548954Y-85774789D01*
X141635763Y-85748745D01*
X141840257Y-85648564D01*
X141844461Y-85645566D01*
X141844465Y-85645563D01*
X141931158Y-85583725D01*
X142025643Y-85516330D01*
X142186943Y-85355592D01*
X142297278Y-85202044D01*
X142353273Y-85158396D01*
X142423976Y-85151950D01*
X142486941Y-85184753D01*
X142507033Y-85209735D01*
X142544739Y-85271264D01*
X142544742Y-85271269D01*
X142547442Y-85275674D01*
X142696536Y-85447793D01*
X142871739Y-85593249D01*
X142876191Y-85595851D01*
X142876196Y-85595854D01*
X143007531Y-85672600D01*
X143068347Y-85708138D01*
X143281079Y-85789372D01*
X143286145Y-85790403D01*
X143286146Y-85790403D01*
X143338380Y-85801030D01*
X143504222Y-85834771D01*
X143632038Y-85839458D01*
X143726620Y-85842927D01*
X143726625Y-85842927D01*
X143731784Y-85843116D01*
X143736904Y-85842460D01*
X143736906Y-85842460D01*
X143809533Y-85833156D01*
X143957653Y-85814181D01*
X143962602Y-85812696D01*
X143962608Y-85812695D01*
X144088954Y-85774789D01*
X144175763Y-85748745D01*
X144380257Y-85648564D01*
X144384461Y-85645566D01*
X144384465Y-85645563D01*
X144471158Y-85583725D01*
X144565643Y-85516330D01*
X144726943Y-85355592D01*
X144837278Y-85202044D01*
X144893273Y-85158396D01*
X144963976Y-85151950D01*
X145026941Y-85184753D01*
X145047033Y-85209735D01*
X145084739Y-85271264D01*
X145084742Y-85271269D01*
X145087442Y-85275674D01*
X145236536Y-85447793D01*
X145411739Y-85593249D01*
X145416191Y-85595851D01*
X145416196Y-85595854D01*
X145547531Y-85672600D01*
X145608347Y-85708138D01*
X145821079Y-85789372D01*
X145826145Y-85790403D01*
X145826146Y-85790403D01*
X145878380Y-85801030D01*
X146044222Y-85834771D01*
X146172038Y-85839458D01*
X146266620Y-85842927D01*
X146266625Y-85842927D01*
X146271784Y-85843116D01*
X146276904Y-85842460D01*
X146276906Y-85842460D01*
X146349533Y-85833156D01*
X146497653Y-85814181D01*
X146502602Y-85812696D01*
X146502608Y-85812695D01*
X146628954Y-85774789D01*
X146715763Y-85748745D01*
X146920257Y-85648564D01*
X146924461Y-85645566D01*
X146924465Y-85645563D01*
X147011158Y-85583725D01*
X147105643Y-85516330D01*
X147266943Y-85355592D01*
X147377278Y-85202044D01*
X147433273Y-85158396D01*
X147503976Y-85151950D01*
X147566941Y-85184753D01*
X147587033Y-85209735D01*
X147624739Y-85271264D01*
X147624742Y-85271269D01*
X147627442Y-85275674D01*
X147776536Y-85447793D01*
X147951739Y-85593249D01*
X147956191Y-85595851D01*
X147956196Y-85595854D01*
X148087531Y-85672600D01*
X148148347Y-85708138D01*
X148361079Y-85789372D01*
X148366145Y-85790403D01*
X148366146Y-85790403D01*
X148418380Y-85801030D01*
X148584222Y-85834771D01*
X148712038Y-85839458D01*
X148806620Y-85842927D01*
X148806625Y-85842927D01*
X148811784Y-85843116D01*
X148816904Y-85842460D01*
X148816906Y-85842460D01*
X148889533Y-85833156D01*
X149037653Y-85814181D01*
X149042602Y-85812696D01*
X149042608Y-85812695D01*
X149168954Y-85774789D01*
X149255763Y-85748745D01*
X149460257Y-85648564D01*
X149464461Y-85645566D01*
X149464465Y-85645563D01*
X149551158Y-85583725D01*
X149645643Y-85516330D01*
X149806943Y-85355592D01*
X149917278Y-85202044D01*
X149973273Y-85158396D01*
X150043976Y-85151950D01*
X150106941Y-85184753D01*
X150127033Y-85209735D01*
X150164739Y-85271264D01*
X150164742Y-85271269D01*
X150167442Y-85275674D01*
X150316536Y-85447793D01*
X150491739Y-85593249D01*
X150496191Y-85595851D01*
X150496196Y-85595854D01*
X150627531Y-85672600D01*
X150688347Y-85708138D01*
X150901079Y-85789372D01*
X150906145Y-85790403D01*
X150906146Y-85790403D01*
X150958380Y-85801030D01*
X151124222Y-85834771D01*
X151252038Y-85839458D01*
X151346620Y-85842927D01*
X151346625Y-85842927D01*
X151351784Y-85843116D01*
X151356904Y-85842460D01*
X151356906Y-85842460D01*
X151429533Y-85833156D01*
X151577653Y-85814181D01*
X151582602Y-85812696D01*
X151582608Y-85812695D01*
X151708954Y-85774789D01*
X151795763Y-85748745D01*
X152000257Y-85648564D01*
X152004461Y-85645566D01*
X152004465Y-85645563D01*
X152091158Y-85583725D01*
X152185643Y-85516330D01*
X152346943Y-85355592D01*
X152457278Y-85202044D01*
X152513273Y-85158396D01*
X152583976Y-85151950D01*
X152646941Y-85184753D01*
X152667033Y-85209735D01*
X152704739Y-85271264D01*
X152704742Y-85271269D01*
X152707442Y-85275674D01*
X152856536Y-85447793D01*
X153031739Y-85593249D01*
X153036191Y-85595851D01*
X153036196Y-85595854D01*
X153167531Y-85672600D01*
X153228347Y-85708138D01*
X153441079Y-85789372D01*
X153446145Y-85790403D01*
X153446146Y-85790403D01*
X153498380Y-85801030D01*
X153664222Y-85834771D01*
X153792038Y-85839458D01*
X153886620Y-85842927D01*
X153886625Y-85842927D01*
X153891784Y-85843116D01*
X153896904Y-85842460D01*
X153896906Y-85842460D01*
X153969533Y-85833156D01*
X154117653Y-85814181D01*
X154122602Y-85812696D01*
X154122608Y-85812695D01*
X154248954Y-85774789D01*
X154335763Y-85748745D01*
X154540257Y-85648564D01*
X154544461Y-85645566D01*
X154544465Y-85645563D01*
X154631158Y-85583725D01*
X154725643Y-85516330D01*
X154886943Y-85355592D01*
X154997278Y-85202044D01*
X155053273Y-85158396D01*
X155123976Y-85151950D01*
X155186941Y-85184753D01*
X155207033Y-85209735D01*
X155244739Y-85271264D01*
X155244742Y-85271269D01*
X155247442Y-85275674D01*
X155396536Y-85447793D01*
X155571739Y-85593249D01*
X155576191Y-85595851D01*
X155576196Y-85595854D01*
X155707531Y-85672600D01*
X155768347Y-85708138D01*
X155981079Y-85789372D01*
X155986145Y-85790403D01*
X155986146Y-85790403D01*
X156038380Y-85801030D01*
X156204222Y-85834771D01*
X156332038Y-85839458D01*
X156426620Y-85842927D01*
X156426625Y-85842927D01*
X156431784Y-85843116D01*
X156436904Y-85842460D01*
X156436906Y-85842460D01*
X156509533Y-85833156D01*
X156657653Y-85814181D01*
X156662602Y-85812696D01*
X156662608Y-85812695D01*
X156788954Y-85774789D01*
X156875763Y-85748745D01*
X157080257Y-85648564D01*
X157084461Y-85645566D01*
X157084465Y-85645563D01*
X157171158Y-85583725D01*
X157265643Y-85516330D01*
X157426943Y-85355592D01*
X157537278Y-85202044D01*
X157593273Y-85158396D01*
X157663976Y-85151950D01*
X157726941Y-85184753D01*
X157747033Y-85209735D01*
X157784739Y-85271264D01*
X157784742Y-85271269D01*
X157787442Y-85275674D01*
X157936536Y-85447793D01*
X158111739Y-85593249D01*
X158116191Y-85595851D01*
X158116196Y-85595854D01*
X158247531Y-85672600D01*
X158308347Y-85708138D01*
X158521079Y-85789372D01*
X158526145Y-85790403D01*
X158526146Y-85790403D01*
X158578380Y-85801030D01*
X158744222Y-85834771D01*
X158872038Y-85839458D01*
X158966620Y-85842927D01*
X158966625Y-85842927D01*
X158971784Y-85843116D01*
X158976904Y-85842460D01*
X158976906Y-85842460D01*
X159049533Y-85833156D01*
X159197653Y-85814181D01*
X159202602Y-85812696D01*
X159202608Y-85812695D01*
X159328954Y-85774789D01*
X159415763Y-85748745D01*
X159620257Y-85648564D01*
X159624461Y-85645566D01*
X159624465Y-85645563D01*
X159711158Y-85583725D01*
X159805643Y-85516330D01*
X159966943Y-85355592D01*
X160077278Y-85202044D01*
X160133273Y-85158396D01*
X160203976Y-85151950D01*
X160266941Y-85184753D01*
X160287033Y-85209735D01*
X160324739Y-85271264D01*
X160324742Y-85271269D01*
X160327442Y-85275674D01*
X160476536Y-85447793D01*
X160651739Y-85593249D01*
X160656191Y-85595851D01*
X160656196Y-85595854D01*
X160787531Y-85672600D01*
X160848347Y-85708138D01*
X161061079Y-85789372D01*
X161066145Y-85790403D01*
X161066146Y-85790403D01*
X161118380Y-85801030D01*
X161284222Y-85834771D01*
X161412038Y-85839458D01*
X161506620Y-85842927D01*
X161506625Y-85842927D01*
X161511784Y-85843116D01*
X161516904Y-85842460D01*
X161516906Y-85842460D01*
X161589533Y-85833156D01*
X161737653Y-85814181D01*
X161742602Y-85812696D01*
X161742608Y-85812695D01*
X161868954Y-85774789D01*
X161955763Y-85748745D01*
X162160257Y-85648564D01*
X162164461Y-85645566D01*
X162164465Y-85645563D01*
X162251158Y-85583725D01*
X162345643Y-85516330D01*
X162506943Y-85355592D01*
X162617278Y-85202044D01*
X162673273Y-85158396D01*
X162743976Y-85151950D01*
X162806941Y-85184753D01*
X162827033Y-85209735D01*
X162864739Y-85271264D01*
X162864742Y-85271269D01*
X162867442Y-85275674D01*
X163016536Y-85447793D01*
X163191739Y-85593249D01*
X163196191Y-85595851D01*
X163196196Y-85595854D01*
X163327531Y-85672600D01*
X163388347Y-85708138D01*
X163601079Y-85789372D01*
X163606145Y-85790403D01*
X163606146Y-85790403D01*
X163658380Y-85801030D01*
X163824222Y-85834771D01*
X163952038Y-85839458D01*
X164046620Y-85842927D01*
X164046625Y-85842927D01*
X164051784Y-85843116D01*
X164056904Y-85842460D01*
X164056906Y-85842460D01*
X164129533Y-85833156D01*
X164277653Y-85814181D01*
X164282602Y-85812696D01*
X164282608Y-85812695D01*
X164408954Y-85774789D01*
X164495763Y-85748745D01*
X164700257Y-85648564D01*
X164704461Y-85645566D01*
X164704465Y-85645563D01*
X164791158Y-85583725D01*
X164885643Y-85516330D01*
X165046943Y-85355592D01*
X165179823Y-85170669D01*
X165189293Y-85151509D01*
X165278423Y-84971168D01*
X165278424Y-84971166D01*
X165280717Y-84966526D01*
X165346914Y-84748646D01*
X165359450Y-84653430D01*
X165376200Y-84526201D01*
X165376201Y-84526194D01*
X165376637Y-84522879D01*
X165378296Y-84455000D01*
X165370929Y-84365393D01*
X165360061Y-84233202D01*
X165360060Y-84233196D01*
X165359637Y-84228051D01*
X165325077Y-84090461D01*
X165305422Y-84012208D01*
X165305421Y-84012204D01*
X165304163Y-84007197D01*
X165302104Y-84002461D01*
X165215422Y-83803106D01*
X165215420Y-83803103D01*
X165213362Y-83798369D01*
X165089673Y-83607175D01*
X164936418Y-83438750D01*
X164757713Y-83297618D01*
X164558357Y-83187567D01*
X164442348Y-83146486D01*
X164348579Y-83113280D01*
X164348575Y-83113279D01*
X164343704Y-83111554D01*
X164338611Y-83110647D01*
X164338608Y-83110646D01*
X164124607Y-83072527D01*
X164124601Y-83072526D01*
X164119518Y-83071621D01*
X164032448Y-83070557D01*
X163896989Y-83068902D01*
X163896987Y-83068902D01*
X163891820Y-83068839D01*
X163666726Y-83103283D01*
X163450279Y-83174029D01*
X163248294Y-83279176D01*
X163244161Y-83282279D01*
X163244158Y-83282281D01*
X163070329Y-83412795D01*
X163066194Y-83415900D01*
X162908870Y-83580530D01*
X162893300Y-83603355D01*
X162822534Y-83707094D01*
X162767623Y-83752096D01*
X162697098Y-83760267D01*
X162633351Y-83729013D01*
X162612654Y-83704529D01*
X162552481Y-83611515D01*
X162552479Y-83611512D01*
X162549673Y-83607175D01*
X162396418Y-83438750D01*
X162217713Y-83297618D01*
X162149355Y-83259882D01*
X162099386Y-83209451D01*
X162084250Y-83149575D01*
X162084250Y-81359020D01*
X162084779Y-81347791D01*
X162086458Y-81340281D01*
X162084312Y-81272001D01*
X162084250Y-81268044D01*
X162084250Y-81240017D01*
X162083739Y-81235971D01*
X162082807Y-81224136D01*
X162081663Y-81187720D01*
X162081414Y-81179795D01*
X162075737Y-81160253D01*
X162071728Y-81140894D01*
X162071569Y-81139633D01*
X162069177Y-81120701D01*
X162066261Y-81113337D01*
X162066260Y-81113332D01*
X162052838Y-81079435D01*
X162048999Y-81068224D01*
X162036618Y-81025607D01*
X162026261Y-81008093D01*
X162017565Y-80990343D01*
X162012989Y-80978785D01*
X162012986Y-80978780D01*
X162010069Y-80971412D01*
X161983983Y-80935507D01*
X161977466Y-80925585D01*
X161958922Y-80894228D01*
X161958920Y-80894225D01*
X161954884Y-80887401D01*
X161940497Y-80873014D01*
X161927656Y-80857980D01*
X161920352Y-80847927D01*
X161915692Y-80841513D01*
X161881500Y-80813227D01*
X161872721Y-80805238D01*
X157993655Y-76926172D01*
X157959629Y-76863860D01*
X157956750Y-76837077D01*
X157956750Y-73182438D01*
X158628850Y-73182438D01*
X158668314Y-73494830D01*
X158746620Y-73799813D01*
X158862534Y-74092577D01*
X158864436Y-74096036D01*
X158864437Y-74096039D01*
X158996362Y-74336009D01*
X159014226Y-74368504D01*
X159199305Y-74623244D01*
X159414852Y-74852778D01*
X159657468Y-75053487D01*
X159923326Y-75222206D01*
X159926905Y-75223890D01*
X159926912Y-75223894D01*
X160204644Y-75354584D01*
X160204648Y-75354586D01*
X160208234Y-75356273D01*
X160507698Y-75453575D01*
X160816996Y-75512577D01*
X160910550Y-75518463D01*
X161050608Y-75527275D01*
X161050624Y-75527276D01*
X161052603Y-75527400D01*
X161209897Y-75527400D01*
X161211876Y-75527276D01*
X161211892Y-75527275D01*
X161351950Y-75518463D01*
X161445504Y-75512577D01*
X161754802Y-75453575D01*
X162054266Y-75356273D01*
X162057852Y-75354586D01*
X162057856Y-75354584D01*
X162335588Y-75223894D01*
X162335595Y-75223890D01*
X162339174Y-75222206D01*
X162605032Y-75053487D01*
X162847648Y-74852778D01*
X163063195Y-74623244D01*
X163248274Y-74368504D01*
X163266139Y-74336009D01*
X163398063Y-74096039D01*
X163398064Y-74096036D01*
X163399966Y-74092577D01*
X163515880Y-73799813D01*
X163594186Y-73494830D01*
X163633650Y-73182438D01*
X163633650Y-72959593D01*
X164824289Y-72959593D01*
X164833098Y-73194216D01*
X164834193Y-73199434D01*
X164859044Y-73317871D01*
X164881312Y-73424001D01*
X164967552Y-73642377D01*
X165089354Y-73843100D01*
X165243235Y-74020432D01*
X165247367Y-74023820D01*
X165420666Y-74165917D01*
X165420672Y-74165921D01*
X165424794Y-74169301D01*
X165429430Y-74171940D01*
X165429433Y-74171942D01*
X165540658Y-74235255D01*
X165628840Y-74285451D01*
X165849539Y-74365561D01*
X165854788Y-74366510D01*
X165854791Y-74366511D01*
X165935865Y-74381171D01*
X166080580Y-74407340D01*
X166084719Y-74407535D01*
X166084726Y-74407536D01*
X166103690Y-74408430D01*
X166103699Y-74408430D01*
X166105179Y-74408500D01*
X166270200Y-74408500D01*
X166351549Y-74401597D01*
X166439887Y-74394102D01*
X166439891Y-74394101D01*
X166445198Y-74393651D01*
X166450353Y-74392313D01*
X166450359Y-74392312D01*
X166667285Y-74336009D01*
X166667284Y-74336009D01*
X166672456Y-74334667D01*
X166677322Y-74332475D01*
X166677325Y-74332474D01*
X166881667Y-74240424D01*
X166881670Y-74240423D01*
X166886528Y-74238234D01*
X167081291Y-74107112D01*
X167251177Y-73945049D01*
X167391328Y-73756679D01*
X167451969Y-73637408D01*
X167495319Y-73552144D01*
X167495319Y-73552143D01*
X167497737Y-73547388D01*
X167567361Y-73323160D01*
X167584452Y-73194216D01*
X167597511Y-73095690D01*
X167597511Y-73095687D01*
X167598211Y-73090407D01*
X167589402Y-72855784D01*
X167571608Y-72770978D01*
X167542285Y-72631226D01*
X167542284Y-72631223D01*
X167541188Y-72625999D01*
X167454948Y-72407623D01*
X167361732Y-72254008D01*
X167335914Y-72211461D01*
X167335912Y-72211458D01*
X167333146Y-72206900D01*
X167179265Y-72029568D01*
X167150430Y-72005925D01*
X167001834Y-71884083D01*
X167001828Y-71884079D01*
X166997706Y-71880699D01*
X166993070Y-71878060D01*
X166993067Y-71878058D01*
X166798303Y-71767192D01*
X166793660Y-71764549D01*
X166572961Y-71684439D01*
X166567712Y-71683490D01*
X166567709Y-71683489D01*
X166486635Y-71668829D01*
X166341920Y-71642660D01*
X166337781Y-71642465D01*
X166337774Y-71642464D01*
X166318810Y-71641570D01*
X166318801Y-71641570D01*
X166317321Y-71641500D01*
X166152300Y-71641500D01*
X166070951Y-71648403D01*
X165982613Y-71655898D01*
X165982609Y-71655899D01*
X165977302Y-71656349D01*
X165972147Y-71657687D01*
X165972141Y-71657688D01*
X165794427Y-71703814D01*
X165750044Y-71715333D01*
X165745178Y-71717525D01*
X165745175Y-71717526D01*
X165540833Y-71809576D01*
X165540830Y-71809577D01*
X165535972Y-71811766D01*
X165341209Y-71942888D01*
X165337352Y-71946567D01*
X165337350Y-71946569D01*
X165329601Y-71953961D01*
X165171323Y-72104951D01*
X165031172Y-72293321D01*
X165028756Y-72298072D01*
X165028754Y-72298076D01*
X164927181Y-72497856D01*
X164924763Y-72502612D01*
X164855139Y-72726840D01*
X164854438Y-72732129D01*
X164837342Y-72861116D01*
X164824289Y-72959593D01*
X163633650Y-72959593D01*
X163633650Y-72867562D01*
X163594186Y-72555170D01*
X163515880Y-72250187D01*
X163399966Y-71957423D01*
X163393999Y-71946569D01*
X163250183Y-71684968D01*
X163250181Y-71684965D01*
X163248274Y-71681496D01*
X163063195Y-71426756D01*
X162847648Y-71197222D01*
X162605032Y-70996513D01*
X162339174Y-70827794D01*
X162335595Y-70826110D01*
X162335588Y-70826106D01*
X162057856Y-70695416D01*
X162057852Y-70695414D01*
X162054266Y-70693727D01*
X161754802Y-70596425D01*
X161445504Y-70537423D01*
X161351950Y-70531537D01*
X161211892Y-70522725D01*
X161211876Y-70522724D01*
X161209897Y-70522600D01*
X161052603Y-70522600D01*
X161050624Y-70522724D01*
X161050608Y-70522725D01*
X160910550Y-70531537D01*
X160816996Y-70537423D01*
X160507698Y-70596425D01*
X160208234Y-70693727D01*
X160204648Y-70695414D01*
X160204644Y-70695416D01*
X159926912Y-70826106D01*
X159926905Y-70826110D01*
X159923326Y-70827794D01*
X159657468Y-70996513D01*
X159414852Y-71197222D01*
X159199305Y-71426756D01*
X159014226Y-71681496D01*
X159012319Y-71684965D01*
X159012317Y-71684968D01*
X158868501Y-71946569D01*
X158862534Y-71957423D01*
X158746620Y-72250187D01*
X158668314Y-72555170D01*
X158628850Y-72867562D01*
X158628850Y-73182438D01*
X157956750Y-73182438D01*
X157956750Y-72074046D01*
X157976752Y-72005925D01*
X158034532Y-71957637D01*
X158060563Y-71946855D01*
X158060567Y-71946853D01*
X158065137Y-71944960D01*
X158284366Y-71810616D01*
X158479881Y-71643631D01*
X158646866Y-71448116D01*
X158781210Y-71228887D01*
X158793131Y-71200109D01*
X158877711Y-70995913D01*
X158877712Y-70995911D01*
X158879605Y-70991340D01*
X158939628Y-70741326D01*
X158959801Y-70485000D01*
X158939628Y-70228674D01*
X158879605Y-69978660D01*
X158781210Y-69741113D01*
X158646866Y-69521884D01*
X158479881Y-69326369D01*
X158284366Y-69159384D01*
X158065137Y-69025040D01*
X158060567Y-69023147D01*
X158060563Y-69023145D01*
X158034532Y-69012363D01*
X157979251Y-68967815D01*
X157956750Y-68895954D01*
X157956750Y-67945000D01*
X162032699Y-67945000D01*
X162052872Y-68201326D01*
X162112895Y-68451340D01*
X162211290Y-68688887D01*
X162345634Y-68908116D01*
X162512619Y-69103631D01*
X162708134Y-69270616D01*
X162927363Y-69404960D01*
X162931933Y-69406853D01*
X162931937Y-69406855D01*
X163160337Y-69501461D01*
X163164910Y-69503355D01*
X163226407Y-69518119D01*
X163410111Y-69562223D01*
X163410117Y-69562224D01*
X163414924Y-69563378D01*
X163671250Y-69583551D01*
X163927576Y-69563378D01*
X163932383Y-69562224D01*
X163932389Y-69562223D01*
X164116093Y-69518119D01*
X164177590Y-69503355D01*
X164182163Y-69501461D01*
X164410563Y-69406855D01*
X164410567Y-69406853D01*
X164415137Y-69404960D01*
X164634366Y-69270616D01*
X164829881Y-69103631D01*
X164996866Y-68908116D01*
X165131210Y-68688887D01*
X165229605Y-68451340D01*
X165289628Y-68201326D01*
X165309801Y-67945000D01*
X165289628Y-67688674D01*
X165229605Y-67438660D01*
X165131210Y-67201113D01*
X164996866Y-66981884D01*
X164829881Y-66786369D01*
X164634366Y-66619384D01*
X164415137Y-66485040D01*
X164410567Y-66483147D01*
X164410563Y-66483145D01*
X164182163Y-66388539D01*
X164182161Y-66388538D01*
X164177590Y-66386645D01*
X164090748Y-66365796D01*
X163932389Y-66327777D01*
X163932383Y-66327776D01*
X163927576Y-66326622D01*
X163671250Y-66306449D01*
X163414924Y-66326622D01*
X163410117Y-66327776D01*
X163410111Y-66327777D01*
X163251752Y-66365796D01*
X163164910Y-66386645D01*
X163160339Y-66388538D01*
X163160337Y-66388539D01*
X162931937Y-66483145D01*
X162931933Y-66483147D01*
X162927363Y-66485040D01*
X162708134Y-66619384D01*
X162512619Y-66786369D01*
X162345634Y-66981884D01*
X162211290Y-67201113D01*
X162112895Y-67438660D01*
X162052872Y-67688674D01*
X162032699Y-67945000D01*
X157956750Y-67945000D01*
X157956750Y-49369938D01*
X158628850Y-49369938D01*
X158668314Y-49682330D01*
X158746620Y-49987313D01*
X158862534Y-50280077D01*
X158864436Y-50283536D01*
X158864437Y-50283539D01*
X158996362Y-50523509D01*
X159014226Y-50556004D01*
X159199305Y-50810744D01*
X159414852Y-51040278D01*
X159657468Y-51240987D01*
X159923326Y-51409706D01*
X159926905Y-51411390D01*
X159926912Y-51411394D01*
X160204644Y-51542084D01*
X160204648Y-51542086D01*
X160208234Y-51543773D01*
X160507698Y-51641075D01*
X160816996Y-51700077D01*
X160910550Y-51705963D01*
X161050608Y-51714775D01*
X161050624Y-51714776D01*
X161052603Y-51714900D01*
X161209897Y-51714900D01*
X161211876Y-51714776D01*
X161211892Y-51714775D01*
X161351950Y-51705963D01*
X161445504Y-51700077D01*
X161754802Y-51641075D01*
X162054266Y-51543773D01*
X162057852Y-51542086D01*
X162057856Y-51542084D01*
X162335588Y-51411394D01*
X162335595Y-51411390D01*
X162339174Y-51409706D01*
X162605032Y-51240987D01*
X162847648Y-51040278D01*
X163063195Y-50810744D01*
X163248274Y-50556004D01*
X163266139Y-50523509D01*
X163398063Y-50283539D01*
X163398064Y-50283536D01*
X163399966Y-50280077D01*
X163515880Y-49987313D01*
X163594186Y-49682330D01*
X163633650Y-49369938D01*
X163633650Y-49147093D01*
X164824289Y-49147093D01*
X164833098Y-49381716D01*
X164834193Y-49386934D01*
X164859044Y-49505371D01*
X164881312Y-49611501D01*
X164967552Y-49829877D01*
X165089354Y-50030600D01*
X165243235Y-50207932D01*
X165247367Y-50211320D01*
X165420666Y-50353417D01*
X165420672Y-50353421D01*
X165424794Y-50356801D01*
X165429430Y-50359440D01*
X165429433Y-50359442D01*
X165540658Y-50422755D01*
X165628840Y-50472951D01*
X165849539Y-50553061D01*
X165854788Y-50554010D01*
X165854791Y-50554011D01*
X165935865Y-50568671D01*
X166080580Y-50594840D01*
X166084719Y-50595035D01*
X166084726Y-50595036D01*
X166103690Y-50595930D01*
X166103699Y-50595930D01*
X166105179Y-50596000D01*
X166270200Y-50596000D01*
X166351549Y-50589097D01*
X166439887Y-50581602D01*
X166439891Y-50581601D01*
X166445198Y-50581151D01*
X166450353Y-50579813D01*
X166450359Y-50579812D01*
X166667285Y-50523509D01*
X166667284Y-50523509D01*
X166672456Y-50522167D01*
X166677322Y-50519975D01*
X166677325Y-50519974D01*
X166881667Y-50427924D01*
X166881670Y-50427923D01*
X166886528Y-50425734D01*
X167081291Y-50294612D01*
X167251177Y-50132549D01*
X167391328Y-49944179D01*
X167451969Y-49824908D01*
X167495319Y-49739644D01*
X167495319Y-49739643D01*
X167497737Y-49734888D01*
X167567361Y-49510660D01*
X167584452Y-49381716D01*
X167597511Y-49283190D01*
X167597511Y-49283187D01*
X167598211Y-49277907D01*
X167589402Y-49043284D01*
X167571608Y-48958478D01*
X167542285Y-48818726D01*
X167542284Y-48818723D01*
X167541188Y-48813499D01*
X167454948Y-48595123D01*
X167333146Y-48394400D01*
X167179265Y-48217068D01*
X167150430Y-48193425D01*
X167001834Y-48071583D01*
X167001828Y-48071579D01*
X166997706Y-48068199D01*
X166993070Y-48065560D01*
X166993067Y-48065558D01*
X166798303Y-47954692D01*
X166793660Y-47952049D01*
X166572961Y-47871939D01*
X166567712Y-47870990D01*
X166567709Y-47870989D01*
X166486635Y-47856329D01*
X166341920Y-47830160D01*
X166337781Y-47829965D01*
X166337774Y-47829964D01*
X166318810Y-47829070D01*
X166318801Y-47829070D01*
X166317321Y-47829000D01*
X166152300Y-47829000D01*
X166070951Y-47835903D01*
X165982613Y-47843398D01*
X165982609Y-47843399D01*
X165977302Y-47843849D01*
X165972147Y-47845187D01*
X165972141Y-47845188D01*
X165794427Y-47891314D01*
X165750044Y-47902833D01*
X165745178Y-47905025D01*
X165745175Y-47905026D01*
X165540833Y-47997076D01*
X165540830Y-47997077D01*
X165535972Y-47999266D01*
X165341209Y-48130388D01*
X165337352Y-48134067D01*
X165337350Y-48134069D01*
X165329601Y-48141461D01*
X165171323Y-48292451D01*
X165031172Y-48480821D01*
X165028756Y-48485572D01*
X165028754Y-48485576D01*
X164927181Y-48685356D01*
X164924763Y-48690112D01*
X164855139Y-48914340D01*
X164854438Y-48919629D01*
X164837342Y-49048616D01*
X164824289Y-49147093D01*
X163633650Y-49147093D01*
X163633650Y-49055062D01*
X163594186Y-48742670D01*
X163515880Y-48437687D01*
X163399966Y-48144923D01*
X163393999Y-48134069D01*
X163250183Y-47872468D01*
X163250181Y-47872465D01*
X163248274Y-47868996D01*
X163063195Y-47614256D01*
X162847648Y-47384722D01*
X162605032Y-47184013D01*
X162339174Y-47015294D01*
X162335595Y-47013610D01*
X162335588Y-47013606D01*
X162057856Y-46882916D01*
X162057852Y-46882914D01*
X162054266Y-46881227D01*
X161754802Y-46783925D01*
X161445504Y-46724923D01*
X161351950Y-46719037D01*
X161211892Y-46710225D01*
X161211876Y-46710224D01*
X161209897Y-46710100D01*
X161052603Y-46710100D01*
X161050624Y-46710224D01*
X161050608Y-46710225D01*
X160910550Y-46719037D01*
X160816996Y-46724923D01*
X160507698Y-46783925D01*
X160208234Y-46881227D01*
X160204648Y-46882914D01*
X160204644Y-46882916D01*
X159926912Y-47013606D01*
X159926905Y-47013610D01*
X159923326Y-47015294D01*
X159657468Y-47184013D01*
X159414852Y-47384722D01*
X159199305Y-47614256D01*
X159014226Y-47868996D01*
X159012319Y-47872465D01*
X159012317Y-47872468D01*
X158868501Y-48134069D01*
X158862534Y-48144923D01*
X158746620Y-48437687D01*
X158668314Y-48742670D01*
X158628850Y-49055062D01*
X158628850Y-49369938D01*
X157956750Y-49369938D01*
X157956750Y-48261546D01*
X157976752Y-48193425D01*
X158034532Y-48145137D01*
X158060563Y-48134355D01*
X158060567Y-48134353D01*
X158065137Y-48132460D01*
X158284366Y-47998116D01*
X158479881Y-47831131D01*
X158646866Y-47635616D01*
X158781210Y-47416387D01*
X158793131Y-47387609D01*
X158877711Y-47183413D01*
X158877712Y-47183411D01*
X158879605Y-47178840D01*
X158919274Y-47013606D01*
X158938473Y-46933639D01*
X158938474Y-46933633D01*
X158939628Y-46928826D01*
X158959801Y-46672500D01*
X158939628Y-46416174D01*
X158879605Y-46166160D01*
X158877711Y-46161587D01*
X158783105Y-45933187D01*
X158783103Y-45933183D01*
X158781210Y-45928613D01*
X158646866Y-45709384D01*
X158479881Y-45513869D01*
X158284366Y-45346884D01*
X158065137Y-45212540D01*
X158060567Y-45210647D01*
X158060563Y-45210645D01*
X157832163Y-45116039D01*
X157832161Y-45116038D01*
X157827590Y-45114145D01*
X157732846Y-45091399D01*
X157582389Y-45055277D01*
X157582383Y-45055276D01*
X157577576Y-45054122D01*
X157321250Y-45033949D01*
X157064924Y-45054122D01*
X157060117Y-45055276D01*
X157060111Y-45055277D01*
X156909654Y-45091399D01*
X156814910Y-45114145D01*
X156810339Y-45116038D01*
X156810337Y-45116039D01*
X156581937Y-45210645D01*
X156581933Y-45210647D01*
X156577363Y-45212540D01*
X156358134Y-45346884D01*
X156162619Y-45513869D01*
X155995634Y-45709384D01*
X155861290Y-45928613D01*
X155859397Y-45933183D01*
X155859395Y-45933187D01*
X155764789Y-46161587D01*
X155762895Y-46166160D01*
X155702872Y-46416174D01*
X155682699Y-46672500D01*
X155702872Y-46928826D01*
X155704026Y-46933633D01*
X155704027Y-46933639D01*
X155723226Y-47013606D01*
X155762895Y-47178840D01*
X155764788Y-47183411D01*
X155764789Y-47183413D01*
X155849370Y-47387609D01*
X155861290Y-47416387D01*
X155995634Y-47635616D01*
X155997169Y-47637414D01*
X156020791Y-47703598D01*
X156004717Y-47772751D01*
X155953808Y-47822236D01*
X155905651Y-47836352D01*
X155822613Y-47843398D01*
X155822609Y-47843399D01*
X155817302Y-47843849D01*
X155812147Y-47845187D01*
X155812141Y-47845188D01*
X155634427Y-47891314D01*
X155590044Y-47902833D01*
X155585178Y-47905025D01*
X155585175Y-47905026D01*
X155380833Y-47997076D01*
X155380830Y-47997077D01*
X155375972Y-47999266D01*
X155181209Y-48130388D01*
X155177352Y-48134067D01*
X155177350Y-48134069D01*
X155169601Y-48141461D01*
X155011323Y-48292451D01*
X154871172Y-48480821D01*
X154868756Y-48485572D01*
X154868754Y-48485576D01*
X154767181Y-48685356D01*
X154764763Y-48690112D01*
X154695139Y-48914340D01*
X154694438Y-48919629D01*
X154677342Y-49048616D01*
X154664289Y-49147093D01*
X154673098Y-49381716D01*
X154674193Y-49386934D01*
X154699044Y-49505371D01*
X154721312Y-49611501D01*
X154807552Y-49829877D01*
X154929354Y-50030600D01*
X155083235Y-50207932D01*
X155087367Y-50211320D01*
X155260666Y-50353417D01*
X155260672Y-50353421D01*
X155264794Y-50356801D01*
X155269430Y-50359440D01*
X155269433Y-50359442D01*
X155380658Y-50422755D01*
X155468840Y-50472951D01*
X155689539Y-50553061D01*
X155694788Y-50554010D01*
X155694791Y-50554011D01*
X155775865Y-50568671D01*
X155920580Y-50594840D01*
X155924719Y-50595035D01*
X155924726Y-50595036D01*
X155943690Y-50595930D01*
X155943699Y-50595930D01*
X155945179Y-50596000D01*
X156110200Y-50596000D01*
X156191549Y-50589097D01*
X156279887Y-50581602D01*
X156279891Y-50581601D01*
X156285198Y-50581151D01*
X156290353Y-50579813D01*
X156290359Y-50579812D01*
X156507294Y-50523507D01*
X156507296Y-50523506D01*
X156512456Y-50522167D01*
X156517320Y-50519976D01*
X156517896Y-50519773D01*
X156588793Y-50516011D01*
X156650469Y-50551176D01*
X156683342Y-50614103D01*
X156685750Y-50638618D01*
X156685750Y-68895954D01*
X156665748Y-68964075D01*
X156607968Y-69012363D01*
X156581937Y-69023145D01*
X156581933Y-69023147D01*
X156577363Y-69025040D01*
X156358134Y-69159384D01*
X156162619Y-69326369D01*
X155995634Y-69521884D01*
X155861290Y-69741113D01*
X155762895Y-69978660D01*
X155702872Y-70228674D01*
X155682699Y-70485000D01*
X155702872Y-70741326D01*
X155762895Y-70991340D01*
X155764788Y-70995911D01*
X155764789Y-70995913D01*
X155849370Y-71200109D01*
X155861290Y-71228887D01*
X155995634Y-71448116D01*
X155997169Y-71449914D01*
X156020791Y-71516098D01*
X156004717Y-71585251D01*
X155953808Y-71634736D01*
X155905651Y-71648852D01*
X155822613Y-71655898D01*
X155822609Y-71655899D01*
X155817302Y-71656349D01*
X155812147Y-71657687D01*
X155812141Y-71657688D01*
X155634427Y-71703814D01*
X155590044Y-71715333D01*
X155585178Y-71717525D01*
X155585175Y-71717526D01*
X155380833Y-71809576D01*
X155380830Y-71809577D01*
X155375972Y-71811766D01*
X155181209Y-71942888D01*
X155177352Y-71946567D01*
X155177350Y-71946569D01*
X155169601Y-71953961D01*
X155011323Y-72104951D01*
X154871172Y-72293321D01*
X154868756Y-72298072D01*
X154868754Y-72298076D01*
X154767181Y-72497856D01*
X154764763Y-72502612D01*
X154695139Y-72726840D01*
X154694438Y-72732129D01*
X154677342Y-72861116D01*
X154664289Y-72959593D01*
X154673098Y-73194216D01*
X154674193Y-73199434D01*
X154699044Y-73317871D01*
X154721312Y-73424001D01*
X154807552Y-73642377D01*
X154929354Y-73843100D01*
X155083235Y-74020432D01*
X155087367Y-74023820D01*
X155260666Y-74165917D01*
X155260672Y-74165921D01*
X155264794Y-74169301D01*
X155269430Y-74171940D01*
X155269433Y-74171942D01*
X155380658Y-74235255D01*
X155468840Y-74285451D01*
X155689539Y-74365561D01*
X155694788Y-74366510D01*
X155694791Y-74366511D01*
X155775865Y-74381171D01*
X155920580Y-74407340D01*
X155924719Y-74407535D01*
X155924726Y-74407536D01*
X155943690Y-74408430D01*
X155943699Y-74408430D01*
X155945179Y-74408500D01*
X156110200Y-74408500D01*
X156191549Y-74401597D01*
X156279887Y-74394102D01*
X156279891Y-74394101D01*
X156285198Y-74393651D01*
X156290353Y-74392313D01*
X156290359Y-74392312D01*
X156507294Y-74336007D01*
X156507296Y-74336006D01*
X156512456Y-74334667D01*
X156517320Y-74332476D01*
X156517896Y-74332273D01*
X156588793Y-74328511D01*
X156650469Y-74363676D01*
X156683342Y-74426603D01*
X156685750Y-74451118D01*
X156685750Y-77073480D01*
X156685220Y-77084714D01*
X156683542Y-77092219D01*
X156683791Y-77100138D01*
X156685688Y-77160512D01*
X156685750Y-77164469D01*
X156685750Y-77192483D01*
X156686246Y-77196408D01*
X156686246Y-77196409D01*
X156686258Y-77196504D01*
X156687191Y-77208349D01*
X156688585Y-77252705D01*
X156690797Y-77260317D01*
X156694263Y-77272248D01*
X156698273Y-77291612D01*
X156700823Y-77311799D01*
X156703739Y-77319163D01*
X156703740Y-77319168D01*
X156717157Y-77353056D01*
X156721002Y-77364285D01*
X156733381Y-77406893D01*
X156737419Y-77413720D01*
X156737420Y-77413723D01*
X156743738Y-77424406D01*
X156752438Y-77442164D01*
X156757011Y-77453715D01*
X156757015Y-77453721D01*
X156759931Y-77461088D01*
X156764589Y-77467499D01*
X156764590Y-77467501D01*
X156786014Y-77496988D01*
X156792531Y-77506910D01*
X156811076Y-77538268D01*
X156811079Y-77538272D01*
X156815116Y-77545098D01*
X156829500Y-77559482D01*
X156842341Y-77574516D01*
X156854308Y-77590987D01*
X156860416Y-77596040D01*
X156888505Y-77619277D01*
X156897285Y-77627267D01*
X160776345Y-81506327D01*
X160810371Y-81568639D01*
X160813250Y-81595422D01*
X160813250Y-83148081D01*
X160793248Y-83216202D01*
X160745432Y-83259843D01*
X160708294Y-83279176D01*
X160526194Y-83415900D01*
X160368870Y-83580530D01*
X160353300Y-83603355D01*
X160282534Y-83707094D01*
X160227623Y-83752096D01*
X160157098Y-83760267D01*
X160093351Y-83729013D01*
X160072654Y-83704529D01*
X160012481Y-83611515D01*
X160012479Y-83611512D01*
X160009673Y-83607175D01*
X159856418Y-83438750D01*
X159677713Y-83297618D01*
X159478357Y-83187567D01*
X159362348Y-83146486D01*
X159268579Y-83113280D01*
X159268575Y-83113279D01*
X159263704Y-83111554D01*
X159258611Y-83110647D01*
X159258608Y-83110646D01*
X159044607Y-83072527D01*
X159044601Y-83072526D01*
X159039518Y-83071621D01*
X158952448Y-83070557D01*
X158816989Y-83068902D01*
X158816987Y-83068902D01*
X158811820Y-83068839D01*
X158586726Y-83103283D01*
X158370279Y-83174029D01*
X158168294Y-83279176D01*
X158164161Y-83282279D01*
X158164158Y-83282281D01*
X157990329Y-83412795D01*
X157986194Y-83415900D01*
X157828870Y-83580530D01*
X157813300Y-83603355D01*
X157742534Y-83707094D01*
X157687623Y-83752096D01*
X157617098Y-83760267D01*
X157553351Y-83729013D01*
X157532654Y-83704529D01*
X157472481Y-83611515D01*
X157472479Y-83611512D01*
X157469673Y-83607175D01*
X157316418Y-83438750D01*
X157137713Y-83297618D01*
X156938357Y-83187567D01*
X156822348Y-83146486D01*
X156728579Y-83113280D01*
X156728575Y-83113279D01*
X156723704Y-83111554D01*
X156718611Y-83110647D01*
X156718608Y-83110646D01*
X156504607Y-83072527D01*
X156504601Y-83072526D01*
X156499518Y-83071621D01*
X156412448Y-83070557D01*
X156276989Y-83068902D01*
X156276987Y-83068902D01*
X156271820Y-83068839D01*
X156046726Y-83103283D01*
X155830279Y-83174029D01*
X155628294Y-83279176D01*
X155624161Y-83282279D01*
X155624158Y-83282281D01*
X155450329Y-83412795D01*
X155446194Y-83415900D01*
X155288870Y-83580530D01*
X155273300Y-83603355D01*
X155202534Y-83707094D01*
X155147623Y-83752096D01*
X155077098Y-83760267D01*
X155013351Y-83729013D01*
X154992654Y-83704529D01*
X154932481Y-83611515D01*
X154932479Y-83611512D01*
X154929673Y-83607175D01*
X154776418Y-83438750D01*
X154597713Y-83297618D01*
X154398357Y-83187567D01*
X154282348Y-83146486D01*
X154188579Y-83113280D01*
X154188575Y-83113279D01*
X154183704Y-83111554D01*
X154178611Y-83110647D01*
X154178608Y-83110646D01*
X153964607Y-83072527D01*
X153964601Y-83072526D01*
X153959518Y-83071621D01*
X153872448Y-83070557D01*
X153736989Y-83068902D01*
X153736987Y-83068902D01*
X153731820Y-83068839D01*
X153506726Y-83103283D01*
X153290279Y-83174029D01*
X153088294Y-83279176D01*
X153084161Y-83282279D01*
X153084158Y-83282281D01*
X152910329Y-83412795D01*
X152906194Y-83415900D01*
X152748870Y-83580530D01*
X152733300Y-83603355D01*
X152662534Y-83707094D01*
X152607623Y-83752096D01*
X152537098Y-83760267D01*
X152473351Y-83729013D01*
X152452654Y-83704529D01*
X152392481Y-83611515D01*
X152392479Y-83611512D01*
X152389673Y-83607175D01*
X152236418Y-83438750D01*
X152057713Y-83297618D01*
X151858357Y-83187567D01*
X151742348Y-83146486D01*
X151648579Y-83113280D01*
X151648575Y-83113279D01*
X151643704Y-83111554D01*
X151638611Y-83110647D01*
X151638608Y-83110646D01*
X151424607Y-83072527D01*
X151424601Y-83072526D01*
X151419518Y-83071621D01*
X151332448Y-83070557D01*
X151196989Y-83068902D01*
X151196987Y-83068902D01*
X151191820Y-83068839D01*
X150966726Y-83103283D01*
X150750279Y-83174029D01*
X150548294Y-83279176D01*
X150544161Y-83282279D01*
X150544158Y-83282281D01*
X150370329Y-83412795D01*
X150366194Y-83415900D01*
X150208870Y-83580530D01*
X150193300Y-83603355D01*
X150122534Y-83707094D01*
X150067623Y-83752096D01*
X149997098Y-83760267D01*
X149933351Y-83729013D01*
X149912654Y-83704529D01*
X149852481Y-83611515D01*
X149852479Y-83611512D01*
X149849673Y-83607175D01*
X149696418Y-83438750D01*
X149517713Y-83297618D01*
X149318357Y-83187567D01*
X149202348Y-83146486D01*
X149108579Y-83113280D01*
X149108575Y-83113279D01*
X149103704Y-83111554D01*
X149098611Y-83110647D01*
X149098608Y-83110646D01*
X148884607Y-83072527D01*
X148884601Y-83072526D01*
X148879518Y-83071621D01*
X148792448Y-83070557D01*
X148656989Y-83068902D01*
X148656987Y-83068902D01*
X148651820Y-83068839D01*
X148426726Y-83103283D01*
X148210279Y-83174029D01*
X148008294Y-83279176D01*
X148004161Y-83282279D01*
X148004158Y-83282281D01*
X147830329Y-83412795D01*
X147826194Y-83415900D01*
X147668870Y-83580530D01*
X147653300Y-83603355D01*
X147582534Y-83707094D01*
X147527623Y-83752096D01*
X147457098Y-83760267D01*
X147393351Y-83729013D01*
X147372654Y-83704529D01*
X147312481Y-83611515D01*
X147312479Y-83611512D01*
X147309673Y-83607175D01*
X147156418Y-83438750D01*
X146977713Y-83297618D01*
X146909355Y-83259882D01*
X146859386Y-83209451D01*
X146844250Y-83149575D01*
X146844250Y-80406520D01*
X146844779Y-80395291D01*
X146846458Y-80387781D01*
X146844312Y-80319501D01*
X146844250Y-80315544D01*
X146844250Y-80287517D01*
X146843739Y-80283471D01*
X146842807Y-80271636D01*
X146841663Y-80235220D01*
X146841414Y-80227295D01*
X146835737Y-80207753D01*
X146831728Y-80188394D01*
X146831569Y-80187133D01*
X146829177Y-80168201D01*
X146826261Y-80160837D01*
X146826260Y-80160832D01*
X146812838Y-80126935D01*
X146808999Y-80115724D01*
X146796618Y-80073107D01*
X146786261Y-80055593D01*
X146777565Y-80037843D01*
X146772989Y-80026285D01*
X146772986Y-80026280D01*
X146770069Y-80018912D01*
X146750049Y-79991356D01*
X146743983Y-79983007D01*
X146737466Y-79973085D01*
X146718922Y-79941728D01*
X146718920Y-79941725D01*
X146714884Y-79934901D01*
X146700497Y-79920514D01*
X146687656Y-79905480D01*
X146680352Y-79895427D01*
X146675692Y-79889013D01*
X146641500Y-79860727D01*
X146632721Y-79852738D01*
X145761500Y-78981517D01*
X145753924Y-78973191D01*
X145749803Y-78966697D01*
X145699984Y-78919914D01*
X145697143Y-78917160D01*
X145677344Y-78897361D01*
X145674219Y-78894937D01*
X145674210Y-78894929D01*
X145674124Y-78894863D01*
X145665099Y-78887155D01*
X145638535Y-78862210D01*
X145632756Y-78856783D01*
X145614919Y-78846977D01*
X145598403Y-78836127D01*
X145582317Y-78823650D01*
X145541584Y-78806024D01*
X145530936Y-78800807D01*
X145519308Y-78794415D01*
X145492053Y-78779431D01*
X145484378Y-78777460D01*
X145484372Y-78777458D01*
X145472339Y-78774369D01*
X145453637Y-78767966D01*
X145434958Y-78759883D01*
X145401122Y-78754524D01*
X145391123Y-78752940D01*
X145379510Y-78750535D01*
X145336532Y-78739500D01*
X145316185Y-78739500D01*
X145296474Y-78737949D01*
X145284200Y-78736005D01*
X145276371Y-78734765D01*
X145268479Y-78735511D01*
X145232194Y-78738941D01*
X145220336Y-78739500D01*
X144600640Y-78739500D01*
X144532519Y-78719498D01*
X144511545Y-78702595D01*
X141534601Y-75725651D01*
X141500575Y-75663339D01*
X141505640Y-75592524D01*
X141548187Y-75535688D01*
X141602011Y-75513926D01*
X141601754Y-75512577D01*
X141605654Y-75511833D01*
X141911052Y-75453575D01*
X142210516Y-75356273D01*
X142214102Y-75354586D01*
X142214106Y-75354584D01*
X142491838Y-75223894D01*
X142491845Y-75223890D01*
X142495424Y-75222206D01*
X142761282Y-75053487D01*
X143003898Y-74852778D01*
X143219445Y-74623244D01*
X143404524Y-74368504D01*
X143422389Y-74336009D01*
X143554313Y-74096039D01*
X143554314Y-74096036D01*
X143556216Y-74092577D01*
X143672130Y-73799813D01*
X143750436Y-73494830D01*
X143789900Y-73182438D01*
X143789900Y-72959593D01*
X144980539Y-72959593D01*
X144989348Y-73194216D01*
X144990443Y-73199434D01*
X145015294Y-73317871D01*
X145037562Y-73424001D01*
X145123802Y-73642377D01*
X145245604Y-73843100D01*
X145399485Y-74020432D01*
X145403617Y-74023820D01*
X145576916Y-74165917D01*
X145576922Y-74165921D01*
X145581044Y-74169301D01*
X145585680Y-74171940D01*
X145585683Y-74171942D01*
X145696908Y-74235255D01*
X145785090Y-74285451D01*
X146005789Y-74365561D01*
X146011038Y-74366510D01*
X146011041Y-74366511D01*
X146092115Y-74381171D01*
X146236830Y-74407340D01*
X146240969Y-74407535D01*
X146240976Y-74407536D01*
X146259940Y-74408430D01*
X146259949Y-74408430D01*
X146261429Y-74408500D01*
X146426450Y-74408500D01*
X146507799Y-74401597D01*
X146596137Y-74394102D01*
X146596141Y-74394101D01*
X146601448Y-74393651D01*
X146606603Y-74392313D01*
X146606609Y-74392312D01*
X146823535Y-74336009D01*
X146823534Y-74336009D01*
X146828706Y-74334667D01*
X146833572Y-74332475D01*
X146833575Y-74332474D01*
X147037917Y-74240424D01*
X147037920Y-74240423D01*
X147042778Y-74238234D01*
X147237541Y-74107112D01*
X147407427Y-73945049D01*
X147547578Y-73756679D01*
X147608219Y-73637408D01*
X147651569Y-73552144D01*
X147651569Y-73552143D01*
X147653987Y-73547388D01*
X147723611Y-73323160D01*
X147740702Y-73194216D01*
X147753761Y-73095690D01*
X147753761Y-73095687D01*
X147754461Y-73090407D01*
X147745652Y-72855784D01*
X147727858Y-72770978D01*
X147698535Y-72631226D01*
X147698534Y-72631223D01*
X147697438Y-72625999D01*
X147611198Y-72407623D01*
X147517982Y-72254008D01*
X147492164Y-72211461D01*
X147492162Y-72211458D01*
X147489396Y-72206900D01*
X147335515Y-72029568D01*
X147306680Y-72005925D01*
X147158084Y-71884083D01*
X147158078Y-71884079D01*
X147153956Y-71880699D01*
X147149320Y-71878060D01*
X147149317Y-71878058D01*
X146954553Y-71767192D01*
X146949910Y-71764549D01*
X146729211Y-71684439D01*
X146723962Y-71683490D01*
X146723959Y-71683489D01*
X146642885Y-71668829D01*
X146498170Y-71642660D01*
X146494031Y-71642465D01*
X146494024Y-71642464D01*
X146475060Y-71641570D01*
X146475051Y-71641570D01*
X146473571Y-71641500D01*
X146308550Y-71641500D01*
X146227201Y-71648403D01*
X146138863Y-71655898D01*
X146138859Y-71655899D01*
X146133552Y-71656349D01*
X146128397Y-71657687D01*
X146128391Y-71657688D01*
X145950677Y-71703814D01*
X145906294Y-71715333D01*
X145901428Y-71717525D01*
X145901425Y-71717526D01*
X145697083Y-71809576D01*
X145697080Y-71809577D01*
X145692222Y-71811766D01*
X145497459Y-71942888D01*
X145493602Y-71946567D01*
X145493600Y-71946569D01*
X145485851Y-71953961D01*
X145327573Y-72104951D01*
X145187422Y-72293321D01*
X145185006Y-72298072D01*
X145185004Y-72298076D01*
X145083431Y-72497856D01*
X145081013Y-72502612D01*
X145011389Y-72726840D01*
X145010688Y-72732129D01*
X144993592Y-72861116D01*
X144980539Y-72959593D01*
X143789900Y-72959593D01*
X143789900Y-72867562D01*
X143750436Y-72555170D01*
X143672130Y-72250187D01*
X143556216Y-71957423D01*
X143550249Y-71946569D01*
X143406433Y-71684968D01*
X143406431Y-71684965D01*
X143404524Y-71681496D01*
X143219445Y-71426756D01*
X143003898Y-71197222D01*
X142761282Y-70996513D01*
X142495424Y-70827794D01*
X142491845Y-70826110D01*
X142491838Y-70826106D01*
X142214106Y-70695416D01*
X142214102Y-70695414D01*
X142210516Y-70693727D01*
X141911052Y-70596425D01*
X141601754Y-70537423D01*
X141508200Y-70531537D01*
X141368142Y-70522725D01*
X141368126Y-70522724D01*
X141366147Y-70522600D01*
X141208853Y-70522600D01*
X141206874Y-70522724D01*
X141206858Y-70522725D01*
X141066800Y-70531537D01*
X140973246Y-70537423D01*
X140663948Y-70596425D01*
X140364484Y-70693727D01*
X140360898Y-70695414D01*
X140360894Y-70695416D01*
X140083162Y-70826106D01*
X140083155Y-70826110D01*
X140079576Y-70827794D01*
X139813718Y-70996513D01*
X139571102Y-71197222D01*
X139355555Y-71426756D01*
X139170476Y-71681496D01*
X139168569Y-71684965D01*
X139168567Y-71684968D01*
X139024751Y-71946569D01*
X139018784Y-71957423D01*
X138902870Y-72250187D01*
X138824564Y-72555170D01*
X138824067Y-72559106D01*
X138805156Y-72708802D01*
X138776774Y-72773879D01*
X138717715Y-72813280D01*
X138646729Y-72814497D01*
X138591055Y-72782105D01*
X138149905Y-72340955D01*
X138115879Y-72278643D01*
X138113000Y-72251860D01*
X138113000Y-72074046D01*
X138133002Y-72005925D01*
X138190782Y-71957637D01*
X138216813Y-71946855D01*
X138216817Y-71946853D01*
X138221387Y-71944960D01*
X138440616Y-71810616D01*
X138636131Y-71643631D01*
X138803116Y-71448116D01*
X138937460Y-71228887D01*
X138949381Y-71200109D01*
X139033961Y-70995913D01*
X139033962Y-70995911D01*
X139035855Y-70991340D01*
X139095878Y-70741326D01*
X139116051Y-70485000D01*
X139095878Y-70228674D01*
X139035855Y-69978660D01*
X138937460Y-69741113D01*
X138803116Y-69521884D01*
X138636131Y-69326369D01*
X138440616Y-69159384D01*
X138221387Y-69025040D01*
X138216817Y-69023147D01*
X138216813Y-69023145D01*
X138190782Y-69012363D01*
X138135501Y-68967815D01*
X138113000Y-68895954D01*
X138113000Y-67945000D01*
X142188949Y-67945000D01*
X142209122Y-68201326D01*
X142269145Y-68451340D01*
X142367540Y-68688887D01*
X142501884Y-68908116D01*
X142668869Y-69103631D01*
X142864384Y-69270616D01*
X143083613Y-69404960D01*
X143088183Y-69406853D01*
X143088187Y-69406855D01*
X143316587Y-69501461D01*
X143321160Y-69503355D01*
X143382657Y-69518119D01*
X143566361Y-69562223D01*
X143566367Y-69562224D01*
X143571174Y-69563378D01*
X143827500Y-69583551D01*
X144083826Y-69563378D01*
X144088633Y-69562224D01*
X144088639Y-69562223D01*
X144272343Y-69518119D01*
X144333840Y-69503355D01*
X144338413Y-69501461D01*
X144566813Y-69406855D01*
X144566817Y-69406853D01*
X144571387Y-69404960D01*
X144790616Y-69270616D01*
X144986131Y-69103631D01*
X145153116Y-68908116D01*
X145287460Y-68688887D01*
X145385855Y-68451340D01*
X145445878Y-68201326D01*
X145466051Y-67945000D01*
X145445878Y-67688674D01*
X145385855Y-67438660D01*
X145287460Y-67201113D01*
X145153116Y-66981884D01*
X144986131Y-66786369D01*
X144790616Y-66619384D01*
X144571387Y-66485040D01*
X144566817Y-66483147D01*
X144566813Y-66483145D01*
X144338413Y-66388539D01*
X144338411Y-66388538D01*
X144333840Y-66386645D01*
X144246998Y-66365796D01*
X144088639Y-66327777D01*
X144088633Y-66327776D01*
X144083826Y-66326622D01*
X143827500Y-66306449D01*
X143571174Y-66326622D01*
X143566367Y-66327776D01*
X143566361Y-66327777D01*
X143408002Y-66365796D01*
X143321160Y-66386645D01*
X143316589Y-66388538D01*
X143316587Y-66388539D01*
X143088187Y-66483145D01*
X143088183Y-66483147D01*
X143083613Y-66485040D01*
X142864384Y-66619384D01*
X142668869Y-66786369D01*
X142501884Y-66981884D01*
X142367540Y-67201113D01*
X142269145Y-67438660D01*
X142209122Y-67688674D01*
X142188949Y-67945000D01*
X138113000Y-67945000D01*
X138113000Y-49369938D01*
X138785100Y-49369938D01*
X138824564Y-49682330D01*
X138902870Y-49987313D01*
X139018784Y-50280077D01*
X139020686Y-50283536D01*
X139020687Y-50283539D01*
X139152612Y-50523509D01*
X139170476Y-50556004D01*
X139355555Y-50810744D01*
X139571102Y-51040278D01*
X139813718Y-51240987D01*
X140079576Y-51409706D01*
X140083155Y-51411390D01*
X140083162Y-51411394D01*
X140360894Y-51542084D01*
X140360898Y-51542086D01*
X140364484Y-51543773D01*
X140663948Y-51641075D01*
X140973246Y-51700077D01*
X141066800Y-51705963D01*
X141206858Y-51714775D01*
X141206874Y-51714776D01*
X141208853Y-51714900D01*
X141366147Y-51714900D01*
X141368126Y-51714776D01*
X141368142Y-51714775D01*
X141508200Y-51705963D01*
X141601754Y-51700077D01*
X141911052Y-51641075D01*
X142210516Y-51543773D01*
X142214102Y-51542086D01*
X142214106Y-51542084D01*
X142491838Y-51411394D01*
X142491845Y-51411390D01*
X142495424Y-51409706D01*
X142761282Y-51240987D01*
X143003898Y-51040278D01*
X143219445Y-50810744D01*
X143404524Y-50556004D01*
X143422389Y-50523509D01*
X143554313Y-50283539D01*
X143554314Y-50283536D01*
X143556216Y-50280077D01*
X143672130Y-49987313D01*
X143750436Y-49682330D01*
X143789900Y-49369938D01*
X143789900Y-49147093D01*
X144980539Y-49147093D01*
X144989348Y-49381716D01*
X144990443Y-49386934D01*
X145015294Y-49505371D01*
X145037562Y-49611501D01*
X145123802Y-49829877D01*
X145245604Y-50030600D01*
X145399485Y-50207932D01*
X145403617Y-50211320D01*
X145576916Y-50353417D01*
X145576922Y-50353421D01*
X145581044Y-50356801D01*
X145585680Y-50359440D01*
X145585683Y-50359442D01*
X145696908Y-50422755D01*
X145785090Y-50472951D01*
X146005789Y-50553061D01*
X146011038Y-50554010D01*
X146011041Y-50554011D01*
X146092115Y-50568671D01*
X146236830Y-50594840D01*
X146240969Y-50595035D01*
X146240976Y-50595036D01*
X146259940Y-50595930D01*
X146259949Y-50595930D01*
X146261429Y-50596000D01*
X146426450Y-50596000D01*
X146507799Y-50589097D01*
X146596137Y-50581602D01*
X146596141Y-50581601D01*
X146601448Y-50581151D01*
X146606603Y-50579813D01*
X146606609Y-50579812D01*
X146823535Y-50523509D01*
X146823534Y-50523509D01*
X146828706Y-50522167D01*
X146833572Y-50519975D01*
X146833575Y-50519974D01*
X147037917Y-50427924D01*
X147037920Y-50427923D01*
X147042778Y-50425734D01*
X147237541Y-50294612D01*
X147407427Y-50132549D01*
X147547578Y-49944179D01*
X147608219Y-49824908D01*
X147651569Y-49739644D01*
X147651569Y-49739643D01*
X147653987Y-49734888D01*
X147723611Y-49510660D01*
X147740702Y-49381716D01*
X147753761Y-49283190D01*
X147753761Y-49283187D01*
X147754461Y-49277907D01*
X147745652Y-49043284D01*
X147727858Y-48958478D01*
X147698535Y-48818726D01*
X147698534Y-48818723D01*
X147697438Y-48813499D01*
X147611198Y-48595123D01*
X147489396Y-48394400D01*
X147335515Y-48217068D01*
X147306680Y-48193425D01*
X147158084Y-48071583D01*
X147158078Y-48071579D01*
X147153956Y-48068199D01*
X147149320Y-48065560D01*
X147149317Y-48065558D01*
X146954553Y-47954692D01*
X146949910Y-47952049D01*
X146729211Y-47871939D01*
X146723962Y-47870990D01*
X146723959Y-47870989D01*
X146642885Y-47856329D01*
X146498170Y-47830160D01*
X146494031Y-47829965D01*
X146494024Y-47829964D01*
X146475060Y-47829070D01*
X146475051Y-47829070D01*
X146473571Y-47829000D01*
X146308550Y-47829000D01*
X146227201Y-47835903D01*
X146138863Y-47843398D01*
X146138859Y-47843399D01*
X146133552Y-47843849D01*
X146128397Y-47845187D01*
X146128391Y-47845188D01*
X145950677Y-47891314D01*
X145906294Y-47902833D01*
X145901428Y-47905025D01*
X145901425Y-47905026D01*
X145697083Y-47997076D01*
X145697080Y-47997077D01*
X145692222Y-47999266D01*
X145497459Y-48130388D01*
X145493602Y-48134067D01*
X145493600Y-48134069D01*
X145485851Y-48141461D01*
X145327573Y-48292451D01*
X145187422Y-48480821D01*
X145185006Y-48485572D01*
X145185004Y-48485576D01*
X145083431Y-48685356D01*
X145081013Y-48690112D01*
X145011389Y-48914340D01*
X145010688Y-48919629D01*
X144993592Y-49048616D01*
X144980539Y-49147093D01*
X143789900Y-49147093D01*
X143789900Y-49055062D01*
X143750436Y-48742670D01*
X143672130Y-48437687D01*
X143556216Y-48144923D01*
X143550249Y-48134069D01*
X143406433Y-47872468D01*
X143406431Y-47872465D01*
X143404524Y-47868996D01*
X143219445Y-47614256D01*
X143003898Y-47384722D01*
X142761282Y-47184013D01*
X142495424Y-47015294D01*
X142491845Y-47013610D01*
X142491838Y-47013606D01*
X142214106Y-46882916D01*
X142214102Y-46882914D01*
X142210516Y-46881227D01*
X141911052Y-46783925D01*
X141601754Y-46724923D01*
X141508200Y-46719037D01*
X141368142Y-46710225D01*
X141368126Y-46710224D01*
X141366147Y-46710100D01*
X141208853Y-46710100D01*
X141206874Y-46710224D01*
X141206858Y-46710225D01*
X141066800Y-46719037D01*
X140973246Y-46724923D01*
X140663948Y-46783925D01*
X140364484Y-46881227D01*
X140360898Y-46882914D01*
X140360894Y-46882916D01*
X140083162Y-47013606D01*
X140083155Y-47013610D01*
X140079576Y-47015294D01*
X139813718Y-47184013D01*
X139571102Y-47384722D01*
X139355555Y-47614256D01*
X139170476Y-47868996D01*
X139168569Y-47872465D01*
X139168567Y-47872468D01*
X139024751Y-48134069D01*
X139018784Y-48144923D01*
X138902870Y-48437687D01*
X138824564Y-48742670D01*
X138785100Y-49055062D01*
X138785100Y-49369938D01*
X138113000Y-49369938D01*
X138113000Y-48261546D01*
X138133002Y-48193425D01*
X138190782Y-48145137D01*
X138216813Y-48134355D01*
X138216817Y-48134353D01*
X138221387Y-48132460D01*
X138440616Y-47998116D01*
X138636131Y-47831131D01*
X138803116Y-47635616D01*
X138937460Y-47416387D01*
X138949381Y-47387609D01*
X139033961Y-47183413D01*
X139033962Y-47183411D01*
X139035855Y-47178840D01*
X139075524Y-47013606D01*
X139094723Y-46933639D01*
X139094724Y-46933633D01*
X139095878Y-46928826D01*
X139116051Y-46672500D01*
X139095878Y-46416174D01*
X139035855Y-46166160D01*
X139033961Y-46161587D01*
X138939355Y-45933187D01*
X138939353Y-45933183D01*
X138937460Y-45928613D01*
X138803116Y-45709384D01*
X138636131Y-45513869D01*
X138440616Y-45346884D01*
X138221387Y-45212540D01*
X138216817Y-45210647D01*
X138216813Y-45210645D01*
X137988413Y-45116039D01*
X137988411Y-45116038D01*
X137983840Y-45114145D01*
X137889096Y-45091399D01*
X137738639Y-45055277D01*
X137738633Y-45055276D01*
X137733826Y-45054122D01*
X137477500Y-45033949D01*
X137221174Y-45054122D01*
X137216367Y-45055276D01*
X137216361Y-45055277D01*
X137065904Y-45091399D01*
X136971160Y-45114145D01*
X136966589Y-45116038D01*
X136966587Y-45116039D01*
X136738187Y-45210645D01*
X136738183Y-45210647D01*
X136733613Y-45212540D01*
X136514384Y-45346884D01*
X136318869Y-45513869D01*
X136151884Y-45709384D01*
X136017540Y-45928613D01*
X136015647Y-45933183D01*
X136015645Y-45933187D01*
X135921039Y-46161587D01*
X135919145Y-46166160D01*
X135859122Y-46416174D01*
X135838949Y-46672500D01*
X135859122Y-46928826D01*
X135860276Y-46933633D01*
X135860277Y-46933639D01*
X135879476Y-47013606D01*
X135919145Y-47178840D01*
X135921038Y-47183411D01*
X135921039Y-47183413D01*
X136005620Y-47387609D01*
X136017540Y-47416387D01*
X136151884Y-47635616D01*
X136153419Y-47637414D01*
X136177041Y-47703598D01*
X136160967Y-47772751D01*
X136110058Y-47822236D01*
X136061901Y-47836352D01*
X135978863Y-47843398D01*
X135978859Y-47843399D01*
X135973552Y-47843849D01*
X135968397Y-47845187D01*
X135968391Y-47845188D01*
X135790677Y-47891314D01*
X135746294Y-47902833D01*
X135741428Y-47905025D01*
X135741425Y-47905026D01*
X135537083Y-47997076D01*
X135537080Y-47997077D01*
X135532222Y-47999266D01*
X135337459Y-48130388D01*
X135333602Y-48134067D01*
X135333600Y-48134069D01*
X135325851Y-48141461D01*
X135167573Y-48292451D01*
X135027422Y-48480821D01*
X135025006Y-48485572D01*
X135025004Y-48485576D01*
X134923431Y-48685356D01*
X134921013Y-48690112D01*
X134851389Y-48914340D01*
X134850688Y-48919629D01*
X134833592Y-49048616D01*
X134820539Y-49147093D01*
X134829348Y-49381716D01*
X134830443Y-49386934D01*
X134855294Y-49505371D01*
X134877562Y-49611501D01*
X134963802Y-49829877D01*
X135085604Y-50030600D01*
X135239485Y-50207932D01*
X135243617Y-50211320D01*
X135416916Y-50353417D01*
X135416922Y-50353421D01*
X135421044Y-50356801D01*
X135425680Y-50359440D01*
X135425683Y-50359442D01*
X135536908Y-50422755D01*
X135625090Y-50472951D01*
X135845789Y-50553061D01*
X135851038Y-50554010D01*
X135851041Y-50554011D01*
X135932115Y-50568671D01*
X136076830Y-50594840D01*
X136080969Y-50595035D01*
X136080976Y-50595036D01*
X136099940Y-50595930D01*
X136099949Y-50595930D01*
X136101429Y-50596000D01*
X136266450Y-50596000D01*
X136347799Y-50589097D01*
X136436137Y-50581602D01*
X136436141Y-50581601D01*
X136441448Y-50581151D01*
X136446603Y-50579813D01*
X136446609Y-50579812D01*
X136663544Y-50523507D01*
X136663546Y-50523506D01*
X136668706Y-50522167D01*
X136673570Y-50519976D01*
X136674146Y-50519773D01*
X136745043Y-50516011D01*
X136806719Y-50551176D01*
X136839592Y-50614103D01*
X136842000Y-50638618D01*
X136842000Y-68895954D01*
X136821998Y-68964075D01*
X136764218Y-69012363D01*
X136738187Y-69023145D01*
X136738183Y-69023147D01*
X136733613Y-69025040D01*
X136514384Y-69159384D01*
X136318869Y-69326369D01*
X136151884Y-69521884D01*
X136017540Y-69741113D01*
X135919145Y-69978660D01*
X135859122Y-70228674D01*
X135838949Y-70485000D01*
X135859122Y-70741326D01*
X135919145Y-70991340D01*
X135921038Y-70995911D01*
X135921039Y-70995913D01*
X136005620Y-71200109D01*
X136017540Y-71228887D01*
X136151884Y-71448116D01*
X136153419Y-71449914D01*
X136177041Y-71516098D01*
X136160967Y-71585251D01*
X136110058Y-71634736D01*
X136061901Y-71648852D01*
X135978863Y-71655898D01*
X135978859Y-71655899D01*
X135973552Y-71656349D01*
X135968397Y-71657687D01*
X135968391Y-71657688D01*
X135790677Y-71703814D01*
X135746294Y-71715333D01*
X135741428Y-71717525D01*
X135741425Y-71717526D01*
X135537083Y-71809576D01*
X135537080Y-71809577D01*
X135532222Y-71811766D01*
X135337459Y-71942888D01*
X135333602Y-71946567D01*
X135333600Y-71946569D01*
X135325851Y-71953961D01*
X135167573Y-72104951D01*
X135027422Y-72293321D01*
X135025006Y-72298072D01*
X135025004Y-72298076D01*
X134923431Y-72497856D01*
X134921013Y-72502612D01*
X134851389Y-72726840D01*
X134850688Y-72732129D01*
X134833592Y-72861116D01*
X134820539Y-72959593D01*
X134829348Y-73194216D01*
X134830443Y-73199434D01*
X134855294Y-73317871D01*
X134877562Y-73424001D01*
X134963802Y-73642377D01*
X135085604Y-73843100D01*
X135239485Y-74020432D01*
X135243617Y-74023820D01*
X135416916Y-74165917D01*
X135416922Y-74165921D01*
X135421044Y-74169301D01*
X135425680Y-74171940D01*
X135425683Y-74171942D01*
X135536908Y-74235255D01*
X135625090Y-74285451D01*
X135845789Y-74365561D01*
X135851038Y-74366510D01*
X135851041Y-74366511D01*
X135932115Y-74381171D01*
X136076830Y-74407340D01*
X136080969Y-74407535D01*
X136080976Y-74407536D01*
X136099940Y-74408430D01*
X136099949Y-74408430D01*
X136101429Y-74408500D01*
X136266450Y-74408500D01*
X136347799Y-74401597D01*
X136436137Y-74394102D01*
X136436141Y-74394101D01*
X136441448Y-74393651D01*
X136446603Y-74392313D01*
X136446609Y-74392312D01*
X136663535Y-74336009D01*
X136663534Y-74336009D01*
X136668706Y-74334667D01*
X136673572Y-74332475D01*
X136673575Y-74332474D01*
X136877917Y-74240424D01*
X136877920Y-74240423D01*
X136882778Y-74238234D01*
X137077541Y-74107112D01*
X137247427Y-73945049D01*
X137387578Y-73756679D01*
X137437187Y-73659105D01*
X137485890Y-73607447D01*
X137554790Y-73590320D01*
X137622011Y-73613162D01*
X137638599Y-73627114D01*
X143779967Y-79768483D01*
X143787543Y-79776809D01*
X143791664Y-79783303D01*
X143797439Y-79788726D01*
X143841482Y-79830085D01*
X143844324Y-79832840D01*
X143864123Y-79852639D01*
X143867248Y-79855063D01*
X143867257Y-79855071D01*
X143867343Y-79855137D01*
X143876368Y-79862845D01*
X143908711Y-79893217D01*
X143915655Y-79897035D01*
X143915657Y-79897036D01*
X143926546Y-79903022D01*
X143943064Y-79913873D01*
X143959150Y-79926350D01*
X143999883Y-79943976D01*
X144010531Y-79949193D01*
X144049414Y-79970569D01*
X144057089Y-79972540D01*
X144057095Y-79972542D01*
X144069128Y-79975631D01*
X144087830Y-79982034D01*
X144106509Y-79990117D01*
X144140345Y-79995476D01*
X144150344Y-79997060D01*
X144161957Y-79999465D01*
X144204935Y-80010500D01*
X144225282Y-80010500D01*
X144244994Y-80012051D01*
X144265096Y-80015235D01*
X144272988Y-80014489D01*
X144309273Y-80011059D01*
X144321131Y-80010500D01*
X144940828Y-80010500D01*
X145008949Y-80030502D01*
X145029923Y-80047405D01*
X145536345Y-80553827D01*
X145570371Y-80616139D01*
X145573250Y-80642922D01*
X145573250Y-83148081D01*
X145553248Y-83216202D01*
X145505432Y-83259843D01*
X145468294Y-83279176D01*
X145286194Y-83415900D01*
X145128870Y-83580530D01*
X145113300Y-83603355D01*
X145042534Y-83707094D01*
X144987623Y-83752096D01*
X144917098Y-83760267D01*
X144853351Y-83729013D01*
X144832654Y-83704529D01*
X144772481Y-83611515D01*
X144772479Y-83611512D01*
X144769673Y-83607175D01*
X144616418Y-83438750D01*
X144437713Y-83297618D01*
X144238357Y-83187567D01*
X144122348Y-83146486D01*
X144028579Y-83113280D01*
X144028575Y-83113279D01*
X144023704Y-83111554D01*
X144018611Y-83110647D01*
X144018608Y-83110646D01*
X143804607Y-83072527D01*
X143804601Y-83072526D01*
X143799518Y-83071621D01*
X143712448Y-83070557D01*
X143576989Y-83068902D01*
X143576987Y-83068902D01*
X143571820Y-83068839D01*
X143346726Y-83103283D01*
X143130279Y-83174029D01*
X142928294Y-83279176D01*
X142924161Y-83282279D01*
X142924158Y-83282281D01*
X142750329Y-83412795D01*
X142746194Y-83415900D01*
X142588870Y-83580530D01*
X142573300Y-83603355D01*
X142502534Y-83707094D01*
X142447623Y-83752096D01*
X142377098Y-83760267D01*
X142313351Y-83729013D01*
X142292654Y-83704529D01*
X142232481Y-83611515D01*
X142232479Y-83611512D01*
X142229673Y-83607175D01*
X142076418Y-83438750D01*
X141897713Y-83297618D01*
X141829355Y-83259882D01*
X141779386Y-83209451D01*
X141764250Y-83149575D01*
X141764250Y-82470282D01*
X141764780Y-82459043D01*
X141766459Y-82451531D01*
X141764312Y-82383219D01*
X141764250Y-82379262D01*
X141764250Y-82351267D01*
X141763742Y-82347244D01*
X141762809Y-82335402D01*
X141761664Y-82298970D01*
X141761415Y-82291045D01*
X141755737Y-82271501D01*
X141751727Y-82252138D01*
X141750170Y-82239810D01*
X141750170Y-82239808D01*
X141749177Y-82231951D01*
X141746261Y-82224587D01*
X141746260Y-82224582D01*
X141732843Y-82190694D01*
X141728998Y-82179465D01*
X141718830Y-82144469D01*
X141716619Y-82136857D01*
X141706260Y-82119341D01*
X141697563Y-82101591D01*
X141690069Y-82082662D01*
X141663988Y-82046764D01*
X141657472Y-82036844D01*
X141638923Y-82005479D01*
X141638921Y-82005476D01*
X141634885Y-81998652D01*
X141620497Y-81984264D01*
X141607656Y-81969230D01*
X141600352Y-81959177D01*
X141595692Y-81952763D01*
X141561500Y-81924477D01*
X141552721Y-81916488D01*
X139411500Y-79775267D01*
X139403924Y-79766941D01*
X139399803Y-79760447D01*
X139349984Y-79713664D01*
X139347143Y-79710910D01*
X139327344Y-79691111D01*
X139324219Y-79688687D01*
X139324210Y-79688679D01*
X139324124Y-79688613D01*
X139315099Y-79680905D01*
X139288535Y-79655960D01*
X139282756Y-79650533D01*
X139264919Y-79640727D01*
X139248403Y-79629877D01*
X139232317Y-79617400D01*
X139191584Y-79599774D01*
X139180936Y-79594557D01*
X139169308Y-79588165D01*
X139142053Y-79573181D01*
X139134378Y-79571210D01*
X139134372Y-79571208D01*
X139122339Y-79568119D01*
X139103637Y-79561716D01*
X139084958Y-79553633D01*
X139051122Y-79548274D01*
X139041123Y-79546690D01*
X139029510Y-79544285D01*
X138986532Y-79533250D01*
X138966185Y-79533250D01*
X138946474Y-79531699D01*
X138934200Y-79529755D01*
X138926371Y-79528515D01*
X138918479Y-79529261D01*
X138882194Y-79532691D01*
X138870336Y-79533250D01*
X132871673Y-79533250D01*
X132803552Y-79513248D01*
X132782577Y-79496345D01*
X132434904Y-79148671D01*
X132400879Y-79086359D01*
X132398000Y-79059576D01*
X132398000Y-44132500D01*
X142188949Y-44132500D01*
X142209122Y-44388826D01*
X142210276Y-44393633D01*
X142210277Y-44393639D01*
X142233736Y-44491352D01*
X142269145Y-44638840D01*
X142271038Y-44643411D01*
X142271039Y-44643413D01*
X142352796Y-44840791D01*
X142367540Y-44876387D01*
X142501884Y-45095616D01*
X142668869Y-45291131D01*
X142864384Y-45458116D01*
X143083613Y-45592460D01*
X143088183Y-45594353D01*
X143088187Y-45594355D01*
X143316587Y-45688961D01*
X143321160Y-45690855D01*
X143382657Y-45705619D01*
X143566361Y-45749723D01*
X143566367Y-45749724D01*
X143571174Y-45750878D01*
X143827500Y-45771051D01*
X144083826Y-45750878D01*
X144088633Y-45749724D01*
X144088639Y-45749723D01*
X144272343Y-45705619D01*
X144333840Y-45690855D01*
X144338413Y-45688961D01*
X144566813Y-45594355D01*
X144566817Y-45594353D01*
X144571387Y-45592460D01*
X144790616Y-45458116D01*
X144986131Y-45291131D01*
X145153116Y-45095616D01*
X145287460Y-44876387D01*
X145302205Y-44840791D01*
X145383961Y-44643413D01*
X145383962Y-44643411D01*
X145385855Y-44638840D01*
X145421264Y-44491352D01*
X145444723Y-44393639D01*
X145444724Y-44393633D01*
X145445878Y-44388826D01*
X145466051Y-44132500D01*
X162032699Y-44132500D01*
X162052872Y-44388826D01*
X162054026Y-44393633D01*
X162054027Y-44393639D01*
X162077486Y-44491352D01*
X162112895Y-44638840D01*
X162114788Y-44643411D01*
X162114789Y-44643413D01*
X162196546Y-44840791D01*
X162211290Y-44876387D01*
X162345634Y-45095616D01*
X162512619Y-45291131D01*
X162708134Y-45458116D01*
X162927363Y-45592460D01*
X162931933Y-45594353D01*
X162931937Y-45594355D01*
X163160337Y-45688961D01*
X163164910Y-45690855D01*
X163226407Y-45705619D01*
X163410111Y-45749723D01*
X163410117Y-45749724D01*
X163414924Y-45750878D01*
X163671250Y-45771051D01*
X163927576Y-45750878D01*
X163932383Y-45749724D01*
X163932389Y-45749723D01*
X164116093Y-45705619D01*
X164177590Y-45690855D01*
X164182163Y-45688961D01*
X164410563Y-45594355D01*
X164410567Y-45594353D01*
X164415137Y-45592460D01*
X164634366Y-45458116D01*
X164829881Y-45291131D01*
X164996866Y-45095616D01*
X165131210Y-44876387D01*
X165145955Y-44840791D01*
X165227711Y-44643413D01*
X165227712Y-44643411D01*
X165229605Y-44638840D01*
X165265014Y-44491352D01*
X165288473Y-44393639D01*
X165288474Y-44393633D01*
X165289628Y-44388826D01*
X165309801Y-44132500D01*
X185051449Y-44132500D01*
X185071622Y-44388826D01*
X185072776Y-44393633D01*
X185072777Y-44393639D01*
X185096236Y-44491352D01*
X185131645Y-44638840D01*
X185133538Y-44643411D01*
X185133539Y-44643413D01*
X185215296Y-44840791D01*
X185230040Y-44876387D01*
X185364384Y-45095616D01*
X185531369Y-45291131D01*
X185726884Y-45458116D01*
X185946113Y-45592460D01*
X185950683Y-45594353D01*
X185950687Y-45594355D01*
X186179087Y-45688961D01*
X186183660Y-45690855D01*
X186245157Y-45705619D01*
X186428861Y-45749723D01*
X186428867Y-45749724D01*
X186433674Y-45750878D01*
X186690000Y-45771051D01*
X186946326Y-45750878D01*
X186951133Y-45749724D01*
X186951139Y-45749723D01*
X187134843Y-45705619D01*
X187196340Y-45690855D01*
X187200913Y-45688961D01*
X187429313Y-45594355D01*
X187429317Y-45594353D01*
X187433887Y-45592460D01*
X187653116Y-45458116D01*
X187848631Y-45291131D01*
X188015616Y-45095616D01*
X188149960Y-44876387D01*
X188164705Y-44840791D01*
X188246461Y-44643413D01*
X188246462Y-44643411D01*
X188248355Y-44638840D01*
X188283764Y-44491352D01*
X188307223Y-44393639D01*
X188307224Y-44393633D01*
X188308378Y-44388826D01*
X188328551Y-44132500D01*
X188308378Y-43876174D01*
X188273201Y-43729649D01*
X188249510Y-43630972D01*
X188248355Y-43626160D01*
X188208666Y-43530341D01*
X188151855Y-43393187D01*
X188151853Y-43393183D01*
X188149960Y-43388613D01*
X188015616Y-43169384D01*
X187848631Y-42973869D01*
X187653116Y-42806884D01*
X187433887Y-42672540D01*
X187429317Y-42670647D01*
X187429313Y-42670645D01*
X187200913Y-42576039D01*
X187200911Y-42576038D01*
X187196340Y-42574145D01*
X187042370Y-42537180D01*
X186951139Y-42515277D01*
X186951133Y-42515276D01*
X186946326Y-42514122D01*
X186690000Y-42493949D01*
X186433674Y-42514122D01*
X186428867Y-42515276D01*
X186428861Y-42515277D01*
X186337630Y-42537180D01*
X186183660Y-42574145D01*
X186179089Y-42576038D01*
X186179087Y-42576039D01*
X185950687Y-42670645D01*
X185950683Y-42670647D01*
X185946113Y-42672540D01*
X185726884Y-42806884D01*
X185531369Y-42973869D01*
X185364384Y-43169384D01*
X185230040Y-43388613D01*
X185228147Y-43393183D01*
X185228145Y-43393187D01*
X185171334Y-43530341D01*
X185131645Y-43626160D01*
X185130490Y-43630972D01*
X185106800Y-43729649D01*
X185071622Y-43876174D01*
X185051449Y-44132500D01*
X165309801Y-44132500D01*
X165289628Y-43876174D01*
X165254451Y-43729649D01*
X165230760Y-43630972D01*
X165229605Y-43626160D01*
X165189916Y-43530341D01*
X165133105Y-43393187D01*
X165133103Y-43393183D01*
X165131210Y-43388613D01*
X164996866Y-43169384D01*
X164829881Y-42973869D01*
X164634366Y-42806884D01*
X164415137Y-42672540D01*
X164410567Y-42670647D01*
X164410563Y-42670645D01*
X164182163Y-42576039D01*
X164182161Y-42576038D01*
X164177590Y-42574145D01*
X164023620Y-42537180D01*
X163932389Y-42515277D01*
X163932383Y-42515276D01*
X163927576Y-42514122D01*
X163671250Y-42493949D01*
X163414924Y-42514122D01*
X163410117Y-42515276D01*
X163410111Y-42515277D01*
X163318880Y-42537180D01*
X163164910Y-42574145D01*
X163160339Y-42576038D01*
X163160337Y-42576039D01*
X162931937Y-42670645D01*
X162931933Y-42670647D01*
X162927363Y-42672540D01*
X162708134Y-42806884D01*
X162512619Y-42973869D01*
X162345634Y-43169384D01*
X162211290Y-43388613D01*
X162209397Y-43393183D01*
X162209395Y-43393187D01*
X162152584Y-43530341D01*
X162112895Y-43626160D01*
X162111740Y-43630972D01*
X162088050Y-43729649D01*
X162052872Y-43876174D01*
X162032699Y-44132500D01*
X145466051Y-44132500D01*
X145445878Y-43876174D01*
X145410701Y-43729649D01*
X145387010Y-43630972D01*
X145385855Y-43626160D01*
X145346166Y-43530341D01*
X145289355Y-43393187D01*
X145289353Y-43393183D01*
X145287460Y-43388613D01*
X145153116Y-43169384D01*
X144986131Y-42973869D01*
X144790616Y-42806884D01*
X144571387Y-42672540D01*
X144566817Y-42670647D01*
X144566813Y-42670645D01*
X144338413Y-42576039D01*
X144338411Y-42576038D01*
X144333840Y-42574145D01*
X144179870Y-42537180D01*
X144088639Y-42515277D01*
X144088633Y-42515276D01*
X144083826Y-42514122D01*
X143827500Y-42493949D01*
X143571174Y-42514122D01*
X143566367Y-42515276D01*
X143566361Y-42515277D01*
X143475130Y-42537180D01*
X143321160Y-42574145D01*
X143316589Y-42576038D01*
X143316587Y-42576039D01*
X143088187Y-42670645D01*
X143088183Y-42670647D01*
X143083613Y-42672540D01*
X142864384Y-42806884D01*
X142668869Y-42973869D01*
X142501884Y-43169384D01*
X142367540Y-43388613D01*
X142365647Y-43393183D01*
X142365645Y-43393187D01*
X142308834Y-43530341D01*
X142269145Y-43626160D01*
X142267990Y-43630972D01*
X142244300Y-43729649D01*
X142209122Y-43876174D01*
X142188949Y-44132500D01*
X132398000Y-44132500D01*
X132398000Y-41590423D01*
X132418002Y-41522302D01*
X132434905Y-41501327D01*
X132782579Y-41153654D01*
X132844891Y-41119629D01*
X132871674Y-41116750D01*
X221934578Y-41116750D01*
X222002699Y-41136752D01*
X222023673Y-41153655D01*
X227444745Y-46574727D01*
X227452322Y-46583053D01*
X227456447Y-46589553D01*
X227462225Y-46594979D01*
X227462226Y-46594980D01*
X227506281Y-46636350D01*
X227509123Y-46639105D01*
X227528906Y-46658888D01*
X227532114Y-46661376D01*
X227541143Y-46669087D01*
X227573494Y-46699467D01*
X227580443Y-46703287D01*
X227591329Y-46709272D01*
X227607853Y-46720126D01*
X227617670Y-46727741D01*
X227623933Y-46732599D01*
X227631210Y-46735748D01*
X227664650Y-46750219D01*
X227675311Y-46755442D01*
X227707247Y-46772999D01*
X227707252Y-46773001D01*
X227714197Y-46776819D01*
X227721871Y-46778789D01*
X227721878Y-46778792D01*
X227733913Y-46781882D01*
X227752618Y-46788286D01*
X227764013Y-46793217D01*
X227771292Y-46796367D01*
X227798342Y-46800651D01*
X227815127Y-46803310D01*
X227826740Y-46805715D01*
X227869718Y-46816750D01*
X227890065Y-46816750D01*
X227909777Y-46818301D01*
X227929879Y-46821485D01*
X227937771Y-46820739D01*
X227974056Y-46817309D01*
X227985914Y-46816750D01*
X228464927Y-46816750D01*
X228533048Y-46836752D01*
X228572360Y-46876915D01*
X228581366Y-46891611D01*
X228648494Y-47001154D01*
X228797448Y-47173111D01*
X228972487Y-47318431D01*
X228976939Y-47321033D01*
X228976944Y-47321036D01*
X229147339Y-47420607D01*
X229168910Y-47433212D01*
X229381443Y-47514370D01*
X229386509Y-47515401D01*
X229386510Y-47515401D01*
X229485611Y-47535563D01*
X229604377Y-47559726D01*
X229732187Y-47564413D01*
X229826561Y-47567874D01*
X229826565Y-47567874D01*
X229831725Y-47568063D01*
X229836845Y-47567407D01*
X229836847Y-47567407D01*
X230052254Y-47539813D01*
X230052255Y-47539813D01*
X230057382Y-47539156D01*
X230139998Y-47514370D01*
X230270341Y-47475265D01*
X230270342Y-47475264D01*
X230275287Y-47473781D01*
X230479589Y-47373694D01*
X230483793Y-47370696D01*
X230483797Y-47370693D01*
X230660597Y-47244583D01*
X230660599Y-47244581D01*
X230664801Y-47241584D01*
X230825949Y-47080997D01*
X230832483Y-47071904D01*
X230955688Y-46900448D01*
X230955692Y-46900442D01*
X230958706Y-46896247D01*
X231059505Y-46692296D01*
X231125640Y-46474620D01*
X231155335Y-46249065D01*
X231156992Y-46181250D01*
X231138351Y-45954514D01*
X231082928Y-45733867D01*
X230992212Y-45525235D01*
X230876832Y-45346884D01*
X230871448Y-45338561D01*
X230871446Y-45338558D01*
X230868640Y-45334221D01*
X230715529Y-45165954D01*
X230536991Y-45024954D01*
X230499287Y-45004140D01*
X230484619Y-44996043D01*
X230337822Y-44915007D01*
X230332953Y-44913283D01*
X230332949Y-44913281D01*
X230128246Y-44840791D01*
X230128242Y-44840790D01*
X230123371Y-44839065D01*
X230118278Y-44838158D01*
X230118275Y-44838157D01*
X229904484Y-44800075D01*
X229904478Y-44800074D01*
X229899395Y-44799169D01*
X229825946Y-44798272D01*
X229677081Y-44796453D01*
X229677079Y-44796453D01*
X229671911Y-44796390D01*
X229447028Y-44830802D01*
X229230785Y-44901481D01*
X229226197Y-44903869D01*
X229226193Y-44903871D01*
X229033578Y-45004140D01*
X229028989Y-45006529D01*
X229024856Y-45009632D01*
X229024853Y-45009634D01*
X228883135Y-45116039D01*
X228847060Y-45143125D01*
X228689883Y-45307601D01*
X228686971Y-45311870D01*
X228564945Y-45490754D01*
X228510033Y-45535757D01*
X228460856Y-45545750D01*
X228265423Y-45545750D01*
X228197302Y-45525748D01*
X228176328Y-45508845D01*
X226294337Y-43626854D01*
X229866537Y-43626854D01*
X229876317Y-43838149D01*
X229925875Y-44043784D01*
X229928357Y-44049242D01*
X229928358Y-44049246D01*
X229971803Y-44144796D01*
X230013424Y-44236337D01*
X230135804Y-44408861D01*
X230288600Y-44555131D01*
X230466298Y-44669870D01*
X230471864Y-44672113D01*
X230656918Y-44746692D01*
X230656921Y-44746693D01*
X230662487Y-44748936D01*
X230870087Y-44789478D01*
X230875649Y-44789750D01*
X231031596Y-44789750D01*
X231189316Y-44774702D01*
X231392284Y-44715158D01*
X231475861Y-44672113D01*
X231574999Y-44621054D01*
X231575002Y-44621052D01*
X231580330Y-44618308D01*
X231746670Y-44487646D01*
X231750602Y-44483115D01*
X231750605Y-44483112D01*
X231881371Y-44332417D01*
X231885302Y-44327887D01*
X231888302Y-44322701D01*
X231888305Y-44322697D01*
X231988217Y-44149992D01*
X231991223Y-44144796D01*
X232060611Y-43944979D01*
X232069872Y-43881108D01*
X232090102Y-43741586D01*
X232090102Y-43741583D01*
X232090963Y-43735646D01*
X232081183Y-43524351D01*
X232031625Y-43318716D01*
X231988275Y-43223372D01*
X231965645Y-43173601D01*
X231944076Y-43126163D01*
X231821696Y-42953639D01*
X231668900Y-42807369D01*
X231491202Y-42692630D01*
X231431104Y-42668410D01*
X231300582Y-42615808D01*
X231300579Y-42615807D01*
X231295013Y-42613564D01*
X231087413Y-42573022D01*
X231081851Y-42572750D01*
X230925904Y-42572750D01*
X230768184Y-42587798D01*
X230565216Y-42647342D01*
X230559889Y-42650086D01*
X230559888Y-42650086D01*
X230382501Y-42741446D01*
X230382498Y-42741448D01*
X230377170Y-42744192D01*
X230210830Y-42874854D01*
X230206898Y-42879385D01*
X230206895Y-42879388D01*
X230088304Y-43016052D01*
X230072198Y-43034613D01*
X230069198Y-43039799D01*
X230069195Y-43039803D01*
X230022062Y-43121276D01*
X229966277Y-43217704D01*
X229896889Y-43417521D01*
X229866537Y-43626854D01*
X226294337Y-43626854D01*
X224991863Y-42324380D01*
X228990450Y-42324380D01*
X228995731Y-42331434D01*
X229164669Y-42430154D01*
X229173952Y-42434601D01*
X229376752Y-42512043D01*
X229386650Y-42514919D01*
X229599375Y-42558198D01*
X229609603Y-42559417D01*
X229826538Y-42567372D01*
X229836824Y-42566905D01*
X230052150Y-42539322D01*
X230062227Y-42537180D01*
X230270151Y-42474799D01*
X230279749Y-42471038D01*
X230474697Y-42375534D01*
X230483535Y-42370265D01*
X230535922Y-42332898D01*
X230544322Y-42322198D01*
X230537335Y-42309045D01*
X229781562Y-41553272D01*
X229767618Y-41545658D01*
X229765785Y-41545789D01*
X229759170Y-41550040D01*
X228997210Y-42312000D01*
X228990450Y-42324380D01*
X224991863Y-42324380D01*
X223819983Y-41152500D01*
X228381721Y-41152500D01*
X228394217Y-41369217D01*
X228395653Y-41379438D01*
X228443377Y-41591198D01*
X228446456Y-41601027D01*
X228528129Y-41802164D01*
X228532772Y-41811355D01*
X228617029Y-41948851D01*
X228627485Y-41958311D01*
X228636263Y-41954527D01*
X229396728Y-41194062D01*
X229403106Y-41182382D01*
X230133158Y-41182382D01*
X230133289Y-41184215D01*
X230137540Y-41190830D01*
X230897138Y-41950428D01*
X230909148Y-41956986D01*
X230920888Y-41948018D01*
X230955257Y-41900190D01*
X230960566Y-41891353D01*
X231056744Y-41696753D01*
X231060542Y-41687160D01*
X231123647Y-41479458D01*
X231125824Y-41469388D01*
X231154396Y-41252363D01*
X231154915Y-41245688D01*
X231156408Y-41184614D01*
X231156214Y-41177896D01*
X231138280Y-40959757D01*
X231136595Y-40949577D01*
X231083712Y-40739041D01*
X231080392Y-40729290D01*
X230993830Y-40530209D01*
X230988963Y-40521134D01*
X230919894Y-40414368D01*
X230909208Y-40405165D01*
X230899641Y-40409569D01*
X230140772Y-41168438D01*
X230133158Y-41182382D01*
X229403106Y-41182382D01*
X229404342Y-41180118D01*
X229404211Y-41178285D01*
X229399960Y-41171670D01*
X228640608Y-40412318D01*
X228629072Y-40406018D01*
X228616789Y-40415641D01*
X228565029Y-40491518D01*
X228559941Y-40500474D01*
X228468545Y-40697371D01*
X228464982Y-40707058D01*
X228406973Y-40916229D01*
X228405042Y-40926350D01*
X228381972Y-41142212D01*
X228381721Y-41152500D01*
X223819983Y-41152500D01*
X222755250Y-40087767D01*
X222747674Y-40079441D01*
X222743553Y-40072947D01*
X222708275Y-40039819D01*
X228992115Y-40039819D01*
X228998861Y-40052151D01*
X229755938Y-40809228D01*
X229769882Y-40816842D01*
X229771715Y-40816711D01*
X229778330Y-40812460D01*
X230539940Y-40050850D01*
X230546961Y-40037994D01*
X230539468Y-40027711D01*
X230532185Y-40022872D01*
X230342148Y-39917965D01*
X230332739Y-39913737D01*
X230128114Y-39841276D01*
X230118151Y-39838644D01*
X229904437Y-39800576D01*
X229894184Y-39799606D01*
X229677116Y-39796953D01*
X229666832Y-39797673D01*
X229452257Y-39830508D01*
X229442229Y-39832897D01*
X229235897Y-39900337D01*
X229226387Y-39904334D01*
X229033845Y-40004565D01*
X229025120Y-40010059D01*
X229000569Y-40028493D01*
X228992115Y-40039819D01*
X222708275Y-40039819D01*
X222693734Y-40026164D01*
X222690893Y-40023410D01*
X222671094Y-40003611D01*
X222667969Y-40001187D01*
X222667960Y-40001179D01*
X222667874Y-40001113D01*
X222658849Y-39993405D01*
X222632285Y-39968460D01*
X222626506Y-39963033D01*
X222608669Y-39953227D01*
X222592153Y-39942377D01*
X222576067Y-39929900D01*
X222535334Y-39912274D01*
X222524686Y-39907057D01*
X222499809Y-39893381D01*
X222485803Y-39885681D01*
X222478128Y-39883710D01*
X222478122Y-39883708D01*
X222466089Y-39880619D01*
X222447387Y-39874216D01*
X222428708Y-39866133D01*
X222388913Y-39859830D01*
X222384873Y-39859190D01*
X222373260Y-39856785D01*
X222330282Y-39845750D01*
X222309935Y-39845750D01*
X222290224Y-39844199D01*
X222277950Y-39842255D01*
X222270121Y-39841015D01*
X222262229Y-39841761D01*
X222225944Y-39845191D01*
X222214086Y-39845750D01*
X132635270Y-39845750D01*
X132624036Y-39845220D01*
X132616531Y-39843542D01*
X132548821Y-39845670D01*
X132548238Y-39845688D01*
X132544281Y-39845750D01*
X132516267Y-39845750D01*
X132512342Y-39846246D01*
X132512341Y-39846246D01*
X132512246Y-39846258D01*
X132500401Y-39847191D01*
X132470580Y-39848128D01*
X132463968Y-39848336D01*
X132463967Y-39848336D01*
X132456045Y-39848585D01*
X132436502Y-39854263D01*
X132417138Y-39858273D01*
X132404810Y-39859830D01*
X132404808Y-39859830D01*
X132396951Y-39860823D01*
X132389587Y-39863739D01*
X132389582Y-39863740D01*
X132355694Y-39877157D01*
X132344465Y-39881002D01*
X132328361Y-39885681D01*
X132301857Y-39893381D01*
X132295030Y-39897419D01*
X132295027Y-39897420D01*
X132284344Y-39903738D01*
X132266586Y-39912438D01*
X132255035Y-39917011D01*
X132255029Y-39917015D01*
X132247662Y-39919931D01*
X132241251Y-39924589D01*
X132241249Y-39924590D01*
X132211762Y-39946014D01*
X132201840Y-39952531D01*
X132170482Y-39971076D01*
X132170478Y-39971079D01*
X132163652Y-39975116D01*
X132149268Y-39989500D01*
X132134234Y-40002341D01*
X132117763Y-40014308D01*
X132096659Y-40039819D01*
X132089477Y-40048500D01*
X132081487Y-40057281D01*
X131369012Y-40769755D01*
X131360693Y-40777325D01*
X131354197Y-40781447D01*
X131348771Y-40787225D01*
X131348770Y-40787226D01*
X131307415Y-40831265D01*
X131304660Y-40834107D01*
X131284861Y-40853906D01*
X131282437Y-40857031D01*
X131282429Y-40857040D01*
X131282363Y-40857126D01*
X131274655Y-40866151D01*
X131244283Y-40898494D01*
X131240465Y-40905438D01*
X131240464Y-40905440D01*
X131234478Y-40916329D01*
X131223627Y-40932847D01*
X131211150Y-40948933D01*
X131193524Y-40989666D01*
X131188307Y-41000314D01*
X131166931Y-41039197D01*
X131164960Y-41046872D01*
X131164958Y-41046878D01*
X131161869Y-41058911D01*
X131155466Y-41077613D01*
X131147383Y-41096292D01*
X131146144Y-41104117D01*
X131140440Y-41140127D01*
X131138035Y-41151740D01*
X131127000Y-41194718D01*
X131127000Y-41215065D01*
X131125449Y-41234776D01*
X131122265Y-41254879D01*
X129096000Y-41254879D01*
X129096000Y-39740750D01*
X129097746Y-39719845D01*
X129100270Y-39704844D01*
X129100270Y-39704841D01*
X129101076Y-39700052D01*
X129101229Y-39687500D01*
X129100042Y-39679209D01*
X129099248Y-39650371D01*
X129099553Y-39646892D01*
X129111431Y-39511115D01*
X129115245Y-39489487D01*
X129158219Y-39329107D01*
X129165731Y-39308468D01*
X129235902Y-39157987D01*
X129246884Y-39138967D01*
X129342116Y-39002961D01*
X129356234Y-38986136D01*
X129473636Y-38868734D01*
X129490461Y-38854616D01*
X129626467Y-38759384D01*
X129645487Y-38748402D01*
X129655722Y-38743629D01*
X129795971Y-38678230D01*
X129816607Y-38670719D01*
X129976987Y-38627745D01*
X129998615Y-38623931D01*
X130044567Y-38619911D01*
X130134392Y-38612053D01*
X130150871Y-38612606D01*
X130150876Y-38612200D01*
X130159853Y-38612310D01*
X130168724Y-38613691D01*
X130177626Y-38612527D01*
X130177628Y-38612527D01*
X130195023Y-38610252D01*
X130200286Y-38609564D01*
X130216621Y-38608500D01*
X233313133Y-38608500D01*
X233332518Y-38610000D01*
G37*
%TD.AperFunction*%
%TD*%
M02*
