%TF.GenerationSoftware,KiCad,Pcbnew,(6.0.4)*%
%TF.CreationDate,2022-05-05T19:26:59-04:00*%
%TF.ProjectId,F14-DDP,4631342d-4444-4502-9e6b-696361645f70,rev?*%
%TF.SameCoordinates,Original*%
%TF.FileFunction,Soldermask,Top*%
%TF.FilePolarity,Negative*%
%FSLAX46Y46*%
G04 Gerber Fmt 4.6, Leading zero omitted, Abs format (unit mm)*
G04 Created by KiCad (PCBNEW (6.0.4)) date 2022-05-05 19:26:59*
%MOMM*%
%LPD*%
G01*
G04 APERTURE LIST*
%ADD10C,0.500000*%
%ADD11R,1.200000X0.900000*%
%ADD12C,3.987800*%
%ADD13C,1.750000*%
%ADD14R,1.752600X1.752600*%
%ADD15C,1.752600*%
%ADD16R,0.900000X1.200000*%
%ADD17C,1.200000*%
G04 APERTURE END LIST*
D10*
X208071428Y-55840321D02*
X207271428Y-55840321D01*
X207271428Y-57097464D02*
X207271428Y-54697464D01*
X208414285Y-54697464D01*
X209328571Y-56183178D02*
X211157142Y-56183178D01*
X213557142Y-57097464D02*
X212185714Y-57097464D01*
X212871428Y-57097464D02*
X212871428Y-54697464D01*
X212642857Y-55040321D01*
X212414285Y-55268892D01*
X212185714Y-55383178D01*
X215614285Y-55497464D02*
X215614285Y-57097464D01*
X215042857Y-54583178D02*
X214471428Y-56297464D01*
X215957142Y-56297464D01*
X218700000Y-57097464D02*
X218700000Y-54697464D01*
X219271428Y-54697464D01*
X219614285Y-54811750D01*
X219842857Y-55040321D01*
X219957142Y-55268892D01*
X220071428Y-55726035D01*
X220071428Y-56068892D01*
X219957142Y-56526035D01*
X219842857Y-56754607D01*
X219614285Y-56983178D01*
X219271428Y-57097464D01*
X218700000Y-57097464D01*
X221100000Y-57097464D02*
X221100000Y-54697464D01*
X221671428Y-54697464D01*
X222014285Y-54811750D01*
X222242857Y-55040321D01*
X222357142Y-55268892D01*
X222471428Y-55726035D01*
X222471428Y-56068892D01*
X222357142Y-56526035D01*
X222242857Y-56754607D01*
X222014285Y-56983178D01*
X221671428Y-57097464D01*
X221100000Y-57097464D01*
X223500000Y-57097464D02*
X223500000Y-54697464D01*
X224414285Y-54697464D01*
X224642857Y-54811750D01*
X224757142Y-54926035D01*
X224871428Y-55154607D01*
X224871428Y-55497464D01*
X224757142Y-55726035D01*
X224642857Y-55840321D01*
X224414285Y-55954607D01*
X223500000Y-55954607D01*
X207271428Y-60961464D02*
X207271428Y-58561464D01*
X207271428Y-59475750D02*
X207500000Y-59361464D01*
X207957142Y-59361464D01*
X208185714Y-59475750D01*
X208300000Y-59590035D01*
X208414285Y-59818607D01*
X208414285Y-60504321D01*
X208300000Y-60732892D01*
X208185714Y-60847178D01*
X207957142Y-60961464D01*
X207500000Y-60961464D01*
X207271428Y-60847178D01*
X209214285Y-59361464D02*
X209785714Y-60961464D01*
X210357142Y-59361464D02*
X209785714Y-60961464D01*
X209557142Y-61532892D01*
X209442857Y-61647178D01*
X209214285Y-61761464D01*
X213100000Y-60961464D02*
X213100000Y-58561464D01*
X214471428Y-60961464D01*
X214471428Y-58561464D01*
X215614285Y-60961464D02*
X215614285Y-59361464D01*
X215614285Y-58561464D02*
X215500000Y-58675750D01*
X215614285Y-58790035D01*
X215728571Y-58675750D01*
X215614285Y-58561464D01*
X215614285Y-58790035D01*
X216757142Y-60961464D02*
X216757142Y-58561464D01*
X216757142Y-59475750D02*
X216985714Y-59361464D01*
X217442857Y-59361464D01*
X217671428Y-59475750D01*
X217785714Y-59590035D01*
X217900000Y-59818607D01*
X217900000Y-60504321D01*
X217785714Y-60732892D01*
X217671428Y-60847178D01*
X217442857Y-60961464D01*
X216985714Y-60961464D01*
X216757142Y-60847178D01*
X218928571Y-60961464D02*
X218928571Y-58561464D01*
X218928571Y-59475750D02*
X219157142Y-59361464D01*
X219614285Y-59361464D01*
X219842857Y-59475750D01*
X219957142Y-59590035D01*
X220071428Y-59818607D01*
X220071428Y-60504321D01*
X219957142Y-60732892D01*
X219842857Y-60847178D01*
X219614285Y-60961464D01*
X219157142Y-60961464D01*
X218928571Y-60847178D01*
X221442857Y-60961464D02*
X221214285Y-60847178D01*
X221100000Y-60618607D01*
X221100000Y-58561464D01*
X223271428Y-60847178D02*
X223042857Y-60961464D01*
X222585714Y-60961464D01*
X222357142Y-60847178D01*
X222242857Y-60618607D01*
X222242857Y-59704321D01*
X222357142Y-59475750D01*
X222585714Y-59361464D01*
X223042857Y-59361464D01*
X223271428Y-59475750D01*
X223385714Y-59704321D01*
X223385714Y-59932892D01*
X222242857Y-60161464D01*
X225442857Y-60961464D02*
X225442857Y-58561464D01*
X225442857Y-60847178D02*
X225214285Y-60961464D01*
X224757142Y-60961464D01*
X224528571Y-60847178D01*
X224414285Y-60732892D01*
X224300000Y-60504321D01*
X224300000Y-59818607D01*
X224414285Y-59590035D01*
X224528571Y-59475750D01*
X224757142Y-59361464D01*
X225214285Y-59361464D01*
X225442857Y-59475750D01*
X226585714Y-60961464D02*
X226585714Y-58561464D01*
X227500000Y-58561464D01*
X227728571Y-58675750D01*
X227842857Y-58790035D01*
X227957142Y-59018607D01*
X227957142Y-59361464D01*
X227842857Y-59590035D01*
X227728571Y-59704321D01*
X227500000Y-59818607D01*
X226585714Y-59818607D01*
X229328571Y-60961464D02*
X229100000Y-60847178D01*
X228985714Y-60732892D01*
X228871428Y-60504321D01*
X228871428Y-59818607D01*
X228985714Y-59590035D01*
X229100000Y-59475750D01*
X229328571Y-59361464D01*
X229671428Y-59361464D01*
X229900000Y-59475750D01*
X230014285Y-59590035D01*
X230128571Y-59818607D01*
X230128571Y-60504321D01*
X230014285Y-60732892D01*
X229900000Y-60847178D01*
X229671428Y-60961464D01*
X229328571Y-60961464D01*
X230814285Y-59361464D02*
X231728571Y-59361464D01*
X231157142Y-58561464D02*
X231157142Y-60618607D01*
X231271428Y-60847178D01*
X231500000Y-60961464D01*
X231728571Y-60961464D01*
X232414285Y-60847178D02*
X232642857Y-60961464D01*
X233100000Y-60961464D01*
X233328571Y-60847178D01*
X233442857Y-60618607D01*
X233442857Y-60504321D01*
X233328571Y-60275750D01*
X233100000Y-60161464D01*
X232757142Y-60161464D01*
X232528571Y-60047178D01*
X232414285Y-59818607D01*
X232414285Y-59704321D01*
X232528571Y-59475750D01*
X232757142Y-59361464D01*
X233100000Y-59361464D01*
X233328571Y-59475750D01*
%TO.C,G\u002A\u002A\u002A*%
G36*
X211188247Y-38404442D02*
G01*
X211195928Y-38419803D01*
X211203186Y-38448489D01*
X211210266Y-38493944D01*
X211217410Y-38559608D01*
X211224864Y-38648924D01*
X211232871Y-38765333D01*
X211241675Y-38912276D01*
X211251520Y-39093196D01*
X211262650Y-39311534D01*
X211275309Y-39570731D01*
X211289740Y-39874230D01*
X211300055Y-40094066D01*
X211317713Y-40473328D01*
X211333008Y-40805880D01*
X211346041Y-41094953D01*
X211356913Y-41343777D01*
X211365726Y-41555582D01*
X211372582Y-41733597D01*
X211377583Y-41881053D01*
X211380828Y-42001180D01*
X211382421Y-42097208D01*
X211382463Y-42172366D01*
X211381054Y-42229885D01*
X211378297Y-42272995D01*
X211374294Y-42304926D01*
X211370160Y-42324999D01*
X211362392Y-42364655D01*
X211372028Y-42385101D01*
X211409939Y-42392744D01*
X211486998Y-42393987D01*
X211487273Y-42393987D01*
X211625367Y-42417591D01*
X211764605Y-42483246D01*
X211896532Y-42583930D01*
X212012694Y-42712622D01*
X212104637Y-42862302D01*
X212134739Y-42931680D01*
X212144187Y-42957087D01*
X212154544Y-42973536D01*
X212172015Y-42978567D01*
X212202804Y-42969723D01*
X212253117Y-42944546D01*
X212329158Y-42900577D01*
X212437132Y-42835359D01*
X212547481Y-42768175D01*
X212822752Y-42600716D01*
X214236644Y-42431877D01*
X214497180Y-42400636D01*
X214742736Y-42370939D01*
X214968832Y-42343346D01*
X215170991Y-42318414D01*
X215344732Y-42296704D01*
X215485579Y-42278773D01*
X215589051Y-42265179D01*
X215650672Y-42256483D01*
X215666736Y-42253504D01*
X215707440Y-42249853D01*
X215783435Y-42259359D01*
X215882613Y-42279130D01*
X215992865Y-42306273D01*
X216102082Y-42337896D01*
X216198154Y-42371106D01*
X216248471Y-42392483D01*
X216352468Y-42449442D01*
X216413244Y-42505392D01*
X216436407Y-42570285D01*
X216427569Y-42654074D01*
X216417285Y-42691944D01*
X216373328Y-42788541D01*
X216303073Y-42854531D01*
X216195784Y-42900511D01*
X216155385Y-42915910D01*
X216074819Y-42949306D01*
X215957965Y-42998983D01*
X215808705Y-43063223D01*
X215630917Y-43140310D01*
X215428482Y-43228527D01*
X215205280Y-43326156D01*
X214965191Y-43431481D01*
X214712094Y-43542786D01*
X214449869Y-43658352D01*
X214182397Y-43776465D01*
X213913558Y-43895405D01*
X213647231Y-44013458D01*
X213387296Y-44128905D01*
X213137633Y-44240031D01*
X212902123Y-44345118D01*
X212684645Y-44442449D01*
X212489079Y-44530308D01*
X212319305Y-44606977D01*
X212179203Y-44670740D01*
X212072653Y-44719880D01*
X212003535Y-44752680D01*
X211975729Y-44767423D01*
X211975386Y-44768007D01*
X211975734Y-44769829D01*
X211974580Y-44771672D01*
X211973836Y-44773333D01*
X211975415Y-44774607D01*
X211981231Y-44775289D01*
X211993196Y-44775176D01*
X212013225Y-44774062D01*
X212043230Y-44771744D01*
X212085124Y-44768016D01*
X212140821Y-44762675D01*
X212212234Y-44755515D01*
X212301276Y-44746333D01*
X212409860Y-44734925D01*
X212539900Y-44721085D01*
X212693308Y-44704609D01*
X212871999Y-44685293D01*
X213077884Y-44662933D01*
X213312879Y-44637323D01*
X213578894Y-44608260D01*
X213877845Y-44575540D01*
X214211643Y-44538957D01*
X214582203Y-44498307D01*
X214991437Y-44453386D01*
X215441259Y-44403990D01*
X215933582Y-44349913D01*
X216470319Y-44290952D01*
X217053383Y-44226902D01*
X217547534Y-44172624D01*
X218178746Y-44103348D01*
X218761915Y-44039466D01*
X219298733Y-43980802D01*
X219790897Y-43927181D01*
X220240098Y-43878429D01*
X220648033Y-43834369D01*
X221016394Y-43794826D01*
X221346876Y-43759626D01*
X221641173Y-43728593D01*
X221900979Y-43701551D01*
X222127988Y-43678326D01*
X222323894Y-43658742D01*
X222490392Y-43642625D01*
X222629175Y-43629798D01*
X222741937Y-43620086D01*
X222830374Y-43613315D01*
X222896177Y-43609309D01*
X222941043Y-43607893D01*
X222966665Y-43608892D01*
X222974417Y-43611277D01*
X222990852Y-43662522D01*
X222970656Y-43735914D01*
X222912591Y-43834937D01*
X222877389Y-43883970D01*
X222838955Y-43933941D01*
X222796142Y-43986006D01*
X222743822Y-44045761D01*
X222676864Y-44118801D01*
X222590140Y-44210723D01*
X222478520Y-44327123D01*
X222338078Y-44472355D01*
X222184160Y-44603393D01*
X222010226Y-44704263D01*
X221830792Y-44767028D01*
X221781570Y-44776689D01*
X221747325Y-44783807D01*
X221666706Y-44801517D01*
X221542130Y-44829272D01*
X221376013Y-44866524D01*
X221170773Y-44912725D01*
X220928827Y-44967328D01*
X220652592Y-45029784D01*
X220344485Y-45099547D01*
X220006923Y-45176068D01*
X219642322Y-45258801D01*
X219253101Y-45347196D01*
X218841675Y-45440708D01*
X218410463Y-45538787D01*
X217961880Y-45640887D01*
X217498345Y-45746460D01*
X217022273Y-45854958D01*
X216969155Y-45867068D01*
X216324258Y-46014247D01*
X215727775Y-46150687D01*
X215179264Y-46276491D01*
X214678282Y-46391763D01*
X214224386Y-46496607D01*
X213817132Y-46591127D01*
X213456078Y-46675427D01*
X213140781Y-46749612D01*
X212870797Y-46813784D01*
X212645683Y-46868049D01*
X212464997Y-46912509D01*
X212328296Y-46947270D01*
X212235135Y-46972435D01*
X212185073Y-46988107D01*
X212176939Y-46991790D01*
X212142388Y-47018230D01*
X212074481Y-47074396D01*
X211977266Y-47156795D01*
X211854793Y-47261937D01*
X211711113Y-47386328D01*
X211550275Y-47526476D01*
X211376328Y-47678889D01*
X211197149Y-47836697D01*
X210297260Y-48631250D01*
X210129529Y-49056250D01*
X210044770Y-49269133D01*
X209974301Y-49440972D01*
X209915154Y-49577655D01*
X209864364Y-49685072D01*
X209818965Y-49769113D01*
X209775990Y-49835666D01*
X209732474Y-49890622D01*
X209685451Y-49939870D01*
X209683638Y-49941628D01*
X209644302Y-49978177D01*
X209605062Y-50009281D01*
X209559193Y-50037916D01*
X209499968Y-50067063D01*
X209420661Y-50099698D01*
X209314545Y-50138801D01*
X209174894Y-50187350D01*
X208994982Y-50248323D01*
X208978342Y-50253930D01*
X208391543Y-50451610D01*
X208247093Y-50660180D01*
X208183675Y-50747746D01*
X208128098Y-50817201D01*
X208087742Y-50859713D01*
X208072845Y-50868725D01*
X208037989Y-50875083D01*
X207965862Y-50892368D01*
X207867343Y-50917862D01*
X207764672Y-50945700D01*
X207486296Y-51022700D01*
X207346900Y-51254077D01*
X207277246Y-51376752D01*
X207207938Y-51510695D01*
X207149866Y-51634417D01*
X207129381Y-51683352D01*
X207085283Y-51787979D01*
X207039257Y-51885823D01*
X206999978Y-51958648D01*
X206993601Y-51968750D01*
X206950449Y-52038398D01*
X206897117Y-52130132D01*
X206854891Y-52206250D01*
X206740454Y-52418026D01*
X206647469Y-52590090D01*
X206573617Y-52726729D01*
X206516579Y-52832231D01*
X206474035Y-52910884D01*
X206443667Y-52966977D01*
X206423155Y-53004796D01*
X206410180Y-53028631D01*
X206405215Y-53037701D01*
X206373725Y-53100079D01*
X206328896Y-53195216D01*
X206276741Y-53309761D01*
X206223269Y-53430361D01*
X206174491Y-53543664D01*
X206141595Y-53623299D01*
X206097654Y-53713161D01*
X206030609Y-53826460D01*
X205949613Y-53948407D01*
X205888239Y-54032678D01*
X205771402Y-54191727D01*
X205683586Y-54325082D01*
X205619074Y-54443048D01*
X205572147Y-54555926D01*
X205541132Y-54658184D01*
X205507792Y-54766438D01*
X205464500Y-54882655D01*
X205442689Y-54933466D01*
X205400184Y-55015159D01*
X205336574Y-55123703D01*
X205258341Y-55249337D01*
X205171968Y-55382299D01*
X205083936Y-55512827D01*
X205000726Y-55631160D01*
X204928820Y-55727535D01*
X204874701Y-55792190D01*
X204867851Y-55799211D01*
X204819920Y-55855326D01*
X204756570Y-55941513D01*
X204687264Y-56044461D01*
X204640651Y-56118750D01*
X204485502Y-56361754D01*
X204335537Y-56569646D01*
X204190143Y-56745540D01*
X204127345Y-56819416D01*
X204048642Y-56915953D01*
X203968122Y-57017783D01*
X203944085Y-57048895D01*
X203880309Y-57127557D01*
X203797511Y-57223160D01*
X203701752Y-57329397D01*
X203599095Y-57439959D01*
X203495600Y-57548540D01*
X203397329Y-57648830D01*
X203310344Y-57734523D01*
X203240705Y-57799311D01*
X203194475Y-57836886D01*
X203180272Y-57843750D01*
X203151443Y-57860493D01*
X203096948Y-57905557D01*
X203025778Y-57971189D01*
X202977283Y-58018750D01*
X202881162Y-58110095D01*
X202805844Y-58166368D01*
X202741089Y-58191718D01*
X202676656Y-58190292D01*
X202607737Y-58168447D01*
X202563039Y-58130197D01*
X202510498Y-58053760D01*
X202454919Y-57949328D01*
X202401108Y-57827090D01*
X202353871Y-57697238D01*
X202318013Y-57569963D01*
X202311483Y-57540199D01*
X202295603Y-57453151D01*
X202285018Y-57366892D01*
X202279312Y-57270745D01*
X202278070Y-57154037D01*
X202280877Y-57006092D01*
X202285371Y-56868750D01*
X202295116Y-56634213D01*
X202306835Y-56435378D01*
X202322188Y-56257947D01*
X202342834Y-56087623D01*
X202370430Y-55910108D01*
X202406637Y-55711105D01*
X202438546Y-55548595D01*
X202472322Y-55373937D01*
X202495382Y-55238125D01*
X202508892Y-55131432D01*
X202514020Y-55044132D01*
X202511931Y-54966501D01*
X202510518Y-54948595D01*
X202507138Y-54817667D01*
X202522984Y-54685321D01*
X202546069Y-54581250D01*
X202576709Y-54459143D01*
X202609133Y-54329723D01*
X202636422Y-54220604D01*
X202636885Y-54218750D01*
X202691884Y-54017707D01*
X202754709Y-53820162D01*
X202820815Y-53638958D01*
X202885655Y-53486939D01*
X202920044Y-53418750D01*
X203024113Y-53220148D01*
X203101060Y-53052339D01*
X203153966Y-52906244D01*
X203185911Y-52772787D01*
X203199977Y-52642890D01*
X203201286Y-52590141D01*
X203209071Y-52480224D01*
X203230035Y-52334596D01*
X203261590Y-52164999D01*
X203301148Y-51983175D01*
X203346120Y-51800867D01*
X203393917Y-51629817D01*
X203441951Y-51481768D01*
X203451247Y-51456250D01*
X203491958Y-51346095D01*
X203525900Y-51252583D01*
X203549395Y-51185963D01*
X203558673Y-51156979D01*
X203536345Y-51147364D01*
X203470151Y-51134908D01*
X203366142Y-51120428D01*
X203230368Y-51104741D01*
X203068879Y-51088663D01*
X203019353Y-51084156D01*
X202834339Y-51067365D01*
X202694036Y-51053129D01*
X202593291Y-51039704D01*
X202526951Y-51025343D01*
X202489864Y-51008301D01*
X202476876Y-50986831D01*
X202482834Y-50959187D01*
X202502587Y-50923624D01*
X202510135Y-50911620D01*
X202532742Y-50865811D01*
X202566534Y-50785099D01*
X202606492Y-50681890D01*
X202638369Y-50594707D01*
X202679685Y-50475046D01*
X202704503Y-50391139D01*
X202714919Y-50332321D01*
X202713026Y-50287923D01*
X202704626Y-50257207D01*
X202694046Y-50218675D01*
X202673654Y-50136209D01*
X202644582Y-50014666D01*
X202607962Y-49858902D01*
X202564927Y-49673774D01*
X202516609Y-49464137D01*
X202464139Y-49234848D01*
X202408652Y-48990763D01*
X202386719Y-48893847D01*
X202331013Y-48647995D01*
X202278455Y-48417183D01*
X202230096Y-48205949D01*
X202186988Y-48018834D01*
X202150182Y-47860376D01*
X202120730Y-47735115D01*
X202099683Y-47647590D01*
X202088093Y-47602340D01*
X202086271Y-47597003D01*
X202080851Y-47594631D01*
X202067125Y-47591344D01*
X202042853Y-47586845D01*
X202005793Y-47580839D01*
X201953706Y-47573030D01*
X201884351Y-47563123D01*
X201795487Y-47550822D01*
X201684874Y-47535832D01*
X201550272Y-47517857D01*
X201389439Y-47496601D01*
X201200136Y-47471770D01*
X200980122Y-47443067D01*
X200727156Y-47410197D01*
X200438997Y-47372864D01*
X200113407Y-47330773D01*
X199748143Y-47283629D01*
X199340965Y-47231136D01*
X198889633Y-47172997D01*
X198391907Y-47108919D01*
X198152637Y-47078123D01*
X195068926Y-46681259D01*
X195003657Y-46561456D01*
X194975925Y-46508134D01*
X194958116Y-46461872D01*
X194948844Y-46410652D01*
X194946722Y-46342457D01*
X194950364Y-46245268D01*
X194955943Y-46147818D01*
X194965506Y-46024048D01*
X194978079Y-45912037D01*
X194991936Y-45825087D01*
X195003716Y-45780116D01*
X195033934Y-45706250D01*
X199736718Y-45543144D01*
X200310356Y-45523277D01*
X200836111Y-45505141D01*
X201316118Y-45488679D01*
X201752511Y-45473835D01*
X202147425Y-45460554D01*
X202502993Y-45448779D01*
X202821351Y-45438456D01*
X203104633Y-45429526D01*
X203354973Y-45421936D01*
X203574506Y-45415629D01*
X203765366Y-45410549D01*
X203929688Y-45406640D01*
X204069606Y-45403846D01*
X204187255Y-45402112D01*
X204284768Y-45401381D01*
X204364282Y-45401598D01*
X204427929Y-45402706D01*
X204477845Y-45404650D01*
X204516163Y-45407374D01*
X204545019Y-45410822D01*
X204566547Y-45414938D01*
X204572583Y-45416481D01*
X204705665Y-45452924D01*
X204697706Y-45547597D01*
X204698454Y-45609176D01*
X204710244Y-45643858D01*
X204714772Y-45646267D01*
X204743312Y-45629371D01*
X204789203Y-45580748D01*
X204844327Y-45511713D01*
X204900570Y-45433581D01*
X204949815Y-45357670D01*
X204983947Y-45295293D01*
X204994849Y-45257768D01*
X204994497Y-45256250D01*
X204973219Y-45236783D01*
X204915500Y-45191131D01*
X204825470Y-45122381D01*
X204707262Y-45033622D01*
X204565006Y-44927944D01*
X204402836Y-44808436D01*
X204224882Y-44678186D01*
X204089323Y-44579504D01*
X203863917Y-44415534D01*
X203675884Y-44277745D01*
X203521985Y-44163098D01*
X203398982Y-44068552D01*
X203303635Y-43991065D01*
X203232707Y-43927598D01*
X203182959Y-43875109D01*
X203151151Y-43830559D01*
X203134046Y-43790906D01*
X203128405Y-43753110D01*
X203130988Y-43714130D01*
X203135971Y-43684433D01*
X203157089Y-43623081D01*
X203201889Y-43562851D01*
X203279689Y-43491647D01*
X203292832Y-43480857D01*
X203400632Y-43402984D01*
X203526053Y-43327762D01*
X203656921Y-43261028D01*
X203781063Y-43208614D01*
X203886305Y-43176355D01*
X203943773Y-43168885D01*
X203990095Y-43166995D01*
X204078383Y-43161575D01*
X204202608Y-43153099D01*
X204356744Y-43142041D01*
X204534765Y-43128875D01*
X204730642Y-43114075D01*
X204938348Y-43098115D01*
X205151858Y-43081468D01*
X205365142Y-43064609D01*
X205572175Y-43048012D01*
X205766930Y-43032150D01*
X205943378Y-43017498D01*
X206095493Y-43004529D01*
X206217248Y-42993718D01*
X206302615Y-42985538D01*
X206345568Y-42980464D01*
X206348928Y-42979751D01*
X206355307Y-42969565D01*
X206360794Y-42941372D01*
X206365435Y-42892149D01*
X206369280Y-42818870D01*
X206372374Y-42718513D01*
X206374766Y-42588054D01*
X206376504Y-42424469D01*
X206377634Y-42224735D01*
X206378204Y-41985827D01*
X206378262Y-41704723D01*
X206377856Y-41378399D01*
X206377426Y-41167144D01*
X206373345Y-39364965D01*
X206455808Y-39202660D01*
X206553371Y-39049459D01*
X206673316Y-38917052D01*
X206761873Y-38841539D01*
X206827799Y-38801075D01*
X206874265Y-38798311D01*
X206904444Y-38835899D01*
X206921506Y-38916491D01*
X206928625Y-39042738D01*
X206929452Y-39131183D01*
X206930120Y-39191468D01*
X206932589Y-39252803D01*
X206937553Y-39319422D01*
X206945708Y-39395557D01*
X206957748Y-39485440D01*
X206974369Y-39593303D01*
X206996265Y-39723380D01*
X207024132Y-39879903D01*
X207058665Y-40067105D01*
X207100558Y-40289217D01*
X207150508Y-40550473D01*
X207209207Y-40855104D01*
X207231402Y-40969933D01*
X207293850Y-41292964D01*
X207347408Y-41570526D01*
X207392710Y-41806237D01*
X207430386Y-42003715D01*
X207461070Y-42166577D01*
X207485394Y-42298441D01*
X207503989Y-42402926D01*
X207517487Y-42483649D01*
X207526521Y-42544228D01*
X207531723Y-42588280D01*
X207533724Y-42619424D01*
X207533158Y-42641278D01*
X207530655Y-42657460D01*
X207528009Y-42667629D01*
X207535365Y-42692008D01*
X207579149Y-42709463D01*
X207646137Y-42720811D01*
X207789103Y-42758225D01*
X207943014Y-42830843D01*
X208092801Y-42931150D01*
X208131685Y-42962948D01*
X208200793Y-43014937D01*
X208245579Y-43030276D01*
X208262674Y-43023702D01*
X208314462Y-42993695D01*
X208400726Y-42955882D01*
X208507521Y-42915115D01*
X208620906Y-42876247D01*
X208726935Y-42844128D01*
X208811667Y-42823613D01*
X208851643Y-42818750D01*
X208897843Y-42816619D01*
X208933680Y-42804950D01*
X208968137Y-42775826D01*
X209010199Y-42721333D01*
X209068849Y-42633554D01*
X209078354Y-42618988D01*
X209151659Y-42512911D01*
X209209166Y-42445526D01*
X209256744Y-42410452D01*
X209276461Y-42403513D01*
X209350786Y-42377229D01*
X209406890Y-42347961D01*
X209543084Y-42270693D01*
X209655406Y-42228844D01*
X209734622Y-42218749D01*
X209796869Y-42226084D01*
X209852380Y-42254139D01*
X209917912Y-42311988D01*
X209930824Y-42325000D01*
X209989668Y-42388605D01*
X210019807Y-42437432D01*
X210029381Y-42490542D01*
X210027546Y-42551471D01*
X210019994Y-42671693D01*
X210237662Y-42676471D01*
X210455330Y-42681250D01*
X210471058Y-42531250D01*
X210475765Y-42481231D01*
X210484214Y-42385869D01*
X210496021Y-42249651D01*
X210510807Y-42077062D01*
X210528192Y-41872592D01*
X210547793Y-41640725D01*
X210569231Y-41385949D01*
X210592124Y-41112751D01*
X210616092Y-40825617D01*
X210630187Y-40656250D01*
X210773589Y-38931250D01*
X210868362Y-38751408D01*
X210938832Y-38631164D01*
X211012357Y-38528826D01*
X211082551Y-38451615D01*
X211143031Y-38406755D01*
X211179899Y-38398967D01*
X211188247Y-38404442D01*
G37*
%TD*%
D11*
%TO.C,D4*%
X150018750Y-75468750D03*
X150018750Y-72168750D03*
%TD*%
%TO.C,D7*%
X212725000Y-75468750D03*
X212725000Y-72168750D03*
%TD*%
D12*
%TO.C,MX3*%
X184150000Y-49212500D03*
D13*
X179070000Y-49212500D03*
X189230000Y-49212500D03*
%TD*%
%TO.C,MX7*%
X209073750Y-73025000D03*
D12*
X203993750Y-73025000D03*
D13*
X198913750Y-73025000D03*
%TD*%
%TO.C,MX5*%
X166211250Y-73025000D03*
X156051250Y-73025000D03*
D12*
X161131250Y-73025000D03*
%TD*%
D13*
%TO.C,MX2*%
X166211250Y-49212500D03*
D12*
X161131250Y-49212500D03*
D13*
X156051250Y-49212500D03*
%TD*%
D12*
%TO.C,MX4*%
X141287500Y-73025000D03*
D13*
X136207500Y-73025000D03*
X146367500Y-73025000D03*
%TD*%
%TO.C,MX6*%
X179070000Y-73025000D03*
X189230000Y-73025000D03*
D12*
X184150000Y-73025000D03*
%TD*%
D11*
%TO.C,D8*%
X192881250Y-94518750D03*
X192881250Y-91218750D03*
%TD*%
%TO.C,D9*%
X212725000Y-94518750D03*
X212725000Y-91218750D03*
%TD*%
%TO.C,D5*%
X169862500Y-75468750D03*
X169862500Y-72168750D03*
%TD*%
%TO.C,D6*%
X192881250Y-75468750D03*
X192881250Y-72168750D03*
%TD*%
D12*
%TO.C,MX9*%
X203993750Y-92075000D03*
D13*
X209073750Y-92075000D03*
X198913750Y-92075000D03*
%TD*%
%TO.C,MX8*%
X189230000Y-92075000D03*
X179070000Y-92075000D03*
D12*
X184150000Y-92075000D03*
%TD*%
D11*
%TO.C,D1*%
X150018750Y-51656250D03*
X150018750Y-48356250D03*
%TD*%
D14*
%TO.C,U1*%
X136048750Y-99695000D03*
D15*
X138588750Y-99695000D03*
X141128750Y-99695000D03*
X143668750Y-99695000D03*
X146208750Y-99695000D03*
X148748750Y-99695000D03*
X151288750Y-99695000D03*
X153828750Y-99695000D03*
X156368750Y-99695000D03*
X158908750Y-99695000D03*
X161448750Y-99695000D03*
X163988750Y-99695000D03*
X163988750Y-84455000D03*
X161448750Y-84455000D03*
X158908750Y-84455000D03*
X156368750Y-84455000D03*
X153828750Y-84455000D03*
X151288750Y-84455000D03*
X148748750Y-84455000D03*
X146208750Y-84455000D03*
X143668750Y-84455000D03*
X141128750Y-84455000D03*
X138588750Y-84455000D03*
X136048750Y-84455000D03*
%TD*%
D11*
%TO.C,D3*%
X192881250Y-51656250D03*
X192881250Y-48356250D03*
%TD*%
D12*
%TO.C,MX10*%
X223837500Y-92075000D03*
D13*
X228917500Y-92075000D03*
X218757500Y-92075000D03*
%TD*%
D11*
%TO.C,D2*%
X169862500Y-51656250D03*
X169862500Y-48356250D03*
%TD*%
D12*
%TO.C,MX1*%
X141287500Y-49212500D03*
D13*
X136207500Y-49212500D03*
X146367500Y-49212500D03*
%TD*%
D16*
%TO.C,D10*%
X221393750Y-83343750D03*
X224693750Y-83343750D03*
%TD*%
D17*
%TO.C,SW1*%
X230978750Y-43681250D03*
D13*
X229768750Y-46181250D03*
X229768750Y-41181250D03*
%TD*%
M02*
