<?xml version="1.0" standalone="no"?>
 <!DOCTYPE svg PUBLIC "-//W3C//DTD SVG 1.1//EN" 
 "http://www.w3.org/Graphics/SVG/1.1/DTD/svg11.dtd"> 
<svg
  xmlns:svg="http://www.w3.org/2000/svg"
  xmlns="http://www.w3.org/2000/svg"
  xmlns:xlink="http://www.w3.org/1999/xlink"
  version="1.1"
  width="29.700220cm" height="21.000720cm" viewBox="0 0 297002200 210007200">
<title>SVG Picture created as F14-DDP-F_Silkscreen.svg date 2022/09/13 17:56:38 </title>
  <desc>Picture generated by PCBNEW </desc>
<g style="fill:#000000; fill-opacity:1.000000;stroke:#000000; stroke-opacity:1.000000;
stroke-linecap:round; stroke-linejoin:round;"
 transform="translate(0 0) scale(1 1)">
</g>
<g style="fill:#000000; fill-opacity:0.0; 
stroke:#000000; stroke-width:0.000000; stroke-opacity:1; 
stroke-linecap:round; stroke-linejoin:round;">
</g>
<g style="fill:#000000; fill-opacity:0.0; 
stroke:#000000; stroke-width:150000.000000; stroke-opacity:1; 
stroke-linecap:round; stroke-linejoin:round;">
<g transform="rotate(-90.000000 148018750.000000 73818750.000000)">
<text x="148018750.000000" y="74318750.000000"
textLength="2102381.000000" font-size="1333333.000000" lengthAdjust="spacingAndGlyphs"
text-anchor="middle" opacity="0">D4</text>
</g>
<g class="stroked-text"><desc>D4</desc>
<path d="M148471130 74556845
L147471130 74556845
L147471130 74318750
L147518750 74175892
L147613988 74080654
L147709226 74033035
L147899702 73985416
L148042559 73985416
L148233035 74033035
L148328273 74080654
L148423511 74175892
L148471130 74318750
L148471130 74556845
" />
<path d="M147804464 73128273
L148471130 73128273
" />
<path d="M147423511 73366369
L148137797 73604464
L148137797 72985416
" />
</g><g transform="rotate(-90.000000 210725000.000000 73818750.000000)">
<text x="210725000.000000" y="74318750.000000"
textLength="2147381.000000" font-size="1333333.000000" lengthAdjust="spacingAndGlyphs"
text-anchor="middle" opacity="0">D7</text>
</g>
<g class="stroked-text"><desc>D7</desc>
<path d="M211177380 74556845
L210177380 74556845
L210177380 74318750
L210225000 74175892
L210320238 74080654
L210415476 74033035
L210605952 73985416
L210748809 73985416
L210939285 74033035
L211034523 74080654
L211129761 74175892
L211177380 74318750
L211177380 74556845
" />
<path d="M210177380 73652083
L210177380 72985416
L211177380 73413988
" />
</g><g transform="rotate(-90.000000 190881250.000000 92868750.000000)">
<text x="190881250.000000" y="93368750.000000"
textLength="2147381.000000" font-size="1333333.000000" lengthAdjust="spacingAndGlyphs"
text-anchor="middle" opacity="0">D8</text>
</g>
<g class="stroked-text"><desc>D8</desc>
<path d="M191333630 93606845
L190333630 93606845
L190333630 93368750
L190381250 93225892
L190476488 93130654
L190571726 93083035
L190762202 93035416
L190905059 93035416
L191095535 93083035
L191190773 93130654
L191286011 93225892
L191333630 93368750
L191333630 93606845
" />
<path d="M190762202 92463988
L190714583 92559226
L190666964 92606845
L190571726 92654464
L190524107 92654464
L190428869 92606845
L190381250 92559226
L190333630 92463988
L190333630 92273511
L190381250 92178273
L190428869 92130654
L190524107 92083035
L190571726 92083035
L190666964 92130654
L190714583 92178273
L190762202 92273511
L190762202 92463988
L190809821 92559226
L190857440 92606845
L190952678 92654464
L191143154 92654464
L191238392 92606845
L191286011 92559226
L191333630 92463988
L191333630 92273511
L191286011 92178273
L191238392 92130654
L191143154 92083035
L190952678 92083035
L190857440 92130654
L190809821 92178273
L190762202 92273511
" />
</g><g transform="rotate(-90.000000 210725000.000000 92868750.000000)">
<text x="210725000.000000" y="93368750.000000"
textLength="2147381.000000" font-size="1333333.000000" lengthAdjust="spacingAndGlyphs"
text-anchor="middle" opacity="0">D9</text>
</g>
<g class="stroked-text"><desc>D9</desc>
<path d="M211177380 93606845
L210177380 93606845
L210177380 93368750
L210225000 93225892
L210320238 93130654
L210415476 93083035
L210605952 93035416
L210748809 93035416
L210939285 93083035
L211034523 93130654
L211129761 93225892
L211177380 93368750
L211177380 93606845
" />
<path d="M211177380 92559226
L211177380 92368750
L211129761 92273511
L211082142 92225892
L210939285 92130654
L210748809 92083035
L210367857 92083035
L210272619 92130654
L210225000 92178273
L210177380 92273511
L210177380 92463988
L210225000 92559226
L210272619 92606845
L210367857 92654464
L210605952 92654464
L210701190 92606845
L210748809 92559226
L210796428 92463988
L210796428 92273511
L210748809 92178273
L210701190 92130654
L210605952 92083035
" />
</g><g transform="rotate(-90.000000 167862500.000000 73818750.000000)">
<text x="167862500.000000" y="74318750.000000"
textLength="2147381.000000" font-size="1333333.000000" lengthAdjust="spacingAndGlyphs"
text-anchor="middle" opacity="0">D5</text>
</g>
<g class="stroked-text"><desc>D5</desc>
<path d="M168314880 74556845
L167314880 74556845
L167314880 74318750
L167362500 74175892
L167457738 74080654
L167552976 74033035
L167743452 73985416
L167886309 73985416
L168076785 74033035
L168172023 74080654
L168267261 74175892
L168314880 74318750
L168314880 74556845
" />
<path d="M167314880 73080654
L167314880 73556845
L167791071 73604464
L167743452 73556845
L167695833 73461607
L167695833 73223511
L167743452 73128273
L167791071 73080654
L167886309 73033035
L168124404 73033035
L168219642 73080654
L168267261 73128273
L168314880 73223511
L168314880 73461607
L168267261 73556845
L168219642 73604464
" />
</g><g transform="rotate(-90.000000 190881250.000000 73818750.000000)">
<text x="190881250.000000" y="74318750.000000"
textLength="2147381.000000" font-size="1333333.000000" lengthAdjust="spacingAndGlyphs"
text-anchor="middle" opacity="0">D6</text>
</g>
<g class="stroked-text"><desc>D6</desc>
<path d="M191333630 74556845
L190333630 74556845
L190333630 74318750
L190381250 74175892
L190476488 74080654
L190571726 74033035
L190762202 73985416
L190905059 73985416
L191095535 74033035
L191190773 74080654
L191286011 74175892
L191333630 74318750
L191333630 74556845
" />
<path d="M190333630 73128273
L190333630 73318750
L190381250 73413988
L190428869 73461607
L190571726 73556845
L190762202 73604464
L191143154 73604464
L191238392 73556845
L191286011 73509226
L191333630 73413988
L191333630 73223511
L191286011 73128273
L191238392 73080654
L191143154 73033035
L190905059 73033035
L190809821 73080654
L190762202 73128273
L190714583 73223511
L190714583 73413988
L190762202 73509226
L190809821 73556845
L190905059 73604464
" />
</g><g transform="rotate(-90.000000 148018750.000000 50006250.000000)">
<text x="148018750.000000" y="50506250.000000"
textLength="2147381.000000" font-size="1333333.000000" lengthAdjust="spacingAndGlyphs"
text-anchor="middle" opacity="0">D1</text>
</g>
<g class="stroked-text"><desc>D1</desc>
<path d="M148471130 50744345
L147471130 50744345
L147471130 50506250
L147518750 50363392
L147613988 50268154
L147709226 50220535
L147899702 50172916
L148042559 50172916
L148233035 50220535
L148328273 50268154
L148423511 50363392
L148471130 50506250
L148471130 50744345
" />
<path d="M148471130 49220535
L148471130 49791964
" />
<path d="M148471130 49506250
L147471130 49506250
L147613988 49601488
L147709226 49696726
L147756845 49791964
" />
</g><g transform="rotate(-90.000000 161448750.000000 97536000.000000)">
<text x="161448750.000000" y="97936000.000000"
textLength="1756905.000000" font-size="1066666.000000" lengthAdjust="spacingAndGlyphs"
text-anchor="middle" opacity="0">B4</text>
</g>
<g class="stroked-text"><desc>B4</desc>
<path d="M161391607 97859809
L161429702 97745523
L161467797 97707428
L161543988 97669333
L161658273 97669333
L161734464 97707428
L161772559 97745523
L161810654 97821714
L161810654 98126476
L161010654 98126476
L161010654 97859809
L161048750 97783619
L161086845 97745523
L161163035 97707428
L161239226 97707428
L161315416 97745523
L161353511 97783619
L161391607 97859809
L161391607 98126476
" />
<path d="M161277321 96983619
L161810654 96983619
" />
<path d="M160972559 97174095
L161543988 97364571
L161543988 96869333
" />
</g><g transform="rotate(-90.000000 143668750.000000 97536000.000000)">
<text x="143668750.000000" y="97936000.000000"
textLength="2633095.000000" font-size="1066666.000000" lengthAdjust="spacingAndGlyphs"
text-anchor="middle" opacity="0">GND</text>
</g>
<g class="stroked-text"><desc>GND</desc>
<path d="M143268750 98145523
L143230654 98221714
L143230654 98336000
L143268750 98450285
L143344940 98526476
L143421130 98564571
L143573511 98602666
L143687797 98602666
L143840178 98564571
L143916369 98526476
L143992559 98450285
L144030654 98336000
L144030654 98259809
L143992559 98145523
L143954464 98107428
L143687797 98107428
L143687797 98259809
" />
<path d="M144030654 97764571
L143230654 97764571
L144030654 97307428
L143230654 97307428
" />
<path d="M144030654 96926476
L143230654 96926476
L143230654 96736000
L143268750 96621714
L143344940 96545523
L143421130 96507428
L143573511 96469333
L143687797 96469333
L143840178 96507428
L143916369 96545523
L143992559 96621714
L144030654 96736000
L144030654 96926476
" />
</g><g transform="rotate(-90.000000 136048750.000000 95646872.000000)">
<text x="136048750.000000" y="96046872.000000"
textLength="4728333.000000" font-size="1066666.000000" lengthAdjust="spacingAndGlyphs"
text-anchor="middle" opacity="0">TX0/D3</text>
</g>
<g class="stroked-text"><desc>TX0/D3</desc>
<path d="M135610654 97837348
L135610654 97380205
" />
<path d="M136410654 97608776
L135610654 97608776
" />
<path d="M135610654 97189729
L136410654 96656395
" />
<path d="M135610654 96656395
L136410654 97189729
" />
<path d="M135610654 96199252
L135610654 96123062
L135648750 96046872
L135686845 96008776
L135763035 95970681
L135915416 95932586
L136105892 95932586
L136258273 95970681
L136334464 96008776
L136372559 96046872
L136410654 96123062
L136410654 96199252
L136372559 96275443
L136334464 96313538
L136258273 96351633
L136105892 96389729
L135915416 96389729
L135763035 96351633
L135686845 96313538
L135648750 96275443
L135610654 96199252
" />
<path d="M135572559 95018300
L136601130 95704014
" />
<path d="M136410654 94751633
L135610654 94751633
L135610654 94561157
L135648750 94446872
L135724940 94370681
L135801130 94332586
L135953511 94294491
L136067797 94294491
L136220178 94332586
L136296369 94370681
L136372559 94446872
L136410654 94561157
L136410654 94751633
" />
<path d="M135610654 94027824
L135610654 93532586
L135915416 93799252
L135915416 93684967
L135953511 93608776
L135991607 93570681
L136067797 93532586
L136258273 93532586
L136334464 93570681
L136372559 93608776
L136410654 93684967
L136410654 93913538
L136372559 93989729
L136334464 94027824
" />
</g><g transform="rotate(-90.000000 141098750.000000 86341880.000000)">
<text x="141098750.000000" y="86741880.000000"
textLength="1566429.000000" font-size="1066666.000000" lengthAdjust="spacingAndGlyphs"
text-anchor="middle" opacity="0">ST</text>
</g>
<g class="stroked-text"><desc>ST</desc>
<path d="M141422559 86875213
L141460654 86760927
L141460654 86570451
L141422559 86494260
L141384464 86456165
L141308273 86418070
L141232083 86418070
L141155892 86456165
L141117797 86494260
L141079702 86570451
L141041607 86722832
L141003511 86799022
L140965416 86837118
L140889226 86875213
L140813035 86875213
L140736845 86837118
L140698750 86799022
L140660654 86722832
L140660654 86532356
L140698750 86418070
" />
<path d="M140660654 86189499
L140660654 85732356
" />
<path d="M141460654 85960927
L140660654 85960927
" />
</g><g transform="rotate(-90.000000 151288750.000000 97536000.000000)">
<text x="151288750.000000" y="97936000.000000"
textLength="1756905.000000" font-size="1066666.000000" lengthAdjust="spacingAndGlyphs"
text-anchor="middle" opacity="0">D4</text>
</g>
<g class="stroked-text"><desc>D4</desc>
<path d="M151650654 98126476
L150850654 98126476
L150850654 97936000
L150888750 97821714
L150964940 97745523
L151041130 97707428
L151193511 97669333
L151307797 97669333
L151460178 97707428
L151536369 97745523
L151612559 97821714
L151650654 97936000
L151650654 98126476
" />
<path d="M151117321 96983619
L151650654 96983619
" />
<path d="M150812559 97174095
L151383988 97364571
L151383988 96869333
" />
</g><g transform="rotate(-90.000000 158908750.000000 97536000.000000)">
<text x="158908750.000000" y="97936000.000000"
textLength="1680714.000000" font-size="1066666.000000" lengthAdjust="spacingAndGlyphs"
text-anchor="middle" opacity="0">E6</text>
</g>
<g class="stroked-text"><desc>E6</desc>
<path d="M158851607 98088380
L158851607 97821714
" />
<path d="M159270654 97707428
L159270654 98088380
L158470654 98088380
L158470654 97707428
" />
<path d="M158470654 97021714
L158470654 97174095
L158508750 97250285
L158546845 97288380
L158661130 97364571
L158813511 97402666
L159118273 97402666
L159194464 97364571
L159232559 97326476
L159270654 97250285
L159270654 97097904
L159232559 97021714
L159194464 96983619
L159118273 96945523
L158927797 96945523
L158851607 96983619
L158813511 97021714
L158775416 97097904
L158775416 97250285
L158813511 97326476
L158851607 97364571
L158927797 97402666
" />
</g><g transform="rotate(-90.000000 136048750.000000 86614000.000000)">
<text x="136048750.000000" y="87014000.000000"
textLength="2595000.000000" font-size="1066666.000000" lengthAdjust="spacingAndGlyphs"
text-anchor="middle" opacity="0">RAW</text>
</g>
<g class="stroked-text"><desc>RAW</desc>
<path d="M136410654 87166380
L136029702 87433047
" />
<path d="M136410654 87623523
L135610654 87623523
L135610654 87318761
L135648750 87242571
L135686845 87204476
L135763035 87166380
L135877321 87166380
L135953511 87204476
L135991607 87242571
L136029702 87318761
L136029702 87623523
" />
<path d="M136182083 86861619
L136182083 86480666
" />
<path d="M136410654 86937809
L135610654 86671142
L136410654 86404476
" />
<path d="M135610654 86214000
L136410654 86023523
L135839226 85871142
L136410654 85718761
L135610654 85528285
" />
</g><g transform="rotate(-90.000000 161448750.000000 86614000.000000)">
<text x="161448750.000000" y="87014000.000000"
textLength="1756905.000000" font-size="1066666.000000" lengthAdjust="spacingAndGlyphs"
text-anchor="middle" opacity="0">B2</text>
</g>
<g class="stroked-text"><desc>B2</desc>
<path d="M161391607 86937809
L161429702 86823523
L161467797 86785428
L161543988 86747333
L161658273 86747333
L161734464 86785428
L161772559 86823523
L161810654 86899714
L161810654 87204476
L161010654 87204476
L161010654 86937809
L161048750 86861619
L161086845 86823523
L161163035 86785428
L161239226 86785428
L161315416 86823523
L161353511 86861619
L161391607 86937809
L161391607 87204476
" />
<path d="M161086845 86442571
L161048750 86404476
L161010654 86328285
L161010654 86137809
L161048750 86061619
L161086845 86023523
L161163035 85985428
L161239226 85985428
L161353511 86023523
L161810654 86480666
L161810654 85985428
" />
</g><g transform="rotate(-90.000000 163988750.000000 86614000.000000)">
<text x="163988750.000000" y="87014000.000000"
textLength="1756905.000000" font-size="1066666.000000" lengthAdjust="spacingAndGlyphs"
text-anchor="middle" opacity="0">B6</text>
</g>
<g class="stroked-text"><desc>B6</desc>
<path d="M163931607 86937809
L163969702 86823523
L164007797 86785428
L164083988 86747333
L164198273 86747333
L164274464 86785428
L164312559 86823523
L164350654 86899714
L164350654 87204476
L163550654 87204476
L163550654 86937809
L163588750 86861619
L163626845 86823523
L163703035 86785428
L163779226 86785428
L163855416 86823523
L163893511 86861619
L163931607 86937809
L163931607 87204476
" />
<path d="M163550654 86061619
L163550654 86214000
L163588750 86290190
L163626845 86328285
L163741130 86404476
L163893511 86442571
L164198273 86442571
L164274464 86404476
L164312559 86366380
L164350654 86290190
L164350654 86137809
L164312559 86061619
L164274464 86023523
L164198273 85985428
L164007797 85985428
L163931607 86023523
L163893511 86061619
L163855416 86137809
L163855416 86290190
L163893511 86366380
L163931607 86404476
L164007797 86442571
" />
</g><g transform="rotate(-90.000000 151288750.000000 86614000.000000)">
<text x="151288750.000000" y="87014000.000000"
textLength="1642619.000000" font-size="1066666.000000" lengthAdjust="spacingAndGlyphs"
text-anchor="middle" opacity="0">F6</text>
</g>
<g class="stroked-text"><desc>F6</desc>
<path d="M151231607 86880666
L151231607 87147333
" />
<path d="M151650654 87147333
L150850654 87147333
L150850654 86766380
" />
<path d="M150850654 86118761
L150850654 86271142
L150888750 86347333
L150926845 86385428
L151041130 86461619
L151193511 86499714
L151498273 86499714
L151574464 86461619
L151612559 86423523
L151650654 86347333
L151650654 86194952
L151612559 86118761
L151574464 86080666
L151498273 86042571
L151307797 86042571
L151231607 86080666
L151193511 86118761
L151155416 86194952
L151155416 86347333
L151193511 86423523
L151231607 86461619
L151307797 86499714
" />
</g><g transform="rotate(-90.000000 153828750.000000 86614000.000000)">
<text x="153828750.000000" y="87014000.000000"
textLength="1642619.000000" font-size="1066666.000000" lengthAdjust="spacingAndGlyphs"
text-anchor="middle" opacity="0">F7</text>
</g>
<g class="stroked-text"><desc>F7</desc>
<path d="M153771607 86880666
L153771607 87147333
" />
<path d="M154190654 87147333
L153390654 87147333
L153390654 86766380
" />
<path d="M153390654 86537809
L153390654 86004476
L154190654 86347333
" />
</g><g transform="rotate(-90.000000 138588750.000000 97536000.000000)">
<text x="138588750.000000" y="97936000.000000"
textLength="1756905.000000" font-size="1066666.000000" lengthAdjust="spacingAndGlyphs"
text-anchor="middle" opacity="0">D2</text>
</g>
<g class="stroked-text"><desc>D2</desc>
<path d="M138950654 98126476
L138150654 98126476
L138150654 97936000
L138188750 97821714
L138264940 97745523
L138341130 97707428
L138493511 97669333
L138607797 97669333
L138760178 97707428
L138836369 97745523
L138912559 97821714
L138950654 97936000
L138950654 98126476
" />
<path d="M138226845 97364571
L138188750 97326476
L138150654 97250285
L138150654 97059809
L138188750 96983619
L138226845 96945523
L138303035 96907428
L138379226 96907428
L138493511 96945523
L138950654 97402666
L138950654 96907428
" />
</g><g transform="rotate(-90.000000 153828750.000000 97536000.000000)">
<text x="153828750.000000" y="97936000.000000"
textLength="1756905.000000" font-size="1066666.000000" lengthAdjust="spacingAndGlyphs"
text-anchor="middle" opacity="0">C6</text>
</g>
<g class="stroked-text"><desc>C6</desc>
<path d="M154114464 97669333
L154152559 97707428
L154190654 97821714
L154190654 97897904
L154152559 98012190
L154076369 98088380
L154000178 98126476
L153847797 98164571
L153733511 98164571
L153581130 98126476
L153504940 98088380
L153428750 98012190
L153390654 97897904
L153390654 97821714
L153428750 97707428
L153466845 97669333
" />
<path d="M153390654 96983619
L153390654 97136000
L153428750 97212190
L153466845 97250285
L153581130 97326476
L153733511 97364571
L154038273 97364571
L154114464 97326476
L154152559 97288380
L154190654 97212190
L154190654 97059809
L154152559 96983619
L154114464 96945523
L154038273 96907428
L153847797 96907428
L153771607 96945523
L153733511 96983619
L153695416 97059809
L153695416 97212190
L153733511 97288380
L153771607 97326476
L153847797 97364571
" />
</g><g transform="rotate(-90.000000 156368750.000000 97536000.000000)">
<text x="156368750.000000" y="97936000.000000"
textLength="1756905.000000" font-size="1066666.000000" lengthAdjust="spacingAndGlyphs"
text-anchor="middle" opacity="0">D7</text>
</g>
<g class="stroked-text"><desc>D7</desc>
<path d="M156730654 98126476
L155930654 98126476
L155930654 97936000
L155968750 97821714
L156044940 97745523
L156121130 97707428
L156273511 97669333
L156387797 97669333
L156540178 97707428
L156616369 97745523
L156692559 97821714
L156730654 97936000
L156730654 98126476
" />
<path d="M155930654 97402666
L155930654 96869333
L156730654 97212190
" />
</g><g transform="rotate(-90.000000 163988750.000000 97536000.000000)">
<text x="163988750.000000" y="97936000.000000"
textLength="1756905.000000" font-size="1066666.000000" lengthAdjust="spacingAndGlyphs"
text-anchor="middle" opacity="0">B5</text>
</g>
<g class="stroked-text"><desc>B5</desc>
<path d="M163931607 97859809
L163969702 97745523
L164007797 97707428
L164083988 97669333
L164198273 97669333
L164274464 97707428
L164312559 97745523
L164350654 97821714
L164350654 98126476
L163550654 98126476
L163550654 97859809
L163588750 97783619
L163626845 97745523
L163703035 97707428
L163779226 97707428
L163855416 97745523
L163893511 97783619
L163931607 97859809
L163931607 98126476
" />
<path d="M163550654 96945523
L163550654 97326476
L163931607 97364571
L163893511 97326476
L163855416 97250285
L163855416 97059809
L163893511 96983619
L163931607 96945523
L164007797 96907428
L164198273 96907428
L164274464 96945523
L164312559 96983619
L164350654 97059809
L164350654 97250285
L164312559 97326476
L164274464 97364571
" />
</g><g transform="rotate(-90.000000 158908750.000000 86614000.000000)">
<text x="158908750.000000" y="87014000.000000"
textLength="1756905.000000" font-size="1066666.000000" lengthAdjust="spacingAndGlyphs"
text-anchor="middle" opacity="0">B3</text>
</g>
<g class="stroked-text"><desc>B3</desc>
<path d="M158851607 86937809
L158889702 86823523
L158927797 86785428
L159003988 86747333
L159118273 86747333
L159194464 86785428
L159232559 86823523
L159270654 86899714
L159270654 87204476
L158470654 87204476
L158470654 86937809
L158508750 86861619
L158546845 86823523
L158623035 86785428
L158699226 86785428
L158775416 86823523
L158813511 86861619
L158851607 86937809
L158851607 87204476
" />
<path d="M158470654 86480666
L158470654 85985428
L158775416 86252095
L158775416 86137809
L158813511 86061619
L158851607 86023523
L158927797 85985428
L159118273 85985428
L159194464 86023523
L159232559 86061619
L159270654 86137809
L159270654 86366380
L159232559 86442571
L159194464 86480666
" />
</g><g transform="rotate(-90.000000 138588750.000000 86614000.000000)">
<text x="138588750.000000" y="87014000.000000"
textLength="2633095.000000" font-size="1066666.000000" lengthAdjust="spacingAndGlyphs"
text-anchor="middle" opacity="0">GND</text>
</g>
<g class="stroked-text"><desc>GND</desc>
<path d="M138188750 87223523
L138150654 87299714
L138150654 87414000
L138188750 87528285
L138264940 87604476
L138341130 87642571
L138493511 87680666
L138607797 87680666
L138760178 87642571
L138836369 87604476
L138912559 87528285
L138950654 87414000
L138950654 87337809
L138912559 87223523
L138874464 87185428
L138607797 87185428
L138607797 87337809
" />
<path d="M138950654 86842571
L138150654 86842571
L138950654 86385428
L138150654 86385428
" />
<path d="M138950654 86004476
L138150654 86004476
L138150654 85814000
L138188750 85699714
L138264940 85623523
L138341130 85585428
L138493511 85547333
L138607797 85547333
L138760178 85585428
L138836369 85623523
L138912559 85699714
L138950654 85814000
L138950654 86004476
" />
</g><g transform="rotate(-90.000000 143668750.000000 86614000.000000)">
<text x="143668750.000000" y="87014000.000000"
textLength="2480714.000000" font-size="1066666.000000" lengthAdjust="spacingAndGlyphs"
text-anchor="middle" opacity="0">VCC</text>
</g>
<g class="stroked-text"><desc>VCC</desc>
<path d="M143230654 87680666
L144030654 87414000
L143230654 87147333
" />
<path d="M143954464 86423523
L143992559 86461619
L144030654 86575904
L144030654 86652095
L143992559 86766380
L143916369 86842571
L143840178 86880666
L143687797 86918761
L143573511 86918761
L143421130 86880666
L143344940 86842571
L143268750 86766380
L143230654 86652095
L143230654 86575904
L143268750 86461619
L143306845 86423523
" />
<path d="M143954464 85623523
L143992559 85661619
L144030654 85775904
L144030654 85852095
L143992559 85966380
L143916369 86042571
L143840178 86080666
L143687797 86118761
L143573511 86118761
L143421130 86080666
L143344940 86042571
L143268750 85966380
L143230654 85852095
L143230654 85775904
L143268750 85661619
L143306845 85623523
" />
</g><g transform="rotate(-90.000000 146208750.000000 88106250.000000)">
<text x="146208750.000000" y="88506250.000000"
textLength="1642619.000000" font-size="1066666.000000" lengthAdjust="spacingAndGlyphs"
text-anchor="middle" opacity="0">F4</text>
</g>
<g class="stroked-text"><desc>F4</desc>
<path d="M146151607 88372916
L146151607 88639583
" />
<path d="M146570654 88639583
L145770654 88639583
L145770654 88258630
" />
<path d="M146037321 87611011
L146570654 87611011
" />
<path d="M145732559 87801488
L146303988 87991964
L146303988 87496726
" />
</g><g transform="rotate(-90.000000 141128750.000000 97536000.000000)">
<text x="141128750.000000" y="97936000.000000"
textLength="2633095.000000" font-size="1066666.000000" lengthAdjust="spacingAndGlyphs"
text-anchor="middle" opacity="0">GND</text>
</g>
<g class="stroked-text"><desc>GND</desc>
<path d="M140728750 98145523
L140690654 98221714
L140690654 98336000
L140728750 98450285
L140804940 98526476
L140881130 98564571
L141033511 98602666
L141147797 98602666
L141300178 98564571
L141376369 98526476
L141452559 98450285
L141490654 98336000
L141490654 98259809
L141452559 98145523
L141414464 98107428
L141147797 98107428
L141147797 98259809
" />
<path d="M141490654 97764571
L140690654 97764571
L141490654 97307428
L140690654 97307428
" />
<path d="M141490654 96926476
L140690654 96926476
L140690654 96736000
L140728750 96621714
L140804940 96545523
L140881130 96507428
L141033511 96469333
L141147797 96469333
L141300178 96507428
L141376369 96545523
L141452559 96621714
L141490654 96736000
L141490654 96926476
" />
</g><g transform="rotate(-90.000000 148748750.000000 86614000.000000)">
<text x="148748750.000000" y="87014000.000000"
textLength="1642619.000000" font-size="1066666.000000" lengthAdjust="spacingAndGlyphs"
text-anchor="middle" opacity="0">F5</text>
</g>
<g class="stroked-text"><desc>F5</desc>
<path d="M148691607 86880666
L148691607 87147333
" />
<path d="M149110654 87147333
L148310654 87147333
L148310654 86766380
" />
<path d="M148310654 86080666
L148310654 86461619
L148691607 86499714
L148653511 86461619
L148615416 86385428
L148615416 86194952
L148653511 86118761
L148691607 86080666
L148767797 86042571
L148958273 86042571
L149034464 86080666
L149072559 86118761
L149110654 86194952
L149110654 86385428
L149072559 86461619
L149034464 86499714
" />
</g><g transform="rotate(-90.000000 148748750.000000 97536000.000000)">
<text x="148748750.000000" y="97936000.000000"
textLength="1756905.000000" font-size="1066666.000000" lengthAdjust="spacingAndGlyphs"
text-anchor="middle" opacity="0">D0</text>
</g>
<g class="stroked-text"><desc>D0</desc>
<path d="M149110654 98126476
L148310654 98126476
L148310654 97936000
L148348750 97821714
L148424940 97745523
L148501130 97707428
L148653511 97669333
L148767797 97669333
L148920178 97707428
L148996369 97745523
L149072559 97821714
L149110654 97936000
L149110654 98126476
" />
<path d="M148310654 97174095
L148310654 97097904
L148348750 97021714
L148386845 96983619
L148463035 96945523
L148615416 96907428
L148805892 96907428
L148958273 96945523
L149034464 96983619
L149072559 97021714
L149110654 97097904
L149110654 97174095
L149072559 97250285
L149034464 97288380
L148958273 97326476
L148805892 97364571
L148615416 97364571
L148463035 97326476
L148386845 97288380
L148348750 97250285
L148310654 97174095
" />
</g><g transform="rotate(-90.000000 146208750.000000 97536000.000000)">
<text x="146208750.000000" y="97936000.000000"
textLength="1756905.000000" font-size="1066666.000000" lengthAdjust="spacingAndGlyphs"
text-anchor="middle" opacity="0">D1</text>
</g>
<g class="stroked-text"><desc>D1</desc>
<path d="M146570654 98126476
L145770654 98126476
L145770654 97936000
L145808750 97821714
L145884940 97745523
L145961130 97707428
L146113511 97669333
L146227797 97669333
L146380178 97707428
L146456369 97745523
L146532559 97821714
L146570654 97936000
L146570654 98126476
" />
<path d="M146570654 96907428
L146570654 97364571
" />
<path d="M146570654 97136000
L145770654 97136000
L145884940 97212190
L145961130 97288380
L145999226 97364571
" />
</g><g transform="rotate(-90.000000 156368750.000000 86614000.000000)">
<text x="156368750.000000" y="87014000.000000"
textLength="1756905.000000" font-size="1066666.000000" lengthAdjust="spacingAndGlyphs"
text-anchor="middle" opacity="0">B1</text>
</g>
<g class="stroked-text"><desc>B1</desc>
<path d="M156311607 86937809
L156349702 86823523
L156387797 86785428
L156463988 86747333
L156578273 86747333
L156654464 86785428
L156692559 86823523
L156730654 86899714
L156730654 87204476
L155930654 87204476
L155930654 86937809
L155968750 86861619
L156006845 86823523
L156083035 86785428
L156159226 86785428
L156235416 86823523
L156273511 86861619
L156311607 86937809
L156311607 87204476
" />
<path d="M156730654 85985428
L156730654 86442571
" />
<path d="M156730654 86214000
L155930654 86214000
L156044940 86290190
L156121130 86366380
L156159226 86442571
" />
</g><g transform="rotate(-90.000000 190881250.000000 50006250.000000)">
<text x="190881250.000000" y="50506250.000000"
textLength="2147381.000000" font-size="1333333.000000" lengthAdjust="spacingAndGlyphs"
text-anchor="middle" opacity="0">D3</text>
</g>
<g class="stroked-text"><desc>D3</desc>
<path d="M191333630 50744345
L190333630 50744345
L190333630 50506250
L190381250 50363392
L190476488 50268154
L190571726 50220535
L190762202 50172916
L190905059 50172916
L191095535 50220535
L191190773 50268154
L191286011 50363392
L191333630 50506250
L191333630 50744345
" />
<path d="M190333630 49839583
L190333630 49220535
L190714583 49553869
L190714583 49411011
L190762202 49315773
L190809821 49268154
L190905059 49220535
L191143154 49220535
L191238392 49268154
L191286011 49315773
L191333630 49411011
L191333630 49696726
L191286011 49791964
L191238392 49839583
" />
</g><g transform="rotate(-90.000000 167862500.000000 50006250.000000)">
<text x="167862500.000000" y="50506250.000000"
textLength="2147381.000000" font-size="1333333.000000" lengthAdjust="spacingAndGlyphs"
text-anchor="middle" opacity="0">D2</text>
</g>
<g class="stroked-text"><desc>D2</desc>
<path d="M168314880 50744345
L167314880 50744345
L167314880 50506250
L167362500 50363392
L167457738 50268154
L167552976 50220535
L167743452 50172916
L167886309 50172916
L168076785 50220535
L168172023 50268154
L168267261 50363392
L168314880 50506250
L168314880 50744345
" />
<path d="M167410119 49791964
L167362500 49744345
L167314880 49649107
L167314880 49411011
L167362500 49315773
L167410119 49268154
L167505357 49220535
L167600595 49220535
L167743452 49268154
L168314880 49839583
L168314880 49220535
" />
</g><text x="223043750.000000" y="81843750.000000"
textLength="3099762.000000" font-size="1333333.000000" lengthAdjust="spacingAndGlyphs"
text-anchor="middle" opacity="0">D10</text>
<g class="stroked-text"><desc>D10</desc>
<path d="M221829464 81796130
L221829464 80796130
L222067559 80796130
L222210416 80843750
L222305654 80938988
L222353273 81034226
L222400892 81224702
L222400892 81367559
L222353273 81558035
L222305654 81653273
L222210416 81748511
L222067559 81796130
L221829464 81796130
" />
<path d="M223353273 81796130
L222781845 81796130
" />
<path d="M223067559 81796130
L223067559 80796130
L222972321 80938988
L222877083 81034226
L222781845 81081845
" />
<path d="M223972321 80796130
L224067559 80796130
L224162797 80843750
L224210416 80891369
L224258035 80986607
L224305654 81177083
L224305654 81415178
L224258035 81605654
L224210416 81700892
L224162797 81748511
L224067559 81796130
L223972321 81796130
L223877083 81748511
L223829464 81700892
L223781845 81605654
L223734226 81415178
L223734226 81177083
L223781845 80986607
L223829464 80891369
L223877083 80843750
L223972321 80796130
" />
</g></g>
<g style="fill:#000000; fill-opacity:0.0; 
stroke:#000000; stroke-width:120000.000000; stroke-opacity:1; 
stroke-linecap:round; stroke-linejoin:round;">
<path d="M149018750 76068750
L149018750 72168750
" />
<path d="M149018750 76068750
L151018750 76068750
" />
<path d="M151018750 76068750
L151018750 72168750
" />
<path d="M211725000 76068750
L213725000 76068750
" />
<path d="M213725000 76068750
L213725000 72168750
" />
<path d="M211725000 76068750
L211725000 72168750
" />
<path d="M191881250 95118750
L191881250 91218750
" />
<path d="M193881250 95118750
L193881250 91218750
" />
<path d="M191881250 95118750
L193881250 95118750
" />
<path d="M211725000 95118750
L211725000 91218750
" />
<path d="M213725000 95118750
L213725000 91218750
" />
<path d="M211725000 95118750
L213725000 95118750
" />
<path d="M168862500 76068750
L168862500 72168750
" />
<path d="M170862500 76068750
L170862500 72168750
" />
<path d="M168862500 76068750
L170862500 76068750
" />
<path d="M191881250 76068750
L191881250 72168750
" />
<path d="M193881250 76068750
L193881250 72168750
" />
<path d="M191881250 76068750
L193881250 76068750
" />
<path d="M151018750 52256250
L151018750 48356250
" />
<path d="M149018750 52256250
L149018750 48356250
" />
<path d="M149018750 52256250
L151018750 52256250
" />
</g>
<g style="fill:#000000; fill-opacity:0.0; 
stroke:#000000; stroke-width:381000.000000; stroke-opacity:1; 
stroke-linecap:round; stroke-linejoin:round;">
<path d="M134778750 98425000
L137318750 98425000
" />
<path d="M137318750 98425000
L137318750 100965000
" />
<path d="M165258750 100965000
L165258750 83185000
" />
<path d="M132238750 83185000
L132238750 100965000
" />
<path d="M134778750 100965000
L165258750 100965000
" />
<path d="M165258750 83185000
L134778750 83185000
" />
<path d="M134778750 83185000
L132238750 83185000
" />
<path d="M134778750 98425000
L134778750 100965000
" />
<path d="M132238750 100965000
L134778750 100965000
" />
</g>
<g style="fill:#000000; fill-opacity:1.0; 
stroke:#000000; stroke-width:150000.000000; stroke-opacity:1; 
stroke-linecap:round; stroke-linejoin:round;">
<path style="fill:#000000; fill-opacity:1.0; 
stroke:#000000; stroke-width:150000.000000; stroke-opacity:1; 
stroke-linecap:round; stroke-linejoin:round;fill-rule:evenodd;"
d="M 141458110.000000,87243432.000000
141258110.000000,87243432.000000
141258110.000000,87143432.000000
141458110.000000,87143432.000000
Z" /> 
<path style="fill:#000000; fill-opacity:1.0; 
stroke:#000000; stroke-width:150000.000000; stroke-opacity:1; 
stroke-linecap:round; stroke-linejoin:round;fill-rule:evenodd;"
d="M 141158110.000000,87443432.000000
141058110.000000,87443432.000000
141058110.000000,87343432.000000
141158110.000000,87343432.000000
Z" /> 
<path style="fill:#000000; fill-opacity:1.0; 
stroke:#000000; stroke-width:150000.000000; stroke-opacity:1; 
stroke-linecap:round; stroke-linejoin:round;fill-rule:evenodd;"
d="M 141458110.000000,87643432.000000
140658110.000000,87643432.000000
140658110.000000,87543432.000000
141458110.000000,87543432.000000
Z" /> 
<path style="fill:#000000; fill-opacity:1.0; 
stroke:#000000; stroke-width:150000.000000; stroke-opacity:1; 
stroke-linecap:round; stroke-linejoin:round;fill-rule:evenodd;"
d="M 140958110.000000,87243432.000000
140658110.000000,87243432.000000
140658110.000000,87143432.000000
140958110.000000,87143432.000000
Z" /> 
<path style="fill:#000000; fill-opacity:1.0; 
stroke:#000000; stroke-width:150000.000000; stroke-opacity:1; 
stroke-linecap:round; stroke-linejoin:round;fill-rule:evenodd;"
d="M 140758110.000000,87643432.000000
140658110.000000,87643432.000000
140658110.000000,87143432.000000
140758110.000000,87143432.000000
Z" /> 
</g>
<g style="fill:#000000; fill-opacity:1.0; 
stroke:#000000; stroke-width:120000.000000; stroke-opacity:1; 
stroke-linecap:round; stroke-linejoin:round;">
</g>
<g style="fill:#000000; fill-opacity:0.0; 
stroke:#000000; stroke-width:120000.000000; stroke-opacity:1; 
stroke-linecap:round; stroke-linejoin:round;">
<path d="M193881250 52256250
L193881250 48356250
" />
<path d="M191881250 52256250
L193881250 52256250
" />
<path d="M191881250 52256250
L191881250 48356250
" />
<path d="M168862500 52256250
L170862500 52256250
" />
<path d="M170862500 52256250
L170862500 48356250
" />
<path d="M168862500 52256250
L168862500 48356250
" />
<path d="M220793750 82343750
L220793750 84343750
" />
<path d="M220793750 82343750
L224693750 82343750
" />
<path d="M220793750 84343750
L224693750 84343750
" />
<g >
</g>
<g >
</g>
<g >
</g>
<g >
</g>
<g >
</g>
<g >
</g>
<g >
</g>
<g >
</g>
<g >
</g>
<g >
</g>
<g >
</g>
<g >
</g>
<g >
</g>
<g >
</g>
<g >
</g>
<g >
</g>
<g style="fill:#000000; fill-opacity:0.0; 
stroke:#000000; stroke-width:120000.000000; stroke-opacity:1; 
stroke-linecap:round; stroke-linejoin:round;">
</g>
<g style="fill:#000000; fill-opacity:0.0; 
stroke:#000000; stroke-width:1.000000; stroke-opacity:1; 
stroke-linecap:round; stroke-linejoin:round;">
</g>
<g style="fill:#000000; fill-opacity:1.0; 
stroke:#000000; stroke-width:1.000000; stroke-opacity:1; 
stroke-linecap:round; stroke-linejoin:round;">
<path style="fill:#000000; fill-opacity:1.0; 
stroke:#000000; stroke-width:1.000000; stroke-opacity:1; 
stroke-linecap:round; stroke-linejoin:round;fill-rule:evenodd;"
d="M 135172451.000000,100571299.000000
135172451.000000,98818701.000000
136925049.000000,98818701.000000
136925049.000000,100571299.000000
Z" /> 
<circle cx="138588750.000000" cy="99695000.000000" r="876300.000000" /> 
</g>
<g style="fill:#000000; fill-opacity:1.0; 
stroke:#000000; stroke-width:21200.000000; stroke-opacity:1; 
stroke-linecap:round; stroke-linejoin:round;">
</g>
<g style="fill:#000000; fill-opacity:1.0; 
stroke:#000000; stroke-width:1.000000; stroke-opacity:1; 
stroke-linecap:round; stroke-linejoin:round;">
<circle cx="141128750.000000" cy="99695000.000000" r="876300.000000" /> 
</g>
<g style="fill:#000000; fill-opacity:1.0; 
stroke:#000000; stroke-width:21200.000000; stroke-opacity:1; 
stroke-linecap:round; stroke-linejoin:round;">
</g>
<g style="fill:#000000; fill-opacity:1.0; 
stroke:#000000; stroke-width:1.000000; stroke-opacity:1; 
stroke-linecap:round; stroke-linejoin:round;">
<circle cx="143668750.000000" cy="99695000.000000" r="876300.000000" /> 
</g>
<g style="fill:#000000; fill-opacity:1.0; 
stroke:#000000; stroke-width:21200.000000; stroke-opacity:1; 
stroke-linecap:round; stroke-linejoin:round;">
</g>
<g style="fill:#000000; fill-opacity:1.0; 
stroke:#000000; stroke-width:1.000000; stroke-opacity:1; 
stroke-linecap:round; stroke-linejoin:round;">
<circle cx="146208750.000000" cy="99695000.000000" r="876300.000000" /> 
</g>
<g style="fill:#000000; fill-opacity:1.0; 
stroke:#000000; stroke-width:21200.000000; stroke-opacity:1; 
stroke-linecap:round; stroke-linejoin:round;">
</g>
<g style="fill:#000000; fill-opacity:1.0; 
stroke:#000000; stroke-width:1.000000; stroke-opacity:1; 
stroke-linecap:round; stroke-linejoin:round;">
<circle cx="148748750.000000" cy="99695000.000000" r="876300.000000" /> 
</g>
<g style="fill:#000000; fill-opacity:1.0; 
stroke:#000000; stroke-width:21200.000000; stroke-opacity:1; 
stroke-linecap:round; stroke-linejoin:round;">
</g>
<g style="fill:#000000; fill-opacity:1.0; 
stroke:#000000; stroke-width:1.000000; stroke-opacity:1; 
stroke-linecap:round; stroke-linejoin:round;">
<circle cx="151288750.000000" cy="99695000.000000" r="876300.000000" /> 
</g>
<g style="fill:#000000; fill-opacity:1.0; 
stroke:#000000; stroke-width:21200.000000; stroke-opacity:1; 
stroke-linecap:round; stroke-linejoin:round;">
</g>
<g style="fill:#000000; fill-opacity:1.0; 
stroke:#000000; stroke-width:1.000000; stroke-opacity:1; 
stroke-linecap:round; stroke-linejoin:round;">
<circle cx="153828750.000000" cy="99695000.000000" r="876300.000000" /> 
</g>
<g style="fill:#000000; fill-opacity:1.0; 
stroke:#000000; stroke-width:21200.000000; stroke-opacity:1; 
stroke-linecap:round; stroke-linejoin:round;">
</g>
<g style="fill:#000000; fill-opacity:1.0; 
stroke:#000000; stroke-width:1.000000; stroke-opacity:1; 
stroke-linecap:round; stroke-linejoin:round;">
<circle cx="156368750.000000" cy="99695000.000000" r="876300.000000" /> 
</g>
<g style="fill:#000000; fill-opacity:1.0; 
stroke:#000000; stroke-width:21200.000000; stroke-opacity:1; 
stroke-linecap:round; stroke-linejoin:round;">
</g>
<g style="fill:#000000; fill-opacity:1.0; 
stroke:#000000; stroke-width:1.000000; stroke-opacity:1; 
stroke-linecap:round; stroke-linejoin:round;">
<circle cx="158908750.000000" cy="99695000.000000" r="876300.000000" /> 
</g>
<g style="fill:#000000; fill-opacity:1.0; 
stroke:#000000; stroke-width:21200.000000; stroke-opacity:1; 
stroke-linecap:round; stroke-linejoin:round;">
</g>
<g style="fill:#000000; fill-opacity:1.0; 
stroke:#000000; stroke-width:1.000000; stroke-opacity:1; 
stroke-linecap:round; stroke-linejoin:round;">
<circle cx="161448750.000000" cy="99695000.000000" r="876300.000000" /> 
</g>
<g style="fill:#000000; fill-opacity:1.0; 
stroke:#000000; stroke-width:21200.000000; stroke-opacity:1; 
stroke-linecap:round; stroke-linejoin:round;">
</g>
<g style="fill:#000000; fill-opacity:1.0; 
stroke:#000000; stroke-width:1.000000; stroke-opacity:1; 
stroke-linecap:round; stroke-linejoin:round;">
<circle cx="163988750.000000" cy="99695000.000000" r="876300.000000" /> 
</g>
<g style="fill:#000000; fill-opacity:1.0; 
stroke:#000000; stroke-width:21200.000000; stroke-opacity:1; 
stroke-linecap:round; stroke-linejoin:round;">
</g>
<g style="fill:#000000; fill-opacity:1.0; 
stroke:#000000; stroke-width:1.000000; stroke-opacity:1; 
stroke-linecap:round; stroke-linejoin:round;">
<circle cx="163988750.000000" cy="84455000.000000" r="876300.000000" /> 
</g>
<g style="fill:#000000; fill-opacity:1.0; 
stroke:#000000; stroke-width:21200.000000; stroke-opacity:1; 
stroke-linecap:round; stroke-linejoin:round;">
</g>
<g style="fill:#000000; fill-opacity:1.0; 
stroke:#000000; stroke-width:1.000000; stroke-opacity:1; 
stroke-linecap:round; stroke-linejoin:round;">
<circle cx="161448750.000000" cy="84455000.000000" r="876300.000000" /> 
</g>
<g style="fill:#000000; fill-opacity:1.0; 
stroke:#000000; stroke-width:21200.000000; stroke-opacity:1; 
stroke-linecap:round; stroke-linejoin:round;">
</g>
<g style="fill:#000000; fill-opacity:1.0; 
stroke:#000000; stroke-width:1.000000; stroke-opacity:1; 
stroke-linecap:round; stroke-linejoin:round;">
<circle cx="158908750.000000" cy="84455000.000000" r="876300.000000" /> 
</g>
<g style="fill:#000000; fill-opacity:1.0; 
stroke:#000000; stroke-width:21200.000000; stroke-opacity:1; 
stroke-linecap:round; stroke-linejoin:round;">
</g>
<g style="fill:#000000; fill-opacity:1.0; 
stroke:#000000; stroke-width:1.000000; stroke-opacity:1; 
stroke-linecap:round; stroke-linejoin:round;">
<circle cx="156368750.000000" cy="84455000.000000" r="876300.000000" /> 
</g>
<g style="fill:#000000; fill-opacity:1.0; 
stroke:#000000; stroke-width:21200.000000; stroke-opacity:1; 
stroke-linecap:round; stroke-linejoin:round;">
</g>
<g style="fill:#000000; fill-opacity:1.0; 
stroke:#000000; stroke-width:1.000000; stroke-opacity:1; 
stroke-linecap:round; stroke-linejoin:round;">
<circle cx="153828750.000000" cy="84455000.000000" r="876300.000000" /> 
</g>
<g style="fill:#000000; fill-opacity:1.0; 
stroke:#000000; stroke-width:21200.000000; stroke-opacity:1; 
stroke-linecap:round; stroke-linejoin:round;">
</g>
<g style="fill:#000000; fill-opacity:1.0; 
stroke:#000000; stroke-width:1.000000; stroke-opacity:1; 
stroke-linecap:round; stroke-linejoin:round;">
<circle cx="151288750.000000" cy="84455000.000000" r="876300.000000" /> 
</g>
<g style="fill:#000000; fill-opacity:1.0; 
stroke:#000000; stroke-width:21200.000000; stroke-opacity:1; 
stroke-linecap:round; stroke-linejoin:round;">
</g>
<g style="fill:#000000; fill-opacity:1.0; 
stroke:#000000; stroke-width:1.000000; stroke-opacity:1; 
stroke-linecap:round; stroke-linejoin:round;">
<circle cx="148748750.000000" cy="84455000.000000" r="876300.000000" /> 
</g>
<g style="fill:#000000; fill-opacity:1.0; 
stroke:#000000; stroke-width:21200.000000; stroke-opacity:1; 
stroke-linecap:round; stroke-linejoin:round;">
</g>
<g style="fill:#000000; fill-opacity:1.0; 
stroke:#000000; stroke-width:1.000000; stroke-opacity:1; 
stroke-linecap:round; stroke-linejoin:round;">
<circle cx="146208750.000000" cy="84455000.000000" r="876300.000000" /> 
</g>
<g style="fill:#000000; fill-opacity:1.0; 
stroke:#000000; stroke-width:21200.000000; stroke-opacity:1; 
stroke-linecap:round; stroke-linejoin:round;">
</g>
<g style="fill:#000000; fill-opacity:1.0; 
stroke:#000000; stroke-width:1.000000; stroke-opacity:1; 
stroke-linecap:round; stroke-linejoin:round;">
<circle cx="143668750.000000" cy="84455000.000000" r="876300.000000" /> 
</g>
<g style="fill:#000000; fill-opacity:1.0; 
stroke:#000000; stroke-width:21200.000000; stroke-opacity:1; 
stroke-linecap:round; stroke-linejoin:round;">
</g>
<g style="fill:#000000; fill-opacity:1.0; 
stroke:#000000; stroke-width:1.000000; stroke-opacity:1; 
stroke-linecap:round; stroke-linejoin:round;">
<circle cx="141128750.000000" cy="84455000.000000" r="876300.000000" /> 
</g>
<g style="fill:#000000; fill-opacity:1.0; 
stroke:#000000; stroke-width:21200.000000; stroke-opacity:1; 
stroke-linecap:round; stroke-linejoin:round;">
</g>
<g style="fill:#000000; fill-opacity:1.0; 
stroke:#000000; stroke-width:1.000000; stroke-opacity:1; 
stroke-linecap:round; stroke-linejoin:round;">
<circle cx="138588750.000000" cy="84455000.000000" r="876300.000000" /> 
</g>
<g style="fill:#000000; fill-opacity:1.0; 
stroke:#000000; stroke-width:21200.000000; stroke-opacity:1; 
stroke-linecap:round; stroke-linejoin:round;">
</g>
<g style="fill:#000000; fill-opacity:1.0; 
stroke:#000000; stroke-width:1.000000; stroke-opacity:1; 
stroke-linecap:round; stroke-linejoin:round;">
<circle cx="136048750.000000" cy="84455000.000000" r="876300.000000" /> 
</g>
<g style="fill:#000000; fill-opacity:1.0; 
stroke:#000000; stroke-width:21200.000000; stroke-opacity:1; 
stroke-linecap:round; stroke-linejoin:round;">
</g>
<g >
</g>
<g >
</g>
<g >
</g>
<g >
</g>
<g >
</g>
<g >
</g>
<g >
</g>
<g >
</g>
<g >
</g>
<g >
</g>
<g >
</g>
</g> 
</svg>
