M48
; DRILL file {KiCad (6.0.4)} date Sun Jun 12 12:36:59 2022
; FORMAT={-:-/ absolute / inch / decimal}
; #@! TF.CreationDate,2022-06-12T12:36:59-04:00
; #@! TF.GenerationSoftware,Kicad,Pcbnew,(6.0.4)
; #@! TF.FileFunction,Plated,1,2,PTH
FMAT,2
INCH
; #@! TA.AperFunction,Plated,PTH,ComponentDrill
T1C0.0390
; #@! TA.AperFunction,Plated,PTH,ComponentDrill
T2C0.0430
; #@! TA.AperFunction,Plated,PTH,ComponentDrill
T3C0.0579
%
G90
G05
T1
X9.046Y-1.6213
X9.046Y-1.8182
T2
X5.3563Y-3.325
X5.3563Y-3.925
X5.4562Y-3.325
X5.4562Y-3.925
X5.5562Y-3.325
X5.5562Y-3.925
X5.6562Y-3.325
X5.6562Y-3.925
X5.7562Y-3.325
X5.7562Y-3.925
X5.8563Y-3.325
X5.8563Y-3.925
X5.9562Y-3.325
X5.9562Y-3.925
X6.0562Y-3.325
X6.0562Y-3.925
X6.1562Y-3.325
X6.1562Y-3.925
X6.2562Y-3.325
X6.2562Y-3.925
X6.3563Y-3.325
X6.3563Y-3.925
X6.4562Y-3.325
X6.4562Y-3.925
T3
X5.4125Y-1.8375
X5.4125Y-2.775
X5.6625Y-1.7375
X5.6625Y-2.675
X6.1937Y-1.8375
X6.1937Y-2.775
X6.4437Y-1.7375
X6.4437Y-2.675
X7.1Y-1.8375
X7.1Y-2.775
X7.1Y-3.525
X7.35Y-1.7375
X7.35Y-2.675
X7.35Y-3.425
X7.8812Y-2.775
X7.8812Y-3.525
X8.1312Y-2.675
X8.1312Y-3.425
X8.6625Y-3.525
X8.9125Y-3.425
T0
M30
