%TF.GenerationSoftware,KiCad,Pcbnew,(6.0.4)*%
%TF.CreationDate,2022-06-12T12:36:40-04:00*%
%TF.ProjectId,F14-DDP,4631342d-4444-4502-9e6b-696361645f70,rev?*%
%TF.SameCoordinates,Original*%
%TF.FileFunction,Legend,Bot*%
%TF.FilePolarity,Positive*%
%FSLAX46Y46*%
G04 Gerber Fmt 4.6, Leading zero omitted, Abs format (unit mm)*
G04 Created by KiCad (PCBNEW (6.0.4)) date 2022-06-12 12:36:40*
%MOMM*%
%LPD*%
G01*
G04 APERTURE LIST*
%ADD10C,0.150000*%
%ADD11C,0.381000*%
%ADD12C,0.120000*%
%ADD13R,1.752600X1.752600*%
%ADD14C,1.752600*%
G04 APERTURE END LIST*
D10*
%TO.C,U1*%
X140728750Y-96926476D02*
X140690654Y-96850285D01*
X140690654Y-96736000D01*
X140728750Y-96621714D01*
X140804940Y-96545523D01*
X140881130Y-96507428D01*
X141033511Y-96469333D01*
X141147797Y-96469333D01*
X141300178Y-96507428D01*
X141376369Y-96545523D01*
X141452559Y-96621714D01*
X141490654Y-96736000D01*
X141490654Y-96812190D01*
X141452559Y-96926476D01*
X141414464Y-96964571D01*
X141147797Y-96964571D01*
X141147797Y-96812190D01*
X141490654Y-97307428D02*
X140690654Y-97307428D01*
X141490654Y-97764571D01*
X140690654Y-97764571D01*
X141490654Y-98145523D02*
X140690654Y-98145523D01*
X140690654Y-98336000D01*
X140728750Y-98450285D01*
X140804940Y-98526476D01*
X140881130Y-98564571D01*
X141033511Y-98602666D01*
X141147797Y-98602666D01*
X141300178Y-98564571D01*
X141376369Y-98526476D01*
X141452559Y-98450285D01*
X141490654Y-98336000D01*
X141490654Y-98145523D01*
X149110654Y-96945523D02*
X148310654Y-96945523D01*
X148310654Y-97136000D01*
X148348750Y-97250285D01*
X148424940Y-97326476D01*
X148501130Y-97364571D01*
X148653511Y-97402666D01*
X148767797Y-97402666D01*
X148920178Y-97364571D01*
X148996369Y-97326476D01*
X149072559Y-97250285D01*
X149110654Y-97136000D01*
X149110654Y-96945523D01*
X148310654Y-97897904D02*
X148310654Y-97974095D01*
X148348750Y-98050285D01*
X148386845Y-98088380D01*
X148463035Y-98126476D01*
X148615416Y-98164571D01*
X148805892Y-98164571D01*
X148958273Y-98126476D01*
X149034464Y-98088380D01*
X149072559Y-98050285D01*
X149110654Y-97974095D01*
X149110654Y-97897904D01*
X149072559Y-97821714D01*
X149034464Y-97783619D01*
X148958273Y-97745523D01*
X148805892Y-97707428D01*
X148615416Y-97707428D01*
X148463035Y-97745523D01*
X148386845Y-97783619D01*
X148348750Y-97821714D01*
X148310654Y-97897904D01*
X148691607Y-87839583D02*
X148691607Y-87572916D01*
X149110654Y-87572916D02*
X148310654Y-87572916D01*
X148310654Y-87953869D01*
X148310654Y-88639583D02*
X148310654Y-88258630D01*
X148691607Y-88220535D01*
X148653511Y-88258630D01*
X148615416Y-88334821D01*
X148615416Y-88525297D01*
X148653511Y-88601488D01*
X148691607Y-88639583D01*
X148767797Y-88677678D01*
X148958273Y-88677678D01*
X149034464Y-88639583D01*
X149072559Y-88601488D01*
X149110654Y-88525297D01*
X149110654Y-88334821D01*
X149072559Y-88258630D01*
X149034464Y-88220535D01*
X156311607Y-86290190D02*
X156349702Y-86404476D01*
X156387797Y-86442571D01*
X156463988Y-86480666D01*
X156578273Y-86480666D01*
X156654464Y-86442571D01*
X156692559Y-86404476D01*
X156730654Y-86328285D01*
X156730654Y-86023523D01*
X155930654Y-86023523D01*
X155930654Y-86290190D01*
X155968750Y-86366380D01*
X156006845Y-86404476D01*
X156083035Y-86442571D01*
X156159226Y-86442571D01*
X156235416Y-86404476D01*
X156273511Y-86366380D01*
X156311607Y-86290190D01*
X156311607Y-86023523D01*
X156730654Y-87242571D02*
X156730654Y-86785428D01*
X156730654Y-87014000D02*
X155930654Y-87014000D01*
X156044940Y-86937809D01*
X156121130Y-86861619D01*
X156159226Y-86785428D01*
X143230654Y-85547333D02*
X144030654Y-85814000D01*
X143230654Y-86080666D01*
X143954464Y-86804476D02*
X143992559Y-86766380D01*
X144030654Y-86652095D01*
X144030654Y-86575904D01*
X143992559Y-86461619D01*
X143916369Y-86385428D01*
X143840178Y-86347333D01*
X143687797Y-86309238D01*
X143573511Y-86309238D01*
X143421130Y-86347333D01*
X143344940Y-86385428D01*
X143268750Y-86461619D01*
X143230654Y-86575904D01*
X143230654Y-86652095D01*
X143268750Y-86766380D01*
X143306845Y-86804476D01*
X143954464Y-87604476D02*
X143992559Y-87566380D01*
X144030654Y-87452095D01*
X144030654Y-87375904D01*
X143992559Y-87261619D01*
X143916369Y-87185428D01*
X143840178Y-87147333D01*
X143687797Y-87109238D01*
X143573511Y-87109238D01*
X143421130Y-87147333D01*
X143344940Y-87185428D01*
X143268750Y-87261619D01*
X143230654Y-87375904D01*
X143230654Y-87452095D01*
X143268750Y-87566380D01*
X143306845Y-87604476D01*
X153771607Y-86347333D02*
X153771607Y-86080666D01*
X154190654Y-86080666D02*
X153390654Y-86080666D01*
X153390654Y-86461619D01*
X153390654Y-86690190D02*
X153390654Y-87223523D01*
X154190654Y-86880666D01*
X154114464Y-97402666D02*
X154152559Y-97364571D01*
X154190654Y-97250285D01*
X154190654Y-97174095D01*
X154152559Y-97059809D01*
X154076369Y-96983619D01*
X154000178Y-96945523D01*
X153847797Y-96907428D01*
X153733511Y-96907428D01*
X153581130Y-96945523D01*
X153504940Y-96983619D01*
X153428750Y-97059809D01*
X153390654Y-97174095D01*
X153390654Y-97250285D01*
X153428750Y-97364571D01*
X153466845Y-97402666D01*
X153390654Y-98088380D02*
X153390654Y-97936000D01*
X153428750Y-97859809D01*
X153466845Y-97821714D01*
X153581130Y-97745523D01*
X153733511Y-97707428D01*
X154038273Y-97707428D01*
X154114464Y-97745523D01*
X154152559Y-97783619D01*
X154190654Y-97859809D01*
X154190654Y-98012190D01*
X154152559Y-98088380D01*
X154114464Y-98126476D01*
X154038273Y-98164571D01*
X153847797Y-98164571D01*
X153771607Y-98126476D01*
X153733511Y-98088380D01*
X153695416Y-98012190D01*
X153695416Y-97859809D01*
X153733511Y-97783619D01*
X153771607Y-97745523D01*
X153847797Y-97707428D01*
X141432559Y-86501666D02*
X141470654Y-86615952D01*
X141470654Y-86806428D01*
X141432559Y-86882619D01*
X141394464Y-86920714D01*
X141318273Y-86958809D01*
X141242083Y-86958809D01*
X141165892Y-86920714D01*
X141127797Y-86882619D01*
X141089702Y-86806428D01*
X141051607Y-86654047D01*
X141013511Y-86577857D01*
X140975416Y-86539761D01*
X140899226Y-86501666D01*
X140823035Y-86501666D01*
X140746845Y-86539761D01*
X140708750Y-86577857D01*
X140670654Y-86654047D01*
X140670654Y-86844523D01*
X140708750Y-86958809D01*
X140670654Y-87187380D02*
X140670654Y-87644523D01*
X141470654Y-87415952D02*
X140670654Y-87415952D01*
X146151607Y-87839583D02*
X146151607Y-87572916D01*
X146570654Y-87572916D02*
X145770654Y-87572916D01*
X145770654Y-87953869D01*
X146037321Y-88601488D02*
X146570654Y-88601488D01*
X145732559Y-88411011D02*
X146303988Y-88220535D01*
X146303988Y-88715773D01*
X136410654Y-86061619D02*
X136029702Y-85794952D01*
X136410654Y-85604476D02*
X135610654Y-85604476D01*
X135610654Y-85909238D01*
X135648750Y-85985428D01*
X135686845Y-86023523D01*
X135763035Y-86061619D01*
X135877321Y-86061619D01*
X135953511Y-86023523D01*
X135991607Y-85985428D01*
X136029702Y-85909238D01*
X136029702Y-85604476D01*
X136182083Y-86366380D02*
X136182083Y-86747333D01*
X136410654Y-86290190D02*
X135610654Y-86556857D01*
X136410654Y-86823523D01*
X135610654Y-87014000D02*
X136410654Y-87204476D01*
X135839226Y-87356857D01*
X136410654Y-87509238D01*
X135610654Y-87699714D01*
X151231607Y-86347333D02*
X151231607Y-86080666D01*
X151650654Y-86080666D02*
X150850654Y-86080666D01*
X150850654Y-86461619D01*
X150850654Y-87109238D02*
X150850654Y-86956857D01*
X150888750Y-86880666D01*
X150926845Y-86842571D01*
X151041130Y-86766380D01*
X151193511Y-86728285D01*
X151498273Y-86728285D01*
X151574464Y-86766380D01*
X151612559Y-86804476D01*
X151650654Y-86880666D01*
X151650654Y-87033047D01*
X151612559Y-87109238D01*
X151574464Y-87147333D01*
X151498273Y-87185428D01*
X151307797Y-87185428D01*
X151231607Y-87147333D01*
X151193511Y-87109238D01*
X151155416Y-87033047D01*
X151155416Y-86880666D01*
X151193511Y-86804476D01*
X151231607Y-86766380D01*
X151307797Y-86728285D01*
X163931607Y-88576190D02*
X163969702Y-88690476D01*
X164007797Y-88728571D01*
X164083988Y-88766666D01*
X164198273Y-88766666D01*
X164274464Y-88728571D01*
X164312559Y-88690476D01*
X164350654Y-88614285D01*
X164350654Y-88309523D01*
X163550654Y-88309523D01*
X163550654Y-88576190D01*
X163588750Y-88652380D01*
X163626845Y-88690476D01*
X163703035Y-88728571D01*
X163779226Y-88728571D01*
X163855416Y-88690476D01*
X163893511Y-88652380D01*
X163931607Y-88576190D01*
X163931607Y-88309523D01*
X163550654Y-89452380D02*
X163550654Y-89300000D01*
X163588750Y-89223809D01*
X163626845Y-89185714D01*
X163741130Y-89109523D01*
X163893511Y-89071428D01*
X164198273Y-89071428D01*
X164274464Y-89109523D01*
X164312559Y-89147619D01*
X164350654Y-89223809D01*
X164350654Y-89376190D01*
X164312559Y-89452380D01*
X164274464Y-89490476D01*
X164198273Y-89528571D01*
X164007797Y-89528571D01*
X163931607Y-89490476D01*
X163893511Y-89452380D01*
X163855416Y-89376190D01*
X163855416Y-89223809D01*
X163893511Y-89147619D01*
X163931607Y-89109523D01*
X164007797Y-89071428D01*
X161391607Y-86290190D02*
X161429702Y-86404476D01*
X161467797Y-86442571D01*
X161543988Y-86480666D01*
X161658273Y-86480666D01*
X161734464Y-86442571D01*
X161772559Y-86404476D01*
X161810654Y-86328285D01*
X161810654Y-86023523D01*
X161010654Y-86023523D01*
X161010654Y-86290190D01*
X161048750Y-86366380D01*
X161086845Y-86404476D01*
X161163035Y-86442571D01*
X161239226Y-86442571D01*
X161315416Y-86404476D01*
X161353511Y-86366380D01*
X161391607Y-86290190D01*
X161391607Y-86023523D01*
X161086845Y-86785428D02*
X161048750Y-86823523D01*
X161010654Y-86899714D01*
X161010654Y-87090190D01*
X161048750Y-87166380D01*
X161086845Y-87204476D01*
X161163035Y-87242571D01*
X161239226Y-87242571D01*
X161353511Y-87204476D01*
X161810654Y-86747333D01*
X161810654Y-87242571D01*
X146570654Y-96945523D02*
X145770654Y-96945523D01*
X145770654Y-97136000D01*
X145808750Y-97250285D01*
X145884940Y-97326476D01*
X145961130Y-97364571D01*
X146113511Y-97402666D01*
X146227797Y-97402666D01*
X146380178Y-97364571D01*
X146456369Y-97326476D01*
X146532559Y-97250285D01*
X146570654Y-97136000D01*
X146570654Y-96945523D01*
X146570654Y-98164571D02*
X146570654Y-97707428D01*
X146570654Y-97936000D02*
X145770654Y-97936000D01*
X145884940Y-97859809D01*
X145961130Y-97783619D01*
X145999226Y-97707428D01*
X156730654Y-96945523D02*
X155930654Y-96945523D01*
X155930654Y-97136000D01*
X155968750Y-97250285D01*
X156044940Y-97326476D01*
X156121130Y-97364571D01*
X156273511Y-97402666D01*
X156387797Y-97402666D01*
X156540178Y-97364571D01*
X156616369Y-97326476D01*
X156692559Y-97250285D01*
X156730654Y-97136000D01*
X156730654Y-96945523D01*
X155930654Y-97669333D02*
X155930654Y-98202666D01*
X156730654Y-97859809D01*
X138950654Y-96945523D02*
X138150654Y-96945523D01*
X138150654Y-97136000D01*
X138188750Y-97250285D01*
X138264940Y-97326476D01*
X138341130Y-97364571D01*
X138493511Y-97402666D01*
X138607797Y-97402666D01*
X138760178Y-97364571D01*
X138836369Y-97326476D01*
X138912559Y-97250285D01*
X138950654Y-97136000D01*
X138950654Y-96945523D01*
X138226845Y-97707428D02*
X138188750Y-97745523D01*
X138150654Y-97821714D01*
X138150654Y-98012190D01*
X138188750Y-98088380D01*
X138226845Y-98126476D01*
X138303035Y-98164571D01*
X138379226Y-98164571D01*
X138493511Y-98126476D01*
X138950654Y-97669333D01*
X138950654Y-98164571D01*
X161391607Y-97212190D02*
X161429702Y-97326476D01*
X161467797Y-97364571D01*
X161543988Y-97402666D01*
X161658273Y-97402666D01*
X161734464Y-97364571D01*
X161772559Y-97326476D01*
X161810654Y-97250285D01*
X161810654Y-96945523D01*
X161010654Y-96945523D01*
X161010654Y-97212190D01*
X161048750Y-97288380D01*
X161086845Y-97326476D01*
X161163035Y-97364571D01*
X161239226Y-97364571D01*
X161315416Y-97326476D01*
X161353511Y-97288380D01*
X161391607Y-97212190D01*
X161391607Y-96945523D01*
X161277321Y-98088380D02*
X161810654Y-98088380D01*
X160972559Y-97897904D02*
X161543988Y-97707428D01*
X161543988Y-98202666D01*
X158851607Y-96983619D02*
X158851607Y-97250285D01*
X159270654Y-97364571D02*
X159270654Y-96983619D01*
X158470654Y-96983619D01*
X158470654Y-97364571D01*
X158470654Y-98050285D02*
X158470654Y-97897904D01*
X158508750Y-97821714D01*
X158546845Y-97783619D01*
X158661130Y-97707428D01*
X158813511Y-97669333D01*
X159118273Y-97669333D01*
X159194464Y-97707428D01*
X159232559Y-97745523D01*
X159270654Y-97821714D01*
X159270654Y-97974095D01*
X159232559Y-98050285D01*
X159194464Y-98088380D01*
X159118273Y-98126476D01*
X158927797Y-98126476D01*
X158851607Y-98088380D01*
X158813511Y-98050285D01*
X158775416Y-97974095D01*
X158775416Y-97821714D01*
X158813511Y-97745523D01*
X158851607Y-97707428D01*
X158927797Y-97669333D01*
X158851607Y-86290190D02*
X158889702Y-86404476D01*
X158927797Y-86442571D01*
X159003988Y-86480666D01*
X159118273Y-86480666D01*
X159194464Y-86442571D01*
X159232559Y-86404476D01*
X159270654Y-86328285D01*
X159270654Y-86023523D01*
X158470654Y-86023523D01*
X158470654Y-86290190D01*
X158508750Y-86366380D01*
X158546845Y-86404476D01*
X158623035Y-86442571D01*
X158699226Y-86442571D01*
X158775416Y-86404476D01*
X158813511Y-86366380D01*
X158851607Y-86290190D01*
X158851607Y-86023523D01*
X158470654Y-86747333D02*
X158470654Y-87242571D01*
X158775416Y-86975904D01*
X158775416Y-87090190D01*
X158813511Y-87166380D01*
X158851607Y-87204476D01*
X158927797Y-87242571D01*
X159118273Y-87242571D01*
X159194464Y-87204476D01*
X159232559Y-87166380D01*
X159270654Y-87090190D01*
X159270654Y-86861619D01*
X159232559Y-86785428D01*
X159194464Y-86747333D01*
X143268750Y-96926476D02*
X143230654Y-96850285D01*
X143230654Y-96736000D01*
X143268750Y-96621714D01*
X143344940Y-96545523D01*
X143421130Y-96507428D01*
X143573511Y-96469333D01*
X143687797Y-96469333D01*
X143840178Y-96507428D01*
X143916369Y-96545523D01*
X143992559Y-96621714D01*
X144030654Y-96736000D01*
X144030654Y-96812190D01*
X143992559Y-96926476D01*
X143954464Y-96964571D01*
X143687797Y-96964571D01*
X143687797Y-96812190D01*
X144030654Y-97307428D02*
X143230654Y-97307428D01*
X144030654Y-97764571D01*
X143230654Y-97764571D01*
X144030654Y-98145523D02*
X143230654Y-98145523D01*
X143230654Y-98336000D01*
X143268750Y-98450285D01*
X143344940Y-98526476D01*
X143421130Y-98564571D01*
X143573511Y-98602666D01*
X143687797Y-98602666D01*
X143840178Y-98564571D01*
X143916369Y-98526476D01*
X143992559Y-98450285D01*
X144030654Y-98336000D01*
X144030654Y-98145523D01*
X163931607Y-97212190D02*
X163969702Y-97326476D01*
X164007797Y-97364571D01*
X164083988Y-97402666D01*
X164198273Y-97402666D01*
X164274464Y-97364571D01*
X164312559Y-97326476D01*
X164350654Y-97250285D01*
X164350654Y-96945523D01*
X163550654Y-96945523D01*
X163550654Y-97212190D01*
X163588750Y-97288380D01*
X163626845Y-97326476D01*
X163703035Y-97364571D01*
X163779226Y-97364571D01*
X163855416Y-97326476D01*
X163893511Y-97288380D01*
X163931607Y-97212190D01*
X163931607Y-96945523D01*
X163550654Y-98126476D02*
X163550654Y-97745523D01*
X163931607Y-97707428D01*
X163893511Y-97745523D01*
X163855416Y-97821714D01*
X163855416Y-98012190D01*
X163893511Y-98088380D01*
X163931607Y-98126476D01*
X164007797Y-98164571D01*
X164198273Y-98164571D01*
X164274464Y-98126476D01*
X164312559Y-98088380D01*
X164350654Y-98012190D01*
X164350654Y-97821714D01*
X164312559Y-97745523D01*
X164274464Y-97707428D01*
X135610654Y-93456395D02*
X135610654Y-93913538D01*
X136410654Y-93684967D02*
X135610654Y-93684967D01*
X135610654Y-94104014D02*
X136410654Y-94637348D01*
X135610654Y-94637348D02*
X136410654Y-94104014D01*
X135610654Y-95094491D02*
X135610654Y-95170681D01*
X135648750Y-95246872D01*
X135686845Y-95284967D01*
X135763035Y-95323062D01*
X135915416Y-95361157D01*
X136105892Y-95361157D01*
X136258273Y-95323062D01*
X136334464Y-95284967D01*
X136372559Y-95246872D01*
X136410654Y-95170681D01*
X136410654Y-95094491D01*
X136372559Y-95018300D01*
X136334464Y-94980205D01*
X136258273Y-94942110D01*
X136105892Y-94904014D01*
X135915416Y-94904014D01*
X135763035Y-94942110D01*
X135686845Y-94980205D01*
X135648750Y-95018300D01*
X135610654Y-95094491D01*
X135572559Y-96275443D02*
X136601130Y-95589729D01*
X136410654Y-96542110D02*
X135610654Y-96542110D01*
X135610654Y-96732586D01*
X135648750Y-96846872D01*
X135724940Y-96923062D01*
X135801130Y-96961157D01*
X135953511Y-96999252D01*
X136067797Y-96999252D01*
X136220178Y-96961157D01*
X136296369Y-96923062D01*
X136372559Y-96846872D01*
X136410654Y-96732586D01*
X136410654Y-96542110D01*
X135610654Y-97265919D02*
X135610654Y-97761157D01*
X135915416Y-97494491D01*
X135915416Y-97608776D01*
X135953511Y-97684967D01*
X135991607Y-97723062D01*
X136067797Y-97761157D01*
X136258273Y-97761157D01*
X136334464Y-97723062D01*
X136372559Y-97684967D01*
X136410654Y-97608776D01*
X136410654Y-97380205D01*
X136372559Y-97304014D01*
X136334464Y-97265919D01*
X151650654Y-96945523D02*
X150850654Y-96945523D01*
X150850654Y-97136000D01*
X150888750Y-97250285D01*
X150964940Y-97326476D01*
X151041130Y-97364571D01*
X151193511Y-97402666D01*
X151307797Y-97402666D01*
X151460178Y-97364571D01*
X151536369Y-97326476D01*
X151612559Y-97250285D01*
X151650654Y-97136000D01*
X151650654Y-96945523D01*
X151117321Y-98088380D02*
X151650654Y-98088380D01*
X150812559Y-97897904D02*
X151383988Y-97707428D01*
X151383988Y-98202666D01*
X138188750Y-86004476D02*
X138150654Y-85928285D01*
X138150654Y-85814000D01*
X138188750Y-85699714D01*
X138264940Y-85623523D01*
X138341130Y-85585428D01*
X138493511Y-85547333D01*
X138607797Y-85547333D01*
X138760178Y-85585428D01*
X138836369Y-85623523D01*
X138912559Y-85699714D01*
X138950654Y-85814000D01*
X138950654Y-85890190D01*
X138912559Y-86004476D01*
X138874464Y-86042571D01*
X138607797Y-86042571D01*
X138607797Y-85890190D01*
X138950654Y-86385428D02*
X138150654Y-86385428D01*
X138950654Y-86842571D01*
X138150654Y-86842571D01*
X138950654Y-87223523D02*
X138150654Y-87223523D01*
X138150654Y-87414000D01*
X138188750Y-87528285D01*
X138264940Y-87604476D01*
X138341130Y-87642571D01*
X138493511Y-87680666D01*
X138607797Y-87680666D01*
X138760178Y-87642571D01*
X138836369Y-87604476D01*
X138912559Y-87528285D01*
X138950654Y-87414000D01*
X138950654Y-87223523D01*
%TO.C,SW1*%
X228493511Y-42347916D02*
X228541130Y-42490773D01*
X228541130Y-42728869D01*
X228493511Y-42824107D01*
X228445892Y-42871726D01*
X228350654Y-42919345D01*
X228255416Y-42919345D01*
X228160178Y-42871726D01*
X228112559Y-42824107D01*
X228064940Y-42728869D01*
X228017321Y-42538392D01*
X227969702Y-42443154D01*
X227922083Y-42395535D01*
X227826845Y-42347916D01*
X227731607Y-42347916D01*
X227636369Y-42395535D01*
X227588750Y-42443154D01*
X227541130Y-42538392D01*
X227541130Y-42776488D01*
X227588750Y-42919345D01*
X227541130Y-43252678D02*
X228541130Y-43490773D01*
X227826845Y-43681250D01*
X228541130Y-43871726D01*
X227541130Y-44109821D01*
X228541130Y-45014583D02*
X228541130Y-44443154D01*
X228541130Y-44728869D02*
X227541130Y-44728869D01*
X227683988Y-44633630D01*
X227779226Y-44538392D01*
X227826845Y-44443154D01*
D11*
%TO.C,U1*%
X137318750Y-98425000D02*
X137318750Y-100965000D01*
X165258750Y-100965000D02*
X165258750Y-83185000D01*
X134778750Y-98425000D02*
X137318750Y-98425000D01*
X165258750Y-83185000D02*
X132238750Y-83185000D01*
X132238750Y-100965000D02*
X165258750Y-100965000D01*
X134778750Y-98425000D02*
X134778750Y-100965000D01*
X132238750Y-83185000D02*
X132238750Y-100965000D01*
G36*
X141467780Y-86230365D02*
G01*
X141267780Y-86230365D01*
X141267780Y-86130365D01*
X141467780Y-86130365D01*
X141467780Y-86230365D01*
G37*
D10*
X141467780Y-86230365D02*
X141267780Y-86230365D01*
X141267780Y-86130365D01*
X141467780Y-86130365D01*
X141467780Y-86230365D01*
G36*
X141467780Y-85830365D02*
G01*
X140667780Y-85830365D01*
X140667780Y-85730365D01*
X141467780Y-85730365D01*
X141467780Y-85830365D01*
G37*
X141467780Y-85830365D02*
X140667780Y-85830365D01*
X140667780Y-85730365D01*
X141467780Y-85730365D01*
X141467780Y-85830365D01*
G36*
X140767780Y-86230365D02*
G01*
X140667780Y-86230365D01*
X140667780Y-85730365D01*
X140767780Y-85730365D01*
X140767780Y-86230365D01*
G37*
X140767780Y-86230365D02*
X140667780Y-86230365D01*
X140667780Y-85730365D01*
X140767780Y-85730365D01*
X140767780Y-86230365D01*
G36*
X140967780Y-86230365D02*
G01*
X140667780Y-86230365D01*
X140667780Y-86130365D01*
X140967780Y-86130365D01*
X140967780Y-86230365D01*
G37*
X140967780Y-86230365D02*
X140667780Y-86230365D01*
X140667780Y-86130365D01*
X140967780Y-86130365D01*
X140967780Y-86230365D01*
G36*
X141167780Y-86030365D02*
G01*
X141067780Y-86030365D01*
X141067780Y-85930365D01*
X141167780Y-85930365D01*
X141167780Y-86030365D01*
G37*
X141167780Y-86030365D02*
X141067780Y-86030365D01*
X141067780Y-85930365D01*
X141167780Y-85930365D01*
X141167780Y-86030365D01*
D12*
%TO.C,SW1*%
X228798750Y-40341250D02*
X228568750Y-40341250D01*
X228798750Y-40881250D02*
X228798750Y-40341250D01*
X228798750Y-45381250D02*
X228798750Y-41981250D01*
X232468750Y-39821250D02*
X228568750Y-39821250D01*
X232468750Y-47541250D02*
X228568750Y-47541250D01*
X228798750Y-47021250D02*
X228798750Y-46481250D01*
X228798750Y-47021250D02*
X228568750Y-47021250D01*
X232468750Y-47541250D02*
X232468750Y-39821250D01*
%TD*%
D13*
%TO.C,U1*%
X136048750Y-99695000D03*
D14*
X138588750Y-99695000D03*
X141128750Y-99695000D03*
X143668750Y-99695000D03*
X146208750Y-99695000D03*
X148748750Y-99695000D03*
X151288750Y-99695000D03*
X153828750Y-99695000D03*
X156368750Y-99695000D03*
X158908750Y-99695000D03*
X161448750Y-99695000D03*
X163988750Y-99695000D03*
X163988750Y-84455000D03*
X161448750Y-84455000D03*
X158908750Y-84455000D03*
X156368750Y-84455000D03*
X153828750Y-84455000D03*
X151288750Y-84455000D03*
X148748750Y-84455000D03*
X146208750Y-84455000D03*
X143668750Y-84455000D03*
X141128750Y-84455000D03*
X138588750Y-84455000D03*
X136048750Y-84455000D03*
%TD*%
M02*
