%TF.GenerationSoftware,KiCad,Pcbnew,(6.0.4)*%
%TF.CreationDate,2022-06-12T12:36:40-04:00*%
%TF.ProjectId,F14-DDP,4631342d-4444-4502-9e6b-696361645f70,rev?*%
%TF.SameCoordinates,Original*%
%TF.FileFunction,Legend,Top*%
%TF.FilePolarity,Positive*%
%FSLAX46Y46*%
G04 Gerber Fmt 4.6, Leading zero omitted, Abs format (unit mm)*
G04 Created by KiCad (PCBNEW (6.0.4)) date 2022-06-12 12:36:40*
%MOMM*%
%LPD*%
G01*
G04 APERTURE LIST*
%ADD10C,0.150000*%
%ADD11C,0.120000*%
%ADD12C,0.381000*%
%ADD13R,1.752600X1.752600*%
%ADD14C,1.752600*%
G04 APERTURE END LIST*
D10*
%TO.C,D4*%
X148471130Y-74556845D02*
X147471130Y-74556845D01*
X147471130Y-74318750D01*
X147518750Y-74175892D01*
X147613988Y-74080654D01*
X147709226Y-74033035D01*
X147899702Y-73985416D01*
X148042559Y-73985416D01*
X148233035Y-74033035D01*
X148328273Y-74080654D01*
X148423511Y-74175892D01*
X148471130Y-74318750D01*
X148471130Y-74556845D01*
X147804464Y-73128273D02*
X148471130Y-73128273D01*
X147423511Y-73366369D02*
X148137797Y-73604464D01*
X148137797Y-72985416D01*
%TO.C,D7*%
X211177380Y-74556845D02*
X210177380Y-74556845D01*
X210177380Y-74318750D01*
X210225000Y-74175892D01*
X210320238Y-74080654D01*
X210415476Y-74033035D01*
X210605952Y-73985416D01*
X210748809Y-73985416D01*
X210939285Y-74033035D01*
X211034523Y-74080654D01*
X211129761Y-74175892D01*
X211177380Y-74318750D01*
X211177380Y-74556845D01*
X210177380Y-73652083D02*
X210177380Y-72985416D01*
X211177380Y-73413988D01*
%TO.C,D8*%
X191333630Y-93606845D02*
X190333630Y-93606845D01*
X190333630Y-93368750D01*
X190381250Y-93225892D01*
X190476488Y-93130654D01*
X190571726Y-93083035D01*
X190762202Y-93035416D01*
X190905059Y-93035416D01*
X191095535Y-93083035D01*
X191190773Y-93130654D01*
X191286011Y-93225892D01*
X191333630Y-93368750D01*
X191333630Y-93606845D01*
X190762202Y-92463988D02*
X190714583Y-92559226D01*
X190666964Y-92606845D01*
X190571726Y-92654464D01*
X190524107Y-92654464D01*
X190428869Y-92606845D01*
X190381250Y-92559226D01*
X190333630Y-92463988D01*
X190333630Y-92273511D01*
X190381250Y-92178273D01*
X190428869Y-92130654D01*
X190524107Y-92083035D01*
X190571726Y-92083035D01*
X190666964Y-92130654D01*
X190714583Y-92178273D01*
X190762202Y-92273511D01*
X190762202Y-92463988D01*
X190809821Y-92559226D01*
X190857440Y-92606845D01*
X190952678Y-92654464D01*
X191143154Y-92654464D01*
X191238392Y-92606845D01*
X191286011Y-92559226D01*
X191333630Y-92463988D01*
X191333630Y-92273511D01*
X191286011Y-92178273D01*
X191238392Y-92130654D01*
X191143154Y-92083035D01*
X190952678Y-92083035D01*
X190857440Y-92130654D01*
X190809821Y-92178273D01*
X190762202Y-92273511D01*
%TO.C,D9*%
X211177380Y-93606845D02*
X210177380Y-93606845D01*
X210177380Y-93368750D01*
X210225000Y-93225892D01*
X210320238Y-93130654D01*
X210415476Y-93083035D01*
X210605952Y-93035416D01*
X210748809Y-93035416D01*
X210939285Y-93083035D01*
X211034523Y-93130654D01*
X211129761Y-93225892D01*
X211177380Y-93368750D01*
X211177380Y-93606845D01*
X211177380Y-92559226D02*
X211177380Y-92368750D01*
X211129761Y-92273511D01*
X211082142Y-92225892D01*
X210939285Y-92130654D01*
X210748809Y-92083035D01*
X210367857Y-92083035D01*
X210272619Y-92130654D01*
X210225000Y-92178273D01*
X210177380Y-92273511D01*
X210177380Y-92463988D01*
X210225000Y-92559226D01*
X210272619Y-92606845D01*
X210367857Y-92654464D01*
X210605952Y-92654464D01*
X210701190Y-92606845D01*
X210748809Y-92559226D01*
X210796428Y-92463988D01*
X210796428Y-92273511D01*
X210748809Y-92178273D01*
X210701190Y-92130654D01*
X210605952Y-92083035D01*
%TO.C,D5*%
X168314880Y-74556845D02*
X167314880Y-74556845D01*
X167314880Y-74318750D01*
X167362500Y-74175892D01*
X167457738Y-74080654D01*
X167552976Y-74033035D01*
X167743452Y-73985416D01*
X167886309Y-73985416D01*
X168076785Y-74033035D01*
X168172023Y-74080654D01*
X168267261Y-74175892D01*
X168314880Y-74318750D01*
X168314880Y-74556845D01*
X167314880Y-73080654D02*
X167314880Y-73556845D01*
X167791071Y-73604464D01*
X167743452Y-73556845D01*
X167695833Y-73461607D01*
X167695833Y-73223511D01*
X167743452Y-73128273D01*
X167791071Y-73080654D01*
X167886309Y-73033035D01*
X168124404Y-73033035D01*
X168219642Y-73080654D01*
X168267261Y-73128273D01*
X168314880Y-73223511D01*
X168314880Y-73461607D01*
X168267261Y-73556845D01*
X168219642Y-73604464D01*
%TO.C,D6*%
X191333630Y-74556845D02*
X190333630Y-74556845D01*
X190333630Y-74318750D01*
X190381250Y-74175892D01*
X190476488Y-74080654D01*
X190571726Y-74033035D01*
X190762202Y-73985416D01*
X190905059Y-73985416D01*
X191095535Y-74033035D01*
X191190773Y-74080654D01*
X191286011Y-74175892D01*
X191333630Y-74318750D01*
X191333630Y-74556845D01*
X190333630Y-73128273D02*
X190333630Y-73318750D01*
X190381250Y-73413988D01*
X190428869Y-73461607D01*
X190571726Y-73556845D01*
X190762202Y-73604464D01*
X191143154Y-73604464D01*
X191238392Y-73556845D01*
X191286011Y-73509226D01*
X191333630Y-73413988D01*
X191333630Y-73223511D01*
X191286011Y-73128273D01*
X191238392Y-73080654D01*
X191143154Y-73033035D01*
X190905059Y-73033035D01*
X190809821Y-73080654D01*
X190762202Y-73128273D01*
X190714583Y-73223511D01*
X190714583Y-73413988D01*
X190762202Y-73509226D01*
X190809821Y-73556845D01*
X190905059Y-73604464D01*
%TO.C,D1*%
X148471130Y-50744345D02*
X147471130Y-50744345D01*
X147471130Y-50506250D01*
X147518750Y-50363392D01*
X147613988Y-50268154D01*
X147709226Y-50220535D01*
X147899702Y-50172916D01*
X148042559Y-50172916D01*
X148233035Y-50220535D01*
X148328273Y-50268154D01*
X148423511Y-50363392D01*
X148471130Y-50506250D01*
X148471130Y-50744345D01*
X148471130Y-49220535D02*
X148471130Y-49791964D01*
X148471130Y-49506250D02*
X147471130Y-49506250D01*
X147613988Y-49601488D01*
X147709226Y-49696726D01*
X147756845Y-49791964D01*
%TO.C,U1*%
X161391607Y-97859809D02*
X161429702Y-97745523D01*
X161467797Y-97707428D01*
X161543988Y-97669333D01*
X161658273Y-97669333D01*
X161734464Y-97707428D01*
X161772559Y-97745523D01*
X161810654Y-97821714D01*
X161810654Y-98126476D01*
X161010654Y-98126476D01*
X161010654Y-97859809D01*
X161048750Y-97783619D01*
X161086845Y-97745523D01*
X161163035Y-97707428D01*
X161239226Y-97707428D01*
X161315416Y-97745523D01*
X161353511Y-97783619D01*
X161391607Y-97859809D01*
X161391607Y-98126476D01*
X161277321Y-96983619D02*
X161810654Y-96983619D01*
X160972559Y-97174095D02*
X161543988Y-97364571D01*
X161543988Y-96869333D01*
X143268750Y-98145523D02*
X143230654Y-98221714D01*
X143230654Y-98336000D01*
X143268750Y-98450285D01*
X143344940Y-98526476D01*
X143421130Y-98564571D01*
X143573511Y-98602666D01*
X143687797Y-98602666D01*
X143840178Y-98564571D01*
X143916369Y-98526476D01*
X143992559Y-98450285D01*
X144030654Y-98336000D01*
X144030654Y-98259809D01*
X143992559Y-98145523D01*
X143954464Y-98107428D01*
X143687797Y-98107428D01*
X143687797Y-98259809D01*
X144030654Y-97764571D02*
X143230654Y-97764571D01*
X144030654Y-97307428D01*
X143230654Y-97307428D01*
X144030654Y-96926476D02*
X143230654Y-96926476D01*
X143230654Y-96736000D01*
X143268750Y-96621714D01*
X143344940Y-96545523D01*
X143421130Y-96507428D01*
X143573511Y-96469333D01*
X143687797Y-96469333D01*
X143840178Y-96507428D01*
X143916369Y-96545523D01*
X143992559Y-96621714D01*
X144030654Y-96736000D01*
X144030654Y-96926476D01*
X135610654Y-97837348D02*
X135610654Y-97380205D01*
X136410654Y-97608776D02*
X135610654Y-97608776D01*
X135610654Y-97189729D02*
X136410654Y-96656395D01*
X135610654Y-96656395D02*
X136410654Y-97189729D01*
X135610654Y-96199252D02*
X135610654Y-96123062D01*
X135648750Y-96046872D01*
X135686845Y-96008776D01*
X135763035Y-95970681D01*
X135915416Y-95932586D01*
X136105892Y-95932586D01*
X136258273Y-95970681D01*
X136334464Y-96008776D01*
X136372559Y-96046872D01*
X136410654Y-96123062D01*
X136410654Y-96199252D01*
X136372559Y-96275443D01*
X136334464Y-96313538D01*
X136258273Y-96351633D01*
X136105892Y-96389729D01*
X135915416Y-96389729D01*
X135763035Y-96351633D01*
X135686845Y-96313538D01*
X135648750Y-96275443D01*
X135610654Y-96199252D01*
X135572559Y-95018300D02*
X136601130Y-95704014D01*
X136410654Y-94751633D02*
X135610654Y-94751633D01*
X135610654Y-94561157D01*
X135648750Y-94446872D01*
X135724940Y-94370681D01*
X135801130Y-94332586D01*
X135953511Y-94294491D01*
X136067797Y-94294491D01*
X136220178Y-94332586D01*
X136296369Y-94370681D01*
X136372559Y-94446872D01*
X136410654Y-94561157D01*
X136410654Y-94751633D01*
X135610654Y-94027824D02*
X135610654Y-93532586D01*
X135915416Y-93799252D01*
X135915416Y-93684967D01*
X135953511Y-93608776D01*
X135991607Y-93570681D01*
X136067797Y-93532586D01*
X136258273Y-93532586D01*
X136334464Y-93570681D01*
X136372559Y-93608776D01*
X136410654Y-93684967D01*
X136410654Y-93913538D01*
X136372559Y-93989729D01*
X136334464Y-94027824D01*
X141422559Y-86875213D02*
X141460654Y-86760927D01*
X141460654Y-86570451D01*
X141422559Y-86494260D01*
X141384464Y-86456165D01*
X141308273Y-86418070D01*
X141232083Y-86418070D01*
X141155892Y-86456165D01*
X141117797Y-86494260D01*
X141079702Y-86570451D01*
X141041607Y-86722832D01*
X141003511Y-86799022D01*
X140965416Y-86837118D01*
X140889226Y-86875213D01*
X140813035Y-86875213D01*
X140736845Y-86837118D01*
X140698750Y-86799022D01*
X140660654Y-86722832D01*
X140660654Y-86532356D01*
X140698750Y-86418070D01*
X140660654Y-86189499D02*
X140660654Y-85732356D01*
X141460654Y-85960927D02*
X140660654Y-85960927D01*
X151650654Y-98126476D02*
X150850654Y-98126476D01*
X150850654Y-97936000D01*
X150888750Y-97821714D01*
X150964940Y-97745523D01*
X151041130Y-97707428D01*
X151193511Y-97669333D01*
X151307797Y-97669333D01*
X151460178Y-97707428D01*
X151536369Y-97745523D01*
X151612559Y-97821714D01*
X151650654Y-97936000D01*
X151650654Y-98126476D01*
X151117321Y-96983619D02*
X151650654Y-96983619D01*
X150812559Y-97174095D02*
X151383988Y-97364571D01*
X151383988Y-96869333D01*
X158851607Y-98088380D02*
X158851607Y-97821714D01*
X159270654Y-97707428D02*
X159270654Y-98088380D01*
X158470654Y-98088380D01*
X158470654Y-97707428D01*
X158470654Y-97021714D02*
X158470654Y-97174095D01*
X158508750Y-97250285D01*
X158546845Y-97288380D01*
X158661130Y-97364571D01*
X158813511Y-97402666D01*
X159118273Y-97402666D01*
X159194464Y-97364571D01*
X159232559Y-97326476D01*
X159270654Y-97250285D01*
X159270654Y-97097904D01*
X159232559Y-97021714D01*
X159194464Y-96983619D01*
X159118273Y-96945523D01*
X158927797Y-96945523D01*
X158851607Y-96983619D01*
X158813511Y-97021714D01*
X158775416Y-97097904D01*
X158775416Y-97250285D01*
X158813511Y-97326476D01*
X158851607Y-97364571D01*
X158927797Y-97402666D01*
X136410654Y-87166380D02*
X136029702Y-87433047D01*
X136410654Y-87623523D02*
X135610654Y-87623523D01*
X135610654Y-87318761D01*
X135648750Y-87242571D01*
X135686845Y-87204476D01*
X135763035Y-87166380D01*
X135877321Y-87166380D01*
X135953511Y-87204476D01*
X135991607Y-87242571D01*
X136029702Y-87318761D01*
X136029702Y-87623523D01*
X136182083Y-86861619D02*
X136182083Y-86480666D01*
X136410654Y-86937809D02*
X135610654Y-86671142D01*
X136410654Y-86404476D01*
X135610654Y-86214000D02*
X136410654Y-86023523D01*
X135839226Y-85871142D01*
X136410654Y-85718761D01*
X135610654Y-85528285D01*
X161391607Y-86937809D02*
X161429702Y-86823523D01*
X161467797Y-86785428D01*
X161543988Y-86747333D01*
X161658273Y-86747333D01*
X161734464Y-86785428D01*
X161772559Y-86823523D01*
X161810654Y-86899714D01*
X161810654Y-87204476D01*
X161010654Y-87204476D01*
X161010654Y-86937809D01*
X161048750Y-86861619D01*
X161086845Y-86823523D01*
X161163035Y-86785428D01*
X161239226Y-86785428D01*
X161315416Y-86823523D01*
X161353511Y-86861619D01*
X161391607Y-86937809D01*
X161391607Y-87204476D01*
X161086845Y-86442571D02*
X161048750Y-86404476D01*
X161010654Y-86328285D01*
X161010654Y-86137809D01*
X161048750Y-86061619D01*
X161086845Y-86023523D01*
X161163035Y-85985428D01*
X161239226Y-85985428D01*
X161353511Y-86023523D01*
X161810654Y-86480666D01*
X161810654Y-85985428D01*
X163931607Y-86937809D02*
X163969702Y-86823523D01*
X164007797Y-86785428D01*
X164083988Y-86747333D01*
X164198273Y-86747333D01*
X164274464Y-86785428D01*
X164312559Y-86823523D01*
X164350654Y-86899714D01*
X164350654Y-87204476D01*
X163550654Y-87204476D01*
X163550654Y-86937809D01*
X163588750Y-86861619D01*
X163626845Y-86823523D01*
X163703035Y-86785428D01*
X163779226Y-86785428D01*
X163855416Y-86823523D01*
X163893511Y-86861619D01*
X163931607Y-86937809D01*
X163931607Y-87204476D01*
X163550654Y-86061619D02*
X163550654Y-86214000D01*
X163588750Y-86290190D01*
X163626845Y-86328285D01*
X163741130Y-86404476D01*
X163893511Y-86442571D01*
X164198273Y-86442571D01*
X164274464Y-86404476D01*
X164312559Y-86366380D01*
X164350654Y-86290190D01*
X164350654Y-86137809D01*
X164312559Y-86061619D01*
X164274464Y-86023523D01*
X164198273Y-85985428D01*
X164007797Y-85985428D01*
X163931607Y-86023523D01*
X163893511Y-86061619D01*
X163855416Y-86137809D01*
X163855416Y-86290190D01*
X163893511Y-86366380D01*
X163931607Y-86404476D01*
X164007797Y-86442571D01*
X151231607Y-86880666D02*
X151231607Y-87147333D01*
X151650654Y-87147333D02*
X150850654Y-87147333D01*
X150850654Y-86766380D01*
X150850654Y-86118761D02*
X150850654Y-86271142D01*
X150888750Y-86347333D01*
X150926845Y-86385428D01*
X151041130Y-86461619D01*
X151193511Y-86499714D01*
X151498273Y-86499714D01*
X151574464Y-86461619D01*
X151612559Y-86423523D01*
X151650654Y-86347333D01*
X151650654Y-86194952D01*
X151612559Y-86118761D01*
X151574464Y-86080666D01*
X151498273Y-86042571D01*
X151307797Y-86042571D01*
X151231607Y-86080666D01*
X151193511Y-86118761D01*
X151155416Y-86194952D01*
X151155416Y-86347333D01*
X151193511Y-86423523D01*
X151231607Y-86461619D01*
X151307797Y-86499714D01*
X153771607Y-86880666D02*
X153771607Y-87147333D01*
X154190654Y-87147333D02*
X153390654Y-87147333D01*
X153390654Y-86766380D01*
X153390654Y-86537809D02*
X153390654Y-86004476D01*
X154190654Y-86347333D01*
X138950654Y-98126476D02*
X138150654Y-98126476D01*
X138150654Y-97936000D01*
X138188750Y-97821714D01*
X138264940Y-97745523D01*
X138341130Y-97707428D01*
X138493511Y-97669333D01*
X138607797Y-97669333D01*
X138760178Y-97707428D01*
X138836369Y-97745523D01*
X138912559Y-97821714D01*
X138950654Y-97936000D01*
X138950654Y-98126476D01*
X138226845Y-97364571D02*
X138188750Y-97326476D01*
X138150654Y-97250285D01*
X138150654Y-97059809D01*
X138188750Y-96983619D01*
X138226845Y-96945523D01*
X138303035Y-96907428D01*
X138379226Y-96907428D01*
X138493511Y-96945523D01*
X138950654Y-97402666D01*
X138950654Y-96907428D01*
X154114464Y-97669333D02*
X154152559Y-97707428D01*
X154190654Y-97821714D01*
X154190654Y-97897904D01*
X154152559Y-98012190D01*
X154076369Y-98088380D01*
X154000178Y-98126476D01*
X153847797Y-98164571D01*
X153733511Y-98164571D01*
X153581130Y-98126476D01*
X153504940Y-98088380D01*
X153428750Y-98012190D01*
X153390654Y-97897904D01*
X153390654Y-97821714D01*
X153428750Y-97707428D01*
X153466845Y-97669333D01*
X153390654Y-96983619D02*
X153390654Y-97136000D01*
X153428750Y-97212190D01*
X153466845Y-97250285D01*
X153581130Y-97326476D01*
X153733511Y-97364571D01*
X154038273Y-97364571D01*
X154114464Y-97326476D01*
X154152559Y-97288380D01*
X154190654Y-97212190D01*
X154190654Y-97059809D01*
X154152559Y-96983619D01*
X154114464Y-96945523D01*
X154038273Y-96907428D01*
X153847797Y-96907428D01*
X153771607Y-96945523D01*
X153733511Y-96983619D01*
X153695416Y-97059809D01*
X153695416Y-97212190D01*
X153733511Y-97288380D01*
X153771607Y-97326476D01*
X153847797Y-97364571D01*
X156730654Y-98126476D02*
X155930654Y-98126476D01*
X155930654Y-97936000D01*
X155968750Y-97821714D01*
X156044940Y-97745523D01*
X156121130Y-97707428D01*
X156273511Y-97669333D01*
X156387797Y-97669333D01*
X156540178Y-97707428D01*
X156616369Y-97745523D01*
X156692559Y-97821714D01*
X156730654Y-97936000D01*
X156730654Y-98126476D01*
X155930654Y-97402666D02*
X155930654Y-96869333D01*
X156730654Y-97212190D01*
X163931607Y-97859809D02*
X163969702Y-97745523D01*
X164007797Y-97707428D01*
X164083988Y-97669333D01*
X164198273Y-97669333D01*
X164274464Y-97707428D01*
X164312559Y-97745523D01*
X164350654Y-97821714D01*
X164350654Y-98126476D01*
X163550654Y-98126476D01*
X163550654Y-97859809D01*
X163588750Y-97783619D01*
X163626845Y-97745523D01*
X163703035Y-97707428D01*
X163779226Y-97707428D01*
X163855416Y-97745523D01*
X163893511Y-97783619D01*
X163931607Y-97859809D01*
X163931607Y-98126476D01*
X163550654Y-96945523D02*
X163550654Y-97326476D01*
X163931607Y-97364571D01*
X163893511Y-97326476D01*
X163855416Y-97250285D01*
X163855416Y-97059809D01*
X163893511Y-96983619D01*
X163931607Y-96945523D01*
X164007797Y-96907428D01*
X164198273Y-96907428D01*
X164274464Y-96945523D01*
X164312559Y-96983619D01*
X164350654Y-97059809D01*
X164350654Y-97250285D01*
X164312559Y-97326476D01*
X164274464Y-97364571D01*
X158851607Y-86937809D02*
X158889702Y-86823523D01*
X158927797Y-86785428D01*
X159003988Y-86747333D01*
X159118273Y-86747333D01*
X159194464Y-86785428D01*
X159232559Y-86823523D01*
X159270654Y-86899714D01*
X159270654Y-87204476D01*
X158470654Y-87204476D01*
X158470654Y-86937809D01*
X158508750Y-86861619D01*
X158546845Y-86823523D01*
X158623035Y-86785428D01*
X158699226Y-86785428D01*
X158775416Y-86823523D01*
X158813511Y-86861619D01*
X158851607Y-86937809D01*
X158851607Y-87204476D01*
X158470654Y-86480666D02*
X158470654Y-85985428D01*
X158775416Y-86252095D01*
X158775416Y-86137809D01*
X158813511Y-86061619D01*
X158851607Y-86023523D01*
X158927797Y-85985428D01*
X159118273Y-85985428D01*
X159194464Y-86023523D01*
X159232559Y-86061619D01*
X159270654Y-86137809D01*
X159270654Y-86366380D01*
X159232559Y-86442571D01*
X159194464Y-86480666D01*
X138188750Y-87223523D02*
X138150654Y-87299714D01*
X138150654Y-87414000D01*
X138188750Y-87528285D01*
X138264940Y-87604476D01*
X138341130Y-87642571D01*
X138493511Y-87680666D01*
X138607797Y-87680666D01*
X138760178Y-87642571D01*
X138836369Y-87604476D01*
X138912559Y-87528285D01*
X138950654Y-87414000D01*
X138950654Y-87337809D01*
X138912559Y-87223523D01*
X138874464Y-87185428D01*
X138607797Y-87185428D01*
X138607797Y-87337809D01*
X138950654Y-86842571D02*
X138150654Y-86842571D01*
X138950654Y-86385428D01*
X138150654Y-86385428D01*
X138950654Y-86004476D02*
X138150654Y-86004476D01*
X138150654Y-85814000D01*
X138188750Y-85699714D01*
X138264940Y-85623523D01*
X138341130Y-85585428D01*
X138493511Y-85547333D01*
X138607797Y-85547333D01*
X138760178Y-85585428D01*
X138836369Y-85623523D01*
X138912559Y-85699714D01*
X138950654Y-85814000D01*
X138950654Y-86004476D01*
X143230654Y-87680666D02*
X144030654Y-87414000D01*
X143230654Y-87147333D01*
X143954464Y-86423523D02*
X143992559Y-86461619D01*
X144030654Y-86575904D01*
X144030654Y-86652095D01*
X143992559Y-86766380D01*
X143916369Y-86842571D01*
X143840178Y-86880666D01*
X143687797Y-86918761D01*
X143573511Y-86918761D01*
X143421130Y-86880666D01*
X143344940Y-86842571D01*
X143268750Y-86766380D01*
X143230654Y-86652095D01*
X143230654Y-86575904D01*
X143268750Y-86461619D01*
X143306845Y-86423523D01*
X143954464Y-85623523D02*
X143992559Y-85661619D01*
X144030654Y-85775904D01*
X144030654Y-85852095D01*
X143992559Y-85966380D01*
X143916369Y-86042571D01*
X143840178Y-86080666D01*
X143687797Y-86118761D01*
X143573511Y-86118761D01*
X143421130Y-86080666D01*
X143344940Y-86042571D01*
X143268750Y-85966380D01*
X143230654Y-85852095D01*
X143230654Y-85775904D01*
X143268750Y-85661619D01*
X143306845Y-85623523D01*
X146151607Y-88372916D02*
X146151607Y-88639583D01*
X146570654Y-88639583D02*
X145770654Y-88639583D01*
X145770654Y-88258630D01*
X146037321Y-87611011D02*
X146570654Y-87611011D01*
X145732559Y-87801488D02*
X146303988Y-87991964D01*
X146303988Y-87496726D01*
X140728750Y-98145523D02*
X140690654Y-98221714D01*
X140690654Y-98336000D01*
X140728750Y-98450285D01*
X140804940Y-98526476D01*
X140881130Y-98564571D01*
X141033511Y-98602666D01*
X141147797Y-98602666D01*
X141300178Y-98564571D01*
X141376369Y-98526476D01*
X141452559Y-98450285D01*
X141490654Y-98336000D01*
X141490654Y-98259809D01*
X141452559Y-98145523D01*
X141414464Y-98107428D01*
X141147797Y-98107428D01*
X141147797Y-98259809D01*
X141490654Y-97764571D02*
X140690654Y-97764571D01*
X141490654Y-97307428D01*
X140690654Y-97307428D01*
X141490654Y-96926476D02*
X140690654Y-96926476D01*
X140690654Y-96736000D01*
X140728750Y-96621714D01*
X140804940Y-96545523D01*
X140881130Y-96507428D01*
X141033511Y-96469333D01*
X141147797Y-96469333D01*
X141300178Y-96507428D01*
X141376369Y-96545523D01*
X141452559Y-96621714D01*
X141490654Y-96736000D01*
X141490654Y-96926476D01*
X148691607Y-86880666D02*
X148691607Y-87147333D01*
X149110654Y-87147333D02*
X148310654Y-87147333D01*
X148310654Y-86766380D01*
X148310654Y-86080666D02*
X148310654Y-86461619D01*
X148691607Y-86499714D01*
X148653511Y-86461619D01*
X148615416Y-86385428D01*
X148615416Y-86194952D01*
X148653511Y-86118761D01*
X148691607Y-86080666D01*
X148767797Y-86042571D01*
X148958273Y-86042571D01*
X149034464Y-86080666D01*
X149072559Y-86118761D01*
X149110654Y-86194952D01*
X149110654Y-86385428D01*
X149072559Y-86461619D01*
X149034464Y-86499714D01*
X149110654Y-98126476D02*
X148310654Y-98126476D01*
X148310654Y-97936000D01*
X148348750Y-97821714D01*
X148424940Y-97745523D01*
X148501130Y-97707428D01*
X148653511Y-97669333D01*
X148767797Y-97669333D01*
X148920178Y-97707428D01*
X148996369Y-97745523D01*
X149072559Y-97821714D01*
X149110654Y-97936000D01*
X149110654Y-98126476D01*
X148310654Y-97174095D02*
X148310654Y-97097904D01*
X148348750Y-97021714D01*
X148386845Y-96983619D01*
X148463035Y-96945523D01*
X148615416Y-96907428D01*
X148805892Y-96907428D01*
X148958273Y-96945523D01*
X149034464Y-96983619D01*
X149072559Y-97021714D01*
X149110654Y-97097904D01*
X149110654Y-97174095D01*
X149072559Y-97250285D01*
X149034464Y-97288380D01*
X148958273Y-97326476D01*
X148805892Y-97364571D01*
X148615416Y-97364571D01*
X148463035Y-97326476D01*
X148386845Y-97288380D01*
X148348750Y-97250285D01*
X148310654Y-97174095D01*
X146570654Y-98126476D02*
X145770654Y-98126476D01*
X145770654Y-97936000D01*
X145808750Y-97821714D01*
X145884940Y-97745523D01*
X145961130Y-97707428D01*
X146113511Y-97669333D01*
X146227797Y-97669333D01*
X146380178Y-97707428D01*
X146456369Y-97745523D01*
X146532559Y-97821714D01*
X146570654Y-97936000D01*
X146570654Y-98126476D01*
X146570654Y-96907428D02*
X146570654Y-97364571D01*
X146570654Y-97136000D02*
X145770654Y-97136000D01*
X145884940Y-97212190D01*
X145961130Y-97288380D01*
X145999226Y-97364571D01*
X156311607Y-86937809D02*
X156349702Y-86823523D01*
X156387797Y-86785428D01*
X156463988Y-86747333D01*
X156578273Y-86747333D01*
X156654464Y-86785428D01*
X156692559Y-86823523D01*
X156730654Y-86899714D01*
X156730654Y-87204476D01*
X155930654Y-87204476D01*
X155930654Y-86937809D01*
X155968750Y-86861619D01*
X156006845Y-86823523D01*
X156083035Y-86785428D01*
X156159226Y-86785428D01*
X156235416Y-86823523D01*
X156273511Y-86861619D01*
X156311607Y-86937809D01*
X156311607Y-87204476D01*
X156730654Y-85985428D02*
X156730654Y-86442571D01*
X156730654Y-86214000D02*
X155930654Y-86214000D01*
X156044940Y-86290190D01*
X156121130Y-86366380D01*
X156159226Y-86442571D01*
%TO.C,D3*%
X191333630Y-50744345D02*
X190333630Y-50744345D01*
X190333630Y-50506250D01*
X190381250Y-50363392D01*
X190476488Y-50268154D01*
X190571726Y-50220535D01*
X190762202Y-50172916D01*
X190905059Y-50172916D01*
X191095535Y-50220535D01*
X191190773Y-50268154D01*
X191286011Y-50363392D01*
X191333630Y-50506250D01*
X191333630Y-50744345D01*
X190333630Y-49839583D02*
X190333630Y-49220535D01*
X190714583Y-49553869D01*
X190714583Y-49411011D01*
X190762202Y-49315773D01*
X190809821Y-49268154D01*
X190905059Y-49220535D01*
X191143154Y-49220535D01*
X191238392Y-49268154D01*
X191286011Y-49315773D01*
X191333630Y-49411011D01*
X191333630Y-49696726D01*
X191286011Y-49791964D01*
X191238392Y-49839583D01*
%TO.C,D2*%
X168314880Y-50744345D02*
X167314880Y-50744345D01*
X167314880Y-50506250D01*
X167362500Y-50363392D01*
X167457738Y-50268154D01*
X167552976Y-50220535D01*
X167743452Y-50172916D01*
X167886309Y-50172916D01*
X168076785Y-50220535D01*
X168172023Y-50268154D01*
X168267261Y-50363392D01*
X168314880Y-50506250D01*
X168314880Y-50744345D01*
X167410119Y-49791964D02*
X167362500Y-49744345D01*
X167314880Y-49649107D01*
X167314880Y-49411011D01*
X167362500Y-49315773D01*
X167410119Y-49268154D01*
X167505357Y-49220535D01*
X167600595Y-49220535D01*
X167743452Y-49268154D01*
X168314880Y-49839583D01*
X168314880Y-49220535D01*
%TO.C,D10*%
X221829464Y-81796130D02*
X221829464Y-80796130D01*
X222067559Y-80796130D01*
X222210416Y-80843750D01*
X222305654Y-80938988D01*
X222353273Y-81034226D01*
X222400892Y-81224702D01*
X222400892Y-81367559D01*
X222353273Y-81558035D01*
X222305654Y-81653273D01*
X222210416Y-81748511D01*
X222067559Y-81796130D01*
X221829464Y-81796130D01*
X223353273Y-81796130D02*
X222781845Y-81796130D01*
X223067559Y-81796130D02*
X223067559Y-80796130D01*
X222972321Y-80938988D01*
X222877083Y-81034226D01*
X222781845Y-81081845D01*
X223972321Y-80796130D02*
X224067559Y-80796130D01*
X224162797Y-80843750D01*
X224210416Y-80891369D01*
X224258035Y-80986607D01*
X224305654Y-81177083D01*
X224305654Y-81415178D01*
X224258035Y-81605654D01*
X224210416Y-81700892D01*
X224162797Y-81748511D01*
X224067559Y-81796130D01*
X223972321Y-81796130D01*
X223877083Y-81748511D01*
X223829464Y-81700892D01*
X223781845Y-81605654D01*
X223734226Y-81415178D01*
X223734226Y-81177083D01*
X223781845Y-80986607D01*
X223829464Y-80891369D01*
X223877083Y-80843750D01*
X223972321Y-80796130D01*
D11*
%TO.C,D4*%
X149018750Y-76068750D02*
X149018750Y-72168750D01*
X149018750Y-76068750D02*
X151018750Y-76068750D01*
X151018750Y-76068750D02*
X151018750Y-72168750D01*
%TO.C,D7*%
X211725000Y-76068750D02*
X213725000Y-76068750D01*
X213725000Y-76068750D02*
X213725000Y-72168750D01*
X211725000Y-76068750D02*
X211725000Y-72168750D01*
%TO.C,D8*%
X191881250Y-95118750D02*
X191881250Y-91218750D01*
X193881250Y-95118750D02*
X193881250Y-91218750D01*
X191881250Y-95118750D02*
X193881250Y-95118750D01*
%TO.C,D9*%
X211725000Y-95118750D02*
X211725000Y-91218750D01*
X213725000Y-95118750D02*
X213725000Y-91218750D01*
X211725000Y-95118750D02*
X213725000Y-95118750D01*
%TO.C,D5*%
X168862500Y-76068750D02*
X168862500Y-72168750D01*
X170862500Y-76068750D02*
X170862500Y-72168750D01*
X168862500Y-76068750D02*
X170862500Y-76068750D01*
%TO.C,D6*%
X191881250Y-76068750D02*
X191881250Y-72168750D01*
X193881250Y-76068750D02*
X193881250Y-72168750D01*
X191881250Y-76068750D02*
X193881250Y-76068750D01*
%TO.C,D1*%
X151018750Y-52256250D02*
X151018750Y-48356250D01*
X149018750Y-52256250D02*
X149018750Y-48356250D01*
X149018750Y-52256250D02*
X151018750Y-52256250D01*
D12*
%TO.C,U1*%
X134778750Y-98425000D02*
X137318750Y-98425000D01*
X137318750Y-98425000D02*
X137318750Y-100965000D01*
X165258750Y-100965000D02*
X165258750Y-83185000D01*
X132238750Y-83185000D02*
X132238750Y-100965000D01*
X134778750Y-100965000D02*
X165258750Y-100965000D01*
X165258750Y-83185000D02*
X134778750Y-83185000D01*
X134778750Y-83185000D02*
X132238750Y-83185000D01*
X134778750Y-98425000D02*
X134778750Y-100965000D01*
X132238750Y-100965000D02*
X134778750Y-100965000D01*
G36*
X141458110Y-87243432D02*
G01*
X141258110Y-87243432D01*
X141258110Y-87143432D01*
X141458110Y-87143432D01*
X141458110Y-87243432D01*
G37*
D10*
X141458110Y-87243432D02*
X141258110Y-87243432D01*
X141258110Y-87143432D01*
X141458110Y-87143432D01*
X141458110Y-87243432D01*
G36*
X141158110Y-87443432D02*
G01*
X141058110Y-87443432D01*
X141058110Y-87343432D01*
X141158110Y-87343432D01*
X141158110Y-87443432D01*
G37*
X141158110Y-87443432D02*
X141058110Y-87443432D01*
X141058110Y-87343432D01*
X141158110Y-87343432D01*
X141158110Y-87443432D01*
G36*
X141458110Y-87643432D02*
G01*
X140658110Y-87643432D01*
X140658110Y-87543432D01*
X141458110Y-87543432D01*
X141458110Y-87643432D01*
G37*
X141458110Y-87643432D02*
X140658110Y-87643432D01*
X140658110Y-87543432D01*
X141458110Y-87543432D01*
X141458110Y-87643432D01*
G36*
X140958110Y-87243432D02*
G01*
X140658110Y-87243432D01*
X140658110Y-87143432D01*
X140958110Y-87143432D01*
X140958110Y-87243432D01*
G37*
X140958110Y-87243432D02*
X140658110Y-87243432D01*
X140658110Y-87143432D01*
X140958110Y-87143432D01*
X140958110Y-87243432D01*
G36*
X140758110Y-87643432D02*
G01*
X140658110Y-87643432D01*
X140658110Y-87143432D01*
X140758110Y-87143432D01*
X140758110Y-87643432D01*
G37*
X140758110Y-87643432D02*
X140658110Y-87643432D01*
X140658110Y-87143432D01*
X140758110Y-87143432D01*
X140758110Y-87643432D01*
D11*
%TO.C,D3*%
X193881250Y-52256250D02*
X193881250Y-48356250D01*
X191881250Y-52256250D02*
X193881250Y-52256250D01*
X191881250Y-52256250D02*
X191881250Y-48356250D01*
%TO.C,D2*%
X168862500Y-52256250D02*
X170862500Y-52256250D01*
X170862500Y-52256250D02*
X170862500Y-48356250D01*
X168862500Y-52256250D02*
X168862500Y-48356250D01*
%TO.C,D10*%
X220793750Y-82343750D02*
X220793750Y-84343750D01*
X220793750Y-82343750D02*
X224693750Y-82343750D01*
X220793750Y-84343750D02*
X224693750Y-84343750D01*
%TD*%
D13*
%TO.C,U1*%
X136048750Y-99695000D03*
D14*
X138588750Y-99695000D03*
X141128750Y-99695000D03*
X143668750Y-99695000D03*
X146208750Y-99695000D03*
X148748750Y-99695000D03*
X151288750Y-99695000D03*
X153828750Y-99695000D03*
X156368750Y-99695000D03*
X158908750Y-99695000D03*
X161448750Y-99695000D03*
X163988750Y-99695000D03*
X163988750Y-84455000D03*
X161448750Y-84455000D03*
X158908750Y-84455000D03*
X156368750Y-84455000D03*
X153828750Y-84455000D03*
X151288750Y-84455000D03*
X148748750Y-84455000D03*
X146208750Y-84455000D03*
X143668750Y-84455000D03*
X141128750Y-84455000D03*
X138588750Y-84455000D03*
X136048750Y-84455000D03*
%TD*%
M02*
