<?xml version="1.0" standalone="no"?>
 <!DOCTYPE svg PUBLIC "-//W3C//DTD SVG 1.1//EN" 
 "http://www.w3.org/Graphics/SVG/1.1/DTD/svg11.dtd"> 
<svg
  xmlns:svg="http://www.w3.org/2000/svg"
  xmlns="http://www.w3.org/2000/svg"
  xmlns:xlink="http://www.w3.org/1999/xlink"
  version="1.1"
  width="29.700220cm" height="21.000720cm" viewBox="0 0 297002200 210007200">
<title>SVG Picture created as F14-DDP-B_Mask.svg date 2022/09/13 17:56:38 </title>
  <desc>Picture generated by PCBNEW </desc>
<g style="fill:#000000; fill-opacity:1.000000;stroke:#000000; stroke-opacity:1.000000;
stroke-linecap:round; stroke-linejoin:round;"
 transform="translate(0 0) scale(1 1)">
</g>
<g style="fill:#000000; fill-opacity:0.0; 
stroke:#000000; stroke-width:0.000000; stroke-opacity:1; 
stroke-linecap:round; stroke-linejoin:round;">
</g>
<g style="fill:#000000; fill-opacity:1.0; 
stroke:#000000; stroke-width:1.000000; stroke-opacity:1; 
stroke-linecap:round; stroke-linejoin:round;">
<path style="fill:#000000; fill-opacity:1.0; 
stroke:#000000; stroke-width:1.000000; stroke-opacity:1; 
stroke-linecap:round; stroke-linejoin:round;fill-rule:evenodd;"
d="M 197579610.000000,55443280.000000
197630100.000000,55448167.000000
197681154.000000,55459677.000000
197742640.000000,55479615.000000
197824425.000000,55509787.000000
197824880.000000,55509958.000000
197880909.000000,55533627.000000
197935894.000000,55560408.000000
197938715.000000,55561902.000000
197994346.000000,55588202.000000
198051604.000000,55611156.000000
198067168.000000,55617423.000000
198117279.000000,55641869.000000
198180193.000000,55676294.000000
198245929.000000,55715347.000000
198281270.000000,55737117.000000
198333132.000000,55768444.000000
198370130.000000,55789979.000000
198385939.000000,55797987.000000
198397664.000000,55803902.000000
198433269.000000,55824160.000000
198488110.000000,55856238.000000
198557588.000000,55897441.000000
198637103.000000,55945077.000000
198742709.000000,56006366.000000
198880163.000000,56080162.000000
199015972.000000,56146998.000000
199143885.000000,56203971.000000
199257652.000000,56248177.000000
199351023.000000,56276712.000000
199383869.000000,56284781.000000
199472788.000000,56307282.000000
199560614.000000,56330327.000000
199641262.000000,56352241.000000
199708645.000000,56371351.000000
199756676.000000,56385984.000000
199779269.000000,56394466.000000
199783908.000000,56396770.000000
199816282.000000,56406789.000000
199862002.000000,56416528.000000
199889686.000000,56422017.000000
199952984.000000,56437013.000000
200016880.000000,56454495.000000
200030361.000000,56458390.000000
200095195.000000,56475623.000000
200173894.000000,56494942.000000
200252366.000000,56512853.000000
200271321.000000,56517018.000000
200353373.000000,56535694.000000
200433600.000000,56554813.000000
200497018.000000,56570822.000000
200568090.000000,56584996.000000
200691903.000000,56588498.000000
200705655.000000,56587226.000000
200812430.000000,56573381.000000
200918743.000000,56553427.000000
201016601.000000,56529300.000000
201098008.000000,56502939.000000
201154970.000000,56476279.000000
201156576.000000,56475319.000000
201189130.000000,56460047.000000
201244515.000000,56437715.000000
201315397.000000,56411175.000000
201394441.000000,56383273.000000
201594572.000000,56314727.000000
201906014.000000,56323279.000000
201933458.000000,56324052.000000
202053014.000000,56328157.000000
202149741.000000,56333276.000000
202231682.000000,56340221.000000
202306875.000000,56349803.000000
202383362.000000,56362834.000000
202469182.000000,56380125.000000
202535864.000000,56396550.000000
202656165.000000,56434623.000000
202777320.000000,56481681.000000
202883312.000000,56531856.000000
202978530.000000,56584615.000000
203116502.000000,56667360.000000
203243048.000000,56750580.000000
203348707.000000,56828250.000000
203381464.000000,56853437.000000
203443976.000000,56896367.000000
203511849.000000,56935013.000000
203593632.000000,56974024.000000
203697875.000000,57018047.000000
203698031.000000,57018110.000000
203799036.000000,57059145.000000
203883183.000000,57092510.000000
203955406.000000,57118997.000000
204020639.000000,57139398.000000
204083816.000000,57154508.000000
204149869.000000,57165118.000000
204223734.000000,57172021.000000
204310344.000000,57176010.000000
204414633.000000,57177878.000000
204541534.000000,57178418.000000
204695980.000000,57178421.000000
204827043.000000,57178467.000000
204950366.000000,57178796.000000
205049875.000000,57179691.000000
205130192.000000,57181431.000000
205195940.000000,57184299.000000
205251741.000000,57188576.000000
205302218.000000,57194542.000000
205351993.000000,57202481.000000
205405689.000000,57212672.000000
205467927.000000,57225396.000000
205508367.000000,57233937.000000
205634807.000000,57263763.000000
205748723.000000,57296854.000000
205863707.000000,57337464.000000
205993351.000000,57389847.000000
206081322.000000,57423413.000000
206208105.000000,57461428.000000
206358760.000000,57496197.000000
206364548.000000,57497387.000000
206433587.000000,57511706.000000
206522402.000000,57530285.000000
206620165.000000,57550852.000000
206716049.000000,57571137.000000
206737047.000000,57575589.000000
206825508.000000,57594236.000000
206907103.000000,57611280.000000
206973532.000000,57624993.000000
207016497.000000,57633649.000000
207036206.000000,57637526.000000
207104463.000000,57651244.000000
207170780.000000,57664896.000000
207205113.000000,57670169.000000
207269794.000000,57677032.000000
207353933.000000,57684035.000000
207450491.000000,57690604.000000
207552430.000000,57696160.000000
207643387.000000,57701134.000000
207733596.000000,57707445.000000
207809348.000000,57714192.000000
207864643.000000,57720834.000000
207893479.000000,57726834.000000
207909863.000000,57732133.000000
207957699.000000,57743974.000000
208022968.000000,57757724.000000
208096484.000000,57771365.000000
208133564.000000,57777913.000000
208215992.000000,57793214.000000
208291775.000000,57808171.000000
208348210.000000,57820315.000000
208410922.000000,57834675.000000
208516102.000000,57857289.000000
208625949.000000,57878762.000000
208754220.000000,57901859.000000
208778008.000000,57906060.000000
208865282.000000,57922027.000000
208951905.000000,57938577.000000
209022187.000000,57952730.000000
209083380.000000,57965352.000000
209155494.000000,57979731.000000
209212872.000000,57990659.000000
209233449.000000,57994956.000000
209290569.000000,58011489.000000
209334675.000000,58030264.000000
209340889.000000,58032388.000000
209376442.000000,58041319.000000
209441400.000000,58056166.000000
209534134.000000,58076589.000000
209653013.000000,58102249.000000
209796410.000000,58132806.000000
209962695.000000,58167919.000000
210150239.000000,58207247.000000
210357412.000000,58250451.000000
210582586.000000,58297191.000000
210824131.000000,58347127.000000
211080418.000000,58399917.000000
211349818.000000,58455222.000000
211630702.000000,58512703.000000
211921441.000000,58572018.000000
212220406.000000,58632827.000000
215061335.000000,59209807.000000
215094958.000000,59168045.000000
215129399.000000,59139119.000000
215191652.000000,59122500.000000
215269580.000000,59131935.000000
215279897.000000,59134652.000000
215299067.000000,59137258.000000
215312386.000000,59129832.000000
215322925.000000,59106922.000000
215333756.000000,59063078.000000
215347951.000000,58992847.000000
215349387.000000,58985674.000000
215362143.000000,58932562.000000
215378705.000000,58894835.000000
215403753.000000,58870963.000000
215441966.000000,58859412.000000
215498024.000000,58858652.000000
215576608.000000,58867150.000000
215682396.000000,58883375.000000
215711703.000000,58888255.000000
215795109.000000,58903755.000000
215863941.000000,58918942.000000
215912335.000000,58932434.000000
215934423.000000,58942845.000000
215935354.000000,58944051.000000
215944621.000000,58976890.000000
215942405.000000,59025544.000000
215933120.000000,59083876.000000
215922972.000000,59155399.000000
215918747.000000,59204003.000000
215920425.000000,59235247.000000
215927980.000000,59254693.000000
215941391.000000,59267899.000000
215960040.000000,59278081.000000
216010486.000000,59288597.000000
216062692.000000,59284058.000000
216101233.000000,59264766.000000
216113375.000000,59249126.000000
216136789.000000,59197112.000000
216153392.000000,59130158.000000
216159756.000000,59060237.000000
216159890.000000,59054132.000000
216167682.000000,59010153.000000
216183768.000000,58981471.000000
216194249.000000,58974595.000000
216243928.000000,58962995.000000
216310904.000000,58967987.000000
216387213.000000,58989266.000000
216395106.000000,58992088.000000
216444448.000000,59007495.000000
216515152.000000,59027455.000000
216598972.000000,59049696.000000
216687660.000000,59071950.000000
216696159.000000,59074021.000000
216841855.000000,59110694.000000
216964583.000000,59144364.000000
217072891.000000,59177648.000000
217175326.000000,59213166.000000
217280435.000000,59253534.000000
217292794.000000,59258318.000000
217377789.000000,59286251.000000
217491599.000000,59317227.000000
217631333.000000,59350506.000000
217794099.000000,59385345.000000
217888844.000000,59404963.000000
218003119.000000,59429986.000000
218091468.000000,59451757.000000
218157513.000000,59471584.000000
218204877.000000,59490776.000000
218237179.000000,59510640.000000
218258043.000000,59532484.000000
218271091.000000,59557617.000000
218273246.000000,59562785.000000
218298876.000000,59591457.000000
218347508.000000,59606840.000000
218353279.000000,59607846.000000
218392742.000000,59615188.000000
218458197.000000,59627713.000000
218545058.000000,59644529.000000
218648741.000000,59664747.000000
218764662.000000,59687477.000000
218888236.000000,59711829.000000
218915811.000000,59717257.000000
219041393.000000,59741497.000000
219160693.000000,59763787.000000
219268602.000000,59783221.000000
219360011.000000,59798897.000000
219429811.000000,59809908.000000
219472890.000000,59815350.000000
219538352.000000,59823357.000000
219622141.000000,59837767.000000
219700256.000000,59854859.000000
219738103.000000,59864129.000000
219820072.000000,59883307.000000
219912166.000000,59904039.000000
220000704.000000,59923212.000000
220075470.000000,59941280.000000
220199310.000000,59978523.000000
220346860.000000,60030243.000000
220520397.000000,60097204.000000
220553044.000000,60110217.000000
220660268.000000,60152544.000000
220763406.000000,60192685.000000
220855953.000000,60228139.000000
220931402.000000,60256409.000000
220983248.000000,60274994.000000
221085699.000000,60313518.000000
221159343.000000,60349904.000000
221200736.000000,60383062.000000
221209903.000000,60413080.000000
221186871.000000,60440047.000000
221131664.000000,60464051.000000
221044309.000000,60485182.000000
220978872.000000,60495309.000000
220887541.000000,60504649.000000
220804604.000000,60508622.000000
220734933.000000,60510912.000000
220667501.000000,60516089.000000
220617839.000000,60523014.000000
220599014.000000,60525301.000000
220547393.000000,60528449.000000
220470636.000000,60531349.000000
220373071.000000,60533893.000000
220259025.000000,60535973.000000
220132823.000000,60537484.000000
219998794.000000,60538318.000000
219444711.000000,60540186.000000
219300074.000000,60492522.000000
219290352.000000,60489346.000000
219169840.000000,60453939.000000
219043979.000000,60423293.000000
218921667.000000,60399181.000000
218811801.000000,60383375.000000
218723280.000000,60377646.000000
218693508.000000,60376205.000000
218626179.000000,60368902.000000
218540215.000000,60356486.000000
218443565.000000,60340142.000000
218344182.000000,60321057.000000
218269320.000000,60305833.000000
218187208.000000,60289348.000000
218120660.000000,60276229.000000
218075090.000000,60267542.000000
218055915.000000,60264352.000000
218054253.000000,60264852.000000
218046773.000000,60283677.000000
218043734.000000,60321343.000000
218041451.000000,60349560.000000
218030745.000000,60374410.000000
218007587.000000,60391571.000000
217967995.000000,60402019.000000
217907989.000000,60406728.000000
217823586.000000,60406672.000000
217710806.000000,60402826.000000
217638993.000000,60400152.000000
217539406.000000,60396985.000000
217418171.000000,60393496.000000
217280737.000000,60389833.000000
217132550.000000,60386139.000000
216979057.000000,60382561.000000
216825704.000000,60379243.000000
216805600.000000,60378818.000000
216659248.000000,60375269.000000
216522162.000000,60371166.000000
216398211.000000,60366675.000000
216291263.000000,60361967.000000
216205188.000000,60357208.000000
216143852.000000,60352566.000000
216111126.000000,60348210.000000
216097065.000000,60345046.000000
216031445.000000,60334415.000000
215971011.000000,60329768.000000
215936242.000000,60327701.000000
215899086.000000,60315720.000000
215877887.000000,60288224.000000
215869290.000000,60239738.000000
215869942.000000,60164786.000000
215871349.000000,60115103.000000
215866682.000000,60065826.000000
215849636.000000,60038056.000000
215815275.000000,60025443.000000
215758660.000000,60021634.000000
215758218.000000,60021625.000000
215723277.000000,60024598.000000
215703929.000000,60041502.000000
215689729.000000,60081395.000000
215688486.000000,60086003.000000
215677349.000000,60141533.000000
215672725.000000,60191464.000000
215665998.000000,60233466.000000
215646059.000000,60278573.000000
215629947.000000,60298135.000000
215609336.000000,60308822.000000
215575985.000000,60310623.000000
215520196.000000,60305624.000000
215508065.000000,60304247.000000
215420102.000000,60291880.000000
215329958.000000,60275695.000000
215244510.000000,60257287.000000
215170639.000000,60238253.000000
215115222.000000,60220188.000000
215085140.000000,60204688.000000
215066516.000000,60175610.000000
215056170.000000,60115027.000000
215061749.000000,60031957.000000
215083274.000000,59929710.000000
215095745.000000,59880248.000000
215102118.000000,59841789.000000
215099223.000000,59818573.000000
215087334.000000,59801988.000000
215078762.000000,59798830.000000
215056694.000000,59794623.000000
215020198.000000,59789410.000000
214968219.000000,59783095.000000
214899699.000000,59775584.000000
214813584.000000,59766783.000000
214708818.000000,59756598.000000
214584344.000000,59744935.000000
214439108.000000,59731700.000000
214272054.000000,59716799.000000
214082125.000000,59700137.000000
213868266.000000,59681620.000000
213629422.000000,59661154.000000
213364536.000000,59638646.000000
213072553.000000,59614000.000000
212752416.000000,59587124.000000
212403071.000000,59557922.000000
212023462.000000,59526300.000000
211612532.000000,59492165.000000
211345074.000000,59470014.000000
211013031.000000,59442621.000000
210688294.000000,59415951.000000
210372535.000000,59390134.000000
210067423.000000,59365305.000000
209774630.000000,59341595.000000
209495826.000000,59319139.000000
209232682.000000,59298067.000000
208986869.000000,59278514.000000
208760057.000000,59260612.000000
208553918.000000,59244493.000000
208370121.000000,59230292.000000
208210338.000000,59218139.000000
208076240.000000,59208169.000000
207969496.000000,59200514.000000
207891778.000000,59195307.000000
207844757.000000,59192681.000000
207786611.000000,59190120.000000
207668353.000000,59183461.000000
207568731.000000,59175020.000000
207478024.000000,59163670.000000
207386508.000000,59148284.000000
207284463.000000,59127735.000000
207261225.000000,59122885.000000
207030970.000000,59083835.000000
206805371.000000,59061032.000000
206791457.000000,59060135.000000
206692584.000000,59052963.000000
206593872.000000,59044607.000000
206506078.000000,59036035.000000
206439962.000000,59028211.000000
206426152.000000,59026634.000000
206370051.000000,59022560.000000
206287375.000000,59018518.000000
206182367.000000,59014637.000000
206059271.000000,59011047.000000
205922331.000000,59007877.000000
205775789.000000,59005257.000000
205623889.000000,59003316.000000
204937739.000000,58996335.000000
204738787.000000,59039199.000000
204660087.000000,59056083.000000
204577437.000000,59073674.000000
204507036.000000,59088516.000000
204458632.000000,59098543.000000
204414546.000000,59105869.000000
204320508.000000,59115420.000000
204211219.000000,59121125.000000
204096169.000000,59122905.000000
203984850.000000,59120682.000000
203886752.000000,59114377.000000
203811366.000000,59103911.000000
203791270.000000,59099565.000000
203676386.000000,59068471.000000
203559488.000000,59027750.000000
203452014.000000,58981741.000000
203365404.000000,58934782.000000
203354463.000000,58928133.000000
203296853.000000,58897836.000000
203224792.000000,58864855.000000
203151279.000000,58835233.000000
203128212.000000,58826662.000000
203058881.000000,58800743.000000
202997925.000000,58777740.000000
202956394.000000,58761816.000000
202938240.000000,58755277.000000
202879664.000000,58737790.000000
202818351.000000,58723124.000000
202768677.000000,58712946.000000
202695611.000000,58697795.000000
202623466.000000,58682682.000000
202583428.000000,58674340.000000
202513572.000000,58660607.000000
202448658.000000,58649538.000000
202384531.000000,58640922.000000
202317032.000000,58634553.000000
202242004.000000,58630222.000000
202155291.000000,58627720.000000
202052735.000000,58626840.000000
201930180.000000,58627373.000000
201783467.000000,58629112.000000
201608440.000000,58631847.000000
201470656.000000,58634048.000000
201296645.000000,58636622.000000
201119347.000000,58639048.000000
200945914.000000,58641235.000000
200783499.000000,58643095.000000
200639255.000000,58644538.000000
200520333.000000,58645474.000000
200478640.000000,58645726.000000
200356695.000000,58646236.000000
200261448.000000,58645999.000000
200188435.000000,58644742.000000
200133193.000000,58642189.000000
200091256.000000,58638068.000000
200058161.000000,58632103.000000
200029444.000000,58624021.000000
200000640.000000,58613546.000000
199975884.000000,58603959.000000
199882649.000000,58568237.000000
199811847.000000,58542138.000000
199757184.000000,58523640.000000
199712368.000000,58510722.000000
199671108.000000,58501362.000000
199627110.000000,58493538.000000
199576354.000000,58484993.000000
199505469.000000,58472342.000000
199448466.000000,58461396.000000
199421716.000000,58456042.000000
199353374.000000,58442941.000000
199286062.000000,58430627.000000
199258155.000000,58425385.000000
199194949.000000,58412737.000000
199112608.000000,58395700.000000
199018666.000000,58375837.000000
198920653.000000,58354715.000000
198901820.000000,58350624.000000
198818327.000000,58332913.000000
198747245.000000,58319133.000000
198682162.000000,58308611.000000
198616665.000000,58300672.000000
198544344.000000,58294641.000000
198458786.000000,58289844.000000
198353580.000000,58285606.000000
198222315.000000,58281253.000000
198127241.000000,58278063.000000
198013180.000000,58273760.000000
197909886.000000,58269353.000000
197822785.000000,58265092.000000
197757302.000000,58261227.000000
197718862.000000,58258008.000000
197696691.000000,58256007.000000
197630814.000000,58257885.000000
197554209.000000,58271743.000000
197461005.000000,58298880.000000
197345333.000000,58340592.000000
197289232.000000,58360966.000000
197218251.000000,58382351.000000
197145300.000000,58398122.000000
197064289.000000,58409048.000000
196969123.000000,58415895.000000
196853710.000000,58419432.000000
196711957.000000,58420428.000000
196658279.000000,58420376.000000
196546042.000000,58419637.000000
196455462.000000,58417459.000000
196378850.000000,58413135.000000
196308515.000000,58405954.000000
196236768.000000,58395210.000000
196155920.000000,58380192.000000
196058280.000000,58360193.000000
195891816.000000,58325358.000000
195891816.000000,55716785.000000
196001439.000000,55717025.000000
196053093.000000,55719173.000000
196139315.000000,55728486.000000
196216624.000000,55742624.000000
196260408.000000,55751351.000000
196387795.000000,55759650.000000
196514917.000000,55745538.000000
196629283.000000,55710004.000000
196658578.000000,55697531.000000
196732150.000000,55668682.000000
196801602.000000,55644100.000000
196839643.000000,55631030.000000
196883305.000000,55614120.000000
196906842.000000,55602430.000000
196907673.000000,55601853.000000
196931264.000000,55590911.000000
196978456.000000,55572055.000000
197042831.000000,55547774.000000
197117967.000000,55520558.000000
197191879.000000,55495011.000000
197266714.000000,55472191.000000
197330845.000000,55457779.000000
197395021.000000,55449467.000000
197469992.000000,55444947.000000
197519816.000000,55443211.000000
Z" /> 
<path style="fill:#000000; fill-opacity:1.0; 
stroke:#000000; stroke-width:1.000000; stroke-opacity:1; 
stroke-linecap:round; stroke-linejoin:round;fill-rule:evenodd;"
d="M 212523287.000000,44234856.000000
212586012.000000,44240340.000000
212674015.000000,44254212.000000
212782059.000000,44275270.000000
212904906.000000,44302310.000000
213037318.000000,44334130.000000
213174060.000000,44369528.000000
213309892.000000,44407299.000000
213439578.000000,44446242.000000
213468640.000000,44454870.000000
213538652.000000,44473976.000000
213627050.000000,44496725.000000
213725427.000000,44520974.000000
213825376.000000,44544580.000000
213894817.000000,44560907.000000
213980323.000000,44581948.000000
214052061.000000,44600670.000000
214104051.000000,44615500.000000
214130313.000000,44624862.000000
214137873.000000,44628271.000000
214177241.000000,44641285.000000
214235444.000000,44657076.000000
214302850.000000,44672960.000000
214329730.000000,44679036.000000
214390228.000000,44694314.000000
214435277.000000,44707964.000000
214456677.000000,44717604.000000
214460379.000000,44724968.000000
214475705.000000,44759955.000000
214502010.000000,44821953.000000
214538521.000000,44909092.000000
214584468.000000,45019505.000000
214639079.000000,45151323.000000
214701582.000000,45302678.000000
214771208.000000,45471701.000000
214847184.000000,45656525.000000
214928740.000000,45855281.000000
215015104.000000,46066101.000000
215105506.000000,46287116.000000
215199173.000000,46516458.000000
215304791.000000,46774926.000000
215423797.000000,47065238.000000
215530924.000000,47325462.000000
215626164.000000,47555584.000000
215709513.000000,47755591.000000
215780964.000000,47925469.000000
215840513.000000,48065204.000000
215888153.000000,48174783.000000
215923879.000000,48254193.000000
215947684.000000,48303420.000000
215959564.000000,48322450.000000
215970482.000000,48326313.000000
216011479.000000,48337832.000000
216080690.000000,48356041.000000
216176143.000000,48380453.000000
216295865.000000,48410581.000000
216437882.000000,48445938.000000
216600223.000000,48486038.000000
216780914.000000,48530394.000000
216977983.000000,48578519.000000
217189456.000000,48629926.000000
217413361.000000,48684129.000000
217647725.000000,48740639.000000
217890575.000000,48798971.000000
219789578.000000,49254240.000000
219878901.000000,49229374.000000
219894597.000000,49225038.000000
220069986.000000,49181029.000000
220239112.000000,49146333.000000
220390474.000000,49123336.000000
220405954.000000,49121437.000000
220490172.000000,49109191.000000
220574295.000000,49094359.000000
220642200.000000,49079734.000000
220673461.000000,49074137.000000
220741988.000000,49067007.000000
220835491.000000,49060725.000000
220949597.000000,49055329.000000
221079937.000000,49050856.000000
221222138.000000,49047346.000000
221371829.000000,49044835.000000
221524640.000000,49043361.000000
221676200.000000,49042963.000000
221822137.000000,49043677.000000
221958080.000000,49045542.000000
222079659.000000,49048596.000000
222182502.000000,49052876.000000
222262239.000000,49058420.000000
222314497.000000,49065266.000000
222317244.000000,49065819.000000
222390375.000000,49078373.000000
222462261.000000,49087300.000000
222517715.000000,49090698.000000
222562141.000000,49092936.000000
222644321.000000,49102116.000000
222748864.000000,49117421.000000
222870590.000000,49137803.000000
223004320.000000,49162217.000000
223144877.000000,49189616.000000
223287081.000000,49218955.000000
223425753.000000,49249187.000000
223555716.000000,49279266.000000
223671791.000000,49308146.000000
223768799.000000,49334781.000000
223841560.000000,49358124.000000
223854723.000000,49362641.000000
223912387.000000,49379815.000000
223985277.000000,49398989.000000
224060806.000000,49416795.000000
224079858.000000,49421060.000000
224161700.000000,49440589.000000
224241518.000000,49461243.000000
224304412.000000,49479204.000000
224365618.000000,49498218.000000
224480881.000000,49534389.000000
224570673.000000,49563445.000000
224638870.000000,49586951.000000
224689351.000000,49606475.000000
224725993.000000,49623584.000000
224752674.000000,49639845.000000
224773271.000000,49656823.000000
224791663.000000,49676087.000000
224795796.000000,49680280.000000
224830910.000000,49706118.000000
224884214.000000,49737257.000000
224945908.000000,49767864.000000
224950858.000000,49770110.000000
225022068.000000,49802684.000000
225092973.000000,49835511.000000
225148913.000000,49861806.000000
225195732.000000,49883606.000000
225266737.000000,49915641.000000
225335678.000000,49945841.000000
225355169.000000,49954281.000000
225388455.000000,49969274.000000
225422083.000000,49985588.000000
225459982.000000,50005422.000000
225506080.000000,50030975.000000
225564309.000000,50064448.000000
225638596.000000,50108041.000000
225732872.000000,50163953.000000
225851066.000000,50234384.000000
225857535.000000,50238237.000000
225960942.000000,50297325.000000
226055238.000000,50345087.000000
226148677.000000,50384695.000000
226249514.000000,50419324.000000
226366003.000000,50452148.000000
226506399.000000,50486339.000000
226520137.000000,50489565.000000
226608376.000000,50512211.000000
226690930.000000,50536379.000000
226759091.000000,50559374.000000
226804150.000000,50578499.000000
226858109.000000,50604348.000000
226968955.000000,50647110.000000
227111584.000000,50692408.000000
227286288.000000,50740340.000000
227330399.000000,50752184.000000
227412961.000000,50776384.000000
227488099.000000,50800737.000000
227543720.000000,50821432.000000
227559525.000000,50827984.000000
227610593.000000,50848771.000000
227685114.000000,50878826.000000
227778653.000000,50916371.000000
227886776.000000,50959628.000000
228005046.000000,51006817.000000
228129028.000000,51056159.000000
228174373.000000,51074250.000000
228305629.000000,51127315.000000
228434923.000000,51180534.000000
228556592.000000,51231519.000000
228664977.000000,51277882.000000
228754415.000000,51317238.000000
228819246.000000,51347199.000000
228899982.000000,51385372.000000
228992078.000000,51427331.000000
229077849.000000,51464941.000000
229145927.000000,51493123.000000
229151360.000000,51495274.000000
229231636.000000,51529939.000000
229316079.000000,51570600.000000
229387274.000000,51608905.000000
229400060.000000,51616350.000000
229450450.000000,51645122.000000
229487384.000000,51665308.000000
229503617.000000,51672923.000000
229503737.000000,51672935.000000
229520072.000000,51681847.000000
229557878.000000,51705000.000000
229611654.000000,51738965.000000
229675898.000000,51780314.000000
229774801.000000,51846163.000000
229878845.000000,51921510.000000
229956164.000000,51987054.000000
230008290.000000,52045025.000000
230036754.000000,52097652.000000
230043086.000000,52147166.000000
230028818.000000,52195797.000000
229995480.000000,52245773.000000
229986513.000000,52256404.000000
229944502.000000,52299007.000000
229896463.000000,52334035.000000
229837149.000000,52363767.000000
229761315.000000,52390480.000000
229663716.000000,52416453.000000
229539106.000000,52443963.000000
229478432.000000,52456773.000000
229390260.000000,52476163.000000
229314246.000000,52493788.000000
229256952.000000,52508112.000000
229224943.000000,52517595.000000
229215073.000000,52520668.000000
229173258.000000,52531006.000000
229107209.000000,52545738.000000
229022144.000000,52563826.000000
228923282.000000,52584233.000000
228815841.000000,52605921.000000
228705041.000000,52627852.000000
228596100.000000,52648989.000000
228494238.000000,52668293.000000
228404674.000000,52684727.000000
228332625.000000,52697254.000000
228283312.000000,52704835.000000
228240076.000000,52711357.000000
228167478.000000,52724256.000000
228096548.000000,52738624.000000
228080272.000000,52741974.000000
228007159.000000,52754178.000000
227921292.000000,52765398.000000
227838012.000000,52773562.000000
227685039.000000,52785391.000000
227662065.000000,52854442.000000
227646886.000000,52890644.000000
227597841.000000,52957643.000000
227523853.000000,53014578.000000
227423580.000000,53062014.000000
227295676.000000,53100515.000000
227138797.000000,53130648.000000
226951599.000000,53152976.000000
226845017.000000,53162591.000000
226756890.000000,53169352.000000
226689565.000000,53171793.000000
226637080.000000,53169209.000000
226593471.000000,53160899.000000
226552774.000000,53146159.000000
226509027.000000,53124287.000000
226456266.000000,53094578.000000
226435598.000000,53082838.000000
226349428.000000,53034860.000000
226255955.000000,52983966.000000
226172059.000000,52939373.000000
226135212.000000,52919977.000000
226067051.000000,52883348.000000
226008441.000000,52850947.000000
225969054.000000,52828077.000000
225936349.000000,52808489.000000
225841112.000000,52759750.000000
225749771.000000,52728407.000000
225648651.000000,52709393.000000
225612587.000000,52706401.000000
225545920.000000,52703071.000000
225453146.000000,52699651.000000
225337544.000000,52696223.000000
225202389.000000,52692867.000000
225050959.000000,52689664.000000
224886529.000000,52686695.000000
224712377.000000,52684042.000000
224531778.000000,52681785.000000
224448270.000000,52680849.000000
224253592.000000,52678565.000000
224087381.000000,52676391.000000
223946743.000000,52674214.000000
223828785.000000,52671921.000000
223730613.000000,52669399.000000
223649334.000000,52666535.000000
223582053.000000,52663217.000000
223525878.000000,52659332.000000
223477913.000000,52654766.000000
223435266.000000,52649407.000000
223395042.000000,52643142.000000
223354348.000000,52635857.000000
223273314.000000,52622859.000000
223146143.000000,52607794.000000
223000087.000000,52595254.000000
222842775.000000,52585982.000000
222825418.000000,52585192.000000
222683576.000000,52579838.000000
222564769.000000,52578506.000000
222461358.000000,52582235.000000
222365702.000000,52592065.000000
222270157.000000,52609035.000000
222167085.000000,52634185.000000
222048842.000000,52668554.000000
221907788.000000,52713182.000000
221893552.000000,52717831.000000
221813573.000000,52745272.000000
221734027.000000,52774377.000000
221670232.000000,52799574.000000
221662972.000000,52802606.000000
221580557.000000,52833257.000000
221496748.000000,52856358.000000
221405359.000000,52872784.000000
221300203.000000,52883406.000000
221175095.000000,52889096.000000
221023849.000000,52890727.000000
220980531.000000,52890623.000000
220865608.000000,52889211.000000
220773485.000000,52885750.000000
220696869.000000,52879721.000000
220628471.000000,52870608.000000
220560998.000000,52857893.000000
220434618.000000,52831363.000000
220305548.000000,52804908.000000
220199252.000000,52784033.000000
220110852.000000,52767813.000000
220035469.000000,52755325.000000
219968223.000000,52745644.000000
219946570.000000,52742693.000000
219852171.000000,52728304.000000
219737775.000000,52708666.000000
219600474.000000,52683244.000000
219437360.000000,52651505.000000
219245525.000000,52612915.000000
219121049.000000,52587711.000000
219007214.000000,52565369.000000
218913397.000000,52548341.000000
218833401.000000,52535907.000000
218761027.000000,52527347.000000
218690077.000000,52521941.000000
218614352.000000,52518969.000000
218527656.000000,52517711.000000
218423789.000000,52517446.000000
218342687.000000,52517196.000000
218233861.000000,52515559.000000
218146461.000000,52512000.000000
218073676.000000,52506058.000000
218008693.000000,52497277.000000
217944697.000000,52485198.000000
217928502.000000,52481876.000000
217823348.000000,52465214.000000
217708484.000000,52456010.000000
217572763.000000,52453307.000000
217528849.000000,52453486.000000
217444213.000000,52455238.000000
217376549.000000,52460014.000000
217314993.000000,52469246.000000
217248682.000000,52484365.000000
217166752.000000,52506802.000000
216979988.000000,52559961.000000
216979988.000000,52714584.000000
216978129.000000,52794829.000000
216971102.000000,52860843.000000
216958856.000000,52894927.000000
216958821.000000,52894968.000000
216933520.000000,52913778.000000
216887624.000000,52938341.000000
216831047.000000,52963351.000000
216717496.000000,53003825.000000
216508318.000000,53052992.000000
216297890.000000,53070063.000000
216218138.000000,53072547.000000
216117913.000000,53082181.000000
216038044.000000,53097875.000000
216031051.000000,53099698.000000
216013492.000000,53103336.000000
215991045.000000,53106644.000000
215962085.000000,53109647.000000
215924990.000000,53112370.000000
215878137.000000,53114839.000000
215819903.000000,53117078.000000
215748665.000000,53119114.000000
215662800.000000,53120971.000000
215560684.000000,53122675.000000
215440696.000000,53124252.000000
215301211.000000,53125727.000000
215140606.000000,53127124.000000
214957260.000000,53128470.000000
214749548.000000,53129790.000000
214515847.000000,53131109.000000
214254535.000000,53132453.000000
213963988.000000,53133847.000000
213642583.000000,53135315.000000
213326496.000000,53136723.000000
213029677.000000,53138056.000000
212761984.000000,53139330.000000
212521709.000000,53140612.000000
212307146.000000,53141968.000000
212116590.000000,53143466.000000
211948334.000000,53145172.000000
211800671.000000,53147153.000000
211671896.000000,53149476.000000
211560302.000000,53152208.000000
211464182.000000,53155416.000000
211381831.000000,53159167.000000
211311542.000000,53163527.000000
211251608.000000,53168564.000000
211200325.000000,53174344.000000
211155984.000000,53180934.000000
211116880.000000,53188402.000000
211081307.000000,53196813.000000
211047558.000000,53206235.000000
211013927.000000,53216735.000000
210978708.000000,53228380.000000
210940194.000000,53241236.000000
210862454.000000,53267720.000000
210716801.000000,53321247.000000
210576219.000000,53377706.000000
210443929.000000,53435456.000000
210323153.000000,53492858.000000
210217112.000000,53548274.000000
210129028.000000,53600063.000000
210062122.000000,53646586.000000
210019616.000000,53686204.000000
210004732.000000,53717277.000000
209994461.000000,53746833.000000
209968191.000000,53780254.000000
209942420.000000,53799045.000000
209890909.000000,53829659.000000
209822789.000000,53866463.000000
209745130.000000,53905880.000000
209665004.000000,53944335.000000
209589484.000000,53978250.000000
209525640.000000,54004050.000000
209499615.000000,54014222.000000
209438039.000000,54041600.000000
209387596.000000,54068026.000000
209375092.000000,54075187.000000
209325809.000000,54101104.000000
209261474.000000,54132907.000000
209192711.000000,54165295.000000
209166901.000000,54177255.000000
209098563.000000,54210036.000000
209038665.000000,54240223.000000
208997826.000000,54262517.000000
208952968.000000,54287993.000000
208836294.000000,54345988.000000
208705540.000000,54401524.000000
208666185.000000,54417526.000000
208623160.000000,54436639.000000
208599977.000000,54449098.000000
208588351.000000,54455791.000000
208551509.000000,54472326.000000
208502494.000000,54491479.000000
208476582.000000,54501584.000000
208414949.000000,54529220.000000
208364450.000000,54556215.000000
208350950.000000,54564288.000000
208295164.000000,54595525.000000
208220069.000000,54635643.000000
208132509.000000,54681175.000000
208039328.000000,54728656.000000
207947374.000000,54774619.000000
207863490.000000,54815598.000000
207794522.000000,54848125.000000
207747315.000000,54868735.000000
207737687.000000,54872472.000000
207703018.000000,54884650.000000
207660825.000000,54897330.000000
207607055.000000,54911496.000000
207537655.000000,54928131.000000
207448572.000000,54948219.000000
207335752.000000,54972742.000000
207195141.000000,55002684.000000
207167926.000000,55005693.000000
207111446.000000,55008818.000000
207031997.000000,55011610.000000
206934561.000000,55013929.000000
206824119.000000,55015632.000000
206705656.000000,55016579.000000
206675080.000000,55016700.000000
206543143.000000,55016801.000000
206437441.000000,55015900.000000
206352788.000000,55013736.000000
206284001.000000,55010051.000000
206225897.000000,55004583.000000
206173291.000000,54997073.000000
206121002.000000,54987261.000000
206099636.000000,54982993.000000
206011659.000000,54967187.000000
205922634.000000,54953440.000000
205848919.000000,54944332.000000
205798860.000000,54937559.000000
205728597.000000,54918708.000000
205684090.000000,54892330.000000
205668543.000000,54859922.000000
205668611.000000,54859676.000000
205681274.000000,54844381.000000
205714462.000000,54807968.000000
205766238.000000,54752478.000000
205834663.000000,54679951.000000
205917801.000000,54592427.000000
206013713.000000,54491946.000000
206120463.000000,54380549.000000
206236113.000000,54260274.000000
206358725.000000,54133163.000000
206368693.000000,54122845.000000
206490800.000000,53996271.000000
206605795.000000,53876763.000000
206711741.000000,53766355.000000
206806701.000000,53667078.000000
206888739.000000,53580965.000000
206955919.000000,53510047.000000
207006304.000000,53456358.000000
207037957.000000,53421929.000000
207048943.000000,53408793.000000
207036283.000000,53397320.000000
206998936.000000,53380714.000000
206944341.000000,53362174.000000
206880019.000000,53344234.000000
206813491.000000,53329430.000000
206757993.000000,53317931.000000
206677809.000000,53299450.000000
206602366.000000,53280369.000000
206572896.000000,53272973.000000
206506674.000000,53257683.000000
206418582.000000,53238300.000000
206314579.000000,53216107.000000
206200623.000000,53192388.000000
206082673.000000,53168425.000000
205993728.000000,53150260.000000
205837722.000000,53116274.000000
205710197.000000,53085166.000000
205608629.000000,53056299.000000
205530499.000000,53029038.000000
205480294.000000,53010308.000000
205365734.000000,52973746.000000
205239305.000000,52939886.000000
205109435.000000,52910546.000000
204984550.000000,52887546.000000
204873076.000000,52872704.000000
204783440.000000,52867837.000000
204739154.000000,52868893.000000
204671045.000000,52875514.000000
204610091.000000,52891099.000000
204539834.000000,52919110.000000
204471531.000000,52944314.000000
204372760.000000,52973064.000000
204248260.000000,53003847.000000
204101343.000000,53035782.000000
203940447.000000,53069027.000000
203776145.000000,53103666.000000
203639085.000000,53133500.000000
203526714.000000,53159132.000000
203436481.000000,53181167.000000
203365833.000000,53200207.000000
203312217.000000,53216858.000000
203273082.000000,53231721.000000
203216771.000000,53253181.000000
203143270.000000,53277060.000000
203070077.000000,53297546.000000
203000502.000000,53315577.000000
202912184.000000,53339416.000000
202834591.000000,53361261.000000
202827117.000000,53363340.000000
202778681.000000,53375295.000000
202703613.000000,53392425.000000
202606096.000000,53413832.000000
202490314.000000,53438619.000000
202360451.000000,53465886.000000
202220690.000000,53494737.000000
202075215.000000,53524273.000000
201979809.000000,53543458.000000
201834503.000000,53572490.000000
201714803.000000,53595956.000000
201616741.000000,53614447.000000
201536351.000000,53628554.000000
201469665.000000,53638870.000000
201412716.000000,53645984.000000
201361538.000000,53650488.000000
201312162.000000,53652974.000000
201260622.000000,53654031.000000
201202950.000000,53654253.000000
201187459.000000,53654249.000000
201101481.000000,53653858.000000
201041203.000000,53652215.000000
201000728.000000,53648468.000000
200974164.000000,53641763.000000
200955613.000000,53631245.000000
200939181.000000,53616062.000000
200932418.000000,53609745.000000
200897518.000000,53581691.000000
200843664.000000,53541672.000000
200776842.000000,53494069.000000
200703037.000000,53443261.000000
200670654.000000,53421108.000000
200604920.000000,53374501.000000
200552107.000000,53334790.000000
200516959.000000,53305618.000000
200504221.000000,53290627.000000
200511090.000000,53279980.000000
200537854.000000,53247673.000000
200582420.000000,53196943.000000
200642221.000000,53130630.000000
200714693.000000,53051574.000000
200797268.000000,52962615.000000
200887381.000000,52866593.000000
200934137.000000,52817004.000000
201034569.000000,52710310.000000
201133883.000000,52604589.000000
201227838.000000,52504366.000000
201312194.000000,52414166.000000
201382712.000000,52338515.000000
201435152.000000,52281938.000000
201455374.000000,52260218.000000
201520185.000000,52193110.000000
201581970.000000,52132512.000000
201634555.000000,52084355.000000
201671767.000000,52054572.000000
201697072.000000,52037426.000000
201746471.000000,52003988.000000
201783781.000000,51978772.000000
201809734.000000,51966383.000000
201862639.000000,51950849.000000
201923244.000000,51940185.000000
201942484.000000,51938018.000000
201998416.000000,51931482.000000
202037340.000000,51922888.000000
202062235.000000,51907170.000000
202076084.000000,51879257.000000
202081867.000000,51834081.000000
202082564.000000,51766573.000000
202081157.000000,51671666.000000
202080950.000000,51653883.000000
202081943.000000,51520984.000000
202088400.000000,51413674.000000
202101138.000000,51326082.000000
202120976.000000,51252335.000000
202148731.000000,51186561.000000
202172124.000000,51147091.000000
202202231.000000,51114328.000000
202243585.000000,51086860.000000
202301371.000000,51061965.000000
202380779.000000,51036919.000000
202486994.000000,51008999.000000
202556959.000000,50991256.000000
202640928.000000,50968487.000000
202699494.000000,50949940.000000
202736530.000000,50934149.000000
202755910.000000,50919645.000000
202761509.000000,50904959.000000
202750775.000000,50881841.000000
202713015.000000,50847350.000000
202652060.000000,50807139.000000
202572098.000000,50763467.000000
202477313.000000,50718592.000000
202371892.000000,50674775.000000
202260021.000000,50634274.000000
202244043.000000,50628898.000000
202109746.000000,50581210.000000
202004053.000000,50537877.000000
201924070.000000,50496882.000000
201866901.000000,50456205.000000
201829651.000000,50413829.000000
201809424.000000,50367735.000000
201803325.000000,50315904.000000
201808509.000000,50272546.000000
201840098.000000,50206129.000000
201897206.000000,50151843.000000
201976166.000000,50111917.000000
202073311.000000,50088577.000000
202184975.000000,50084051.000000
202233008.000000,50085755.000000
202272925.000000,50084364.000000
202291101.000000,50077837.000000
202293568.000000,50065122.000000
202287888.000000,50048893.000000
202271259.000000,50004081.000000
202244471.000000,49932847.000000
202208288.000000,49837205.000000
202163478.000000,49719166.000000
202110808.000000,49580742.000000
202051042.000000,49423946.000000
201984949.000000,49250789.000000
201913293.000000,49063285.000000
201836842.000000,48863444.000000
201756362.000000,48653280.000000
201672620.000000,48434804.000000
201618563.000000,48293742.000000
201515868.000000,48025107.000000
201424616.000000,47785424.000000
201344492.000000,47573841.000000
201275182.000000,47389505.000000
201216371.000000,47231564.000000
201167746.000000,47099165.000000
201128991.000000,46991456.000000
201099793.000000,46907584.000000
201079837.000000,46846696.000000
201068809.000000,46807939.000000
201066394.000000,46790462.000000
201069856.000000,46779239.000000
201088417.000000,46757910.000000
201127049.000000,46752836.000000
201140867.000000,46753224.000000
201186643.000000,46754860.000000
201258947.000000,46757627.000000
201354186.000000,46761384.000000
201468768.000000,46765985.000000
201599100.000000,46771288.000000
201741591.000000,46777149.000000
201892647.000000,46783424.000000
201997815.000000,46787698.000000
202140318.000000,46793099.000000
202270390.000000,46797577.000000
202384693.000000,46801042.000000
202479892.000000,46803403.000000
202552650.000000,46804571.000000
202599633.000000,46804456.000000
202617504.000000,46802967.000000
202617643.000000,46802610.000000
202613615.000000,46782715.000000
202600425.000000,46734888.000000
202578901.000000,46661805.000000
202549866.000000,46566138.000000
202514147.000000,46450561.000000
202472570.000000,46317747.000000
202425959.000000,46170369.000000
202375141.000000,46011101.000000
202320940.000000,45842616.000000
202294866.000000,45761855.000000
202235492.000000,45577597.000000
202185279.000000,45421014.000000
202143568.000000,45289811.000000
202109697.000000,45181692.000000
202083007.000000,45094360.000000
202062837.000000,45025520.000000
202048526.000000,44972877.000000
202039413.000000,44934134.000000
202034839.000000,44906996.000000
202034142.000000,44889166.000000
202036662.000000,44878350.000000
202041739.000000,44872251.000000
202043641.000000,44870808.000000
202049755.000000,44865827.000000
202056072.000000,44861708.000000
202065279.000000,44858484.000000
202080065.000000,44856184.000000
202103117.000000,44854840.000000
202137123.000000,44854481.000000
202184772.000000,44855140.000000
202248751.000000,44856846.000000
202331748.000000,44859632.000000
202436451.000000,44863526.000000
202565547.000000,44868561.000000
202721725.000000,44874766.000000
202907673.000000,44882174.000000
203027379.000000,44886885.000000
203175023.000000,44892562.000000
203311533.000000,44897664.000000
203433356.000000,44902066.000000
203536937.000000,44905643.000000
203618725.000000,44908269.000000
203675165.000000,44909819.000000
203702705.000000,44910169.000000
203728224.000000,44911053.000000
203755600.000000,44920608.000000
203782080.000000,44945532.000000
203816388.000000,44992115.000000
203819245.000000,44995788.000000
203844411.000000,45022929.000000
203892025.000000,45071014.000000
203961078.000000,45139082.000000
204050562.000000,45226167.000000
204159468.000000,45331308.000000
204286787.000000,45453542.000000
204431511.000000,45591905.000000
204592631.000000,45745434.000000
204769139.000000,45913166.000000
204960026.000000,46094138.000000
205164282.000000,46287387.000000
205380901.000000,46491949.000000
205608872.000000,46706863.000000
205847187.000000,46931165.000000
206050503.000000,47122383.000000
206260615.000000,47320009.000000
206463808.000000,47511144.000000
206658794.000000,47694574.000000
206844284.000000,47869087.000000
207018990.000000,48033472.000000
207181625.000000,48186516.000000
207330900.000000,48327008.000000
207465528.000000,48453734.000000
207584221.000000,48565483.000000
207685691.000000,48661042.000000
207768650.000000,48739200.000000
207831809.000000,48798744.000000
207873882.000000,48838462.000000
207893579.000000,48857142.000000
207966762.000000,48927393.000000
209417618.000000,48960355.000000
209625820.000000,48964984.000000
209831283.000000,48969344.000000
210025263.000000,48973253.000000
210205428.000000,48976673.000000
210369446.000000,48979567.000000
210514985.000000,48981898.000000
210639713.000000,48983629.000000
210741297.000000,48984722.000000
210817406.000000,48985140.000000
210865708.000000,48984846.000000
210883871.000000,48983802.000000
210885124.000000,48974525.000000
210870608.000000,48947008.000000
210841024.000000,48909817.000000
210820661.000000,48886107.000000
210785859.000000,48840147.000000
210763810.000000,48803711.000000
210756840.000000,48786725.000000
210755834.000000,48759455.000000
210778553.000000,48734773.000000
210779001.000000,48734361.000000
210789040.000000,48716722.000000
210807235.000000,48675731.000000
210833810.000000,48610784.000000
210868993.000000,48521276.000000
210913010.000000,48406603.000000
210966086.000000,48266159.000000
211028449.000000,48099340.000000
211100323.000000,47905541.000000
211181935.000000,47684157.000000
211273512.000000,47434584.000000
211375279.000000,47156217.000000
211487463.000000,46848451.000000
211610290.000000,46510681.000000
211696576.000000,46273021.000000
211786965.000000,46023766.000000
211873690.000000,45784315.000000
211956131.000000,45556394.000000
212033665.000000,45341730.000000
212105674.000000,45142050.000000
212171536.000000,44959078.000000
212230630.000000,44794543.000000
212282335.000000,44650170.000000
212326032.000000,44527686.000000
212361098.000000,44428817.000000
212386915.000000,44355289.000000
212402859.000000,44308830.000000
212408312.000000,44291164.000000
212408433.000000,44288631.000000
212425532.000000,44261755.000000
212465343.000000,44242306.000000
212518964.000000,44234815.000000
Z" /> 
<g >
</g>
<g >
</g>
<g >
</g>
<g style="fill:#000000; fill-opacity:1.0; 
stroke:#000000; stroke-width:1.000000; stroke-opacity:1; 
stroke-linecap:round; stroke-linejoin:round;">
<circle cx="184150000.000000" cy="49212500.000000" r="1993900.000000" /> 
</g>
<g style="fill:#000000; fill-opacity:1.0; 
stroke:#000000; stroke-width:21200.000000; stroke-opacity:1; 
stroke-linecap:round; stroke-linejoin:round;">
</g>
<g style="fill:#000000; fill-opacity:1.0; 
stroke:#000000; stroke-width:1.000000; stroke-opacity:1; 
stroke-linecap:round; stroke-linejoin:round;">
<circle cx="179070000.000000" cy="49212500.000000" r="875000.000000" /> 
</g>
<g style="fill:#000000; fill-opacity:1.0; 
stroke:#000000; stroke-width:21200.000000; stroke-opacity:1; 
stroke-linecap:round; stroke-linejoin:round;">
</g>
<g style="fill:#000000; fill-opacity:1.0; 
stroke:#000000; stroke-width:1.000000; stroke-opacity:1; 
stroke-linecap:round; stroke-linejoin:round;">
<circle cx="189230000.000000" cy="49212500.000000" r="875000.000000" /> 
</g>
<g style="fill:#000000; fill-opacity:1.0; 
stroke:#000000; stroke-width:21200.000000; stroke-opacity:1; 
stroke-linecap:round; stroke-linejoin:round;">
</g>
<g style="fill:#000000; fill-opacity:1.0; 
stroke:#000000; stroke-width:1.000000; stroke-opacity:1; 
stroke-linecap:round; stroke-linejoin:round;">
<circle cx="180340000.000000" cy="46672500.000000" r="1125000.000000" /> 
</g>
<g style="fill:#000000; fill-opacity:1.0; 
stroke:#000000; stroke-width:21200.000000; stroke-opacity:1; 
stroke-linecap:round; stroke-linejoin:round;">
</g>
<g style="fill:#000000; fill-opacity:1.0; 
stroke:#000000; stroke-width:1.000000; stroke-opacity:1; 
stroke-linecap:round; stroke-linejoin:round;">
<circle cx="186690000.000000" cy="44132500.000000" r="1125000.000000" /> 
</g>
<g style="fill:#000000; fill-opacity:1.0; 
stroke:#000000; stroke-width:21200.000000; stroke-opacity:1; 
stroke-linecap:round; stroke-linejoin:round;">
</g>
<g >
</g>
<g style="fill:#000000; fill-opacity:1.0; 
stroke:#000000; stroke-width:21200.000000; stroke-opacity:1; 
stroke-linecap:round; stroke-linejoin:round;">
</g>
<g style="fill:#000000; fill-opacity:1.0; 
stroke:#000000; stroke-width:1.000000; stroke-opacity:1; 
stroke-linecap:round; stroke-linejoin:round;">
<circle cx="209073750.000000" cy="73025000.000000" r="875000.000000" /> 
</g>
<g style="fill:#000000; fill-opacity:1.0; 
stroke:#000000; stroke-width:21200.000000; stroke-opacity:1; 
stroke-linecap:round; stroke-linejoin:round;">
</g>
<g style="fill:#000000; fill-opacity:1.0; 
stroke:#000000; stroke-width:1.000000; stroke-opacity:1; 
stroke-linecap:round; stroke-linejoin:round;">
<circle cx="203993750.000000" cy="73025000.000000" r="1993900.000000" /> 
</g>
<g style="fill:#000000; fill-opacity:1.0; 
stroke:#000000; stroke-width:21200.000000; stroke-opacity:1; 
stroke-linecap:round; stroke-linejoin:round;">
</g>
<g style="fill:#000000; fill-opacity:1.0; 
stroke:#000000; stroke-width:1.000000; stroke-opacity:1; 
stroke-linecap:round; stroke-linejoin:round;">
<circle cx="198913750.000000" cy="73025000.000000" r="875000.000000" /> 
</g>
<g style="fill:#000000; fill-opacity:1.0; 
stroke:#000000; stroke-width:21200.000000; stroke-opacity:1; 
stroke-linecap:round; stroke-linejoin:round;">
</g>
<g style="fill:#000000; fill-opacity:1.0; 
stroke:#000000; stroke-width:1.000000; stroke-opacity:1; 
stroke-linecap:round; stroke-linejoin:round;">
<circle cx="200183750.000000" cy="70485000.000000" r="1125000.000000" /> 
</g>
<g style="fill:#000000; fill-opacity:1.0; 
stroke:#000000; stroke-width:21200.000000; stroke-opacity:1; 
stroke-linecap:round; stroke-linejoin:round;">
</g>
<g style="fill:#000000; fill-opacity:1.0; 
stroke:#000000; stroke-width:1.000000; stroke-opacity:1; 
stroke-linecap:round; stroke-linejoin:round;">
<circle cx="206533750.000000" cy="67945000.000000" r="1125000.000000" /> 
</g>
<g style="fill:#000000; fill-opacity:1.0; 
stroke:#000000; stroke-width:21200.000000; stroke-opacity:1; 
stroke-linecap:round; stroke-linejoin:round;">
</g>
<g >
</g>
<g style="fill:#000000; fill-opacity:1.0; 
stroke:#000000; stroke-width:21200.000000; stroke-opacity:1; 
stroke-linecap:round; stroke-linejoin:round;">
</g>
<g style="fill:#000000; fill-opacity:1.0; 
stroke:#000000; stroke-width:1.000000; stroke-opacity:1; 
stroke-linecap:round; stroke-linejoin:round;">
<circle cx="166211250.000000" cy="73025000.000000" r="875000.000000" /> 
</g>
<g style="fill:#000000; fill-opacity:1.0; 
stroke:#000000; stroke-width:21200.000000; stroke-opacity:1; 
stroke-linecap:round; stroke-linejoin:round;">
</g>
<g style="fill:#000000; fill-opacity:1.0; 
stroke:#000000; stroke-width:1.000000; stroke-opacity:1; 
stroke-linecap:round; stroke-linejoin:round;">
<circle cx="156051250.000000" cy="73025000.000000" r="875000.000000" /> 
</g>
<g style="fill:#000000; fill-opacity:1.0; 
stroke:#000000; stroke-width:21200.000000; stroke-opacity:1; 
stroke-linecap:round; stroke-linejoin:round;">
</g>
<g style="fill:#000000; fill-opacity:1.0; 
stroke:#000000; stroke-width:1.000000; stroke-opacity:1; 
stroke-linecap:round; stroke-linejoin:round;">
<circle cx="161131250.000000" cy="73025000.000000" r="1993900.000000" /> 
</g>
<g style="fill:#000000; fill-opacity:1.0; 
stroke:#000000; stroke-width:21200.000000; stroke-opacity:1; 
stroke-linecap:round; stroke-linejoin:round;">
</g>
<g style="fill:#000000; fill-opacity:1.0; 
stroke:#000000; stroke-width:1.000000; stroke-opacity:1; 
stroke-linecap:round; stroke-linejoin:round;">
<circle cx="157321250.000000" cy="70485000.000000" r="1125000.000000" /> 
</g>
<g style="fill:#000000; fill-opacity:1.0; 
stroke:#000000; stroke-width:21200.000000; stroke-opacity:1; 
stroke-linecap:round; stroke-linejoin:round;">
</g>
<g style="fill:#000000; fill-opacity:1.0; 
stroke:#000000; stroke-width:1.000000; stroke-opacity:1; 
stroke-linecap:round; stroke-linejoin:round;">
<circle cx="163671250.000000" cy="67945000.000000" r="1125000.000000" /> 
</g>
<g style="fill:#000000; fill-opacity:1.0; 
stroke:#000000; stroke-width:21200.000000; stroke-opacity:1; 
stroke-linecap:round; stroke-linejoin:round;">
</g>
<g >
</g>
<g style="fill:#000000; fill-opacity:1.0; 
stroke:#000000; stroke-width:21200.000000; stroke-opacity:1; 
stroke-linecap:round; stroke-linejoin:round;">
</g>
<g style="fill:#000000; fill-opacity:1.0; 
stroke:#000000; stroke-width:1.000000; stroke-opacity:1; 
stroke-linecap:round; stroke-linejoin:round;">
<circle cx="166211250.000000" cy="49212500.000000" r="875000.000000" /> 
</g>
<g style="fill:#000000; fill-opacity:1.0; 
stroke:#000000; stroke-width:21200.000000; stroke-opacity:1; 
stroke-linecap:round; stroke-linejoin:round;">
</g>
<g style="fill:#000000; fill-opacity:1.0; 
stroke:#000000; stroke-width:1.000000; stroke-opacity:1; 
stroke-linecap:round; stroke-linejoin:round;">
<circle cx="161131250.000000" cy="49212500.000000" r="1993900.000000" /> 
</g>
<g style="fill:#000000; fill-opacity:1.0; 
stroke:#000000; stroke-width:21200.000000; stroke-opacity:1; 
stroke-linecap:round; stroke-linejoin:round;">
</g>
<g style="fill:#000000; fill-opacity:1.0; 
stroke:#000000; stroke-width:1.000000; stroke-opacity:1; 
stroke-linecap:round; stroke-linejoin:round;">
<circle cx="156051250.000000" cy="49212500.000000" r="875000.000000" /> 
</g>
<g style="fill:#000000; fill-opacity:1.0; 
stroke:#000000; stroke-width:21200.000000; stroke-opacity:1; 
stroke-linecap:round; stroke-linejoin:round;">
</g>
<g style="fill:#000000; fill-opacity:1.0; 
stroke:#000000; stroke-width:1.000000; stroke-opacity:1; 
stroke-linecap:round; stroke-linejoin:round;">
<circle cx="157321250.000000" cy="46672500.000000" r="1125000.000000" /> 
</g>
<g style="fill:#000000; fill-opacity:1.0; 
stroke:#000000; stroke-width:21200.000000; stroke-opacity:1; 
stroke-linecap:round; stroke-linejoin:round;">
</g>
<g style="fill:#000000; fill-opacity:1.0; 
stroke:#000000; stroke-width:1.000000; stroke-opacity:1; 
stroke-linecap:round; stroke-linejoin:round;">
<circle cx="163671250.000000" cy="44132500.000000" r="1125000.000000" /> 
</g>
<g style="fill:#000000; fill-opacity:1.0; 
stroke:#000000; stroke-width:21200.000000; stroke-opacity:1; 
stroke-linecap:round; stroke-linejoin:round;">
</g>
<g >
</g>
<g style="fill:#000000; fill-opacity:1.0; 
stroke:#000000; stroke-width:21200.000000; stroke-opacity:1; 
stroke-linecap:round; stroke-linejoin:round;">
</g>
<g style="fill:#000000; fill-opacity:1.0; 
stroke:#000000; stroke-width:1.000000; stroke-opacity:1; 
stroke-linecap:round; stroke-linejoin:round;">
<circle cx="141287500.000000" cy="73025000.000000" r="1993900.000000" /> 
</g>
<g style="fill:#000000; fill-opacity:1.0; 
stroke:#000000; stroke-width:21200.000000; stroke-opacity:1; 
stroke-linecap:round; stroke-linejoin:round;">
</g>
<g style="fill:#000000; fill-opacity:1.0; 
stroke:#000000; stroke-width:1.000000; stroke-opacity:1; 
stroke-linecap:round; stroke-linejoin:round;">
<circle cx="136207500.000000" cy="73025000.000000" r="875000.000000" /> 
</g>
<g style="fill:#000000; fill-opacity:1.0; 
stroke:#000000; stroke-width:21200.000000; stroke-opacity:1; 
stroke-linecap:round; stroke-linejoin:round;">
</g>
<g style="fill:#000000; fill-opacity:1.0; 
stroke:#000000; stroke-width:1.000000; stroke-opacity:1; 
stroke-linecap:round; stroke-linejoin:round;">
<circle cx="146367500.000000" cy="73025000.000000" r="875000.000000" /> 
</g>
<g style="fill:#000000; fill-opacity:1.0; 
stroke:#000000; stroke-width:21200.000000; stroke-opacity:1; 
stroke-linecap:round; stroke-linejoin:round;">
</g>
<g style="fill:#000000; fill-opacity:1.0; 
stroke:#000000; stroke-width:1.000000; stroke-opacity:1; 
stroke-linecap:round; stroke-linejoin:round;">
<circle cx="137477500.000000" cy="70485000.000000" r="1125000.000000" /> 
</g>
<g style="fill:#000000; fill-opacity:1.0; 
stroke:#000000; stroke-width:21200.000000; stroke-opacity:1; 
stroke-linecap:round; stroke-linejoin:round;">
</g>
<g style="fill:#000000; fill-opacity:1.0; 
stroke:#000000; stroke-width:1.000000; stroke-opacity:1; 
stroke-linecap:round; stroke-linejoin:round;">
<circle cx="143827500.000000" cy="67945000.000000" r="1125000.000000" /> 
</g>
<g style="fill:#000000; fill-opacity:1.0; 
stroke:#000000; stroke-width:21200.000000; stroke-opacity:1; 
stroke-linecap:round; stroke-linejoin:round;">
</g>
<g >
</g>
<g style="fill:#000000; fill-opacity:1.0; 
stroke:#000000; stroke-width:21200.000000; stroke-opacity:1; 
stroke-linecap:round; stroke-linejoin:round;">
</g>
<g style="fill:#000000; fill-opacity:1.0; 
stroke:#000000; stroke-width:1.000000; stroke-opacity:1; 
stroke-linecap:round; stroke-linejoin:round;">
<circle cx="179070000.000000" cy="73025000.000000" r="875000.000000" /> 
</g>
<g style="fill:#000000; fill-opacity:1.0; 
stroke:#000000; stroke-width:21200.000000; stroke-opacity:1; 
stroke-linecap:round; stroke-linejoin:round;">
</g>
<g style="fill:#000000; fill-opacity:1.0; 
stroke:#000000; stroke-width:1.000000; stroke-opacity:1; 
stroke-linecap:round; stroke-linejoin:round;">
<circle cx="189230000.000000" cy="73025000.000000" r="875000.000000" /> 
</g>
<g style="fill:#000000; fill-opacity:1.0; 
stroke:#000000; stroke-width:21200.000000; stroke-opacity:1; 
stroke-linecap:round; stroke-linejoin:round;">
</g>
<g style="fill:#000000; fill-opacity:1.0; 
stroke:#000000; stroke-width:1.000000; stroke-opacity:1; 
stroke-linecap:round; stroke-linejoin:round;">
<circle cx="184150000.000000" cy="73025000.000000" r="1993900.000000" /> 
</g>
<g style="fill:#000000; fill-opacity:1.0; 
stroke:#000000; stroke-width:21200.000000; stroke-opacity:1; 
stroke-linecap:round; stroke-linejoin:round;">
</g>
<g style="fill:#000000; fill-opacity:1.0; 
stroke:#000000; stroke-width:1.000000; stroke-opacity:1; 
stroke-linecap:round; stroke-linejoin:round;">
<circle cx="180340000.000000" cy="70485000.000000" r="1125000.000000" /> 
</g>
<g style="fill:#000000; fill-opacity:1.0; 
stroke:#000000; stroke-width:21200.000000; stroke-opacity:1; 
stroke-linecap:round; stroke-linejoin:round;">
</g>
<g style="fill:#000000; fill-opacity:1.0; 
stroke:#000000; stroke-width:1.000000; stroke-opacity:1; 
stroke-linecap:round; stroke-linejoin:round;">
<circle cx="186690000.000000" cy="67945000.000000" r="1125000.000000" /> 
</g>
<g style="fill:#000000; fill-opacity:1.0; 
stroke:#000000; stroke-width:21200.000000; stroke-opacity:1; 
stroke-linecap:round; stroke-linejoin:round;">
</g>
<g >
</g>
<g >
</g>
<g >
</g>
<g >
</g>
<g >
</g>
<g style="fill:#000000; fill-opacity:1.0; 
stroke:#000000; stroke-width:21200.000000; stroke-opacity:1; 
stroke-linecap:round; stroke-linejoin:round;">
</g>
<g style="fill:#000000; fill-opacity:1.0; 
stroke:#000000; stroke-width:1.000000; stroke-opacity:1; 
stroke-linecap:round; stroke-linejoin:round;">
<circle cx="203993750.000000" cy="92075000.000000" r="1993900.000000" /> 
</g>
<g style="fill:#000000; fill-opacity:1.0; 
stroke:#000000; stroke-width:21200.000000; stroke-opacity:1; 
stroke-linecap:round; stroke-linejoin:round;">
</g>
<g style="fill:#000000; fill-opacity:1.0; 
stroke:#000000; stroke-width:1.000000; stroke-opacity:1; 
stroke-linecap:round; stroke-linejoin:round;">
<circle cx="209073750.000000" cy="92075000.000000" r="875000.000000" /> 
</g>
<g style="fill:#000000; fill-opacity:1.0; 
stroke:#000000; stroke-width:21200.000000; stroke-opacity:1; 
stroke-linecap:round; stroke-linejoin:round;">
</g>
<g style="fill:#000000; fill-opacity:1.0; 
stroke:#000000; stroke-width:1.000000; stroke-opacity:1; 
stroke-linecap:round; stroke-linejoin:round;">
<circle cx="198913750.000000" cy="92075000.000000" r="875000.000000" /> 
</g>
<g style="fill:#000000; fill-opacity:1.0; 
stroke:#000000; stroke-width:21200.000000; stroke-opacity:1; 
stroke-linecap:round; stroke-linejoin:round;">
</g>
<g style="fill:#000000; fill-opacity:1.0; 
stroke:#000000; stroke-width:1.000000; stroke-opacity:1; 
stroke-linecap:round; stroke-linejoin:round;">
<circle cx="200183750.000000" cy="89535000.000000" r="1125000.000000" /> 
</g>
<g style="fill:#000000; fill-opacity:1.0; 
stroke:#000000; stroke-width:21200.000000; stroke-opacity:1; 
stroke-linecap:round; stroke-linejoin:round;">
</g>
<g style="fill:#000000; fill-opacity:1.0; 
stroke:#000000; stroke-width:1.000000; stroke-opacity:1; 
stroke-linecap:round; stroke-linejoin:round;">
<circle cx="206533750.000000" cy="86995000.000000" r="1125000.000000" /> 
</g>
<g style="fill:#000000; fill-opacity:1.0; 
stroke:#000000; stroke-width:21200.000000; stroke-opacity:1; 
stroke-linecap:round; stroke-linejoin:round;">
</g>
<g >
</g>
<g style="fill:#000000; fill-opacity:1.0; 
stroke:#000000; stroke-width:21200.000000; stroke-opacity:1; 
stroke-linecap:round; stroke-linejoin:round;">
</g>
<g style="fill:#000000; fill-opacity:1.0; 
stroke:#000000; stroke-width:1.000000; stroke-opacity:1; 
stroke-linecap:round; stroke-linejoin:round;">
<circle cx="189230000.000000" cy="92075000.000000" r="875000.000000" /> 
</g>
<g style="fill:#000000; fill-opacity:1.0; 
stroke:#000000; stroke-width:21200.000000; stroke-opacity:1; 
stroke-linecap:round; stroke-linejoin:round;">
</g>
<g style="fill:#000000; fill-opacity:1.0; 
stroke:#000000; stroke-width:1.000000; stroke-opacity:1; 
stroke-linecap:round; stroke-linejoin:round;">
<circle cx="179070000.000000" cy="92075000.000000" r="875000.000000" /> 
</g>
<g style="fill:#000000; fill-opacity:1.0; 
stroke:#000000; stroke-width:21200.000000; stroke-opacity:1; 
stroke-linecap:round; stroke-linejoin:round;">
</g>
<g style="fill:#000000; fill-opacity:1.0; 
stroke:#000000; stroke-width:1.000000; stroke-opacity:1; 
stroke-linecap:round; stroke-linejoin:round;">
<circle cx="184150000.000000" cy="92075000.000000" r="1993900.000000" /> 
</g>
<g style="fill:#000000; fill-opacity:1.0; 
stroke:#000000; stroke-width:21200.000000; stroke-opacity:1; 
stroke-linecap:round; stroke-linejoin:round;">
</g>
<g style="fill:#000000; fill-opacity:1.0; 
stroke:#000000; stroke-width:1.000000; stroke-opacity:1; 
stroke-linecap:round; stroke-linejoin:round;">
<circle cx="180340000.000000" cy="89535000.000000" r="1125000.000000" /> 
</g>
<g style="fill:#000000; fill-opacity:1.0; 
stroke:#000000; stroke-width:21200.000000; stroke-opacity:1; 
stroke-linecap:round; stroke-linejoin:round;">
</g>
<g style="fill:#000000; fill-opacity:1.0; 
stroke:#000000; stroke-width:1.000000; stroke-opacity:1; 
stroke-linecap:round; stroke-linejoin:round;">
<circle cx="186690000.000000" cy="86995000.000000" r="1125000.000000" /> 
</g>
<g style="fill:#000000; fill-opacity:1.0; 
stroke:#000000; stroke-width:21200.000000; stroke-opacity:1; 
stroke-linecap:round; stroke-linejoin:round;">
</g>
<g >
</g>
<g >
</g>
<g style="fill:#000000; fill-opacity:1.0; 
stroke:#000000; stroke-width:21200.000000; stroke-opacity:1; 
stroke-linecap:round; stroke-linejoin:round;">
</g>
<g style="fill:#000000; fill-opacity:1.0; 
stroke:#000000; stroke-width:1.000000; stroke-opacity:1; 
stroke-linecap:round; stroke-linejoin:round;">
<path style="fill:#000000; fill-opacity:1.0; 
stroke:#000000; stroke-width:1.000000; stroke-opacity:1; 
stroke-linecap:round; stroke-linejoin:round;fill-rule:evenodd;"
d="M 135172451.000000,100571299.000000
135172451.000000,98818701.000000
136925049.000000,98818701.000000
136925049.000000,100571299.000000
Z" /> 
<circle cx="138588750.000000" cy="99695000.000000" r="876300.000000" /> 
</g>
<g style="fill:#000000; fill-opacity:1.0; 
stroke:#000000; stroke-width:21200.000000; stroke-opacity:1; 
stroke-linecap:round; stroke-linejoin:round;">
</g>
<g style="fill:#000000; fill-opacity:1.0; 
stroke:#000000; stroke-width:1.000000; stroke-opacity:1; 
stroke-linecap:round; stroke-linejoin:round;">
<circle cx="141128750.000000" cy="99695000.000000" r="876300.000000" /> 
</g>
<g style="fill:#000000; fill-opacity:1.0; 
stroke:#000000; stroke-width:21200.000000; stroke-opacity:1; 
stroke-linecap:round; stroke-linejoin:round;">
</g>
<g style="fill:#000000; fill-opacity:1.0; 
stroke:#000000; stroke-width:1.000000; stroke-opacity:1; 
stroke-linecap:round; stroke-linejoin:round;">
<circle cx="143668750.000000" cy="99695000.000000" r="876300.000000" /> 
</g>
<g style="fill:#000000; fill-opacity:1.0; 
stroke:#000000; stroke-width:21200.000000; stroke-opacity:1; 
stroke-linecap:round; stroke-linejoin:round;">
</g>
<g style="fill:#000000; fill-opacity:1.0; 
stroke:#000000; stroke-width:1.000000; stroke-opacity:1; 
stroke-linecap:round; stroke-linejoin:round;">
<circle cx="146208750.000000" cy="99695000.000000" r="876300.000000" /> 
</g>
<g style="fill:#000000; fill-opacity:1.0; 
stroke:#000000; stroke-width:21200.000000; stroke-opacity:1; 
stroke-linecap:round; stroke-linejoin:round;">
</g>
<g style="fill:#000000; fill-opacity:1.0; 
stroke:#000000; stroke-width:1.000000; stroke-opacity:1; 
stroke-linecap:round; stroke-linejoin:round;">
<circle cx="148748750.000000" cy="99695000.000000" r="876300.000000" /> 
</g>
<g style="fill:#000000; fill-opacity:1.0; 
stroke:#000000; stroke-width:21200.000000; stroke-opacity:1; 
stroke-linecap:round; stroke-linejoin:round;">
</g>
<g style="fill:#000000; fill-opacity:1.0; 
stroke:#000000; stroke-width:1.000000; stroke-opacity:1; 
stroke-linecap:round; stroke-linejoin:round;">
<circle cx="151288750.000000" cy="99695000.000000" r="876300.000000" /> 
</g>
<g style="fill:#000000; fill-opacity:1.0; 
stroke:#000000; stroke-width:21200.000000; stroke-opacity:1; 
stroke-linecap:round; stroke-linejoin:round;">
</g>
<g style="fill:#000000; fill-opacity:1.0; 
stroke:#000000; stroke-width:1.000000; stroke-opacity:1; 
stroke-linecap:round; stroke-linejoin:round;">
<circle cx="153828750.000000" cy="99695000.000000" r="876300.000000" /> 
</g>
<g style="fill:#000000; fill-opacity:1.0; 
stroke:#000000; stroke-width:21200.000000; stroke-opacity:1; 
stroke-linecap:round; stroke-linejoin:round;">
</g>
<g style="fill:#000000; fill-opacity:1.0; 
stroke:#000000; stroke-width:1.000000; stroke-opacity:1; 
stroke-linecap:round; stroke-linejoin:round;">
<circle cx="156368750.000000" cy="99695000.000000" r="876300.000000" /> 
</g>
<g style="fill:#000000; fill-opacity:1.0; 
stroke:#000000; stroke-width:21200.000000; stroke-opacity:1; 
stroke-linecap:round; stroke-linejoin:round;">
</g>
<g style="fill:#000000; fill-opacity:1.0; 
stroke:#000000; stroke-width:1.000000; stroke-opacity:1; 
stroke-linecap:round; stroke-linejoin:round;">
<circle cx="158908750.000000" cy="99695000.000000" r="876300.000000" /> 
</g>
<g style="fill:#000000; fill-opacity:1.0; 
stroke:#000000; stroke-width:21200.000000; stroke-opacity:1; 
stroke-linecap:round; stroke-linejoin:round;">
</g>
<g style="fill:#000000; fill-opacity:1.0; 
stroke:#000000; stroke-width:1.000000; stroke-opacity:1; 
stroke-linecap:round; stroke-linejoin:round;">
<circle cx="161448750.000000" cy="99695000.000000" r="876300.000000" /> 
</g>
<g style="fill:#000000; fill-opacity:1.0; 
stroke:#000000; stroke-width:21200.000000; stroke-opacity:1; 
stroke-linecap:round; stroke-linejoin:round;">
</g>
<g style="fill:#000000; fill-opacity:1.0; 
stroke:#000000; stroke-width:1.000000; stroke-opacity:1; 
stroke-linecap:round; stroke-linejoin:round;">
<circle cx="163988750.000000" cy="99695000.000000" r="876300.000000" /> 
</g>
<g style="fill:#000000; fill-opacity:1.0; 
stroke:#000000; stroke-width:21200.000000; stroke-opacity:1; 
stroke-linecap:round; stroke-linejoin:round;">
</g>
<g style="fill:#000000; fill-opacity:1.0; 
stroke:#000000; stroke-width:1.000000; stroke-opacity:1; 
stroke-linecap:round; stroke-linejoin:round;">
<circle cx="163988750.000000" cy="84455000.000000" r="876300.000000" /> 
</g>
<g style="fill:#000000; fill-opacity:1.0; 
stroke:#000000; stroke-width:21200.000000; stroke-opacity:1; 
stroke-linecap:round; stroke-linejoin:round;">
</g>
<g style="fill:#000000; fill-opacity:1.0; 
stroke:#000000; stroke-width:1.000000; stroke-opacity:1; 
stroke-linecap:round; stroke-linejoin:round;">
<circle cx="161448750.000000" cy="84455000.000000" r="876300.000000" /> 
</g>
<g style="fill:#000000; fill-opacity:1.0; 
stroke:#000000; stroke-width:21200.000000; stroke-opacity:1; 
stroke-linecap:round; stroke-linejoin:round;">
</g>
<g style="fill:#000000; fill-opacity:1.0; 
stroke:#000000; stroke-width:1.000000; stroke-opacity:1; 
stroke-linecap:round; stroke-linejoin:round;">
<circle cx="158908750.000000" cy="84455000.000000" r="876300.000000" /> 
</g>
<g style="fill:#000000; fill-opacity:1.0; 
stroke:#000000; stroke-width:21200.000000; stroke-opacity:1; 
stroke-linecap:round; stroke-linejoin:round;">
</g>
<g style="fill:#000000; fill-opacity:1.0; 
stroke:#000000; stroke-width:1.000000; stroke-opacity:1; 
stroke-linecap:round; stroke-linejoin:round;">
<circle cx="156368750.000000" cy="84455000.000000" r="876300.000000" /> 
</g>
<g style="fill:#000000; fill-opacity:1.0; 
stroke:#000000; stroke-width:21200.000000; stroke-opacity:1; 
stroke-linecap:round; stroke-linejoin:round;">
</g>
<g style="fill:#000000; fill-opacity:1.0; 
stroke:#000000; stroke-width:1.000000; stroke-opacity:1; 
stroke-linecap:round; stroke-linejoin:round;">
<circle cx="153828750.000000" cy="84455000.000000" r="876300.000000" /> 
</g>
<g style="fill:#000000; fill-opacity:1.0; 
stroke:#000000; stroke-width:21200.000000; stroke-opacity:1; 
stroke-linecap:round; stroke-linejoin:round;">
</g>
<g style="fill:#000000; fill-opacity:1.0; 
stroke:#000000; stroke-width:1.000000; stroke-opacity:1; 
stroke-linecap:round; stroke-linejoin:round;">
<circle cx="151288750.000000" cy="84455000.000000" r="876300.000000" /> 
</g>
<g style="fill:#000000; fill-opacity:1.0; 
stroke:#000000; stroke-width:21200.000000; stroke-opacity:1; 
stroke-linecap:round; stroke-linejoin:round;">
</g>
<g style="fill:#000000; fill-opacity:1.0; 
stroke:#000000; stroke-width:1.000000; stroke-opacity:1; 
stroke-linecap:round; stroke-linejoin:round;">
<circle cx="148748750.000000" cy="84455000.000000" r="876300.000000" /> 
</g>
<g style="fill:#000000; fill-opacity:1.0; 
stroke:#000000; stroke-width:21200.000000; stroke-opacity:1; 
stroke-linecap:round; stroke-linejoin:round;">
</g>
<g style="fill:#000000; fill-opacity:1.0; 
stroke:#000000; stroke-width:1.000000; stroke-opacity:1; 
stroke-linecap:round; stroke-linejoin:round;">
<circle cx="146208750.000000" cy="84455000.000000" r="876300.000000" /> 
</g>
<g style="fill:#000000; fill-opacity:1.0; 
stroke:#000000; stroke-width:21200.000000; stroke-opacity:1; 
stroke-linecap:round; stroke-linejoin:round;">
</g>
<g style="fill:#000000; fill-opacity:1.0; 
stroke:#000000; stroke-width:1.000000; stroke-opacity:1; 
stroke-linecap:round; stroke-linejoin:round;">
<circle cx="143668750.000000" cy="84455000.000000" r="876300.000000" /> 
</g>
<g style="fill:#000000; fill-opacity:1.0; 
stroke:#000000; stroke-width:21200.000000; stroke-opacity:1; 
stroke-linecap:round; stroke-linejoin:round;">
</g>
<g style="fill:#000000; fill-opacity:1.0; 
stroke:#000000; stroke-width:1.000000; stroke-opacity:1; 
stroke-linecap:round; stroke-linejoin:round;">
<circle cx="141128750.000000" cy="84455000.000000" r="876300.000000" /> 
</g>
<g style="fill:#000000; fill-opacity:1.0; 
stroke:#000000; stroke-width:21200.000000; stroke-opacity:1; 
stroke-linecap:round; stroke-linejoin:round;">
</g>
<g style="fill:#000000; fill-opacity:1.0; 
stroke:#000000; stroke-width:1.000000; stroke-opacity:1; 
stroke-linecap:round; stroke-linejoin:round;">
<circle cx="138588750.000000" cy="84455000.000000" r="876300.000000" /> 
</g>
<g style="fill:#000000; fill-opacity:1.0; 
stroke:#000000; stroke-width:21200.000000; stroke-opacity:1; 
stroke-linecap:round; stroke-linejoin:round;">
</g>
<g style="fill:#000000; fill-opacity:1.0; 
stroke:#000000; stroke-width:1.000000; stroke-opacity:1; 
stroke-linecap:round; stroke-linejoin:round;">
<circle cx="136048750.000000" cy="84455000.000000" r="876300.000000" /> 
</g>
<g style="fill:#000000; fill-opacity:1.0; 
stroke:#000000; stroke-width:21200.000000; stroke-opacity:1; 
stroke-linecap:round; stroke-linejoin:round;">
</g>
<g >
</g>
<g >
</g>
<g >
</g>
<g style="fill:#000000; fill-opacity:1.0; 
stroke:#000000; stroke-width:21200.000000; stroke-opacity:1; 
stroke-linecap:round; stroke-linejoin:round;">
</g>
<g style="fill:#000000; fill-opacity:1.0; 
stroke:#000000; stroke-width:1.000000; stroke-opacity:1; 
stroke-linecap:round; stroke-linejoin:round;">
<circle cx="223837500.000000" cy="92075000.000000" r="1993900.000000" /> 
</g>
<g style="fill:#000000; fill-opacity:1.0; 
stroke:#000000; stroke-width:21200.000000; stroke-opacity:1; 
stroke-linecap:round; stroke-linejoin:round;">
</g>
<g style="fill:#000000; fill-opacity:1.0; 
stroke:#000000; stroke-width:1.000000; stroke-opacity:1; 
stroke-linecap:round; stroke-linejoin:round;">
<circle cx="228917500.000000" cy="92075000.000000" r="875000.000000" /> 
</g>
<g style="fill:#000000; fill-opacity:1.0; 
stroke:#000000; stroke-width:21200.000000; stroke-opacity:1; 
stroke-linecap:round; stroke-linejoin:round;">
</g>
<g style="fill:#000000; fill-opacity:1.0; 
stroke:#000000; stroke-width:1.000000; stroke-opacity:1; 
stroke-linecap:round; stroke-linejoin:round;">
<circle cx="218757500.000000" cy="92075000.000000" r="875000.000000" /> 
</g>
<g style="fill:#000000; fill-opacity:1.0; 
stroke:#000000; stroke-width:21200.000000; stroke-opacity:1; 
stroke-linecap:round; stroke-linejoin:round;">
</g>
<g style="fill:#000000; fill-opacity:1.0; 
stroke:#000000; stroke-width:1.000000; stroke-opacity:1; 
stroke-linecap:round; stroke-linejoin:round;">
<circle cx="220027500.000000" cy="89535000.000000" r="1125000.000000" /> 
</g>
<g style="fill:#000000; fill-opacity:1.0; 
stroke:#000000; stroke-width:21200.000000; stroke-opacity:1; 
stroke-linecap:round; stroke-linejoin:round;">
</g>
<g style="fill:#000000; fill-opacity:1.0; 
stroke:#000000; stroke-width:1.000000; stroke-opacity:1; 
stroke-linecap:round; stroke-linejoin:round;">
<circle cx="226377500.000000" cy="86995000.000000" r="1125000.000000" /> 
</g>
<g style="fill:#000000; fill-opacity:1.0; 
stroke:#000000; stroke-width:21200.000000; stroke-opacity:1; 
stroke-linecap:round; stroke-linejoin:round;">
</g>
<g >
</g>
<g >
</g>
<g style="fill:#000000; fill-opacity:1.0; 
stroke:#000000; stroke-width:21200.000000; stroke-opacity:1; 
stroke-linecap:round; stroke-linejoin:round;">
</g>
<g style="fill:#000000; fill-opacity:1.0; 
stroke:#000000; stroke-width:1.000000; stroke-opacity:1; 
stroke-linecap:round; stroke-linejoin:round;">
<circle cx="141287500.000000" cy="49212500.000000" r="1993900.000000" /> 
</g>
<g style="fill:#000000; fill-opacity:1.0; 
stroke:#000000; stroke-width:21200.000000; stroke-opacity:1; 
stroke-linecap:round; stroke-linejoin:round;">
</g>
<g style="fill:#000000; fill-opacity:1.0; 
stroke:#000000; stroke-width:1.000000; stroke-opacity:1; 
stroke-linecap:round; stroke-linejoin:round;">
<circle cx="136207500.000000" cy="49212500.000000" r="875000.000000" /> 
</g>
<g style="fill:#000000; fill-opacity:1.0; 
stroke:#000000; stroke-width:21200.000000; stroke-opacity:1; 
stroke-linecap:round; stroke-linejoin:round;">
</g>
<g style="fill:#000000; fill-opacity:1.0; 
stroke:#000000; stroke-width:1.000000; stroke-opacity:1; 
stroke-linecap:round; stroke-linejoin:round;">
<circle cx="146367500.000000" cy="49212500.000000" r="875000.000000" /> 
</g>
<g style="fill:#000000; fill-opacity:1.0; 
stroke:#000000; stroke-width:21200.000000; stroke-opacity:1; 
stroke-linecap:round; stroke-linejoin:round;">
</g>
<g style="fill:#000000; fill-opacity:1.0; 
stroke:#000000; stroke-width:1.000000; stroke-opacity:1; 
stroke-linecap:round; stroke-linejoin:round;">
<circle cx="137477500.000000" cy="46672500.000000" r="1125000.000000" /> 
</g>
<g style="fill:#000000; fill-opacity:1.0; 
stroke:#000000; stroke-width:21200.000000; stroke-opacity:1; 
stroke-linecap:round; stroke-linejoin:round;">
</g>
<g style="fill:#000000; fill-opacity:1.0; 
stroke:#000000; stroke-width:1.000000; stroke-opacity:1; 
stroke-linecap:round; stroke-linejoin:round;">
<circle cx="143827500.000000" cy="44132500.000000" r="1125000.000000" /> 
</g>
<g style="fill:#000000; fill-opacity:1.0; 
stroke:#000000; stroke-width:21200.000000; stroke-opacity:1; 
stroke-linecap:round; stroke-linejoin:round;">
</g>
<g >
</g>
<g >
</g>
<g style="fill:#000000; fill-opacity:1.0; 
stroke:#000000; stroke-width:21200.000000; stroke-opacity:1; 
stroke-linecap:round; stroke-linejoin:round;">
</g>
<g style="fill:#000000; fill-opacity:1.0; 
stroke:#000000; stroke-width:1.000000; stroke-opacity:1; 
stroke-linecap:round; stroke-linejoin:round;">
<circle cx="230978750.000000" cy="43681250.000000" r="600000.000000" /> 
</g>
<g style="fill:#000000; fill-opacity:1.0; 
stroke:#000000; stroke-width:21200.000000; stroke-opacity:1; 
stroke-linecap:round; stroke-linejoin:round;">
</g>
<g style="fill:#000000; fill-opacity:1.0; 
stroke:#000000; stroke-width:1.000000; stroke-opacity:1; 
stroke-linecap:round; stroke-linejoin:round;">
<circle cx="229768750.000000" cy="46181250.000000" r="875000.000000" /> 
</g>
<g style="fill:#000000; fill-opacity:1.0; 
stroke:#000000; stroke-width:21200.000000; stroke-opacity:1; 
stroke-linecap:round; stroke-linejoin:round;">
</g>
<g style="fill:#000000; fill-opacity:1.0; 
stroke:#000000; stroke-width:1.000000; stroke-opacity:1; 
stroke-linecap:round; stroke-linejoin:round;">
<circle cx="229768750.000000" cy="41181250.000000" r="875000.000000" /> 
</g>
<g style="fill:#000000; fill-opacity:1.0; 
stroke:#000000; stroke-width:21200.000000; stroke-opacity:1; 
stroke-linecap:round; stroke-linejoin:round;">
</g>
<g >
</g>
<g >
</g>
<g >
</g>
<g >
</g>
</g> 
</svg>
