<?xml version="1.0" standalone="no"?>
 <!DOCTYPE svg PUBLIC "-//W3C//DTD SVG 1.1//EN" 
 "http://www.w3.org/Graphics/SVG/1.1/DTD/svg11.dtd"> 
<svg
  xmlns:svg="http://www.w3.org/2000/svg"
  xmlns="http://www.w3.org/2000/svg"
  xmlns:xlink="http://www.w3.org/1999/xlink"
  version="1.1"
  width="29.700220cm" height="21.000720cm" viewBox="0 0 297002200 210007200">
<title>SVG Picture created as F14-DDP-B_Silkscreen.svg date 2022/09/13 17:56:38 </title>
  <desc>Picture generated by PCBNEW </desc>
<g style="fill:#000000; fill-opacity:1.000000;stroke:#000000; stroke-opacity:1.000000;
stroke-linecap:round; stroke-linejoin:round;"
 transform="translate(0 0) scale(1 1)">
</g>
<g style="fill:#000000; fill-opacity:0.0; 
stroke:#000000; stroke-width:0.000000; stroke-opacity:1; 
stroke-linecap:round; stroke-linejoin:round;">
</g>
<g style="fill:#000000; fill-opacity:0.0; 
stroke:#000000; stroke-width:150000.000000; stroke-opacity:1; 
stroke-linecap:round; stroke-linejoin:round;">
<g transform="rotate(-90.000000 141128750.000000 97536000.000000)">
<text x="141128750.000000" y="97936000.000000"
transform="scale(-1 1) translate(-282257500.000000 0)"
textLength="2243095.000000" font-size="1066666.000000" lengthAdjust="spacingAndGlyphs"
text-anchor="middle" opacity="0">GND</text>
</g>
<g class="stroked-text"><desc>GND</desc>
<path d="M140728750 96926476
L140690654 96850285
L140690654 96736000
L140728750 96621714
L140804940 96545523
L140881130 96507428
L141033511 96469333
L141147797 96469333
L141300178 96507428
L141376369 96545523
L141452559 96621714
L141490654 96736000
L141490654 96812190
L141452559 96926476
L141414464 96964571
L141147797 96964571
L141147797 96812190
" />
<path d="M141490654 97307428
L140690654 97307428
L141490654 97764571
L140690654 97764571
" />
<path d="M141490654 98145523
L140690654 98145523
L140690654 98336000
L140728750 98450285
L140804940 98526476
L140881130 98564571
L141033511 98602666
L141147797 98602666
L141300178 98564571
L141376369 98526476
L141452559 98450285
L141490654 98336000
L141490654 98145523
" />
</g><g transform="rotate(-90.000000 148748750.000000 97536000.000000)">
<text x="148748750.000000" y="97936000.000000"
transform="scale(-1 1) translate(-297497500.000000 0)"
textLength="1366905.000000" font-size="1066666.000000" lengthAdjust="spacingAndGlyphs"
text-anchor="middle" opacity="0">D0</text>
</g>
<g class="stroked-text"><desc>D0</desc>
<path d="M149110654 96945523
L148310654 96945523
L148310654 97136000
L148348750 97250285
L148424940 97326476
L148501130 97364571
L148653511 97402666
L148767797 97402666
L148920178 97364571
L148996369 97326476
L149072559 97250285
L149110654 97136000
L149110654 96945523
" />
<path d="M148310654 97897904
L148310654 97974095
L148348750 98050285
L148386845 98088380
L148463035 98126476
L148615416 98164571
L148805892 98164571
L148958273 98126476
L149034464 98088380
L149072559 98050285
L149110654 97974095
L149110654 97897904
L149072559 97821714
L149034464 97783619
L148958273 97745523
L148805892 97707428
L148615416 97707428
L148463035 97745523
L148386845 97783619
L148348750 97821714
L148310654 97897904
" />
</g><g transform="rotate(-90.000000 148748750.000000 88106250.000000)">
<text x="148748750.000000" y="88506250.000000"
transform="scale(-1 1) translate(-297497500.000000 0)"
textLength="1252619.000000" font-size="1066666.000000" lengthAdjust="spacingAndGlyphs"
text-anchor="middle" opacity="0">F5</text>
</g>
<g class="stroked-text"><desc>F5</desc>
<path d="M148691607 87839583
L148691607 87572916
" />
<path d="M149110654 87572916
L148310654 87572916
L148310654 87953869
" />
<path d="M148310654 88639583
L148310654 88258630
L148691607 88220535
L148653511 88258630
L148615416 88334821
L148615416 88525297
L148653511 88601488
L148691607 88639583
L148767797 88677678
L148958273 88677678
L149034464 88639583
L149072559 88601488
L149110654 88525297
L149110654 88334821
L149072559 88258630
L149034464 88220535
" />
</g><g transform="rotate(-90.000000 156368750.000000 86614000.000000)">
<text x="156368750.000000" y="87014000.000000"
transform="scale(-1 1) translate(-312737500.000000 0)"
textLength="1366905.000000" font-size="1066666.000000" lengthAdjust="spacingAndGlyphs"
text-anchor="middle" opacity="0">B1</text>
</g>
<g class="stroked-text"><desc>B1</desc>
<path d="M156311607 86290190
L156349702 86404476
L156387797 86442571
L156463988 86480666
L156578273 86480666
L156654464 86442571
L156692559 86404476
L156730654 86328285
L156730654 86023523
L155930654 86023523
L155930654 86290190
L155968750 86366380
L156006845 86404476
L156083035 86442571
L156159226 86442571
L156235416 86404476
L156273511 86366380
L156311607 86290190
L156311607 86023523
" />
<path d="M156730654 87242571
L156730654 86785428
" />
<path d="M156730654 87014000
L155930654 87014000
L156044940 86937809
L156121130 86861619
L156159226 86785428
" />
</g><g transform="rotate(-90.000000 143668750.000000 86614000.000000)">
<text x="143668750.000000" y="87014000.000000"
transform="scale(-1 1) translate(-287337500.000000 0)"
textLength="2090714.000000" font-size="1066666.000000" lengthAdjust="spacingAndGlyphs"
text-anchor="middle" opacity="0">VCC</text>
</g>
<g class="stroked-text"><desc>VCC</desc>
<path d="M143230654 85547333
L144030654 85814000
L143230654 86080666
" />
<path d="M143954464 86804476
L143992559 86766380
L144030654 86652095
L144030654 86575904
L143992559 86461619
L143916369 86385428
L143840178 86347333
L143687797 86309238
L143573511 86309238
L143421130 86347333
L143344940 86385428
L143268750 86461619
L143230654 86575904
L143230654 86652095
L143268750 86766380
L143306845 86804476
" />
<path d="M143954464 87604476
L143992559 87566380
L144030654 87452095
L144030654 87375904
L143992559 87261619
L143916369 87185428
L143840178 87147333
L143687797 87109238
L143573511 87109238
L143421130 87147333
L143344940 87185428
L143268750 87261619
L143230654 87375904
L143230654 87452095
L143268750 87566380
L143306845 87604476
" />
</g><g transform="rotate(-90.000000 153828750.000000 86614000.000000)">
<text x="153828750.000000" y="87014000.000000"
transform="scale(-1 1) translate(-307657500.000000 0)"
textLength="1252619.000000" font-size="1066666.000000" lengthAdjust="spacingAndGlyphs"
text-anchor="middle" opacity="0">F7</text>
</g>
<g class="stroked-text"><desc>F7</desc>
<path d="M153771607 86347333
L153771607 86080666
" />
<path d="M154190654 86080666
L153390654 86080666
L153390654 86461619
" />
<path d="M153390654 86690190
L153390654 87223523
L154190654 86880666
" />
</g><g transform="rotate(-90.000000 153828750.000000 97536000.000000)">
<text x="153828750.000000" y="97936000.000000"
transform="scale(-1 1) translate(-307657500.000000 0)"
textLength="1366905.000000" font-size="1066666.000000" lengthAdjust="spacingAndGlyphs"
text-anchor="middle" opacity="0">C6</text>
</g>
<g class="stroked-text"><desc>C6</desc>
<path d="M154114464 97402666
L154152559 97364571
L154190654 97250285
L154190654 97174095
L154152559 97059809
L154076369 96983619
L154000178 96945523
L153847797 96907428
L153733511 96907428
L153581130 96945523
L153504940 96983619
L153428750 97059809
L153390654 97174095
L153390654 97250285
L153428750 97364571
L153466845 97402666
" />
<path d="M153390654 98088380
L153390654 97936000
L153428750 97859809
L153466845 97821714
L153581130 97745523
L153733511 97707428
L154038273 97707428
L154114464 97745523
L154152559 97783619
L154190654 97859809
L154190654 98012190
L154152559 98088380
L154114464 98126476
L154038273 98164571
L153847797 98164571
L153771607 98126476
L153733511 98088380
L153695416 98012190
L153695416 97859809
L153733511 97783619
L153771607 97745523
L153847797 97707428
" />
</g><g transform="rotate(-90.000000 141108750.000000 87035000.000000)">
<text x="141108750.000000" y="87435000.000000"
transform="scale(-1 1) translate(-282217500.000000 0)"
textLength="1176429.000000" font-size="1066666.000000" lengthAdjust="spacingAndGlyphs"
text-anchor="middle" opacity="0">ST</text>
</g>
<g class="stroked-text"><desc>ST</desc>
<path d="M141432559 86501666
L141470654 86615952
L141470654 86806428
L141432559 86882619
L141394464 86920714
L141318273 86958809
L141242083 86958809
L141165892 86920714
L141127797 86882619
L141089702 86806428
L141051607 86654047
L141013511 86577857
L140975416 86539761
L140899226 86501666
L140823035 86501666
L140746845 86539761
L140708750 86577857
L140670654 86654047
L140670654 86844523
L140708750 86958809
" />
<path d="M140670654 87187380
L140670654 87644523
" />
<path d="M141470654 87415952
L140670654 87415952
" />
</g><g transform="rotate(-90.000000 146208750.000000 88106250.000000)">
<text x="146208750.000000" y="88506250.000000"
transform="scale(-1 1) translate(-292417500.000000 0)"
textLength="1252619.000000" font-size="1066666.000000" lengthAdjust="spacingAndGlyphs"
text-anchor="middle" opacity="0">F4</text>
</g>
<g class="stroked-text"><desc>F4</desc>
<path d="M146151607 87839583
L146151607 87572916
" />
<path d="M146570654 87572916
L145770654 87572916
L145770654 87953869
" />
<path d="M146037321 88601488
L146570654 88601488
" />
<path d="M145732559 88411011
L146303988 88220535
L146303988 88715773
" />
</g><g transform="rotate(-90.000000 136048750.000000 86614000.000000)">
<text x="136048750.000000" y="87014000.000000"
transform="scale(-1 1) translate(-272097500.000000 0)"
textLength="2205000.000000" font-size="1066666.000000" lengthAdjust="spacingAndGlyphs"
text-anchor="middle" opacity="0">RAW</text>
</g>
<g class="stroked-text"><desc>RAW</desc>
<path d="M136410654 86061619
L136029702 85794952
" />
<path d="M136410654 85604476
L135610654 85604476
L135610654 85909238
L135648750 85985428
L135686845 86023523
L135763035 86061619
L135877321 86061619
L135953511 86023523
L135991607 85985428
L136029702 85909238
L136029702 85604476
" />
<path d="M136182083 86366380
L136182083 86747333
" />
<path d="M136410654 86290190
L135610654 86556857
L136410654 86823523
" />
<path d="M135610654 87014000
L136410654 87204476
L135839226 87356857
L136410654 87509238
L135610654 87699714
" />
</g><g transform="rotate(-90.000000 151288750.000000 86614000.000000)">
<text x="151288750.000000" y="87014000.000000"
transform="scale(-1 1) translate(-302577500.000000 0)"
textLength="1252619.000000" font-size="1066666.000000" lengthAdjust="spacingAndGlyphs"
text-anchor="middle" opacity="0">F6</text>
</g>
<g class="stroked-text"><desc>F6</desc>
<path d="M151231607 86347333
L151231607 86080666
" />
<path d="M151650654 86080666
L150850654 86080666
L150850654 86461619
" />
<path d="M150850654 87109238
L150850654 86956857
L150888750 86880666
L150926845 86842571
L151041130 86766380
L151193511 86728285
L151498273 86728285
L151574464 86766380
L151612559 86804476
L151650654 86880666
L151650654 87033047
L151612559 87109238
L151574464 87147333
L151498273 87185428
L151307797 87185428
L151231607 87147333
L151193511 87109238
L151155416 87033047
L151155416 86880666
L151193511 86804476
L151231607 86766380
L151307797 86728285
" />
</g><g transform="rotate(-90.000000 163988750.000000 88900000.000000)">
<text x="163988750.000000" y="89300000.000000"
transform="scale(-1 1) translate(-327977500.000000 0)"
textLength="1366905.000000" font-size="1066666.000000" lengthAdjust="spacingAndGlyphs"
text-anchor="middle" opacity="0">B6</text>
</g>
<g class="stroked-text"><desc>B6</desc>
<path d="M163931607 88576190
L163969702 88690476
L164007797 88728571
L164083988 88766666
L164198273 88766666
L164274464 88728571
L164312559 88690476
L164350654 88614285
L164350654 88309523
L163550654 88309523
L163550654 88576190
L163588750 88652380
L163626845 88690476
L163703035 88728571
L163779226 88728571
L163855416 88690476
L163893511 88652380
L163931607 88576190
L163931607 88309523
" />
<path d="M163550654 89452380
L163550654 89300000
L163588750 89223809
L163626845 89185714
L163741130 89109523
L163893511 89071428
L164198273 89071428
L164274464 89109523
L164312559 89147619
L164350654 89223809
L164350654 89376190
L164312559 89452380
L164274464 89490476
L164198273 89528571
L164007797 89528571
L163931607 89490476
L163893511 89452380
L163855416 89376190
L163855416 89223809
L163893511 89147619
L163931607 89109523
L164007797 89071428
" />
</g><g transform="rotate(-90.000000 161448750.000000 86614000.000000)">
<text x="161448750.000000" y="87014000.000000"
transform="scale(-1 1) translate(-322897500.000000 0)"
textLength="1366905.000000" font-size="1066666.000000" lengthAdjust="spacingAndGlyphs"
text-anchor="middle" opacity="0">B2</text>
</g>
<g class="stroked-text"><desc>B2</desc>
<path d="M161391607 86290190
L161429702 86404476
L161467797 86442571
L161543988 86480666
L161658273 86480666
L161734464 86442571
L161772559 86404476
L161810654 86328285
L161810654 86023523
L161010654 86023523
L161010654 86290190
L161048750 86366380
L161086845 86404476
L161163035 86442571
L161239226 86442571
L161315416 86404476
L161353511 86366380
L161391607 86290190
L161391607 86023523
" />
<path d="M161086845 86785428
L161048750 86823523
L161010654 86899714
L161010654 87090190
L161048750 87166380
L161086845 87204476
L161163035 87242571
L161239226 87242571
L161353511 87204476
L161810654 86747333
L161810654 87242571
" />
</g><g transform="rotate(-90.000000 146208750.000000 97536000.000000)">
<text x="146208750.000000" y="97936000.000000"
transform="scale(-1 1) translate(-292417500.000000 0)"
textLength="1366905.000000" font-size="1066666.000000" lengthAdjust="spacingAndGlyphs"
text-anchor="middle" opacity="0">D1</text>
</g>
<g class="stroked-text"><desc>D1</desc>
<path d="M146570654 96945523
L145770654 96945523
L145770654 97136000
L145808750 97250285
L145884940 97326476
L145961130 97364571
L146113511 97402666
L146227797 97402666
L146380178 97364571
L146456369 97326476
L146532559 97250285
L146570654 97136000
L146570654 96945523
" />
<path d="M146570654 98164571
L146570654 97707428
" />
<path d="M146570654 97936000
L145770654 97936000
L145884940 97859809
L145961130 97783619
L145999226 97707428
" />
</g><g transform="rotate(-90.000000 156368750.000000 97536000.000000)">
<text x="156368750.000000" y="97936000.000000"
transform="scale(-1 1) translate(-312737500.000000 0)"
textLength="1366905.000000" font-size="1066666.000000" lengthAdjust="spacingAndGlyphs"
text-anchor="middle" opacity="0">D7</text>
</g>
<g class="stroked-text"><desc>D7</desc>
<path d="M156730654 96945523
L155930654 96945523
L155930654 97136000
L155968750 97250285
L156044940 97326476
L156121130 97364571
L156273511 97402666
L156387797 97402666
L156540178 97364571
L156616369 97326476
L156692559 97250285
L156730654 97136000
L156730654 96945523
" />
<path d="M155930654 97669333
L155930654 98202666
L156730654 97859809
" />
</g><g transform="rotate(-90.000000 138588750.000000 97536000.000000)">
<text x="138588750.000000" y="97936000.000000"
transform="scale(-1 1) translate(-277177500.000000 0)"
textLength="1366905.000000" font-size="1066666.000000" lengthAdjust="spacingAndGlyphs"
text-anchor="middle" opacity="0">D2</text>
</g>
<g class="stroked-text"><desc>D2</desc>
<path d="M138950654 96945523
L138150654 96945523
L138150654 97136000
L138188750 97250285
L138264940 97326476
L138341130 97364571
L138493511 97402666
L138607797 97402666
L138760178 97364571
L138836369 97326476
L138912559 97250285
L138950654 97136000
L138950654 96945523
" />
<path d="M138226845 97707428
L138188750 97745523
L138150654 97821714
L138150654 98012190
L138188750 98088380
L138226845 98126476
L138303035 98164571
L138379226 98164571
L138493511 98126476
L138950654 97669333
L138950654 98164571
" />
</g><g transform="rotate(-90.000000 161448750.000000 97536000.000000)">
<text x="161448750.000000" y="97936000.000000"
transform="scale(-1 1) translate(-322897500.000000 0)"
textLength="1366905.000000" font-size="1066666.000000" lengthAdjust="spacingAndGlyphs"
text-anchor="middle" opacity="0">B4</text>
</g>
<g class="stroked-text"><desc>B4</desc>
<path d="M161391607 97212190
L161429702 97326476
L161467797 97364571
L161543988 97402666
L161658273 97402666
L161734464 97364571
L161772559 97326476
L161810654 97250285
L161810654 96945523
L161010654 96945523
L161010654 97212190
L161048750 97288380
L161086845 97326476
L161163035 97364571
L161239226 97364571
L161315416 97326476
L161353511 97288380
L161391607 97212190
L161391607 96945523
" />
<path d="M161277321 98088380
L161810654 98088380
" />
<path d="M160972559 97897904
L161543988 97707428
L161543988 98202666
" />
</g><g transform="rotate(-90.000000 158908750.000000 97536000.000000)">
<text x="158908750.000000" y="97936000.000000"
transform="scale(-1 1) translate(-317817500.000000 0)"
textLength="1290714.000000" font-size="1066666.000000" lengthAdjust="spacingAndGlyphs"
text-anchor="middle" opacity="0">E6</text>
</g>
<g class="stroked-text"><desc>E6</desc>
<path d="M158851607 96983619
L158851607 97250285
" />
<path d="M159270654 97364571
L159270654 96983619
L158470654 96983619
L158470654 97364571
" />
<path d="M158470654 98050285
L158470654 97897904
L158508750 97821714
L158546845 97783619
L158661130 97707428
L158813511 97669333
L159118273 97669333
L159194464 97707428
L159232559 97745523
L159270654 97821714
L159270654 97974095
L159232559 98050285
L159194464 98088380
L159118273 98126476
L158927797 98126476
L158851607 98088380
L158813511 98050285
L158775416 97974095
L158775416 97821714
L158813511 97745523
L158851607 97707428
L158927797 97669333
" />
</g><g transform="rotate(-90.000000 158908750.000000 86614000.000000)">
<text x="158908750.000000" y="87014000.000000"
transform="scale(-1 1) translate(-317817500.000000 0)"
textLength="1366905.000000" font-size="1066666.000000" lengthAdjust="spacingAndGlyphs"
text-anchor="middle" opacity="0">B3</text>
</g>
<g class="stroked-text"><desc>B3</desc>
<path d="M158851607 86290190
L158889702 86404476
L158927797 86442571
L159003988 86480666
L159118273 86480666
L159194464 86442571
L159232559 86404476
L159270654 86328285
L159270654 86023523
L158470654 86023523
L158470654 86290190
L158508750 86366380
L158546845 86404476
L158623035 86442571
L158699226 86442571
L158775416 86404476
L158813511 86366380
L158851607 86290190
L158851607 86023523
" />
<path d="M158470654 86747333
L158470654 87242571
L158775416 86975904
L158775416 87090190
L158813511 87166380
L158851607 87204476
L158927797 87242571
L159118273 87242571
L159194464 87204476
L159232559 87166380
L159270654 87090190
L159270654 86861619
L159232559 86785428
L159194464 86747333
" />
</g><g transform="rotate(-90.000000 143668750.000000 97536000.000000)">
<text x="143668750.000000" y="97936000.000000"
transform="scale(-1 1) translate(-287337500.000000 0)"
textLength="2243095.000000" font-size="1066666.000000" lengthAdjust="spacingAndGlyphs"
text-anchor="middle" opacity="0">GND</text>
</g>
<g class="stroked-text"><desc>GND</desc>
<path d="M143268750 96926476
L143230654 96850285
L143230654 96736000
L143268750 96621714
L143344940 96545523
L143421130 96507428
L143573511 96469333
L143687797 96469333
L143840178 96507428
L143916369 96545523
L143992559 96621714
L144030654 96736000
L144030654 96812190
L143992559 96926476
L143954464 96964571
L143687797 96964571
L143687797 96812190
" />
<path d="M144030654 97307428
L143230654 97307428
L144030654 97764571
L143230654 97764571
" />
<path d="M144030654 98145523
L143230654 98145523
L143230654 98336000
L143268750 98450285
L143344940 98526476
L143421130 98564571
L143573511 98602666
L143687797 98602666
L143840178 98564571
L143916369 98526476
L143992559 98450285
L144030654 98336000
L144030654 98145523
" />
</g><g transform="rotate(-90.000000 163988750.000000 97536000.000000)">
<text x="163988750.000000" y="97936000.000000"
transform="scale(-1 1) translate(-327977500.000000 0)"
textLength="1366905.000000" font-size="1066666.000000" lengthAdjust="spacingAndGlyphs"
text-anchor="middle" opacity="0">B5</text>
</g>
<g class="stroked-text"><desc>B5</desc>
<path d="M163931607 97212190
L163969702 97326476
L164007797 97364571
L164083988 97402666
L164198273 97402666
L164274464 97364571
L164312559 97326476
L164350654 97250285
L164350654 96945523
L163550654 96945523
L163550654 97212190
L163588750 97288380
L163626845 97326476
L163703035 97364571
L163779226 97364571
L163855416 97326476
L163893511 97288380
L163931607 97212190
L163931607 96945523
" />
<path d="M163550654 98126476
L163550654 97745523
L163931607 97707428
L163893511 97745523
L163855416 97821714
L163855416 98012190
L163893511 98088380
L163931607 98126476
L164007797 98164571
L164198273 98164571
L164274464 98126476
L164312559 98088380
L164350654 98012190
L164350654 97821714
L164312559 97745523
L164274464 97707428
" />
</g><g transform="rotate(-90.000000 136048750.000000 95646872.000000)">
<text x="136048750.000000" y="96046872.000000"
transform="scale(-1 1) translate(-272097500.000000 0)"
textLength="4338333.000000" font-size="1066666.000000" lengthAdjust="spacingAndGlyphs"
text-anchor="middle" opacity="0">TX0/D3</text>
</g>
<g class="stroked-text"><desc>TX0/D3</desc>
<path d="M135610654 93456395
L135610654 93913538
" />
<path d="M136410654 93684967
L135610654 93684967
" />
<path d="M135610654 94104014
L136410654 94637348
" />
<path d="M135610654 94637348
L136410654 94104014
" />
<path d="M135610654 95094491
L135610654 95170681
L135648750 95246872
L135686845 95284967
L135763035 95323062
L135915416 95361157
L136105892 95361157
L136258273 95323062
L136334464 95284967
L136372559 95246872
L136410654 95170681
L136410654 95094491
L136372559 95018300
L136334464 94980205
L136258273 94942110
L136105892 94904014
L135915416 94904014
L135763035 94942110
L135686845 94980205
L135648750 95018300
L135610654 95094491
" />
<path d="M135572559 96275443
L136601130 95589729
" />
<path d="M136410654 96542110
L135610654 96542110
L135610654 96732586
L135648750 96846872
L135724940 96923062
L135801130 96961157
L135953511 96999252
L136067797 96999252
L136220178 96961157
L136296369 96923062
L136372559 96846872
L136410654 96732586
L136410654 96542110
" />
<path d="M135610654 97265919
L135610654 97761157
L135915416 97494491
L135915416 97608776
L135953511 97684967
L135991607 97723062
L136067797 97761157
L136258273 97761157
L136334464 97723062
L136372559 97684967
L136410654 97608776
L136410654 97380205
L136372559 97304014
L136334464 97265919
" />
</g><g transform="rotate(-90.000000 151288750.000000 97536000.000000)">
<text x="151288750.000000" y="97936000.000000"
transform="scale(-1 1) translate(-302577500.000000 0)"
textLength="1366905.000000" font-size="1066666.000000" lengthAdjust="spacingAndGlyphs"
text-anchor="middle" opacity="0">D4</text>
</g>
<g class="stroked-text"><desc>D4</desc>
<path d="M151650654 96945523
L150850654 96945523
L150850654 97136000
L150888750 97250285
L150964940 97326476
L151041130 97364571
L151193511 97402666
L151307797 97402666
L151460178 97364571
L151536369 97326476
L151612559 97250285
L151650654 97136000
L151650654 96945523
" />
<path d="M151117321 98088380
L151650654 98088380
" />
<path d="M150812559 97897904
L151383988 97707428
L151383988 98202666
" />
</g><g transform="rotate(-90.000000 138588750.000000 86614000.000000)">
<text x="138588750.000000" y="87014000.000000"
transform="scale(-1 1) translate(-277177500.000000 0)"
textLength="2243095.000000" font-size="1066666.000000" lengthAdjust="spacingAndGlyphs"
text-anchor="middle" opacity="0">GND</text>
</g>
<g class="stroked-text"><desc>GND</desc>
<path d="M138188750 86004476
L138150654 85928285
L138150654 85814000
L138188750 85699714
L138264940 85623523
L138341130 85585428
L138493511 85547333
L138607797 85547333
L138760178 85585428
L138836369 85623523
L138912559 85699714
L138950654 85814000
L138950654 85890190
L138912559 86004476
L138874464 86042571
L138607797 86042571
L138607797 85890190
" />
<path d="M138950654 86385428
L138150654 86385428
L138950654 86842571
L138150654 86842571
" />
<path d="M138950654 87223523
L138150654 87223523
L138150654 87414000
L138188750 87528285
L138264940 87604476
L138341130 87642571
L138493511 87680666
L138607797 87680666
L138760178 87642571
L138836369 87604476
L138912559 87528285
L138950654 87414000
L138950654 87223523
" />
</g><g transform="rotate(-90.000000 228088750.000000 43681250.000000)">
<text x="228088750.000000" y="44181250.000000"
transform="scale(-1 1) translate(-456177500.000000 0)"
textLength="2852619.000000" font-size="1333333.000000" lengthAdjust="spacingAndGlyphs"
text-anchor="middle" opacity="0">SW1</text>
</g>
<g class="stroked-text"><desc>SW1</desc>
<path d="M228493511 42347916
L228541130 42490773
L228541130 42728869
L228493511 42824107
L228445892 42871726
L228350654 42919345
L228255416 42919345
L228160178 42871726
L228112559 42824107
L228064940 42728869
L228017321 42538392
L227969702 42443154
L227922083 42395535
L227826845 42347916
L227731607 42347916
L227636369 42395535
L227588750 42443154
L227541130 42538392
L227541130 42776488
L227588750 42919345
" />
<path d="M227541130 43252678
L228541130 43490773
L227826845 43681250
L228541130 43871726
L227541130 44109821
" />
<path d="M228541130 45014583
L228541130 44443154
" />
<path d="M228541130 44728869
L227541130 44728869
L227683988 44633630
L227779226 44538392
L227826845 44443154
" />
</g></g>
<g style="fill:#000000; fill-opacity:0.0; 
stroke:#000000; stroke-width:381000.000000; stroke-opacity:1; 
stroke-linecap:round; stroke-linejoin:round;">
<path d="M137318750 98425000
L137318750 100965000
" />
<path d="M165258750 100965000
L165258750 83185000
" />
<path d="M134778750 98425000
L137318750 98425000
" />
<path d="M165258750 83185000
L132238750 83185000
" />
<path d="M132238750 100965000
L165258750 100965000
" />
<path d="M134778750 98425000
L134778750 100965000
" />
<path d="M132238750 83185000
L132238750 100965000
" />
</g>
<g style="fill:#000000; fill-opacity:1.0; 
stroke:#000000; stroke-width:150000.000000; stroke-opacity:1; 
stroke-linecap:round; stroke-linejoin:round;">
<path style="fill:#000000; fill-opacity:1.0; 
stroke:#000000; stroke-width:150000.000000; stroke-opacity:1; 
stroke-linecap:round; stroke-linejoin:round;fill-rule:evenodd;"
d="M 141467780.000000,86230365.000000
141267780.000000,86230365.000000
141267780.000000,86130365.000000
141467780.000000,86130365.000000
Z" /> 
<path style="fill:#000000; fill-opacity:1.0; 
stroke:#000000; stroke-width:150000.000000; stroke-opacity:1; 
stroke-linecap:round; stroke-linejoin:round;fill-rule:evenodd;"
d="M 141467780.000000,85830365.000000
140667780.000000,85830365.000000
140667780.000000,85730365.000000
141467780.000000,85730365.000000
Z" /> 
<path style="fill:#000000; fill-opacity:1.0; 
stroke:#000000; stroke-width:150000.000000; stroke-opacity:1; 
stroke-linecap:round; stroke-linejoin:round;fill-rule:evenodd;"
d="M 140767780.000000,86230365.000000
140667780.000000,86230365.000000
140667780.000000,85730365.000000
140767780.000000,85730365.000000
Z" /> 
<path style="fill:#000000; fill-opacity:1.0; 
stroke:#000000; stroke-width:150000.000000; stroke-opacity:1; 
stroke-linecap:round; stroke-linejoin:round;fill-rule:evenodd;"
d="M 140967780.000000,86230365.000000
140667780.000000,86230365.000000
140667780.000000,86130365.000000
140967780.000000,86130365.000000
Z" /> 
<path style="fill:#000000; fill-opacity:1.0; 
stroke:#000000; stroke-width:150000.000000; stroke-opacity:1; 
stroke-linecap:round; stroke-linejoin:round;fill-rule:evenodd;"
d="M 141167780.000000,86030365.000000
141067780.000000,86030365.000000
141067780.000000,85930365.000000
141167780.000000,85930365.000000
Z" /> 
</g>
<g style="fill:#000000; fill-opacity:1.0; 
stroke:#000000; stroke-width:120000.000000; stroke-opacity:1; 
stroke-linecap:round; stroke-linejoin:round;">
</g>
<g style="fill:#000000; fill-opacity:0.0; 
stroke:#000000; stroke-width:120000.000000; stroke-opacity:1; 
stroke-linecap:round; stroke-linejoin:round;">
<path d="M228798750 40341250
L228568750 40341250
" />
<path d="M228798750 40881250
L228798750 40341250
" />
<path d="M228798750 45381250
L228798750 41981250
" />
<path d="M232468750 39821250
L228568750 39821250
" />
<path d="M232468750 47541250
L228568750 47541250
" />
<path d="M228798750 47021250
L228798750 46481250
" />
<path d="M228798750 47021250
L228568750 47021250
" />
<path d="M232468750 47541250
L232468750 39821250
" />
<g >
</g>
<g >
</g>
<g >
</g>
<g >
</g>
<g >
</g>
<g >
</g>
<g >
</g>
<g >
</g>
<g >
</g>
<g >
</g>
<g >
</g>
<g >
</g>
<g >
</g>
<g >
</g>
<g >
</g>
<g >
</g>
<g style="fill:#000000; fill-opacity:0.0; 
stroke:#000000; stroke-width:120000.000000; stroke-opacity:1; 
stroke-linecap:round; stroke-linejoin:round;">
</g>
<g style="fill:#000000; fill-opacity:0.0; 
stroke:#000000; stroke-width:1.000000; stroke-opacity:1; 
stroke-linecap:round; stroke-linejoin:round;">
</g>
<g style="fill:#000000; fill-opacity:1.0; 
stroke:#000000; stroke-width:1.000000; stroke-opacity:1; 
stroke-linecap:round; stroke-linejoin:round;">
<path style="fill:#000000; fill-opacity:1.0; 
stroke:#000000; stroke-width:1.000000; stroke-opacity:1; 
stroke-linecap:round; stroke-linejoin:round;fill-rule:evenodd;"
d="M 135172451.000000,100571299.000000
135172451.000000,98818701.000000
136925049.000000,98818701.000000
136925049.000000,100571299.000000
Z" /> 
<circle cx="138588750.000000" cy="99695000.000000" r="876300.000000" /> 
</g>
<g style="fill:#000000; fill-opacity:1.0; 
stroke:#000000; stroke-width:21200.000000; stroke-opacity:1; 
stroke-linecap:round; stroke-linejoin:round;">
</g>
<g style="fill:#000000; fill-opacity:1.0; 
stroke:#000000; stroke-width:1.000000; stroke-opacity:1; 
stroke-linecap:round; stroke-linejoin:round;">
<circle cx="141128750.000000" cy="99695000.000000" r="876300.000000" /> 
</g>
<g style="fill:#000000; fill-opacity:1.0; 
stroke:#000000; stroke-width:21200.000000; stroke-opacity:1; 
stroke-linecap:round; stroke-linejoin:round;">
</g>
<g style="fill:#000000; fill-opacity:1.0; 
stroke:#000000; stroke-width:1.000000; stroke-opacity:1; 
stroke-linecap:round; stroke-linejoin:round;">
<circle cx="143668750.000000" cy="99695000.000000" r="876300.000000" /> 
</g>
<g style="fill:#000000; fill-opacity:1.0; 
stroke:#000000; stroke-width:21200.000000; stroke-opacity:1; 
stroke-linecap:round; stroke-linejoin:round;">
</g>
<g style="fill:#000000; fill-opacity:1.0; 
stroke:#000000; stroke-width:1.000000; stroke-opacity:1; 
stroke-linecap:round; stroke-linejoin:round;">
<circle cx="146208750.000000" cy="99695000.000000" r="876300.000000" /> 
</g>
<g style="fill:#000000; fill-opacity:1.0; 
stroke:#000000; stroke-width:21200.000000; stroke-opacity:1; 
stroke-linecap:round; stroke-linejoin:round;">
</g>
<g style="fill:#000000; fill-opacity:1.0; 
stroke:#000000; stroke-width:1.000000; stroke-opacity:1; 
stroke-linecap:round; stroke-linejoin:round;">
<circle cx="148748750.000000" cy="99695000.000000" r="876300.000000" /> 
</g>
<g style="fill:#000000; fill-opacity:1.0; 
stroke:#000000; stroke-width:21200.000000; stroke-opacity:1; 
stroke-linecap:round; stroke-linejoin:round;">
</g>
<g style="fill:#000000; fill-opacity:1.0; 
stroke:#000000; stroke-width:1.000000; stroke-opacity:1; 
stroke-linecap:round; stroke-linejoin:round;">
<circle cx="151288750.000000" cy="99695000.000000" r="876300.000000" /> 
</g>
<g style="fill:#000000; fill-opacity:1.0; 
stroke:#000000; stroke-width:21200.000000; stroke-opacity:1; 
stroke-linecap:round; stroke-linejoin:round;">
</g>
<g style="fill:#000000; fill-opacity:1.0; 
stroke:#000000; stroke-width:1.000000; stroke-opacity:1; 
stroke-linecap:round; stroke-linejoin:round;">
<circle cx="153828750.000000" cy="99695000.000000" r="876300.000000" /> 
</g>
<g style="fill:#000000; fill-opacity:1.0; 
stroke:#000000; stroke-width:21200.000000; stroke-opacity:1; 
stroke-linecap:round; stroke-linejoin:round;">
</g>
<g style="fill:#000000; fill-opacity:1.0; 
stroke:#000000; stroke-width:1.000000; stroke-opacity:1; 
stroke-linecap:round; stroke-linejoin:round;">
<circle cx="156368750.000000" cy="99695000.000000" r="876300.000000" /> 
</g>
<g style="fill:#000000; fill-opacity:1.0; 
stroke:#000000; stroke-width:21200.000000; stroke-opacity:1; 
stroke-linecap:round; stroke-linejoin:round;">
</g>
<g style="fill:#000000; fill-opacity:1.0; 
stroke:#000000; stroke-width:1.000000; stroke-opacity:1; 
stroke-linecap:round; stroke-linejoin:round;">
<circle cx="158908750.000000" cy="99695000.000000" r="876300.000000" /> 
</g>
<g style="fill:#000000; fill-opacity:1.0; 
stroke:#000000; stroke-width:21200.000000; stroke-opacity:1; 
stroke-linecap:round; stroke-linejoin:round;">
</g>
<g style="fill:#000000; fill-opacity:1.0; 
stroke:#000000; stroke-width:1.000000; stroke-opacity:1; 
stroke-linecap:round; stroke-linejoin:round;">
<circle cx="161448750.000000" cy="99695000.000000" r="876300.000000" /> 
</g>
<g style="fill:#000000; fill-opacity:1.0; 
stroke:#000000; stroke-width:21200.000000; stroke-opacity:1; 
stroke-linecap:round; stroke-linejoin:round;">
</g>
<g style="fill:#000000; fill-opacity:1.0; 
stroke:#000000; stroke-width:1.000000; stroke-opacity:1; 
stroke-linecap:round; stroke-linejoin:round;">
<circle cx="163988750.000000" cy="99695000.000000" r="876300.000000" /> 
</g>
<g style="fill:#000000; fill-opacity:1.0; 
stroke:#000000; stroke-width:21200.000000; stroke-opacity:1; 
stroke-linecap:round; stroke-linejoin:round;">
</g>
<g style="fill:#000000; fill-opacity:1.0; 
stroke:#000000; stroke-width:1.000000; stroke-opacity:1; 
stroke-linecap:round; stroke-linejoin:round;">
<circle cx="163988750.000000" cy="84455000.000000" r="876300.000000" /> 
</g>
<g style="fill:#000000; fill-opacity:1.0; 
stroke:#000000; stroke-width:21200.000000; stroke-opacity:1; 
stroke-linecap:round; stroke-linejoin:round;">
</g>
<g style="fill:#000000; fill-opacity:1.0; 
stroke:#000000; stroke-width:1.000000; stroke-opacity:1; 
stroke-linecap:round; stroke-linejoin:round;">
<circle cx="161448750.000000" cy="84455000.000000" r="876300.000000" /> 
</g>
<g style="fill:#000000; fill-opacity:1.0; 
stroke:#000000; stroke-width:21200.000000; stroke-opacity:1; 
stroke-linecap:round; stroke-linejoin:round;">
</g>
<g style="fill:#000000; fill-opacity:1.0; 
stroke:#000000; stroke-width:1.000000; stroke-opacity:1; 
stroke-linecap:round; stroke-linejoin:round;">
<circle cx="158908750.000000" cy="84455000.000000" r="876300.000000" /> 
</g>
<g style="fill:#000000; fill-opacity:1.0; 
stroke:#000000; stroke-width:21200.000000; stroke-opacity:1; 
stroke-linecap:round; stroke-linejoin:round;">
</g>
<g style="fill:#000000; fill-opacity:1.0; 
stroke:#000000; stroke-width:1.000000; stroke-opacity:1; 
stroke-linecap:round; stroke-linejoin:round;">
<circle cx="156368750.000000" cy="84455000.000000" r="876300.000000" /> 
</g>
<g style="fill:#000000; fill-opacity:1.0; 
stroke:#000000; stroke-width:21200.000000; stroke-opacity:1; 
stroke-linecap:round; stroke-linejoin:round;">
</g>
<g style="fill:#000000; fill-opacity:1.0; 
stroke:#000000; stroke-width:1.000000; stroke-opacity:1; 
stroke-linecap:round; stroke-linejoin:round;">
<circle cx="153828750.000000" cy="84455000.000000" r="876300.000000" /> 
</g>
<g style="fill:#000000; fill-opacity:1.0; 
stroke:#000000; stroke-width:21200.000000; stroke-opacity:1; 
stroke-linecap:round; stroke-linejoin:round;">
</g>
<g style="fill:#000000; fill-opacity:1.0; 
stroke:#000000; stroke-width:1.000000; stroke-opacity:1; 
stroke-linecap:round; stroke-linejoin:round;">
<circle cx="151288750.000000" cy="84455000.000000" r="876300.000000" /> 
</g>
<g style="fill:#000000; fill-opacity:1.0; 
stroke:#000000; stroke-width:21200.000000; stroke-opacity:1; 
stroke-linecap:round; stroke-linejoin:round;">
</g>
<g style="fill:#000000; fill-opacity:1.0; 
stroke:#000000; stroke-width:1.000000; stroke-opacity:1; 
stroke-linecap:round; stroke-linejoin:round;">
<circle cx="148748750.000000" cy="84455000.000000" r="876300.000000" /> 
</g>
<g style="fill:#000000; fill-opacity:1.0; 
stroke:#000000; stroke-width:21200.000000; stroke-opacity:1; 
stroke-linecap:round; stroke-linejoin:round;">
</g>
<g style="fill:#000000; fill-opacity:1.0; 
stroke:#000000; stroke-width:1.000000; stroke-opacity:1; 
stroke-linecap:round; stroke-linejoin:round;">
<circle cx="146208750.000000" cy="84455000.000000" r="876300.000000" /> 
</g>
<g style="fill:#000000; fill-opacity:1.0; 
stroke:#000000; stroke-width:21200.000000; stroke-opacity:1; 
stroke-linecap:round; stroke-linejoin:round;">
</g>
<g style="fill:#000000; fill-opacity:1.0; 
stroke:#000000; stroke-width:1.000000; stroke-opacity:1; 
stroke-linecap:round; stroke-linejoin:round;">
<circle cx="143668750.000000" cy="84455000.000000" r="876300.000000" /> 
</g>
<g style="fill:#000000; fill-opacity:1.0; 
stroke:#000000; stroke-width:21200.000000; stroke-opacity:1; 
stroke-linecap:round; stroke-linejoin:round;">
</g>
<g style="fill:#000000; fill-opacity:1.0; 
stroke:#000000; stroke-width:1.000000; stroke-opacity:1; 
stroke-linecap:round; stroke-linejoin:round;">
<circle cx="141128750.000000" cy="84455000.000000" r="876300.000000" /> 
</g>
<g style="fill:#000000; fill-opacity:1.0; 
stroke:#000000; stroke-width:21200.000000; stroke-opacity:1; 
stroke-linecap:round; stroke-linejoin:round;">
</g>
<g style="fill:#000000; fill-opacity:1.0; 
stroke:#000000; stroke-width:1.000000; stroke-opacity:1; 
stroke-linecap:round; stroke-linejoin:round;">
<circle cx="138588750.000000" cy="84455000.000000" r="876300.000000" /> 
</g>
<g style="fill:#000000; fill-opacity:1.0; 
stroke:#000000; stroke-width:21200.000000; stroke-opacity:1; 
stroke-linecap:round; stroke-linejoin:round;">
</g>
<g style="fill:#000000; fill-opacity:1.0; 
stroke:#000000; stroke-width:1.000000; stroke-opacity:1; 
stroke-linecap:round; stroke-linejoin:round;">
<circle cx="136048750.000000" cy="84455000.000000" r="876300.000000" /> 
</g>
<g style="fill:#000000; fill-opacity:1.0; 
stroke:#000000; stroke-width:21200.000000; stroke-opacity:1; 
stroke-linecap:round; stroke-linejoin:round;">
</g>
<g >
</g>
<g >
</g>
<g >
</g>
<g >
</g>
<g >
</g>
<g >
</g>
<g >
</g>
<g >
</g>
<g >
</g>
<g >
</g>
<g >
</g>
</g> 
</svg>
