%TF.GenerationSoftware,KiCad,Pcbnew,(6.0.4)*%
%TF.CreationDate,2022-05-05T19:26:59-04:00*%
%TF.ProjectId,F14-DDP,4631342d-4444-4502-9e6b-696361645f70,rev?*%
%TF.SameCoordinates,Original*%
%TF.FileFunction,Soldermask,Bot*%
%TF.FilePolarity,Negative*%
%FSLAX46Y46*%
G04 Gerber Fmt 4.6, Leading zero omitted, Abs format (unit mm)*
G04 Created by KiCad (PCBNEW (6.0.4)) date 2022-05-05 19:26:59*
%MOMM*%
%LPD*%
G01*
G04 APERTURE LIST*
%ADD10C,3.987800*%
%ADD11C,1.750000*%
%ADD12C,2.250000*%
%ADD13R,1.752600X1.752600*%
%ADD14C,1.752600*%
%ADD15C,1.200000*%
G04 APERTURE END LIST*
%TO.C,G\u002A\u002A\u002A*%
G36*
X194162159Y-55443280D02*
G01*
X194212649Y-55448167D01*
X194263703Y-55459677D01*
X194325189Y-55479615D01*
X194406974Y-55509787D01*
X194407429Y-55509958D01*
X194463458Y-55533627D01*
X194518443Y-55560408D01*
X194521264Y-55561902D01*
X194576895Y-55588202D01*
X194634153Y-55611156D01*
X194649717Y-55617423D01*
X194699828Y-55641869D01*
X194762742Y-55676294D01*
X194828478Y-55715347D01*
X194863819Y-55737117D01*
X194915681Y-55768444D01*
X194952679Y-55789979D01*
X194968488Y-55797987D01*
X194980213Y-55803902D01*
X195015818Y-55824160D01*
X195070659Y-55856238D01*
X195140137Y-55897441D01*
X195219652Y-55945077D01*
X195325258Y-56006366D01*
X195462712Y-56080162D01*
X195598521Y-56146998D01*
X195726434Y-56203971D01*
X195840201Y-56248177D01*
X195933572Y-56276712D01*
X195966418Y-56284781D01*
X196055337Y-56307282D01*
X196143163Y-56330327D01*
X196223811Y-56352241D01*
X196291194Y-56371351D01*
X196339225Y-56385984D01*
X196361818Y-56394466D01*
X196366457Y-56396770D01*
X196398831Y-56406789D01*
X196444551Y-56416528D01*
X196472235Y-56422017D01*
X196535533Y-56437013D01*
X196599429Y-56454495D01*
X196612910Y-56458390D01*
X196677744Y-56475623D01*
X196756443Y-56494942D01*
X196834915Y-56512853D01*
X196853870Y-56517018D01*
X196935922Y-56535694D01*
X197016149Y-56554813D01*
X197079567Y-56570822D01*
X197150639Y-56584996D01*
X197274452Y-56588498D01*
X197288204Y-56587226D01*
X197394979Y-56573381D01*
X197501292Y-56553427D01*
X197599150Y-56529300D01*
X197680557Y-56502939D01*
X197737519Y-56476279D01*
X197739125Y-56475319D01*
X197771679Y-56460047D01*
X197827064Y-56437715D01*
X197897946Y-56411175D01*
X197976990Y-56383273D01*
X198177121Y-56314727D01*
X198488563Y-56323279D01*
X198516007Y-56324052D01*
X198635563Y-56328157D01*
X198732290Y-56333276D01*
X198814231Y-56340221D01*
X198889424Y-56349803D01*
X198965911Y-56362834D01*
X199051731Y-56380125D01*
X199118413Y-56396550D01*
X199238714Y-56434623D01*
X199359869Y-56481681D01*
X199465861Y-56531856D01*
X199561079Y-56584615D01*
X199699051Y-56667360D01*
X199825597Y-56750580D01*
X199931256Y-56828250D01*
X199964013Y-56853437D01*
X200026525Y-56896367D01*
X200094398Y-56935013D01*
X200176181Y-56974024D01*
X200280424Y-57018047D01*
X200280580Y-57018110D01*
X200381585Y-57059145D01*
X200465732Y-57092510D01*
X200537955Y-57118997D01*
X200603188Y-57139398D01*
X200666365Y-57154508D01*
X200732418Y-57165118D01*
X200806283Y-57172021D01*
X200892893Y-57176010D01*
X200997182Y-57177878D01*
X201124083Y-57178418D01*
X201278529Y-57178421D01*
X201409592Y-57178467D01*
X201532915Y-57178796D01*
X201632424Y-57179691D01*
X201712741Y-57181431D01*
X201778489Y-57184299D01*
X201834290Y-57188576D01*
X201884767Y-57194542D01*
X201934542Y-57202481D01*
X201988238Y-57212672D01*
X202050476Y-57225396D01*
X202090916Y-57233937D01*
X202217356Y-57263763D01*
X202331272Y-57296854D01*
X202446256Y-57337464D01*
X202575900Y-57389847D01*
X202663871Y-57423413D01*
X202790654Y-57461428D01*
X202941309Y-57496197D01*
X202947097Y-57497387D01*
X203016136Y-57511706D01*
X203104951Y-57530285D01*
X203202714Y-57550852D01*
X203298598Y-57571137D01*
X203319596Y-57575589D01*
X203408057Y-57594236D01*
X203489652Y-57611280D01*
X203556081Y-57624993D01*
X203599046Y-57633649D01*
X203618755Y-57637526D01*
X203687012Y-57651244D01*
X203753329Y-57664896D01*
X203787662Y-57670169D01*
X203852343Y-57677032D01*
X203936482Y-57684035D01*
X204033040Y-57690604D01*
X204134979Y-57696160D01*
X204225936Y-57701134D01*
X204316145Y-57707445D01*
X204391897Y-57714192D01*
X204447192Y-57720834D01*
X204476028Y-57726834D01*
X204492412Y-57732133D01*
X204540248Y-57743974D01*
X204605517Y-57757724D01*
X204679033Y-57771365D01*
X204716113Y-57777913D01*
X204798541Y-57793214D01*
X204874324Y-57808171D01*
X204930759Y-57820315D01*
X204993471Y-57834675D01*
X205098651Y-57857289D01*
X205208498Y-57878762D01*
X205336769Y-57901859D01*
X205360557Y-57906060D01*
X205447831Y-57922027D01*
X205534454Y-57938577D01*
X205604736Y-57952730D01*
X205665929Y-57965352D01*
X205738043Y-57979731D01*
X205795421Y-57990659D01*
X205815998Y-57994956D01*
X205873118Y-58011489D01*
X205917224Y-58030264D01*
X205923438Y-58032388D01*
X205958991Y-58041319D01*
X206023949Y-58056166D01*
X206116683Y-58076589D01*
X206235562Y-58102249D01*
X206378959Y-58132806D01*
X206545244Y-58167919D01*
X206732788Y-58207247D01*
X206939961Y-58250451D01*
X207165135Y-58297191D01*
X207406680Y-58347127D01*
X207662967Y-58399917D01*
X207932367Y-58455222D01*
X208213251Y-58512703D01*
X208503990Y-58572018D01*
X208802955Y-58632827D01*
X211643884Y-59209807D01*
X211677507Y-59168045D01*
X211711948Y-59139119D01*
X211774201Y-59122500D01*
X211852129Y-59131935D01*
X211862446Y-59134652D01*
X211881616Y-59137258D01*
X211894935Y-59129832D01*
X211905474Y-59106922D01*
X211916305Y-59063078D01*
X211930500Y-58992847D01*
X211931936Y-58985674D01*
X211944692Y-58932562D01*
X211961254Y-58894835D01*
X211986302Y-58870963D01*
X212024515Y-58859412D01*
X212080573Y-58858652D01*
X212159157Y-58867150D01*
X212264945Y-58883375D01*
X212294252Y-58888255D01*
X212377658Y-58903755D01*
X212446490Y-58918942D01*
X212494884Y-58932434D01*
X212516972Y-58942845D01*
X212517903Y-58944051D01*
X212527170Y-58976890D01*
X212524954Y-59025544D01*
X212515669Y-59083876D01*
X212505521Y-59155399D01*
X212501296Y-59204003D01*
X212502974Y-59235247D01*
X212510529Y-59254693D01*
X212523940Y-59267899D01*
X212542589Y-59278081D01*
X212593035Y-59288597D01*
X212645241Y-59284058D01*
X212683782Y-59264766D01*
X212695924Y-59249126D01*
X212719338Y-59197112D01*
X212735941Y-59130158D01*
X212742305Y-59060237D01*
X212742439Y-59054132D01*
X212750231Y-59010153D01*
X212766317Y-58981471D01*
X212776798Y-58974595D01*
X212826477Y-58962995D01*
X212893453Y-58967987D01*
X212969762Y-58989266D01*
X212977655Y-58992088D01*
X213026997Y-59007495D01*
X213097701Y-59027455D01*
X213181521Y-59049696D01*
X213270209Y-59071950D01*
X213278708Y-59074021D01*
X213424404Y-59110694D01*
X213547132Y-59144364D01*
X213655440Y-59177648D01*
X213757875Y-59213166D01*
X213862984Y-59253534D01*
X213875343Y-59258318D01*
X213960338Y-59286251D01*
X214074148Y-59317227D01*
X214213882Y-59350506D01*
X214376648Y-59385345D01*
X214471393Y-59404963D01*
X214585668Y-59429986D01*
X214674017Y-59451757D01*
X214740062Y-59471584D01*
X214787426Y-59490776D01*
X214819728Y-59510640D01*
X214840592Y-59532484D01*
X214853640Y-59557617D01*
X214855795Y-59562785D01*
X214881425Y-59591457D01*
X214930057Y-59606840D01*
X214935828Y-59607846D01*
X214975291Y-59615188D01*
X215040746Y-59627713D01*
X215127607Y-59644529D01*
X215231290Y-59664747D01*
X215347211Y-59687477D01*
X215470785Y-59711829D01*
X215498360Y-59717257D01*
X215623942Y-59741497D01*
X215743242Y-59763787D01*
X215851151Y-59783221D01*
X215942560Y-59798897D01*
X216012360Y-59809908D01*
X216055439Y-59815350D01*
X216120901Y-59823357D01*
X216204690Y-59837767D01*
X216282805Y-59854859D01*
X216320652Y-59864129D01*
X216402621Y-59883307D01*
X216494715Y-59904039D01*
X216583253Y-59923212D01*
X216658019Y-59941280D01*
X216781859Y-59978523D01*
X216929409Y-60030243D01*
X217102946Y-60097204D01*
X217135593Y-60110217D01*
X217242817Y-60152544D01*
X217345955Y-60192685D01*
X217438502Y-60228139D01*
X217513951Y-60256409D01*
X217565797Y-60274994D01*
X217668248Y-60313518D01*
X217741892Y-60349904D01*
X217783285Y-60383062D01*
X217792452Y-60413080D01*
X217769420Y-60440047D01*
X217714213Y-60464051D01*
X217626858Y-60485182D01*
X217561421Y-60495309D01*
X217470090Y-60504649D01*
X217387153Y-60508622D01*
X217317482Y-60510912D01*
X217250050Y-60516089D01*
X217200388Y-60523014D01*
X217181563Y-60525301D01*
X217129942Y-60528449D01*
X217053185Y-60531349D01*
X216955620Y-60533893D01*
X216841574Y-60535973D01*
X216715372Y-60537484D01*
X216581343Y-60538318D01*
X216027260Y-60540186D01*
X215882623Y-60492522D01*
X215872901Y-60489346D01*
X215752389Y-60453939D01*
X215626528Y-60423293D01*
X215504216Y-60399181D01*
X215394350Y-60383375D01*
X215305829Y-60377646D01*
X215276057Y-60376205D01*
X215208728Y-60368902D01*
X215122764Y-60356486D01*
X215026114Y-60340142D01*
X214926731Y-60321057D01*
X214851869Y-60305833D01*
X214769757Y-60289348D01*
X214703209Y-60276229D01*
X214657639Y-60267542D01*
X214638464Y-60264352D01*
X214636802Y-60264852D01*
X214629322Y-60283677D01*
X214626283Y-60321343D01*
X214624000Y-60349560D01*
X214613294Y-60374410D01*
X214590136Y-60391571D01*
X214550544Y-60402019D01*
X214490538Y-60406728D01*
X214406135Y-60406672D01*
X214293355Y-60402826D01*
X214221542Y-60400152D01*
X214121955Y-60396985D01*
X214000720Y-60393496D01*
X213863286Y-60389833D01*
X213715099Y-60386139D01*
X213561606Y-60382561D01*
X213408253Y-60379243D01*
X213388149Y-60378818D01*
X213241797Y-60375269D01*
X213104711Y-60371166D01*
X212980760Y-60366675D01*
X212873812Y-60361967D01*
X212787737Y-60357208D01*
X212726401Y-60352566D01*
X212693675Y-60348210D01*
X212679614Y-60345046D01*
X212613994Y-60334415D01*
X212553560Y-60329768D01*
X212518791Y-60327701D01*
X212481635Y-60315720D01*
X212460436Y-60288224D01*
X212451839Y-60239738D01*
X212452491Y-60164786D01*
X212453898Y-60115103D01*
X212449231Y-60065826D01*
X212432185Y-60038056D01*
X212397824Y-60025443D01*
X212341209Y-60021634D01*
X212340767Y-60021625D01*
X212305826Y-60024598D01*
X212286478Y-60041502D01*
X212272278Y-60081395D01*
X212271035Y-60086003D01*
X212259898Y-60141533D01*
X212255274Y-60191464D01*
X212248547Y-60233466D01*
X212228608Y-60278573D01*
X212212496Y-60298135D01*
X212191885Y-60308822D01*
X212158534Y-60310623D01*
X212102745Y-60305624D01*
X212090614Y-60304247D01*
X212002651Y-60291880D01*
X211912507Y-60275695D01*
X211827059Y-60257287D01*
X211753188Y-60238253D01*
X211697771Y-60220188D01*
X211667689Y-60204688D01*
X211649065Y-60175610D01*
X211638719Y-60115027D01*
X211644298Y-60031957D01*
X211665823Y-59929710D01*
X211678294Y-59880248D01*
X211684667Y-59841789D01*
X211681772Y-59818573D01*
X211669883Y-59801988D01*
X211661311Y-59798830D01*
X211639243Y-59794623D01*
X211602747Y-59789410D01*
X211550768Y-59783095D01*
X211482248Y-59775584D01*
X211396133Y-59766783D01*
X211291367Y-59756598D01*
X211166893Y-59744935D01*
X211021657Y-59731700D01*
X210854603Y-59716799D01*
X210664674Y-59700137D01*
X210450815Y-59681620D01*
X210211971Y-59661154D01*
X209947085Y-59638646D01*
X209655102Y-59614000D01*
X209334965Y-59587124D01*
X208985620Y-59557922D01*
X208606011Y-59526300D01*
X208195081Y-59492165D01*
X207927623Y-59470014D01*
X207595580Y-59442621D01*
X207270843Y-59415951D01*
X206955084Y-59390134D01*
X206649972Y-59365305D01*
X206357179Y-59341595D01*
X206078375Y-59319139D01*
X205815231Y-59298067D01*
X205569418Y-59278514D01*
X205342606Y-59260612D01*
X205136467Y-59244493D01*
X204952670Y-59230292D01*
X204792887Y-59218139D01*
X204658789Y-59208169D01*
X204552045Y-59200514D01*
X204474327Y-59195307D01*
X204427306Y-59192681D01*
X204369160Y-59190120D01*
X204250902Y-59183461D01*
X204151280Y-59175020D01*
X204060573Y-59163670D01*
X203969057Y-59148284D01*
X203867012Y-59127735D01*
X203843774Y-59122885D01*
X203613519Y-59083835D01*
X203387920Y-59061032D01*
X203374006Y-59060135D01*
X203275133Y-59052963D01*
X203176421Y-59044607D01*
X203088627Y-59036035D01*
X203022511Y-59028211D01*
X203008701Y-59026634D01*
X202952600Y-59022560D01*
X202869924Y-59018518D01*
X202764916Y-59014637D01*
X202641820Y-59011047D01*
X202504880Y-59007877D01*
X202358338Y-59005257D01*
X202206438Y-59003316D01*
X201520288Y-58996335D01*
X201321336Y-59039199D01*
X201242636Y-59056083D01*
X201159986Y-59073674D01*
X201089585Y-59088516D01*
X201041181Y-59098543D01*
X200997095Y-59105869D01*
X200903057Y-59115420D01*
X200793768Y-59121125D01*
X200678718Y-59122905D01*
X200567399Y-59120682D01*
X200469301Y-59114377D01*
X200393915Y-59103911D01*
X200373819Y-59099565D01*
X200258935Y-59068471D01*
X200142037Y-59027750D01*
X200034563Y-58981741D01*
X199947953Y-58934782D01*
X199937012Y-58928133D01*
X199879402Y-58897836D01*
X199807341Y-58864855D01*
X199733828Y-58835233D01*
X199710761Y-58826662D01*
X199641430Y-58800743D01*
X199580474Y-58777740D01*
X199538943Y-58761816D01*
X199520789Y-58755277D01*
X199462213Y-58737790D01*
X199400900Y-58723124D01*
X199351226Y-58712946D01*
X199278160Y-58697795D01*
X199206015Y-58682682D01*
X199165977Y-58674340D01*
X199096121Y-58660607D01*
X199031207Y-58649538D01*
X198967080Y-58640922D01*
X198899581Y-58634553D01*
X198824553Y-58630222D01*
X198737840Y-58627720D01*
X198635284Y-58626840D01*
X198512729Y-58627373D01*
X198366016Y-58629112D01*
X198190989Y-58631847D01*
X198053205Y-58634048D01*
X197879194Y-58636622D01*
X197701896Y-58639048D01*
X197528463Y-58641235D01*
X197366048Y-58643095D01*
X197221804Y-58644538D01*
X197102882Y-58645474D01*
X197061189Y-58645726D01*
X196939244Y-58646236D01*
X196843997Y-58645999D01*
X196770984Y-58644742D01*
X196715742Y-58642189D01*
X196673805Y-58638068D01*
X196640710Y-58632103D01*
X196611993Y-58624021D01*
X196583189Y-58613546D01*
X196558433Y-58603959D01*
X196465198Y-58568237D01*
X196394396Y-58542138D01*
X196339733Y-58523640D01*
X196294917Y-58510722D01*
X196253657Y-58501362D01*
X196209659Y-58493538D01*
X196158903Y-58484993D01*
X196088018Y-58472342D01*
X196031015Y-58461396D01*
X196004265Y-58456042D01*
X195935923Y-58442941D01*
X195868611Y-58430627D01*
X195840704Y-58425385D01*
X195777498Y-58412737D01*
X195695157Y-58395700D01*
X195601215Y-58375837D01*
X195503202Y-58354715D01*
X195484369Y-58350624D01*
X195400876Y-58332913D01*
X195329794Y-58319133D01*
X195264711Y-58308611D01*
X195199214Y-58300672D01*
X195126893Y-58294641D01*
X195041335Y-58289844D01*
X194936129Y-58285606D01*
X194804864Y-58281253D01*
X194709790Y-58278063D01*
X194595729Y-58273760D01*
X194492435Y-58269353D01*
X194405334Y-58265092D01*
X194339851Y-58261227D01*
X194301411Y-58258008D01*
X194279240Y-58256007D01*
X194213363Y-58257885D01*
X194136758Y-58271743D01*
X194043554Y-58298880D01*
X193927882Y-58340592D01*
X193871781Y-58360966D01*
X193800800Y-58382351D01*
X193727849Y-58398122D01*
X193646838Y-58409048D01*
X193551672Y-58415895D01*
X193436259Y-58419432D01*
X193294506Y-58420428D01*
X193240828Y-58420376D01*
X193128591Y-58419637D01*
X193038011Y-58417459D01*
X192961399Y-58413135D01*
X192891064Y-58405954D01*
X192819317Y-58395210D01*
X192738469Y-58380192D01*
X192640829Y-58360193D01*
X192474365Y-58325358D01*
X192474365Y-55716785D01*
X192583988Y-55717025D01*
X192635642Y-55719173D01*
X192721864Y-55728486D01*
X192799173Y-55742624D01*
X192842957Y-55751351D01*
X192970344Y-55759650D01*
X193097466Y-55745538D01*
X193211832Y-55710004D01*
X193241127Y-55697531D01*
X193314699Y-55668682D01*
X193384151Y-55644100D01*
X193422192Y-55631030D01*
X193465854Y-55614120D01*
X193489391Y-55602430D01*
X193490222Y-55601853D01*
X193513813Y-55590911D01*
X193561005Y-55572055D01*
X193625380Y-55547774D01*
X193700516Y-55520558D01*
X193774428Y-55495011D01*
X193849263Y-55472191D01*
X193913394Y-55457779D01*
X193977570Y-55449467D01*
X194052541Y-55444947D01*
X194102365Y-55443211D01*
X194162159Y-55443280D01*
G37*
G36*
X209105836Y-44234856D02*
G01*
X209168561Y-44240340D01*
X209256564Y-44254212D01*
X209364608Y-44275270D01*
X209487455Y-44302310D01*
X209619867Y-44334130D01*
X209756609Y-44369528D01*
X209892441Y-44407299D01*
X210022127Y-44446242D01*
X210051189Y-44454870D01*
X210121201Y-44473976D01*
X210209599Y-44496725D01*
X210307976Y-44520974D01*
X210407925Y-44544580D01*
X210477366Y-44560907D01*
X210562872Y-44581948D01*
X210634610Y-44600670D01*
X210686600Y-44615500D01*
X210712862Y-44624862D01*
X210720422Y-44628271D01*
X210759790Y-44641285D01*
X210817993Y-44657076D01*
X210885399Y-44672960D01*
X210912279Y-44679036D01*
X210972777Y-44694314D01*
X211017826Y-44707964D01*
X211039226Y-44717604D01*
X211042928Y-44724968D01*
X211058254Y-44759955D01*
X211084559Y-44821953D01*
X211121070Y-44909092D01*
X211167017Y-45019505D01*
X211221628Y-45151323D01*
X211284131Y-45302678D01*
X211353757Y-45471701D01*
X211429733Y-45656525D01*
X211511289Y-45855281D01*
X211597653Y-46066101D01*
X211688055Y-46287116D01*
X211781722Y-46516458D01*
X211887340Y-46774926D01*
X212006346Y-47065238D01*
X212113473Y-47325462D01*
X212208713Y-47555584D01*
X212292062Y-47755591D01*
X212363513Y-47925469D01*
X212423062Y-48065204D01*
X212470702Y-48174783D01*
X212506428Y-48254193D01*
X212530233Y-48303420D01*
X212542113Y-48322450D01*
X212553031Y-48326313D01*
X212594028Y-48337832D01*
X212663239Y-48356041D01*
X212758692Y-48380453D01*
X212878414Y-48410581D01*
X213020431Y-48445938D01*
X213182772Y-48486038D01*
X213363463Y-48530394D01*
X213560532Y-48578519D01*
X213772005Y-48629926D01*
X213995910Y-48684129D01*
X214230274Y-48740639D01*
X214473124Y-48798971D01*
X216372127Y-49254240D01*
X216461450Y-49229374D01*
X216477146Y-49225038D01*
X216652535Y-49181029D01*
X216821661Y-49146333D01*
X216973023Y-49123336D01*
X216988503Y-49121437D01*
X217072721Y-49109191D01*
X217156844Y-49094359D01*
X217224749Y-49079734D01*
X217256010Y-49074137D01*
X217324537Y-49067007D01*
X217418040Y-49060725D01*
X217532146Y-49055329D01*
X217662486Y-49050856D01*
X217804687Y-49047346D01*
X217954378Y-49044835D01*
X218107189Y-49043361D01*
X218258749Y-49042963D01*
X218404686Y-49043677D01*
X218540629Y-49045542D01*
X218662208Y-49048596D01*
X218765051Y-49052876D01*
X218844788Y-49058420D01*
X218897046Y-49065266D01*
X218899793Y-49065819D01*
X218972924Y-49078373D01*
X219044810Y-49087300D01*
X219100264Y-49090698D01*
X219144690Y-49092936D01*
X219226870Y-49102116D01*
X219331413Y-49117421D01*
X219453139Y-49137803D01*
X219586869Y-49162217D01*
X219727426Y-49189616D01*
X219869630Y-49218955D01*
X220008302Y-49249187D01*
X220138265Y-49279266D01*
X220254340Y-49308146D01*
X220351348Y-49334781D01*
X220424109Y-49358124D01*
X220437272Y-49362641D01*
X220494936Y-49379815D01*
X220567826Y-49398989D01*
X220643355Y-49416795D01*
X220662407Y-49421060D01*
X220744249Y-49440589D01*
X220824067Y-49461243D01*
X220886961Y-49479204D01*
X220948167Y-49498218D01*
X221063430Y-49534389D01*
X221153222Y-49563445D01*
X221221419Y-49586951D01*
X221271900Y-49606475D01*
X221308542Y-49623584D01*
X221335223Y-49639845D01*
X221355820Y-49656823D01*
X221374212Y-49676087D01*
X221378345Y-49680280D01*
X221413459Y-49706118D01*
X221466763Y-49737257D01*
X221528457Y-49767864D01*
X221533407Y-49770110D01*
X221604617Y-49802684D01*
X221675522Y-49835511D01*
X221731462Y-49861806D01*
X221778281Y-49883606D01*
X221849286Y-49915641D01*
X221918227Y-49945841D01*
X221937718Y-49954281D01*
X221971004Y-49969274D01*
X222004632Y-49985588D01*
X222042531Y-50005422D01*
X222088629Y-50030975D01*
X222146858Y-50064448D01*
X222221145Y-50108041D01*
X222315421Y-50163953D01*
X222433615Y-50234384D01*
X222440084Y-50238237D01*
X222543491Y-50297325D01*
X222637787Y-50345087D01*
X222731226Y-50384695D01*
X222832063Y-50419324D01*
X222948552Y-50452148D01*
X223088948Y-50486339D01*
X223102686Y-50489565D01*
X223190925Y-50512211D01*
X223273479Y-50536379D01*
X223341640Y-50559374D01*
X223386699Y-50578499D01*
X223440658Y-50604348D01*
X223551504Y-50647110D01*
X223694133Y-50692408D01*
X223868837Y-50740340D01*
X223912948Y-50752184D01*
X223995510Y-50776384D01*
X224070648Y-50800737D01*
X224126269Y-50821432D01*
X224142074Y-50827984D01*
X224193142Y-50848771D01*
X224267663Y-50878826D01*
X224361202Y-50916371D01*
X224469325Y-50959628D01*
X224587595Y-51006817D01*
X224711577Y-51056159D01*
X224756922Y-51074250D01*
X224888178Y-51127315D01*
X225017472Y-51180534D01*
X225139141Y-51231519D01*
X225247526Y-51277882D01*
X225336964Y-51317238D01*
X225401795Y-51347199D01*
X225482531Y-51385372D01*
X225574627Y-51427331D01*
X225660398Y-51464941D01*
X225728476Y-51493123D01*
X225733909Y-51495274D01*
X225814185Y-51529939D01*
X225898628Y-51570600D01*
X225969823Y-51608905D01*
X225982609Y-51616350D01*
X226032999Y-51645122D01*
X226069933Y-51665308D01*
X226086166Y-51672923D01*
X226086286Y-51672935D01*
X226102621Y-51681847D01*
X226140427Y-51705000D01*
X226194203Y-51738965D01*
X226258447Y-51780314D01*
X226357350Y-51846163D01*
X226461394Y-51921510D01*
X226538713Y-51987054D01*
X226590839Y-52045025D01*
X226619303Y-52097652D01*
X226625635Y-52147166D01*
X226611367Y-52195797D01*
X226578029Y-52245773D01*
X226569062Y-52256404D01*
X226527051Y-52299007D01*
X226479012Y-52334035D01*
X226419698Y-52363767D01*
X226343864Y-52390480D01*
X226246265Y-52416453D01*
X226121655Y-52443963D01*
X226060981Y-52456773D01*
X225972809Y-52476163D01*
X225896795Y-52493788D01*
X225839501Y-52508112D01*
X225807492Y-52517595D01*
X225797622Y-52520668D01*
X225755807Y-52531006D01*
X225689758Y-52545738D01*
X225604693Y-52563826D01*
X225505831Y-52584233D01*
X225398390Y-52605921D01*
X225287590Y-52627852D01*
X225178649Y-52648989D01*
X225076787Y-52668293D01*
X224987223Y-52684727D01*
X224915174Y-52697254D01*
X224865861Y-52704835D01*
X224822625Y-52711357D01*
X224750027Y-52724256D01*
X224679097Y-52738624D01*
X224662821Y-52741974D01*
X224589708Y-52754178D01*
X224503841Y-52765398D01*
X224420561Y-52773562D01*
X224267588Y-52785391D01*
X224244614Y-52854442D01*
X224229435Y-52890644D01*
X224180390Y-52957643D01*
X224106402Y-53014578D01*
X224006129Y-53062014D01*
X223878225Y-53100515D01*
X223721346Y-53130648D01*
X223534148Y-53152976D01*
X223427566Y-53162591D01*
X223339439Y-53169352D01*
X223272114Y-53171793D01*
X223219629Y-53169209D01*
X223176020Y-53160899D01*
X223135323Y-53146159D01*
X223091576Y-53124287D01*
X223038815Y-53094578D01*
X223018147Y-53082838D01*
X222931977Y-53034860D01*
X222838504Y-52983966D01*
X222754608Y-52939373D01*
X222717761Y-52919977D01*
X222649600Y-52883348D01*
X222590990Y-52850947D01*
X222551603Y-52828077D01*
X222518898Y-52808489D01*
X222423661Y-52759750D01*
X222332320Y-52728407D01*
X222231200Y-52709393D01*
X222195136Y-52706401D01*
X222128469Y-52703071D01*
X222035695Y-52699651D01*
X221920093Y-52696223D01*
X221784938Y-52692867D01*
X221633508Y-52689664D01*
X221469078Y-52686695D01*
X221294926Y-52684042D01*
X221114327Y-52681785D01*
X221030819Y-52680849D01*
X220836141Y-52678565D01*
X220669930Y-52676391D01*
X220529292Y-52674214D01*
X220411334Y-52671921D01*
X220313162Y-52669399D01*
X220231883Y-52666535D01*
X220164602Y-52663217D01*
X220108427Y-52659332D01*
X220060462Y-52654766D01*
X220017815Y-52649407D01*
X219977591Y-52643142D01*
X219936897Y-52635857D01*
X219855863Y-52622859D01*
X219728692Y-52607794D01*
X219582636Y-52595254D01*
X219425324Y-52585982D01*
X219407967Y-52585192D01*
X219266125Y-52579838D01*
X219147318Y-52578506D01*
X219043907Y-52582235D01*
X218948251Y-52592065D01*
X218852706Y-52609035D01*
X218749634Y-52634185D01*
X218631391Y-52668554D01*
X218490337Y-52713182D01*
X218476101Y-52717831D01*
X218396122Y-52745272D01*
X218316576Y-52774377D01*
X218252781Y-52799574D01*
X218245521Y-52802606D01*
X218163106Y-52833257D01*
X218079297Y-52856358D01*
X217987908Y-52872784D01*
X217882752Y-52883406D01*
X217757644Y-52889096D01*
X217606398Y-52890727D01*
X217563080Y-52890623D01*
X217448157Y-52889211D01*
X217356034Y-52885750D01*
X217279418Y-52879721D01*
X217211020Y-52870608D01*
X217143547Y-52857893D01*
X217017167Y-52831363D01*
X216888097Y-52804908D01*
X216781801Y-52784033D01*
X216693401Y-52767813D01*
X216618018Y-52755325D01*
X216550772Y-52745644D01*
X216529119Y-52742693D01*
X216434720Y-52728304D01*
X216320324Y-52708666D01*
X216183023Y-52683244D01*
X216019909Y-52651505D01*
X215828074Y-52612915D01*
X215703598Y-52587711D01*
X215589763Y-52565369D01*
X215495946Y-52548341D01*
X215415950Y-52535907D01*
X215343576Y-52527347D01*
X215272626Y-52521941D01*
X215196901Y-52518969D01*
X215110205Y-52517711D01*
X215006338Y-52517446D01*
X214925236Y-52517196D01*
X214816410Y-52515559D01*
X214729010Y-52512000D01*
X214656225Y-52506058D01*
X214591242Y-52497277D01*
X214527246Y-52485198D01*
X214511051Y-52481876D01*
X214405897Y-52465214D01*
X214291033Y-52456010D01*
X214155312Y-52453307D01*
X214111398Y-52453486D01*
X214026762Y-52455238D01*
X213959098Y-52460014D01*
X213897542Y-52469246D01*
X213831231Y-52484365D01*
X213749301Y-52506802D01*
X213562537Y-52559961D01*
X213562537Y-52714584D01*
X213560678Y-52794829D01*
X213553651Y-52860843D01*
X213541405Y-52894927D01*
X213541370Y-52894968D01*
X213516069Y-52913778D01*
X213470173Y-52938341D01*
X213413596Y-52963351D01*
X213300045Y-53003825D01*
X213090867Y-53052992D01*
X212880439Y-53070063D01*
X212800687Y-53072547D01*
X212700462Y-53082181D01*
X212620593Y-53097875D01*
X212613600Y-53099698D01*
X212596041Y-53103336D01*
X212573594Y-53106644D01*
X212544634Y-53109647D01*
X212507539Y-53112370D01*
X212460686Y-53114839D01*
X212402452Y-53117078D01*
X212331214Y-53119114D01*
X212245349Y-53120971D01*
X212143233Y-53122675D01*
X212023245Y-53124252D01*
X211883760Y-53125727D01*
X211723155Y-53127124D01*
X211539809Y-53128470D01*
X211332097Y-53129790D01*
X211098396Y-53131109D01*
X210837084Y-53132453D01*
X210546537Y-53133847D01*
X210225132Y-53135315D01*
X209909045Y-53136723D01*
X209612226Y-53138056D01*
X209344533Y-53139330D01*
X209104258Y-53140612D01*
X208889695Y-53141968D01*
X208699139Y-53143466D01*
X208530883Y-53145172D01*
X208383220Y-53147153D01*
X208254445Y-53149476D01*
X208142851Y-53152208D01*
X208046731Y-53155416D01*
X207964380Y-53159167D01*
X207894091Y-53163527D01*
X207834157Y-53168564D01*
X207782874Y-53174344D01*
X207738533Y-53180934D01*
X207699429Y-53188402D01*
X207663856Y-53196813D01*
X207630107Y-53206235D01*
X207596476Y-53216735D01*
X207561257Y-53228380D01*
X207522743Y-53241236D01*
X207445003Y-53267720D01*
X207299350Y-53321247D01*
X207158768Y-53377706D01*
X207026478Y-53435456D01*
X206905702Y-53492858D01*
X206799661Y-53548274D01*
X206711577Y-53600063D01*
X206644671Y-53646586D01*
X206602165Y-53686204D01*
X206587281Y-53717277D01*
X206577010Y-53746833D01*
X206550740Y-53780254D01*
X206524969Y-53799045D01*
X206473458Y-53829659D01*
X206405338Y-53866463D01*
X206327679Y-53905880D01*
X206247553Y-53944335D01*
X206172033Y-53978250D01*
X206108189Y-54004050D01*
X206082164Y-54014222D01*
X206020588Y-54041600D01*
X205970145Y-54068026D01*
X205957641Y-54075187D01*
X205908358Y-54101104D01*
X205844023Y-54132907D01*
X205775260Y-54165295D01*
X205749450Y-54177255D01*
X205681112Y-54210036D01*
X205621214Y-54240223D01*
X205580375Y-54262517D01*
X205535517Y-54287993D01*
X205418843Y-54345988D01*
X205288089Y-54401524D01*
X205248734Y-54417526D01*
X205205709Y-54436639D01*
X205182526Y-54449098D01*
X205170900Y-54455791D01*
X205134058Y-54472326D01*
X205085043Y-54491479D01*
X205059131Y-54501584D01*
X204997498Y-54529220D01*
X204946999Y-54556215D01*
X204933499Y-54564288D01*
X204877713Y-54595525D01*
X204802618Y-54635643D01*
X204715058Y-54681175D01*
X204621877Y-54728656D01*
X204529923Y-54774619D01*
X204446039Y-54815598D01*
X204377071Y-54848125D01*
X204329864Y-54868735D01*
X204320236Y-54872472D01*
X204285567Y-54884650D01*
X204243374Y-54897330D01*
X204189604Y-54911496D01*
X204120204Y-54928131D01*
X204031121Y-54948219D01*
X203918301Y-54972742D01*
X203777690Y-55002684D01*
X203750475Y-55005693D01*
X203693995Y-55008818D01*
X203614546Y-55011610D01*
X203517110Y-55013929D01*
X203406668Y-55015632D01*
X203288205Y-55016579D01*
X203257629Y-55016700D01*
X203125692Y-55016801D01*
X203019990Y-55015900D01*
X202935337Y-55013736D01*
X202866550Y-55010051D01*
X202808446Y-55004583D01*
X202755840Y-54997073D01*
X202703551Y-54987261D01*
X202682185Y-54982993D01*
X202594208Y-54967187D01*
X202505183Y-54953440D01*
X202431468Y-54944332D01*
X202381409Y-54937559D01*
X202311146Y-54918708D01*
X202266639Y-54892330D01*
X202251092Y-54859922D01*
X202251160Y-54859676D01*
X202263823Y-54844381D01*
X202297011Y-54807968D01*
X202348787Y-54752478D01*
X202417212Y-54679951D01*
X202500350Y-54592427D01*
X202596262Y-54491946D01*
X202703012Y-54380549D01*
X202818662Y-54260274D01*
X202941274Y-54133163D01*
X202951242Y-54122845D01*
X203073349Y-53996271D01*
X203188344Y-53876763D01*
X203294290Y-53766355D01*
X203389250Y-53667078D01*
X203471288Y-53580965D01*
X203538468Y-53510047D01*
X203588853Y-53456358D01*
X203620506Y-53421929D01*
X203631492Y-53408793D01*
X203618832Y-53397320D01*
X203581485Y-53380714D01*
X203526890Y-53362174D01*
X203462568Y-53344234D01*
X203396040Y-53329430D01*
X203340542Y-53317931D01*
X203260358Y-53299450D01*
X203184915Y-53280369D01*
X203155445Y-53272973D01*
X203089223Y-53257683D01*
X203001131Y-53238300D01*
X202897128Y-53216107D01*
X202783172Y-53192388D01*
X202665222Y-53168425D01*
X202576277Y-53150260D01*
X202420271Y-53116274D01*
X202292746Y-53085166D01*
X202191178Y-53056299D01*
X202113048Y-53029038D01*
X202062843Y-53010308D01*
X201948283Y-52973746D01*
X201821854Y-52939886D01*
X201691984Y-52910546D01*
X201567099Y-52887546D01*
X201455625Y-52872704D01*
X201365989Y-52867837D01*
X201321703Y-52868893D01*
X201253594Y-52875514D01*
X201192640Y-52891099D01*
X201122383Y-52919110D01*
X201054080Y-52944314D01*
X200955309Y-52973064D01*
X200830809Y-53003847D01*
X200683892Y-53035782D01*
X200522996Y-53069027D01*
X200358694Y-53103666D01*
X200221634Y-53133500D01*
X200109263Y-53159132D01*
X200019030Y-53181167D01*
X199948382Y-53200207D01*
X199894766Y-53216858D01*
X199855631Y-53231721D01*
X199799320Y-53253181D01*
X199725819Y-53277060D01*
X199652626Y-53297546D01*
X199583051Y-53315577D01*
X199494733Y-53339416D01*
X199417140Y-53361261D01*
X199409666Y-53363340D01*
X199361230Y-53375295D01*
X199286162Y-53392425D01*
X199188645Y-53413832D01*
X199072863Y-53438619D01*
X198943000Y-53465886D01*
X198803239Y-53494737D01*
X198657764Y-53524273D01*
X198562358Y-53543458D01*
X198417052Y-53572490D01*
X198297352Y-53595956D01*
X198199290Y-53614447D01*
X198118900Y-53628554D01*
X198052214Y-53638870D01*
X197995265Y-53645984D01*
X197944087Y-53650488D01*
X197894711Y-53652974D01*
X197843171Y-53654031D01*
X197785499Y-53654253D01*
X197770008Y-53654249D01*
X197684030Y-53653858D01*
X197623752Y-53652215D01*
X197583277Y-53648468D01*
X197556713Y-53641763D01*
X197538162Y-53631245D01*
X197521730Y-53616062D01*
X197514967Y-53609745D01*
X197480067Y-53581691D01*
X197426213Y-53541672D01*
X197359391Y-53494069D01*
X197285586Y-53443261D01*
X197253203Y-53421108D01*
X197187469Y-53374501D01*
X197134656Y-53334790D01*
X197099508Y-53305618D01*
X197086770Y-53290627D01*
X197093639Y-53279980D01*
X197120403Y-53247673D01*
X197164969Y-53196943D01*
X197224770Y-53130630D01*
X197297242Y-53051574D01*
X197379817Y-52962615D01*
X197469930Y-52866593D01*
X197516686Y-52817004D01*
X197617118Y-52710310D01*
X197716432Y-52604589D01*
X197810387Y-52504366D01*
X197894743Y-52414166D01*
X197965261Y-52338515D01*
X198017701Y-52281938D01*
X198037923Y-52260218D01*
X198102734Y-52193110D01*
X198164519Y-52132512D01*
X198217104Y-52084355D01*
X198254316Y-52054572D01*
X198279621Y-52037426D01*
X198329020Y-52003988D01*
X198366330Y-51978772D01*
X198392283Y-51966383D01*
X198445188Y-51950849D01*
X198505793Y-51940185D01*
X198525033Y-51938018D01*
X198580965Y-51931482D01*
X198619889Y-51922888D01*
X198644784Y-51907170D01*
X198658633Y-51879257D01*
X198664416Y-51834081D01*
X198665113Y-51766573D01*
X198663706Y-51671666D01*
X198663499Y-51653883D01*
X198664492Y-51520984D01*
X198670949Y-51413674D01*
X198683687Y-51326082D01*
X198703525Y-51252335D01*
X198731280Y-51186561D01*
X198754673Y-51147091D01*
X198784780Y-51114328D01*
X198826134Y-51086860D01*
X198883920Y-51061965D01*
X198963328Y-51036919D01*
X199069543Y-51008999D01*
X199139508Y-50991256D01*
X199223477Y-50968487D01*
X199282043Y-50949940D01*
X199319079Y-50934149D01*
X199338459Y-50919645D01*
X199344058Y-50904959D01*
X199333324Y-50881841D01*
X199295564Y-50847350D01*
X199234609Y-50807139D01*
X199154647Y-50763467D01*
X199059862Y-50718592D01*
X198954441Y-50674775D01*
X198842570Y-50634274D01*
X198826592Y-50628898D01*
X198692295Y-50581210D01*
X198586602Y-50537877D01*
X198506619Y-50496882D01*
X198449450Y-50456205D01*
X198412200Y-50413829D01*
X198391973Y-50367735D01*
X198385874Y-50315904D01*
X198391058Y-50272546D01*
X198422647Y-50206129D01*
X198479755Y-50151843D01*
X198558715Y-50111917D01*
X198655860Y-50088577D01*
X198767524Y-50084051D01*
X198815557Y-50085755D01*
X198855474Y-50084364D01*
X198873650Y-50077837D01*
X198876117Y-50065122D01*
X198870437Y-50048893D01*
X198853808Y-50004081D01*
X198827020Y-49932847D01*
X198790837Y-49837205D01*
X198746027Y-49719166D01*
X198693357Y-49580742D01*
X198633591Y-49423946D01*
X198567498Y-49250789D01*
X198495842Y-49063285D01*
X198419391Y-48863444D01*
X198338911Y-48653280D01*
X198255169Y-48434804D01*
X198201112Y-48293742D01*
X198098417Y-48025107D01*
X198007165Y-47785424D01*
X197927041Y-47573841D01*
X197857731Y-47389505D01*
X197798920Y-47231564D01*
X197750295Y-47099165D01*
X197711540Y-46991456D01*
X197682342Y-46907584D01*
X197662386Y-46846696D01*
X197651358Y-46807939D01*
X197648943Y-46790462D01*
X197652405Y-46779239D01*
X197670966Y-46757910D01*
X197709598Y-46752836D01*
X197723416Y-46753224D01*
X197769192Y-46754860D01*
X197841496Y-46757627D01*
X197936735Y-46761384D01*
X198051317Y-46765985D01*
X198181649Y-46771288D01*
X198324140Y-46777149D01*
X198475196Y-46783424D01*
X198580364Y-46787698D01*
X198722867Y-46793099D01*
X198852939Y-46797577D01*
X198967242Y-46801042D01*
X199062441Y-46803403D01*
X199135199Y-46804571D01*
X199182182Y-46804456D01*
X199200053Y-46802967D01*
X199200192Y-46802610D01*
X199196164Y-46782715D01*
X199182974Y-46734888D01*
X199161450Y-46661805D01*
X199132415Y-46566138D01*
X199096696Y-46450561D01*
X199055119Y-46317747D01*
X199008508Y-46170369D01*
X198957690Y-46011101D01*
X198903489Y-45842616D01*
X198877415Y-45761855D01*
X198818041Y-45577597D01*
X198767828Y-45421014D01*
X198726117Y-45289811D01*
X198692246Y-45181692D01*
X198665556Y-45094360D01*
X198645386Y-45025520D01*
X198631075Y-44972877D01*
X198621962Y-44934134D01*
X198617388Y-44906996D01*
X198616691Y-44889166D01*
X198619211Y-44878350D01*
X198624288Y-44872251D01*
X198626190Y-44870808D01*
X198632304Y-44865827D01*
X198638621Y-44861708D01*
X198647828Y-44858484D01*
X198662614Y-44856184D01*
X198685666Y-44854840D01*
X198719672Y-44854481D01*
X198767321Y-44855140D01*
X198831300Y-44856846D01*
X198914297Y-44859632D01*
X199019000Y-44863526D01*
X199148096Y-44868561D01*
X199304274Y-44874766D01*
X199490222Y-44882174D01*
X199609928Y-44886885D01*
X199757572Y-44892562D01*
X199894082Y-44897664D01*
X200015905Y-44902066D01*
X200119486Y-44905643D01*
X200201274Y-44908269D01*
X200257714Y-44909819D01*
X200285254Y-44910169D01*
X200310773Y-44911053D01*
X200338149Y-44920608D01*
X200364629Y-44945532D01*
X200398937Y-44992115D01*
X200401794Y-44995788D01*
X200426960Y-45022929D01*
X200474574Y-45071014D01*
X200543627Y-45139082D01*
X200633111Y-45226167D01*
X200742017Y-45331308D01*
X200869336Y-45453542D01*
X201014060Y-45591905D01*
X201175180Y-45745434D01*
X201351688Y-45913166D01*
X201542575Y-46094138D01*
X201746831Y-46287387D01*
X201963450Y-46491949D01*
X202191421Y-46706863D01*
X202429736Y-46931165D01*
X202633052Y-47122383D01*
X202843164Y-47320009D01*
X203046357Y-47511144D01*
X203241343Y-47694574D01*
X203426833Y-47869087D01*
X203601539Y-48033472D01*
X203764174Y-48186516D01*
X203913449Y-48327008D01*
X204048077Y-48453734D01*
X204166770Y-48565483D01*
X204268240Y-48661042D01*
X204351199Y-48739200D01*
X204414358Y-48798744D01*
X204456431Y-48838462D01*
X204476128Y-48857142D01*
X204549311Y-48927393D01*
X206000167Y-48960355D01*
X206208369Y-48964984D01*
X206413832Y-48969344D01*
X206607812Y-48973253D01*
X206787977Y-48976673D01*
X206951995Y-48979567D01*
X207097534Y-48981898D01*
X207222262Y-48983629D01*
X207323846Y-48984722D01*
X207399955Y-48985140D01*
X207448257Y-48984846D01*
X207466420Y-48983802D01*
X207467673Y-48974525D01*
X207453157Y-48947008D01*
X207423573Y-48909817D01*
X207403210Y-48886107D01*
X207368408Y-48840147D01*
X207346359Y-48803711D01*
X207339389Y-48786725D01*
X207338383Y-48759455D01*
X207361102Y-48734773D01*
X207361550Y-48734361D01*
X207371589Y-48716722D01*
X207389784Y-48675731D01*
X207416359Y-48610784D01*
X207451542Y-48521276D01*
X207495559Y-48406603D01*
X207548635Y-48266159D01*
X207610998Y-48099340D01*
X207682872Y-47905541D01*
X207764484Y-47684157D01*
X207856061Y-47434584D01*
X207957828Y-47156217D01*
X208070012Y-46848451D01*
X208192839Y-46510681D01*
X208279125Y-46273021D01*
X208369514Y-46023766D01*
X208456239Y-45784315D01*
X208538680Y-45556394D01*
X208616214Y-45341730D01*
X208688223Y-45142050D01*
X208754085Y-44959078D01*
X208813179Y-44794543D01*
X208864884Y-44650170D01*
X208908581Y-44527686D01*
X208943647Y-44428817D01*
X208969464Y-44355289D01*
X208985408Y-44308830D01*
X208990861Y-44291164D01*
X208990982Y-44288631D01*
X209008081Y-44261755D01*
X209047892Y-44242306D01*
X209101513Y-44234815D01*
X209105836Y-44234856D01*
G37*
%TD*%
D10*
%TO.C,MX3*%
X184150000Y-49212500D03*
D11*
X179070000Y-49212500D03*
X189230000Y-49212500D03*
D12*
X180340000Y-46672500D03*
X186690000Y-44132500D03*
%TD*%
D11*
%TO.C,MX7*%
X209073750Y-73025000D03*
D10*
X203993750Y-73025000D03*
D11*
X198913750Y-73025000D03*
D12*
X200183750Y-70485000D03*
X206533750Y-67945000D03*
%TD*%
D11*
%TO.C,MX5*%
X166211250Y-73025000D03*
X156051250Y-73025000D03*
D10*
X161131250Y-73025000D03*
D12*
X157321250Y-70485000D03*
X163671250Y-67945000D03*
%TD*%
D11*
%TO.C,MX2*%
X166211250Y-49212500D03*
D10*
X161131250Y-49212500D03*
D11*
X156051250Y-49212500D03*
D12*
X157321250Y-46672500D03*
X163671250Y-44132500D03*
%TD*%
D10*
%TO.C,MX4*%
X141287500Y-73025000D03*
D11*
X136207500Y-73025000D03*
X146367500Y-73025000D03*
D12*
X137477500Y-70485000D03*
X143827500Y-67945000D03*
%TD*%
D11*
%TO.C,MX6*%
X179070000Y-73025000D03*
X189230000Y-73025000D03*
D10*
X184150000Y-73025000D03*
D12*
X180340000Y-70485000D03*
X186690000Y-67945000D03*
%TD*%
D10*
%TO.C,MX9*%
X203993750Y-92075000D03*
D11*
X209073750Y-92075000D03*
X198913750Y-92075000D03*
D12*
X200183750Y-89535000D03*
X206533750Y-86995000D03*
%TD*%
D11*
%TO.C,MX8*%
X189230000Y-92075000D03*
X179070000Y-92075000D03*
D10*
X184150000Y-92075000D03*
D12*
X180340000Y-89535000D03*
X186690000Y-86995000D03*
%TD*%
D13*
%TO.C,U1*%
X136048750Y-99695000D03*
D14*
X138588750Y-99695000D03*
X141128750Y-99695000D03*
X143668750Y-99695000D03*
X146208750Y-99695000D03*
X148748750Y-99695000D03*
X151288750Y-99695000D03*
X153828750Y-99695000D03*
X156368750Y-99695000D03*
X158908750Y-99695000D03*
X161448750Y-99695000D03*
X163988750Y-99695000D03*
X163988750Y-84455000D03*
X161448750Y-84455000D03*
X158908750Y-84455000D03*
X156368750Y-84455000D03*
X153828750Y-84455000D03*
X151288750Y-84455000D03*
X148748750Y-84455000D03*
X146208750Y-84455000D03*
X143668750Y-84455000D03*
X141128750Y-84455000D03*
X138588750Y-84455000D03*
X136048750Y-84455000D03*
%TD*%
D10*
%TO.C,MX10*%
X223837500Y-92075000D03*
D11*
X228917500Y-92075000D03*
X218757500Y-92075000D03*
D12*
X220027500Y-89535000D03*
X226377500Y-86995000D03*
%TD*%
D10*
%TO.C,MX1*%
X141287500Y-49212500D03*
D11*
X136207500Y-49212500D03*
X146367500Y-49212500D03*
D12*
X137477500Y-46672500D03*
X143827500Y-44132500D03*
%TD*%
D15*
%TO.C,SW1*%
X230978750Y-43681250D03*
D11*
X229768750Y-46181250D03*
X229768750Y-41181250D03*
%TD*%
M02*
